<svg width="98" height="60" viewBox="0 0 98 60" fill="none" xmlns="http://www.w3.org/2000/svg">
<path fill-rule="evenodd" clip-rule="evenodd" d="M22.5139 0C20.5457 0 18.9501 1.59557 18.9501 3.5638V8.83022L4.25545 5.92309C2.05225 5.48722 0 7.17323 0 9.41913V50.5809C0 52.8268 2.05226 54.5128 4.25546 54.0769L18.9501 51.1698V56.4362C18.9501 58.4044 20.5457 60 22.5139 60H75.3863C77.3545 60 78.9501 58.4044 78.9501 56.4362V51.1698L93.6448 54.0769C95.848 54.5128 97.9002 52.8268 97.9002 50.5809V9.41913C97.9002 7.17323 95.848 5.48722 93.6448 5.92309L78.9501 8.83022V3.56381C78.9501 1.59557 77.3545 0 75.3863 0H22.5139ZM24.0777 5.12761V54.8724H73.8225V5.12761H24.0777ZM4.45476 10.5036V49.4964L18.0626 46.8042V13.1957L4.45476 10.5036ZM93.4455 49.4964V10.5036L79.8376 13.1957V46.8042L93.4455 49.4964Z" fill="#20272D"/>
</svg>
