<svg width="24" height="24" viewBox="0 0 24 24" fill="none" xmlns="http://www.w3.org/2000/svg">
<path d="M12.1005 3.51555C12.491 3.12503 13.1242 3.12503 13.5147 3.51555L21.2675 11.2683C21.2761 11.2763 21.2845 11.2845 21.2929 11.2929C21.4883 11.4882 21.5859 11.7443 21.5858 12.0004C21.5859 12.2565 21.4883 12.5126 21.2929 12.7079C21.2845 12.7163 21.2761 12.7245 21.2675 12.7325L13.5147 20.4852C13.1242 20.8758 12.491 20.8758 12.1005 20.4852C11.71 20.0947 11.71 19.4616 12.1005 19.071L18.1712 13.0003H3C2.44772 13.0003 2 12.5526 2 12.0003C2 11.4481 2.44772 11.0003 3 11.0003H18.1711L12.1005 4.92976C11.71 4.53924 11.71 3.90607 12.1005 3.51555Z" fill="#001428"/>
</svg>
