<svg width="20" height="19" viewBox="0 0 20 19" fill="none" xmlns="http://www.w3.org/2000/svg">
<path fill-rule="evenodd" clip-rule="evenodd" d="M15.9699 2.72231L12.0507 6.45257C11.6478 6.84963 11.6478 7.49047 12.0507 7.88753C12.4902 8.28459 13.1495 8.28112 13.5524 7.88406L17.5083 4.12591V5.33454C17.5083 5.8953 17.9845 6.34808 18.5706 6.34808C19.1566 6.34808 19.6328 5.8953 19.6328 5.33454V0.688236H14.7612C14.1751 0.688236 13.699 1.14448 13.699 1.70524C13.699 2.266 14.1751 2.72231 14.7612 2.72231H15.9699Z" fill="black"/>
<path d="M2.81826 14.0447V15.2498L6.77416 11.4917C7.17708 11.0946 7.83639 11.0946 8.27594 11.4882C8.67885 11.8853 8.67885 12.5296 8.27594 12.9267L4.35667 16.657H5.56541C6.15147 16.657 6.62765 17.1097 6.62765 17.6705C6.62765 18.2313 6.15147 18.6875 5.56541 18.6875H0.693795V14.0447C0.693795 13.484 1.16997 13.0277 1.75603 13.0277C2.34209 13.0277 2.81826 13.484 2.81826 14.0447Z" fill="black"/>
</svg>
