<svg width="727" height="470" viewBox="0 0 727 470" fill="none" xmlns="http://www.w3.org/2000/svg">
<g filter="url(#filter0_f_1_1542)">
<path d="M409.416 123.735C423.838 117.011 431.049 113.648 439.443 112.204C446.826 110.935 454.815 110.677 462.264 111.468C470.734 112.367 478.146 115.257 492.972 121.038L633.403 175.795C649.913 182.233 658.168 185.452 661.349 189.368C664.146 192.813 664.269 196.617 661.699 200.236C658.778 204.349 650.748 208.093 634.687 215.583L270.966 385.189C256.544 391.914 249.333 395.276 240.94 396.72C233.557 397.989 225.568 398.247 218.118 397.456C209.649 396.557 202.236 393.667 187.411 387.886L46.9795 333.129C30.4694 326.691 22.2143 323.472 19.0338 319.556C16.2363 316.111 16.1134 312.307 18.683 308.689C21.6043 304.575 29.6345 300.831 45.695 293.342L409.416 123.735Z" fill="black" fill-opacity="0.1"/>
</g>
<g filter="url(#filter1_f_1_1542)">
<path d="M446.87 123.735C461.291 117.011 468.502 113.648 476.896 112.204C484.279 110.935 492.268 110.677 499.718 111.468C508.187 112.367 515.599 115.257 530.425 121.038L670.856 175.795C687.366 182.233 695.621 185.452 698.802 189.368C701.599 192.813 701.722 196.617 699.152 200.236C696.231 204.349 688.201 208.093 672.14 215.583L308.419 385.189C293.997 391.914 286.786 395.276 278.393 396.72C271.01 397.989 263.021 398.247 255.571 397.456C247.102 396.557 239.689 393.667 224.864 387.886L84.4326 333.129C67.9224 326.691 59.6674 323.472 56.4869 319.556C53.6893 316.111 53.5665 312.307 56.1361 308.689C59.0574 304.575 67.0876 300.831 83.1481 293.342L446.87 123.735Z" fill="black" fill-opacity="0.05"/>
</g>
<g filter="url(#filter2_f_1_1542)">
<path d="M433.955 119.861C448.376 113.136 455.587 109.774 463.981 108.33C471.364 107.06 479.353 106.802 486.803 107.593C495.272 108.492 502.685 111.383 517.51 117.164L657.941 171.921C674.451 178.359 682.706 181.577 685.887 185.494C688.684 188.939 688.807 192.743 686.238 196.361C683.316 200.474 675.286 204.219 659.226 211.708L295.504 381.314C281.083 388.039 273.872 391.402 265.478 392.845C258.095 394.115 250.106 394.373 242.656 393.582C234.187 392.683 226.774 389.792 211.949 384.012L71.5177 329.254C55.0076 322.817 46.7526 319.598 43.5721 315.681C40.7745 312.237 40.6517 308.432 43.2213 304.814C46.1425 300.701 54.1728 296.956 70.2333 289.467L433.955 119.861Z" fill="black" fill-opacity="0.05"/>
</g>
<path fill-rule="evenodd" clip-rule="evenodd" d="M664.716 162.47L663.537 193.447C663.596 195.28 662.984 197.135 661.7 198.944C658.778 203.057 650.748 206.802 634.688 214.291L270.966 383.897C256.544 390.622 249.334 393.985 240.94 395.428C233.557 396.698 225.568 396.956 218.118 396.165C209.649 395.266 202.236 392.375 187.411 386.595L46.9797 331.837C30.4696 325.4 22.2145 322.181 19.034 318.264C17.6808 316.598 16.9535 314.848 16.8539 313.075L16.8011 313.1L17.9829 282.039L38.8745 272.298L37.9856 295.66C40.32 294.557 42.8846 293.361 45.6952 292.05L409.417 122.444C423.838 115.719 431.049 112.357 439.443 110.913C446.826 109.643 454.815 109.385 462.265 110.176C470.734 111.075 478.147 113.966 492.972 119.747L633.403 174.504L633.406 174.505C637.228 175.995 640.608 177.313 643.584 178.507L643.824 172.212L664.716 162.47Z" fill="#E0E2E6"/>
<path fill-rule="evenodd" clip-rule="evenodd" d="M664.716 162.47L663.537 193.447C663.596 195.28 662.984 197.135 661.7 198.944C658.778 203.057 650.748 206.802 634.688 214.291L270.966 383.897C256.544 390.622 249.334 393.985 240.94 395.428C233.557 396.698 225.568 396.956 218.118 396.165C209.649 395.266 202.236 392.375 187.411 386.595L46.9797 331.837C30.4696 325.4 22.2145 322.181 19.034 318.264C17.6808 316.598 16.9535 314.848 16.8539 313.075L16.8011 313.1L17.9829 282.039L38.8745 272.298L37.9856 295.66C40.32 294.557 42.8846 293.361 45.6952 292.05L409.417 122.444C423.838 115.719 431.049 112.357 439.443 110.913C446.826 109.643 454.815 109.385 462.265 110.176C470.734 111.075 478.147 113.966 492.972 119.747L633.403 174.504L633.406 174.505C637.228 175.995 640.608 177.313 643.584 178.507L643.824 172.212L664.716 162.47Z" fill="url(#paint0_linear_1_1542)" fill-opacity="0.11"/>
<rect width="28.0325" height="3.22871" transform="matrix(-0.0183859 0.999831 -0.906308 0.422618 644.039 181.9)" fill="#5C6170" fill-opacity="0.19"/>
<rect width="28.0325" height="3.22871" transform="matrix(-0.0183859 0.999831 -0.906308 0.422618 284.116 349.735)" fill="#5C6170" fill-opacity="0.19"/>
<rect x="642.402" y="178.389" width="3.87445" height="3.22871" transform="rotate(65 642.402 178.389)" fill="#5C6170" fill-opacity="0.19"/>
<rect x="282.752" y="346.809" width="3.22871" height="3.22871" transform="rotate(65 282.752 346.809)" fill="#5C6170" fill-opacity="0.19"/>
<rect width="16.1475" height="80.072" rx="8.07375" transform="matrix(-0.0183859 0.999831 -0.906308 0.422618 435.89 284.462)" fill="#5C6170" fill-opacity="0.19"/>
<rect width="11.9351" height="63.9285" rx="5.96756" transform="matrix(-0.0183859 0.999831 -0.906308 0.422618 546.462 234.99)" fill="#5C6170" fill-opacity="0.19"/>
<rect width="11.9351" height="63.9285" rx="5.96756" transform="matrix(-0.0183859 0.999831 -0.906308 0.422618 547.715 235.804)" fill="#EAEAEC"/>
<rect width="6.10866" height="6.10866" rx="3.05433" transform="matrix(0.927744 0.373217 -0.12157 0.992583 58.9616 317.976)" fill="#5C6170" fill-opacity="0.19"/>
<rect width="6.10866" height="6.10866" rx="3.05433" transform="matrix(0.927744 0.373217 -0.12157 0.992583 67.4625 321.396)" fill="#5C6170" fill-opacity="0.19"/>
<rect width="6.10866" height="6.10866" rx="3.05433" transform="matrix(0.927744 0.373217 -0.12157 0.992583 75.9633 324.816)" fill="#5C6170" fill-opacity="0.19"/>
<rect width="6.10866" height="6.10866" rx="3.05433" transform="matrix(0.927744 0.373217 -0.12157 0.992583 90.6984 330.743)" fill="#5C6170" fill-opacity="0.19"/>
<rect width="31.5567" height="9.01535" rx="4.50767" transform="matrix(0.927744 0.373217 -0.12157 0.992583 99.9427 332.949)" fill="#5C6170" fill-opacity="0.19"/>
<path fill-rule="evenodd" clip-rule="evenodd" d="M103.177 334.367C102.392 334.888 101.842 335.784 101.699 336.954C101.396 339.425 103.023 342.182 105.333 343.111L126.245 351.523C126.566 351.653 126.884 351.74 127.193 351.787C127.978 351.266 128.528 350.37 128.671 349.2C128.974 346.729 127.347 343.973 125.037 343.044L104.125 334.631C103.804 334.502 103.486 334.415 103.177 334.367Z" fill="#A8AEB8"/>
<rect width="6.10866" height="6.10866" rx="3.05433" transform="matrix(0.927744 0.373217 -0.12157 0.992583 132.443 347.536)" fill="#5C6170" fill-opacity="0.19"/>
<rect width="6.10866" height="6.10866" rx="3.05433" transform="matrix(0.927744 0.373217 -0.12157 0.992583 147.178 353.464)" fill="#5C6170" fill-opacity="0.19"/>
<rect width="6.10866" height="6.10866" rx="3.05433" transform="matrix(0.927744 0.373217 -0.12157 0.992583 155.679 356.884)" fill="#5C6170" fill-opacity="0.19"/>
<rect width="6.10866" height="6.10866" rx="3.05433" transform="matrix(0.927744 0.373217 -0.12157 0.992583 164.18 360.304)" fill="#5C6170" fill-opacity="0.19"/>
<rect width="6.10866" height="6.10866" rx="3.05433" transform="matrix(0.927744 0.373217 -0.12157 0.992583 172.681 363.724)" fill="#5C6170" fill-opacity="0.19"/>
<rect width="6.10866" height="6.10866" rx="3.05433" transform="matrix(0.927744 0.373217 -0.12157 0.992583 181.181 367.143)" fill="#5C6170" fill-opacity="0.19"/>
<path fill-rule="evenodd" clip-rule="evenodd" d="M45.5861 301.256L47.0307 298.977L44.3037 297.248L42.5751 299.975L42.5827 299.98L41.5881 329.73L44.5948 330.907L45.5861 301.256Z" fill="#5C6170" fill-opacity="0.19"/>
<path d="M410.557 91.2749C424.979 84.5499 432.19 81.1874 440.584 79.7438C447.967 78.474 455.956 78.2161 463.405 79.0071C471.875 79.9063 479.287 82.7967 494.113 88.5774L634.544 143.335C651.054 149.772 659.309 152.991 662.49 156.908C665.287 160.353 665.41 164.157 662.84 167.775C659.919 171.888 651.889 175.633 635.828 183.122L272.107 352.728C257.685 359.453 250.474 362.815 242.081 364.259C234.698 365.529 226.709 365.787 219.259 364.996C210.79 364.097 203.377 361.206 188.552 355.425L48.1205 300.668C31.6104 294.23 23.3553 291.012 20.1749 287.095C17.3773 283.65 17.2545 279.846 19.8241 276.228C22.7453 272.115 30.7756 268.37 46.8361 260.881L410.557 91.2749Z" fill="#EAEAEC"/>
<path d="M410.518 92.0725C424.94 85.3475 432.151 81.9851 440.544 80.5415C447.927 79.2717 455.916 79.0138 463.366 79.8047C471.835 80.7039 479.248 83.5943 494.073 89.3751L634.742 144.225C649.905 150.137 657.486 153.093 660.407 156.69C662.976 159.854 663.089 163.347 660.729 166.67C658.046 170.448 650.671 173.887 635.922 180.764L271.966 350.48C257.545 357.205 250.334 360.567 241.94 362.011C234.557 363.28 226.568 363.538 219.118 362.747C210.649 361.848 203.236 358.958 188.411 353.177L47.7421 298.327C32.5798 292.415 24.9986 289.459 22.0778 285.862C19.5086 282.698 19.3958 279.205 21.7556 275.882C24.4384 272.104 31.8131 268.666 46.5626 261.788L410.518 92.0725Z" fill="#E0E2E6"/>
<g clip-path="url(#clip0_1_1542)">
<g clip-path="url(#clip1_1_1542)">
<rect width="235.793" height="485.594" rx="5.16594" transform="matrix(0.931679 0.363283 -0.906308 0.422618 451.785 75.0336)" fill="white"/>
<g clip-path="url(#clip2_1_1542)">
<rect width="235.793" height="485.594" rx="5.16594" transform="matrix(0.931679 0.363283 -0.906308 0.422618 451.785 75.0336)" fill="white"/>
<g clip-path="url(#clip3_1_1542)">
<rect width="233.993" height="481.034" rx="7.7489" transform="matrix(0.931679 0.363283 -0.906308 0.422618 450.837 76.433)" fill="#FFFAF6"/>
<path d="M393.986 108.579L398.761 106.352L399.555 106.662L394.78 108.889L393.986 108.579ZM395.824 107.011L396.526 106.684L398.981 107.641L398.279 107.968L395.824 107.011ZM397.462 109.995C397.125 109.864 396.897 109.708 396.777 109.529C396.662 109.348 396.656 109.163 396.759 108.975C396.867 108.789 397.085 108.619 397.413 108.466C397.741 108.314 398.115 108.207 398.536 108.147C398.962 108.088 399.389 108.076 399.818 108.111C400.251 108.144 400.637 108.226 400.974 108.358C401.315 108.491 401.546 108.647 401.666 108.826C401.786 109.005 401.792 109.188 401.684 109.374C401.585 109.56 401.372 109.73 401.044 109.882C400.716 110.035 400.337 110.142 399.907 110.203C399.481 110.265 399.052 110.28 398.618 110.247C398.189 110.212 397.804 110.128 397.462 109.995ZM398.207 109.648C398.404 109.725 398.619 109.773 398.853 109.792C399.096 109.81 399.335 109.799 399.572 109.759C399.813 109.721 400.032 109.656 400.228 109.564C400.425 109.473 400.555 109.375 400.618 109.271C400.681 109.168 400.68 109.067 400.616 108.97C400.555 108.87 400.426 108.782 400.229 108.705C400.037 108.63 399.819 108.583 399.576 108.564C399.342 108.545 399.107 108.554 398.871 108.59C398.639 108.628 398.425 108.693 398.229 108.784C398.032 108.876 397.897 108.974 397.825 109.078C397.757 109.184 397.753 109.287 397.813 109.386C397.883 109.486 398.014 109.573 398.207 109.648ZM401.249 111.471C400.936 111.349 400.729 111.203 400.628 111.031C400.533 110.861 400.541 110.686 400.654 110.506C400.777 110.325 401.002 110.158 401.33 110.006C401.662 109.851 402.031 109.74 402.438 109.674C402.854 109.608 403.265 109.588 403.669 109.613C404.084 109.638 404.447 109.712 404.76 109.834C405.025 109.937 405.202 110.054 405.292 110.186C405.391 110.317 405.405 110.45 405.333 110.587C405.262 110.723 405.104 110.848 404.861 110.962L403.891 111.413C403.648 111.527 403.37 111.605 403.058 111.648C402.75 111.692 402.437 111.7 402.118 111.672C401.803 111.641 401.513 111.575 401.249 111.471ZM402.109 111.181C402.306 111.258 402.519 111.305 402.748 111.322C402.986 111.339 403.223 111.327 403.46 111.287C403.696 111.247 403.915 111.18 404.116 111.086C404.317 110.992 404.454 110.893 404.527 110.789C404.6 110.685 404.604 110.585 404.539 110.487C404.483 110.39 404.359 110.303 404.167 110.228C403.969 110.151 403.752 110.104 403.514 110.088C403.285 110.071 403.05 110.081 402.809 110.119C402.573 110.16 402.354 110.227 402.152 110.32C401.951 110.414 401.814 110.513 401.741 110.617C401.674 110.723 401.667 110.825 401.723 110.923C401.788 111.02 401.916 111.106 402.109 111.181ZM403.174 112.162L402.38 111.852L403.286 111.43L404.245 111.1L404.922 110.667L407.437 109.495L408.231 109.804L403.174 112.162ZM405.292 113.048C404.979 112.926 404.773 112.779 404.672 112.608C404.576 112.438 404.585 112.263 404.698 112.083C404.82 111.902 405.045 111.735 405.373 111.582C405.705 111.427 406.075 111.317 406.482 111.251C406.898 111.185 407.308 111.164 407.713 111.19C408.127 111.215 408.491 111.289 408.804 111.411C409.068 111.514 409.245 111.631 409.335 111.762C409.435 111.893 409.448 112.027 409.377 112.163C409.305 112.3 409.148 112.425 408.904 112.538L407.935 112.99C407.691 113.104 407.414 113.182 407.101 113.224C406.794 113.269 406.48 113.277 406.161 113.249C405.846 113.218 405.557 113.151 405.292 113.048ZM406.152 112.758C406.446 112.873 406.778 112.92 407.148 112.9C407.523 112.882 407.86 112.803 408.16 112.663C408.361 112.569 408.498 112.47 408.571 112.366C408.643 112.262 408.647 112.161 408.582 112.064C408.527 111.966 408.4 111.879 408.203 111.802C408.011 111.727 407.795 111.681 407.557 111.664C407.328 111.647 407.093 111.658 406.852 111.696C406.616 111.736 406.397 111.803 406.196 111.897C405.995 111.991 405.858 112.09 405.785 112.194C405.717 112.3 405.711 112.402 405.766 112.499C405.831 112.597 405.96 112.683 406.152 112.758ZM406.424 113.429L407.33 113.007L408.288 112.677L408.966 112.244L409.795 111.857L410.589 112.167L407.218 113.739L406.424 113.429ZM409.039 114.479L410.965 112.313L411.838 112.654L410.349 114.214L410.096 114.115L413.665 113.366L414.546 113.71L409.529 114.67L409.039 114.479ZM406.637 114.715L409.868 114.129L409.529 114.67L407.517 115.058L406.637 114.715Z" fill="black"/>
<g filter="url(#filter3_d_1_1542)">
<rect width="241.508" height="41.3275" rx="1.29148" transform="matrix(0.931679 0.363283 -0.906308 0.422618 386.006 110.785)" fill="white" shape-rendering="crispEdges"/>
<rect x="0.00409579" y="0.126872" width="241.185" height="41.0046" rx="1.13005" transform="matrix(0.931679 0.363283 -0.906308 0.422618 386.121 110.857)" stroke="black" stroke-width="0.322871" shape-rendering="crispEdges"/>
<circle cx="10.3319" cy="10.3319" r="10.3319" transform="matrix(0.931679 0.363283 -0.906308 0.422618 450.04 143.771)" fill="#91AFEF"/>
<circle cx="10.3319" cy="10.3319" r="10.3319" transform="matrix(0.931679 0.363283 -0.906308 0.422618 509 166.761)" fill="#91AFEF"/>
</g>
<path d="M325.479 140.496L330.255 138.269L331.049 138.579L326.273 140.806L325.479 140.496ZM327.318 138.928L328.02 138.6L330.475 139.557L329.772 139.885L327.318 138.928ZM329.911 142.224L331.857 141.317C332.082 141.212 332.192 141.097 332.188 140.971C332.189 140.847 332.073 140.74 331.842 140.65C331.688 140.59 331.518 140.552 331.333 140.535C331.147 140.519 330.962 140.525 330.777 140.553C330.593 140.582 330.426 140.631 330.276 140.7L330.134 140.501C330.391 140.381 330.676 140.297 330.988 140.251C331.305 140.202 331.621 140.191 331.935 140.217C332.259 140.243 332.549 140.306 332.804 140.405C333.064 140.507 333.239 140.623 333.329 140.754C333.418 140.886 333.42 141.021 333.334 141.16C333.253 141.296 333.082 141.426 332.819 141.548L330.706 142.534L329.911 142.224ZM327.536 141.298L332.593 138.94L333.387 139.25L328.33 141.608L327.536 141.298ZM331.375 142.795L334.746 141.223L335.541 141.533L332.17 143.105L331.375 142.795ZM335.762 141.09C335.627 141.037 335.558 140.972 335.556 140.895C335.558 140.82 335.625 140.752 335.756 140.691C335.887 140.629 336.04 140.595 336.216 140.587C336.396 140.581 336.554 140.605 336.689 140.657C336.828 140.712 336.897 140.777 336.894 140.852C336.892 140.927 336.825 140.995 336.694 141.056C336.563 141.118 336.41 141.152 336.234 141.16C336.059 141.167 335.901 141.144 335.762 141.09ZM333.979 143.87C333.787 143.795 333.625 143.712 333.493 143.621C333.367 143.527 333.273 143.431 333.213 143.331C333.158 143.229 333.14 143.126 333.16 143.022L334.157 142.99C334.142 143.1 334.176 143.201 334.26 143.294C334.353 143.387 334.499 143.472 334.696 143.548C334.874 143.618 335.034 143.658 335.177 143.67C335.32 143.682 335.441 143.665 335.539 143.619C335.642 143.571 335.679 143.517 335.648 143.457C335.618 143.397 335.551 143.331 335.449 143.259C335.357 143.187 335.254 143.111 335.143 143.031C335.035 142.953 334.947 142.871 334.878 142.784C334.818 142.696 334.808 142.606 334.848 142.513C334.888 142.421 335.008 142.327 335.209 142.233C335.425 142.133 335.66 142.066 335.916 142.034C336.176 142.003 336.442 142.005 336.714 142.038C336.991 142.074 337.262 142.144 337.527 142.247C337.806 142.356 338.002 142.474 338.116 142.603C338.239 142.731 338.276 142.868 338.229 143.014L337.232 143.046C337.252 142.95 337.228 142.862 337.159 142.783C337.09 142.704 336.971 142.632 336.803 142.566C336.644 142.504 336.498 142.467 336.364 142.455C336.231 142.443 336.12 142.458 336.031 142.499C335.937 142.543 335.908 142.594 335.943 142.652C335.978 142.709 336.044 142.773 336.142 142.843C336.244 142.915 336.346 142.991 336.448 143.071C336.56 143.151 336.644 143.236 336.699 143.325C336.764 143.415 336.774 143.507 336.729 143.602C336.689 143.694 336.567 143.789 336.361 143.885C336.033 144.038 335.655 144.113 335.227 144.11C334.799 144.108 334.383 144.028 333.979 143.87ZM338.185 145.45L340.163 143.335L340.986 143.656L339.473 145.165L339.221 145.072L342.596 144.284L343.058 144.464L341.517 145.968L341.278 145.869L344.668 145.092L345.491 145.413L340.727 146.441L340.264 146.261L341.658 144.808L341.917 144.909L338.647 145.63L338.185 145.45ZM343.928 147.75C343.582 147.615 343.344 147.458 343.214 147.279C343.094 147.1 343.086 146.916 343.189 146.728C343.297 146.542 343.518 146.371 343.85 146.216C344.182 146.061 344.559 145.953 344.98 145.893C345.406 145.83 345.831 145.816 346.255 145.849C346.684 145.884 347.064 145.966 347.396 146.095C347.719 146.221 347.93 146.366 348.03 146.529C348.136 146.694 348.131 146.863 348.018 147.035C347.91 147.21 347.694 147.372 347.371 147.523C347.315 147.549 347.251 147.574 347.181 147.599C347.12 147.623 347.047 147.649 346.963 147.676L344.118 146.567L344.75 146.272L347.183 147.221L346.634 147.223C346.831 147.124 346.963 147.027 347.031 146.933C347.099 146.84 347.104 146.749 347.044 146.661C346.989 146.576 346.865 146.496 346.672 146.42C346.47 146.342 346.253 146.293 346.019 146.274C345.786 146.255 345.551 146.266 345.314 146.306C345.083 146.344 344.862 146.412 344.651 146.51C344.44 146.608 344.299 146.711 344.226 146.819C344.153 146.927 344.152 147.033 344.222 147.137C344.297 147.238 344.437 147.329 344.644 147.41C344.822 147.479 345.016 147.529 345.226 147.558C345.441 147.59 345.66 147.599 345.883 147.586L345.89 148.015C345.53 148.039 345.18 148.027 344.841 147.979C344.502 147.931 344.198 147.855 343.928 147.75ZM347.64 149.197C347.294 149.062 347.056 148.905 346.926 148.726C346.807 148.547 346.798 148.364 346.901 148.175C347.01 147.989 347.23 147.818 347.562 147.663C347.895 147.508 348.271 147.401 348.692 147.34C349.118 147.278 349.543 147.263 349.967 147.296C350.396 147.331 350.776 147.413 351.108 147.543C351.431 147.669 351.642 147.813 351.743 147.976C351.848 148.142 351.844 148.311 351.73 148.483C351.622 148.657 351.406 148.819 351.083 148.97C351.027 148.996 350.964 149.022 350.893 149.046C350.832 149.071 350.759 149.096 350.675 149.124L347.83 148.014L348.462 147.72L350.895 148.668L350.346 148.671C350.543 148.571 350.675 148.474 350.743 148.381C350.812 148.287 350.816 148.196 350.756 148.109C350.701 148.023 350.577 147.943 350.385 147.868C350.182 147.789 349.965 147.74 349.731 147.721C349.498 147.702 349.263 147.713 349.026 147.753C348.795 147.791 348.574 147.859 348.363 147.958C348.152 148.056 348.011 148.159 347.938 148.267C347.866 148.375 347.864 148.481 347.934 148.584C348.009 148.685 348.149 148.776 348.356 148.857C348.534 148.926 348.729 148.976 348.939 149.006C349.153 149.037 349.372 149.047 349.595 149.033L349.602 149.463C349.242 149.487 348.892 149.475 348.553 149.427C348.214 149.379 347.91 149.302 347.64 149.197ZM352.015 150.843L352.27 149.469L355.378 149.268L356.324 149.637L352.795 149.848L353.274 149.656L353.025 151.237L352.015 150.843ZM349.813 149.984L354.869 147.626L355.663 147.936L350.607 150.294L349.813 149.984Z" fill="black"/>
<g filter="url(#filter4_d_1_1542)">
<rect width="241.508" height="41.3275" rx="1.29148" transform="matrix(0.931679 0.363283 -0.906308 0.422618 317.533 142.715)" fill="white" shape-rendering="crispEdges"/>
<rect x="0.00409579" y="0.126872" width="241.185" height="41.0046" rx="1.13005" transform="matrix(0.931679 0.363283 -0.906308 0.422618 317.648 142.786)" stroke="black" stroke-width="0.322871" shape-rendering="crispEdges"/>
<circle cx="10.3319" cy="10.3319" r="10.3319" transform="matrix(0.931679 0.363283 -0.906308 0.422618 332.836 156.699)" fill="#91AFEF"/>
<circle cx="10.3319" cy="10.3319" r="10.3319" transform="matrix(0.931679 0.363283 -0.906308 0.422618 489.258 217.692)" fill="#91AFEF"/>
</g>
<g filter="url(#filter5_d_1_1542)">
<rect width="241.508" height="41.3275" rx="1.29148" transform="matrix(0.931679 0.363283 -0.906308 0.422618 277.737 161.272)" fill="white" shape-rendering="crispEdges"/>
<rect x="0.00409579" y="0.126872" width="241.185" height="41.0046" rx="1.13005" transform="matrix(0.931679 0.363283 -0.906308 0.422618 277.852 161.344)" stroke="black" stroke-width="0.322871" shape-rendering="crispEdges"/>
<circle cx="10.3319" cy="10.3319" r="10.3319" transform="matrix(0.931679 0.363283 -0.906308 0.422618 364.031 202.938)" fill="#91AFEF"/>
<circle cx="10.3319" cy="10.3319" r="10.3319" transform="matrix(0.931679 0.363283 -0.906308 0.422618 378.47 208.568)" fill="#91AFEF"/>
</g>
<g filter="url(#filter6_d_1_1542)">
<rect width="241.508" height="41.3275" rx="1.29148" transform="matrix(0.931679 0.363283 -0.906308 0.422618 203.996 195.658)" fill="white" shape-rendering="crispEdges"/>
<rect x="0.00409579" y="0.126872" width="241.185" height="41.0046" rx="1.13005" transform="matrix(0.931679 0.363283 -0.906308 0.422618 204.111 195.73)" stroke="black" stroke-width="0.322871" shape-rendering="crispEdges"/>
<circle cx="10.3319" cy="10.3319" r="10.3319" transform="matrix(0.931679 0.363283 -0.906308 0.422618 268.03 228.644)" fill="#91AFEF"/>
<circle cx="10.3319" cy="10.3319" r="10.3319" transform="matrix(0.931679 0.363283 -0.906308 0.422618 326.99 251.633)" fill="#91AFEF"/>
</g>
<g filter="url(#filter7_d_1_1542)">
<rect width="241.508" height="41.3275" rx="1.29148" transform="matrix(0.931679 0.363283 -0.906308 0.422618 164.2 214.215)" fill="white" shape-rendering="crispEdges"/>
<rect x="0.00409579" y="0.126872" width="241.185" height="41.0046" rx="1.13005" transform="matrix(0.931679 0.363283 -0.906308 0.422618 164.315 214.287)" stroke="black" stroke-width="0.322871" shape-rendering="crispEdges"/>
<circle cx="10.3319" cy="10.3319" r="10.3319" transform="matrix(0.931679 0.363283 -0.906308 0.422618 236.657 250.485)" fill="#91AFEF"/>
<circle cx="10.3319" cy="10.3319" r="10.3319" transform="matrix(0.931679 0.363283 -0.906308 0.422618 278.77 266.906)" fill="#91AFEF"/>
</g>
<g filter="url(#filter8_d_1_1542)">
<rect width="241.508" height="41.3275" rx="1.29148" transform="matrix(0.931679 0.363283 -0.906308 0.422618 85.1922 251.057)" fill="white" shape-rendering="crispEdges"/>
<rect x="0.00409579" y="0.126872" width="241.185" height="41.0046" rx="1.13005" transform="matrix(0.931679 0.363283 -0.906308 0.422618 85.3075 251.129)" stroke="black" stroke-width="0.322871" shape-rendering="crispEdges"/>
<circle cx="10.3319" cy="10.3319" r="10.3319" transform="matrix(0.931679 0.363283 -0.906308 0.422618 149.227 284.043)" fill="#91AFEF"/>
<circle cx="10.3319" cy="10.3319" r="10.3319" transform="matrix(0.931679 0.363283 -0.906308 0.422618 208.186 307.033)" fill="#91AFEF"/>
</g>
<path d="M211.317 193.195L216.373 190.837L217.167 191.147L212.111 193.505L211.317 193.195ZM214.231 194.391C213.918 194.269 213.712 194.123 213.611 193.951C213.515 193.782 213.524 193.607 213.637 193.426C213.759 193.245 213.984 193.079 214.312 192.926C214.645 192.771 215.014 192.66 215.421 192.594C215.837 192.528 216.247 192.508 216.652 192.533C217.066 192.558 217.43 192.632 217.743 192.754C218.007 192.857 218.185 192.974 218.274 193.106C218.374 193.237 218.387 193.37 218.316 193.507C218.244 193.643 218.087 193.768 217.843 193.882L216.874 194.334C216.631 194.447 216.353 194.525 216.04 194.568C215.733 194.612 215.42 194.62 215.1 194.592C214.786 194.562 214.496 194.495 214.231 194.391ZM215.092 194.102C215.385 194.216 215.717 194.263 216.087 194.243C216.462 194.225 216.799 194.146 217.099 194.006C217.3 193.912 217.437 193.813 217.51 193.71C217.582 193.606 217.586 193.505 217.521 193.407C217.466 193.31 217.34 193.222 217.142 193.145C216.95 193.07 216.734 193.024 216.496 193.008C216.268 192.991 216.033 193.001 215.791 193.04C215.555 193.08 215.336 193.147 215.135 193.241C214.934 193.334 214.797 193.433 214.724 193.537C214.656 193.643 214.65 193.745 214.705 193.843C214.77 193.94 214.899 194.026 215.092 194.102ZM215.363 194.773L216.269 194.35L217.227 194.02L217.905 193.587L218.734 193.201L219.528 193.51L216.157 195.082L215.363 194.773ZM217.957 195.844C217.764 195.769 217.603 195.686 217.471 195.595C217.345 195.501 217.251 195.405 217.191 195.305C217.136 195.203 217.118 195.1 217.138 194.996L218.135 194.964C218.12 195.074 218.154 195.175 218.238 195.268C218.331 195.361 218.476 195.445 218.674 195.522C218.852 195.592 219.012 195.632 219.155 195.644C219.298 195.656 219.419 195.639 219.517 195.593C219.62 195.545 219.656 195.491 219.626 195.431C219.596 195.371 219.529 195.305 219.427 195.233C219.335 195.161 219.232 195.085 219.12 195.005C219.013 194.927 218.925 194.845 218.856 194.758C218.796 194.67 218.786 194.58 218.826 194.487C218.865 194.395 218.986 194.301 219.187 194.207C219.403 194.107 219.638 194.04 219.894 194.008C220.154 193.977 220.42 193.979 220.692 194.012C220.969 194.048 221.24 194.118 221.505 194.221C221.784 194.33 221.98 194.448 222.093 194.577C222.216 194.705 222.254 194.842 222.207 194.988L221.21 195.02C221.23 194.924 221.206 194.836 221.137 194.757C221.068 194.678 220.949 194.606 220.781 194.54C220.622 194.478 220.476 194.441 220.342 194.429C220.209 194.417 220.098 194.432 220.009 194.473C219.915 194.517 219.886 194.568 219.921 194.626C219.956 194.683 220.022 194.747 220.119 194.817C220.222 194.889 220.324 194.965 220.426 195.045C220.538 195.125 220.622 195.21 220.677 195.299C220.741 195.389 220.752 195.481 220.707 195.576C220.667 195.668 220.544 195.763 220.338 195.859C220.011 196.012 219.633 196.087 219.205 196.084C218.777 196.082 218.361 196.002 217.957 195.844ZM220.379 196.728L225.154 194.501L225.948 194.811L221.173 197.038L220.379 196.728ZM222.217 195.16L222.919 194.833L225.374 195.79L224.672 196.117L222.217 195.16ZM224.747 198.432L226.725 196.317L227.548 196.637L226.035 198.146L225.783 198.054L229.158 197.265L229.62 197.445L228.079 198.949L227.84 198.85L231.23 198.073L232.053 198.394L227.288 199.423L226.826 199.243L228.22 197.789L228.479 197.891L225.209 198.612L224.747 198.432ZM230.49 200.731C230.144 200.596 229.906 200.439 229.776 200.26C229.656 200.081 229.648 199.898 229.751 199.71C229.859 199.523 230.08 199.352 230.412 199.197C230.744 199.042 231.121 198.935 231.542 198.874C231.968 198.812 232.393 198.797 232.817 198.83C233.246 198.865 233.626 198.947 233.958 199.077C234.281 199.203 234.492 199.347 234.592 199.511C234.697 199.676 234.693 199.845 234.58 200.017C234.472 200.191 234.256 200.354 233.933 200.504C233.877 200.53 233.813 200.556 233.743 200.58C233.682 200.605 233.609 200.63 233.524 200.658L230.68 199.548L231.312 199.254L233.745 200.202L233.196 200.205C233.393 200.105 233.525 200.008 233.593 199.915C233.661 199.821 233.666 199.73 233.606 199.643C233.551 199.557 233.427 199.477 233.234 199.402C233.032 199.323 232.814 199.274 232.581 199.255C232.348 199.237 232.113 199.247 231.876 199.287C231.645 199.325 231.423 199.393 231.213 199.492C231.002 199.59 230.86 199.693 230.788 199.801C230.715 199.909 230.714 200.015 230.784 200.118C230.858 200.219 230.999 200.31 231.206 200.391C231.384 200.46 231.578 200.51 231.788 200.54C232.003 200.572 232.222 200.581 232.445 200.567L232.452 200.997C232.091 201.021 231.742 201.009 231.403 200.961C231.064 200.913 230.76 200.836 230.49 200.731ZM234.202 202.179C233.856 202.043 233.618 201.887 233.488 201.708C233.369 201.529 233.36 201.345 233.463 201.157C233.571 200.971 233.792 200.8 234.124 200.645C234.457 200.49 234.833 200.382 235.254 200.322C235.68 200.259 236.105 200.245 236.529 200.278C236.958 200.313 237.338 200.395 237.67 200.524C237.993 200.65 238.204 200.795 238.304 200.958C238.41 201.123 238.406 201.292 238.292 201.464C238.184 201.639 237.968 201.801 237.645 201.952C237.589 201.978 237.526 202.003 237.455 202.028C237.394 202.052 237.321 202.078 237.237 202.105L234.392 200.996L235.024 200.701L237.457 201.65L236.908 201.652C237.105 201.553 237.237 201.456 237.305 201.362C237.374 201.268 237.378 201.178 237.318 201.09C237.263 201.005 237.139 200.925 236.947 200.849C236.744 200.771 236.527 200.722 236.293 200.703C236.06 200.684 235.825 200.695 235.588 200.735C235.357 200.773 235.136 200.841 234.925 200.939C234.714 201.037 234.573 201.14 234.5 201.248C234.427 201.356 234.426 201.462 234.496 201.566C234.571 201.667 234.711 201.758 234.918 201.838C235.096 201.908 235.29 201.958 235.501 201.987C235.715 202.019 235.934 202.028 236.157 202.015L236.164 202.444C235.804 202.468 235.454 202.456 235.115 202.408C234.776 202.36 234.472 202.284 234.202 202.179ZM238.576 203.824L238.832 202.45L241.94 202.249L242.886 202.618L239.357 202.83L239.836 202.637L239.587 204.218L238.576 203.824ZM236.375 202.966L241.431 200.608L242.225 200.917L237.169 203.275L236.375 202.966Z" fill="black"/>
<path d="M91.9032 248.356L95.2742 246.785L96.0684 247.094L92.6974 248.666L91.9032 248.356ZM94.2063 249.254L96.2148 248.318C96.4395 248.213 96.5406 248.104 96.5179 247.991C96.4999 247.876 96.3851 247.777 96.1733 247.694C96.0289 247.638 95.8709 247.6 95.6992 247.582C95.5323 247.565 95.3613 247.568 95.1862 247.592C95.0159 247.614 94.8558 247.66 94.7059 247.729L94.564 247.53C94.8216 247.41 95.1017 247.329 95.4045 247.286C95.7073 247.244 96.0088 247.237 96.3092 247.266C96.6142 247.293 96.8894 247.354 97.1349 247.45C97.3804 247.546 97.5503 247.656 97.6446 247.781C97.7389 247.906 97.7502 248.035 97.6784 248.167C97.6067 248.299 97.4397 248.427 97.1775 248.549L95.0004 249.564L94.2063 249.254ZM96.5093 250.152L98.5178 249.216C98.7426 249.111 98.8436 249.002 98.8209 248.889C98.803 248.774 98.6881 248.675 98.4763 248.592C98.3367 248.538 98.1811 248.501 98.0094 248.482C97.8377 248.464 97.6643 248.466 97.4893 248.49C97.3189 248.512 97.1588 248.558 97.009 248.627L96.7299 248.374C97.0115 248.264 97.3109 248.19 97.6281 248.153C97.9453 248.117 98.2565 248.114 98.5617 248.145C98.8763 248.175 99.1564 248.238 99.4018 248.334C99.6521 248.431 99.8268 248.544 99.9259 248.67C100.025 248.797 100.041 248.928 99.9742 249.062C99.9073 249.196 99.7427 249.325 99.4805 249.447L97.3034 250.462L96.5093 250.152ZM99.3581 251.323C99.0452 251.201 98.8385 251.055 98.7379 250.883C98.6422 250.714 98.6508 250.538 98.7638 250.358C98.8862 250.177 99.1114 250.011 99.4391 249.858C99.7715 249.703 100.141 249.592 100.548 249.526C100.964 249.46 101.374 249.44 101.779 249.465C102.193 249.49 102.557 249.564 102.87 249.686C103.134 249.789 103.312 249.906 103.401 250.038C103.501 250.169 103.514 250.302 103.443 250.439C103.371 250.575 103.214 250.7 102.97 250.814L102.001 251.266C101.757 251.379 101.48 251.457 101.167 251.5C100.86 251.544 100.546 251.552 100.227 251.524C99.9125 251.493 99.6228 251.427 99.3581 251.323ZM100.218 251.033C100.512 251.148 100.844 251.195 101.214 251.175C101.589 251.157 101.926 251.078 102.226 250.938C102.427 250.844 102.564 250.745 102.637 250.641C102.709 250.538 102.713 250.437 102.648 250.339C102.593 250.242 102.466 250.154 102.269 250.077C102.077 250.002 101.861 249.956 101.623 249.94C101.394 249.923 101.16 249.933 100.918 249.971C100.682 250.012 100.463 250.079 100.262 250.173C100.061 250.266 99.9236 250.365 99.8509 250.469C99.783 250.575 99.7768 250.677 99.8323 250.775C99.8972 250.872 100.026 250.958 100.218 251.033ZM100.49 251.704L101.396 251.282L102.354 250.952L103.032 250.519L103.861 250.133L104.655 250.442L101.284 252.014L100.49 251.704ZM103.105 252.754L105.031 250.589L105.904 250.929L104.415 252.489L104.162 252.391L107.731 251.642L108.612 251.985L103.596 252.946L103.105 252.754ZM100.703 252.99L103.934 252.404L103.596 252.946L101.584 253.334L100.703 252.99Z" fill="black"/>
<rect width="251.839" height="56.8253" transform="matrix(0.931679 0.363283 -0.906308 0.422618 450.837 76.433)" fill="#FFFAF6" fill-opacity="0.988"/>
<path d="M499.522 135.322L503.953 133.255C505.167 132.689 506.806 132.569 508.093 133.071C509.129 133.475 509.158 134.048 507.795 134.683L503.282 136.788L505.321 137.583L510.31 135.257C512.411 134.277 512.605 133.271 510.566 132.476C509.379 132.013 507.901 131.872 506.596 132.037L509.567 130.652L507.511 129.85L497.483 134.527L499.522 135.322Z" fill="#002413"/>
<path d="M508.398 138.965C509.685 139.467 511.379 139.636 512.567 139.383L511.335 139.928L513.307 140.697L518.231 138.401C520.48 137.353 520.291 136.267 518.068 135.401C515.828 134.527 513.209 134.49 511.453 135.309L513.191 135.986C514.044 135.588 515.205 135.619 516.409 136.089C517.445 136.493 517.67 136.96 516.57 137.473L516.39 137.557L513.736 136.677C511.633 135.983 509.594 135.989 508.101 136.686C506.574 137.397 506.643 138.281 508.398 138.965ZM510.576 138.522C509.657 138.164 509.517 137.8 510.255 137.455C510.912 137.149 511.807 137.147 513.192 137.589L515.044 138.199L514.618 138.398C513.37 138.979 511.83 139.011 510.576 138.522Z" fill="#002413"/>
<path d="M516.196 141.824L517.427 141.221C516.976 141.847 517.487 142.51 518.724 142.992C521.097 143.917 524.375 143.72 526.869 142.556C529.43 141.363 529.798 139.96 527.441 139.041C526.188 138.553 524.543 138.375 523.105 138.588L526.208 137.141L524.169 136.346L514.141 141.022L516.196 141.824ZM520.283 139.918C521.744 139.237 523.68 139.121 525.084 139.668C526.522 140.229 526.34 141.043 524.896 141.717C523.451 142.39 521.581 142.532 520.144 141.972C518.74 141.424 518.822 140.599 520.283 139.918Z" fill="#002413"/>
<path d="M525.374 145.402L526.604 144.8C526.153 145.425 526.665 146.088 527.902 146.57C530.275 147.496 533.552 147.298 536.047 146.135C538.607 144.941 538.975 143.539 536.619 142.62C535.365 142.131 533.721 141.954 532.283 142.166L535.386 140.719L533.347 139.924L523.318 144.601L525.374 145.402ZM529.461 143.497C530.921 142.815 532.858 142.699 534.262 143.247C535.699 143.807 535.518 144.622 534.073 145.295C532.629 145.969 530.759 146.111 529.322 145.55C527.918 145.003 528 144.178 529.461 143.497Z" fill="#002413"/>
<path d="M536.082 146.092C533.554 147.271 533.67 148.805 536.227 149.803C538.784 150.8 542.378 150.712 544.906 149.533C547.433 148.355 547.318 146.82 544.761 145.823C542.204 144.826 538.609 144.914 536.082 146.092ZM538.12 146.887C539.598 146.199 541.568 146.11 542.972 146.657C544.376 147.204 544.344 148.049 542.867 148.738C541.39 149.427 539.419 149.516 538.015 148.968C536.612 148.421 536.643 147.576 538.12 146.887Z" fill="#002413"/>
<path d="M544.008 152.668L550.442 149.668L552.046 150.294L553.72 149.513L552.116 148.887L554.037 147.992L551.998 147.197L550.077 148.092L548.489 147.473L546.815 148.254L548.403 148.873L541.969 151.873L544.008 152.668Z" fill="#002413"/>
<rect width="86.5294" height="3.22871" rx="1.61435" transform="matrix(0.931679 0.363283 -0.906308 0.422618 91.0256 302.94)" fill="#001428"/>
<path fill-rule="evenodd" clip-rule="evenodd" d="M629.562 156.645L640.993 161.103C641.824 161.426 641.842 161.994 641.034 162.371L637.23 164.145C636.422 164.522 635.094 164.565 634.263 164.241L622.832 159.784C622.001 159.46 621.983 158.892 622.791 158.515L626.595 156.741C627.403 156.364 628.732 156.321 629.562 156.645ZM628.977 156.918C628.479 156.724 627.682 156.75 627.197 156.976L623.393 158.75C622.908 158.976 622.919 159.317 623.417 159.511L634.848 163.968C635.347 164.162 636.144 164.137 636.629 163.911L640.433 162.137C640.917 161.911 640.906 161.57 640.408 161.375L628.977 156.918Z" fill="black"/>
<path fill-rule="evenodd" clip-rule="evenodd" d="M641.168 162.824C641.437 163.157 641.262 163.553 640.636 163.845C640.011 164.136 639.102 164.246 638.3 164.161L641.168 162.824Z" fill="black"/>
<path fill-rule="evenodd" clip-rule="evenodd" d="M628.693 157.308L639.522 161.531C639.854 161.661 639.862 161.888 639.538 162.039L636.32 163.54C635.996 163.69 635.465 163.707 635.133 163.578L624.303 159.355C623.971 159.226 623.964 158.998 624.287 158.848L627.506 157.347C627.829 157.196 628.36 157.179 628.693 157.308Z" fill="black"/>
<path fill-rule="evenodd" clip-rule="evenodd" d="M622.376 155.609C622.182 154.715 621.251 153.906 619.732 153.313C618.208 152.719 616.228 152.396 614.116 152.395L613.937 152.395C613.792 152.395 613.67 152.448 613.672 152.51L613.692 153.081C613.694 153.136 613.795 153.179 613.924 153.18L614.077 153.181C615.725 153.189 617.266 153.444 618.456 153.908C619.642 154.371 620.376 155 620.544 155.696L620.56 155.761C620.573 155.815 620.683 155.854 620.812 155.85L622.148 155.808C622.294 155.803 622.406 155.747 622.393 155.685L622.376 155.609ZM617.701 154.26C618.658 154.633 619.268 155.136 619.445 155.694L619.47 155.773C619.49 155.836 619.376 155.896 619.226 155.901L617.886 155.943C617.762 155.947 617.655 155.911 617.636 155.859L617.613 155.799C617.473 155.432 617.059 155.102 616.425 154.855C615.787 154.607 614.976 154.46 614.099 154.435L613.955 154.43C613.832 154.427 613.739 154.385 613.737 154.332L613.716 153.759C613.714 153.695 613.842 153.641 613.991 153.644L614.177 153.647C615.505 153.671 616.739 153.885 617.701 154.26ZM615.671 155.207C616.055 155.357 616.331 155.549 616.473 155.765L616.53 155.852C616.574 155.918 616.457 155.988 616.293 155.993L614.048 156.065C613.91 156.069 613.797 156.025 613.795 155.966L613.761 155.012C613.758 154.943 613.91 154.887 614.068 154.899L614.276 154.915C614.801 154.955 615.281 155.055 615.671 155.207Z" fill="black"/>
<path fill-rule="evenodd" clip-rule="evenodd" d="M611.53 150.115L612.132 150.35C612.464 150.479 612.471 150.707 612.148 150.857L607.466 153.041C607.143 153.191 606.612 153.208 606.279 153.079L605.678 152.844C605.345 152.715 605.338 152.488 605.661 152.337L610.343 150.154C610.666 150.003 611.198 149.986 611.53 150.115Z" fill="black"/>
<path d="M608.254 149.84L607.652 149.605C607.32 149.476 606.789 149.493 606.465 149.644L602.954 151.281C602.631 151.432 602.638 151.659 602.97 151.789L603.572 152.023C603.904 152.153 604.436 152.136 604.759 151.985L608.27 150.347C608.594 150.197 608.586 149.97 608.254 149.84Z" fill="black"/>
<path d="M603.775 149.096L604.376 149.33C604.708 149.46 604.716 149.687 604.393 149.838L602.052 150.929C601.728 151.08 601.197 151.097 600.865 150.968L600.263 150.733C599.931 150.603 599.923 150.376 600.247 150.226L602.588 149.134C602.911 148.983 603.442 148.966 603.775 149.096Z" fill="black"/>
<path d="M600.189 148.449L600.791 148.684C601.123 148.813 601.131 149.041 600.807 149.191L599.344 149.874C599.021 150.024 598.49 150.041 598.157 149.912L597.556 149.677C597.223 149.548 597.216 149.321 597.539 149.17L599.002 148.488C599.326 148.337 599.857 148.32 600.189 148.449Z" fill="black"/>
<path d="M449.288 91.3319L454.385 88.9554L454.31 88.9261L451.639 88.817L452.681 88.3313L455.478 88.4494L456.61 88.891L450.425 91.7752L449.288 91.3319ZM452.047 92.4079L452.793 92.0601L456.957 91.9071C458.669 91.8481 459.224 91.7967 459.7 91.5748L459.713 91.5688C460.283 91.303 460.294 90.9547 459.633 90.697C458.958 90.4341 458.072 90.459 457.433 90.7569L457.411 90.7631L456.358 90.3488L456.367 90.3411C457.52 89.8034 459.251 89.7884 460.577 90.3056C461.815 90.7884 461.972 91.4773 460.931 91.963L460.918 91.969C460.215 92.2968 459.31 92.4209 457.066 92.4747L454.593 92.5378L454.503 92.5798L457.38 93.7018L456.463 94.1295L452.047 92.4079ZM462.406 93.0153C462.005 92.8589 462.005 92.6022 462.383 92.4263C462.764 92.2484 463.36 92.2273 463.761 92.3837C464.166 92.5418 464.165 92.7948 463.784 92.9727C463.407 93.1486 462.811 93.1734 462.406 93.0153ZM459.225 94.4984C458.824 94.3421 458.821 94.0873 459.202 93.9094C459.584 93.7315 460.179 93.7104 460.58 93.8668C460.985 94.0249 460.985 94.2779 460.603 94.4558C460.222 94.6337 459.631 94.6565 459.225 94.4984ZM460.439 95.6801L461.185 95.3323L465.348 95.1793C467.061 95.1203 467.616 95.0689 468.092 94.847L468.105 94.841C468.675 94.5752 468.685 94.2269 468.024 93.9692C467.35 93.7063 466.463 93.7312 465.825 94.0291L465.803 94.0353L464.75 93.621L464.758 93.6133C465.911 93.0756 467.643 93.0606 468.969 93.5778C470.207 94.0606 470.364 94.7495 469.323 95.2352L469.31 95.2412C468.607 95.569 467.702 95.6931 465.458 95.7469L462.985 95.81L462.895 95.852L465.772 96.9739L464.855 97.4017L460.439 95.6801ZM465.97 97.8368L466.716 97.489L470.88 97.336C472.592 97.277 473.147 97.2256 473.623 97.0037L473.636 96.9977C474.206 96.7319 474.216 96.3836 473.556 96.1259C472.881 95.863 471.995 95.8879 471.356 96.1858L471.334 96.192L470.281 95.7777L470.29 95.77C471.443 95.2323 473.174 95.2173 474.5 95.7345C475.738 96.2173 475.895 96.9062 474.854 97.3919L474.841 97.3979C474.138 97.7257 473.233 97.8498 470.989 97.9036L468.516 97.9667L468.426 98.0087L471.303 99.1306L470.386 99.5584L465.97 97.8368Z" fill="black"/>
<path fill-rule="evenodd" clip-rule="evenodd" d="M477.16 102.627L486.073 100.821L477.062 99.5932L480.658 100.996L477.16 102.627Z" fill="black"/>
<g filter="url(#filter9_d_1_1542)">
<rect width="47.7849" height="46.4934" rx="18.0808" transform="matrix(0.931679 0.363283 -0.906308 0.422618 162.331 285.144)" fill="#FA983A" shape-rendering="crispEdges"/>
<circle cx="7.7489" cy="7.7489" r="7.7489" transform="matrix(0.931679 0.363283 -0.906308 0.422618 163.326 297.558)" fill="white"/>
</g>
</g>
</g>
</g>
<g clip-path="url(#clip4_1_1542)">
<rect width="72.9372" height="20.4709" rx="10.2354" transform="matrix(0.931679 0.363283 -0.906308 0.422618 520.807 107.806)" fill="black" fill-opacity="0.08"/>
<rect width="72.9372" height="20.4709" rx="10.2354" transform="matrix(0.931679 0.363283 -0.906308 0.422618 520.807 107.806)" fill="#A8AEB8"/>
<ellipse cx="6.40077" cy="6.08035" rx="6.40077" ry="6.08035" transform="matrix(0.931679 0.363283 -0.906308 0.422618 568.993 129.819)" fill="#5C6170" fill-opacity="0.19"/>
</g>
</g>
<defs>
<filter id="filter0_f_1_1542" x="13.6131" y="107.79" width="653.156" height="293.345" filterUnits="userSpaceOnUse" color-interpolation-filters="sRGB">
<feFlood flood-opacity="0" result="BackgroundImageFix"/>
<feBlend mode="normal" in="SourceGraphic" in2="BackgroundImageFix" result="shape"/>
<feGaussianBlur stdDeviation="1.61435" result="effect1_foregroundBlur_1_1542"/>
</filter>
<filter id="filter1_f_1_1542" x="28.4652" y="85.1887" width="698.358" height="338.547" filterUnits="userSpaceOnUse" color-interpolation-filters="sRGB">
<feFlood flood-opacity="0" result="BackgroundImageFix"/>
<feBlend mode="normal" in="SourceGraphic" in2="BackgroundImageFix" result="shape"/>
<feGaussianBlur stdDeviation="12.9148" result="effect1_foregroundBlur_1_1542"/>
</filter>
<filter id="filter2_f_1_1542" x="32.3397" y="98.1035" width="664.78" height="304.968" filterUnits="userSpaceOnUse" color-interpolation-filters="sRGB">
<feFlood flood-opacity="0" result="BackgroundImageFix"/>
<feBlend mode="normal" in="SourceGraphic" in2="BackgroundImageFix" result="shape"/>
<feGaussianBlur stdDeviation="4.52019" result="effect1_foregroundBlur_1_1542"/>
</filter>
<filter id="filter3_d_1_1542" x="317.555" y="83.6639" width="324.454" height="167.193" filterUnits="userSpaceOnUse" color-interpolation-filters="sRGB">
<feFlood flood-opacity="0" result="BackgroundImageFix"/>
<feColorMatrix in="SourceAlpha" type="matrix" values="0 0 0 0 0 0 0 0 0 0 0 0 0 0 0 0 0 0 127 0" result="hardAlpha"/>
<feOffset dy="3.87445"/>
<feGaussianBlur stdDeviation="15.4978"/>
<feComposite in2="hardAlpha" operator="out"/>
<feColorMatrix type="matrix" values="0 0 0 0 0.0196078 0 0 0 0 0.0745098 0 0 0 0 0.141176 0 0 0 0.1 0"/>
<feBlend mode="normal" in2="BackgroundImageFix" result="effect1_dropShadow_1_1542"/>
<feBlend mode="normal" in="SourceGraphic" in2="effect1_dropShadow_1_1542" result="shape"/>
</filter>
<filter id="filter4_d_1_1542" x="249.082" y="115.594" width="324.454" height="167.193" filterUnits="userSpaceOnUse" color-interpolation-filters="sRGB">
<feFlood flood-opacity="0" result="BackgroundImageFix"/>
<feColorMatrix in="SourceAlpha" type="matrix" values="0 0 0 0 0 0 0 0 0 0 0 0 0 0 0 0 0 0 127 0" result="hardAlpha"/>
<feOffset dy="3.87445"/>
<feGaussianBlur stdDeviation="15.4978"/>
<feComposite in2="hardAlpha" operator="out"/>
<feColorMatrix type="matrix" values="0 0 0 0 0.0196078 0 0 0 0 0.0745098 0 0 0 0 0.141176 0 0 0 0.1 0"/>
<feBlend mode="normal" in2="BackgroundImageFix" result="effect1_dropShadow_1_1542"/>
<feBlend mode="normal" in="SourceGraphic" in2="effect1_dropShadow_1_1542" result="shape"/>
</filter>
<filter id="filter5_d_1_1542" x="209.285" y="134.151" width="324.454" height="167.193" filterUnits="userSpaceOnUse" color-interpolation-filters="sRGB">
<feFlood flood-opacity="0" result="BackgroundImageFix"/>
<feColorMatrix in="SourceAlpha" type="matrix" values="0 0 0 0 0 0 0 0 0 0 0 0 0 0 0 0 0 0 127 0" result="hardAlpha"/>
<feOffset dy="3.87445"/>
<feGaussianBlur stdDeviation="15.4978"/>
<feComposite in2="hardAlpha" operator="out"/>
<feColorMatrix type="matrix" values="0 0 0 0 0.0196078 0 0 0 0 0.0745098 0 0 0 0 0.141176 0 0 0 0.1 0"/>
<feBlend mode="normal" in2="BackgroundImageFix" result="effect1_dropShadow_1_1542"/>
<feBlend mode="normal" in="SourceGraphic" in2="effect1_dropShadow_1_1542" result="shape"/>
</filter>
<filter id="filter6_d_1_1542" x="135.545" y="168.537" width="324.454" height="167.193" filterUnits="userSpaceOnUse" color-interpolation-filters="sRGB">
<feFlood flood-opacity="0" result="BackgroundImageFix"/>
<feColorMatrix in="SourceAlpha" type="matrix" values="0 0 0 0 0 0 0 0 0 0 0 0 0 0 0 0 0 0 127 0" result="hardAlpha"/>
<feOffset dy="3.87445"/>
<feGaussianBlur stdDeviation="15.4978"/>
<feComposite in2="hardAlpha" operator="out"/>
<feColorMatrix type="matrix" values="0 0 0 0 0.0196078 0 0 0 0 0.0745098 0 0 0 0 0.141176 0 0 0 0.1 0"/>
<feBlend mode="normal" in2="BackgroundImageFix" result="effect1_dropShadow_1_1542"/>
<feBlend mode="normal" in="SourceGraphic" in2="effect1_dropShadow_1_1542" result="shape"/>
</filter>
<filter id="filter7_d_1_1542" x="95.7487" y="187.094" width="324.454" height="167.193" filterUnits="userSpaceOnUse" color-interpolation-filters="sRGB">
<feFlood flood-opacity="0" result="BackgroundImageFix"/>
<feColorMatrix in="SourceAlpha" type="matrix" values="0 0 0 0 0 0 0 0 0 0 0 0 0 0 0 0 0 0 127 0" result="hardAlpha"/>
<feOffset dy="3.87445"/>
<feGaussianBlur stdDeviation="15.4978"/>
<feComposite in2="hardAlpha" operator="out"/>
<feColorMatrix type="matrix" values="0 0 0 0 0.0196078 0 0 0 0 0.0745098 0 0 0 0 0.141176 0 0 0 0.1 0"/>
<feBlend mode="normal" in2="BackgroundImageFix" result="effect1_dropShadow_1_1542"/>
<feBlend mode="normal" in="SourceGraphic" in2="effect1_dropShadow_1_1542" result="shape"/>
</filter>
<filter id="filter8_d_1_1542" x="16.7412" y="223.936" width="324.454" height="167.193" filterUnits="userSpaceOnUse" color-interpolation-filters="sRGB">
<feFlood flood-opacity="0" result="BackgroundImageFix"/>
<feColorMatrix in="SourceAlpha" type="matrix" values="0 0 0 0 0 0 0 0 0 0 0 0 0 0 0 0 0 0 127 0" result="hardAlpha"/>
<feOffset dy="3.87445"/>
<feGaussianBlur stdDeviation="15.4978"/>
<feComposite in2="hardAlpha" operator="out"/>
<feColorMatrix type="matrix" values="0 0 0 0 0.0196078 0 0 0 0 0.0745098 0 0 0 0 0.141176 0 0 0 0.1 0"/>
<feBlend mode="normal" in2="BackgroundImageFix" result="effect1_dropShadow_1_1542"/>
<feBlend mode="normal" in="SourceGraphic" in2="effect1_dropShadow_1_1542" result="shape"/>
</filter>
<filter id="filter9_d_1_1542" x="104.696" y="277.395" width="117.653" height="68.004" filterUnits="userSpaceOnUse" color-interpolation-filters="sRGB">
<feFlood flood-opacity="0" result="BackgroundImageFix"/>
<feColorMatrix in="SourceAlpha" type="matrix" values="0 0 0 0 0 0 0 0 0 0 0 0 0 0 0 0 0 0 127 0" result="hardAlpha"/>
<feOffset dy="7.7489"/>
<feGaussianBlur stdDeviation="7.7489"/>
<feComposite in2="hardAlpha" operator="out"/>
<feColorMatrix type="matrix" values="0 0 0 0 0.0196078 0 0 0 0 0.0745098 0 0 0 0 0.141176 0 0 0 0.25 0"/>
<feBlend mode="normal" in2="BackgroundImageFix" result="effect1_dropShadow_1_1542"/>
<feBlend mode="normal" in="SourceGraphic" in2="effect1_dropShadow_1_1542" result="shape"/>
</filter>
<linearGradient id="paint0_linear_1_1542" x1="669.334" y1="332.616" x2="14.4104" y2="350.788" gradientUnits="userSpaceOnUse">
<stop/>
<stop offset="0.0520833" stop-opacity="0.7"/>
<stop offset="0.582884" stop-opacity="0.5171"/>
<stop offset="0.710483" stop-opacity="0.0895"/>
<stop offset="1" stop-opacity="0"/>
</linearGradient>
<clipPath id="clip0_1_1542">
<rect width="235.793" height="485.594" rx="26.4754" transform="matrix(0.931679 0.363283 -0.906308 0.422618 451.785 75.0336)" fill="white"/>
</clipPath>
<clipPath id="clip1_1_1542">
<rect width="235.793" height="485.594" rx="5.16594" transform="matrix(0.931679 0.363283 -0.906308 0.422618 451.785 75.0336)" fill="white"/>
</clipPath>
<clipPath id="clip2_1_1542">
<rect width="235.793" height="485.594" rx="5.16594" transform="matrix(0.931679 0.363283 -0.906308 0.422618 451.785 75.0336)" fill="white"/>
</clipPath>
<clipPath id="clip3_1_1542">
<rect width="233.993" height="481.034" rx="7.7489" transform="matrix(0.931679 0.363283 -0.906308 0.422618 450.837 76.433)" fill="white"/>
</clipPath>
<clipPath id="clip4_1_1542">
<rect width="72.9372" height="20.4709" rx="10.2354" transform="matrix(0.931679 0.363283 -0.906308 0.422618 520.807 107.806)" fill="white"/>
</clipPath>
</defs>
</svg>
