<svg width="12" height="13" viewBox="0 0 12 13" fill="none" xmlns="http://www.w3.org/2000/svg">
<path fill-rule="evenodd" clip-rule="evenodd" d="M6.05033 10.7426C6.24559 10.9379 6.56217 10.9379 6.75744 10.7426L10.6338 6.86623C10.6381 6.86224 10.6423 6.85815 10.6465 6.85397C10.7442 6.75629 10.793 6.62824 10.793 6.50022C10.793 6.37218 10.7442 6.24412 10.6465 6.14643C10.6423 6.14225 10.6381 6.13816 10.6338 6.13416L6.75744 2.25777C6.56217 2.06251 6.24559 2.06251 6.05033 2.25777C5.85507 2.45304 5.85507 2.76962 6.05033 2.96488L9.08562 6.00017H1.50007C1.22393 6.00017 1.00007 6.22403 1.00007 6.50017C1.00007 6.77631 1.22393 7.00017 1.50007 7.00017L9.08568 7.00017L6.05033 10.0355C5.85507 10.2308 5.85507 10.5474 6.05033 10.7426Z" fill="white"/>
</svg>
