<svg width="12" height="13" viewBox="0 0 12 13" fill="none" xmlns="http://www.w3.org/2000/svg">
<path fill-rule="evenodd" clip-rule="evenodd" d="M6.05033 2.25777C6.24559 2.06251 6.56217 2.06251 6.75744 2.25777L10.6338 6.13416C10.6381 6.13816 10.6423 6.14225 10.6465 6.14643C10.7442 6.24412 10.793 6.37217 10.793 6.5002C10.793 6.62823 10.7442 6.75628 10.6465 6.85397C10.6423 6.85815 10.6381 6.86224 10.6338 6.86624L6.75744 10.7426C6.56217 10.9379 6.24559 10.9379 6.05033 10.7426C5.85507 10.5474 5.85507 10.2308 6.05033 10.0355L9.08568 7.00017L1.50007 7.00017C1.22393 7.00017 1.00007 6.77631 1.00007 6.50017C1.00007 6.22403 1.22393 6.00017 1.50007 6.00017H9.08562L6.05033 2.96488C5.85507 2.76962 5.85507 2.45304 6.05033 2.25777Z" fill="#0E3B5C"/>
</svg>
