<svg width="24" height="24" viewBox="0 0 24 24" fill="none" xmlns="http://www.w3.org/2000/svg">
<path d="M12.3761 1.60252C12.8547 1.12395 13.6306 1.12395 14.1092 1.60252L23.6411 11.1344C24.1196 11.613 24.1196 12.3889 23.6411 12.8675C23.1625 13.346 22.3866 13.346 21.908 12.8675L12.3761 3.33559C11.8976 2.85701 11.8976 2.08109 12.3761 1.60252Z" fill="white"/>
<path d="M12.3761 22.3975C12.8547 22.876 13.6306 22.876 14.1092 22.3975L23.6411 12.8656C24.1196 12.387 24.1196 11.6111 23.6411 11.1325C23.1625 10.654 22.3866 10.654 21.908 11.1325L12.3761 20.6644C11.8976 21.143 11.8976 21.9189 12.3761 22.3975Z" fill="white"/>
<path d="M22.0583 10.7745C22.7351 10.7745 23.2838 11.3232 23.2838 12C23.2838 12.6768 22.7351 13.2254 22.0583 13.2254H1.22546C0.548658 13.2254 0 12.6768 0 12C0 11.3232 0.548659 10.7745 1.22546 10.7745H22.0583Z" fill="white"/>
</svg>
