<svg width="104" height="48" viewBox="0 0 104 48" fill="none" xmlns="http://www.w3.org/2000/svg">
<g filter="url(#filter0_i_1092_276)">
<path d="M41.6898 27.1588C38.2391 34.7176 31.7432 39.4523 23.2129 39.4523C12.3926 39.4523 3.62109 30.75 3.62109 20.0152C3.62109 9.28041 12.3926 0.578125 23.2129 0.578125C31.7432 0.578125 37.6928 5.3128 41.6898 12.8717C45.6869 20.4305 58.4478 18.8108 61.8986 12.8717C65.3493 6.93256 71.8451 0.578125 80.3755 0.578125C91.1958 0.578125 99.9673 9.28041 99.9673 20.0152C99.9673 30.75 91.1958 39.4523 80.3755 39.4523C71.8451 39.4523 65.3493 33.6378 61.8986 27.1588C58.4478 20.6797 45.1406 19.5999 41.6898 27.1588Z" fill="url(#paint0_linear_1092_276)"/>
</g>
<path d="M41.3259 26.9927C37.9329 34.4251 31.5698 39.0523 23.2129 39.0523C12.6105 39.0523 4.02109 30.5261 4.02109 20.0152C4.02109 9.50431 12.6105 0.978125 23.2129 0.978125C31.5559 0.978125 37.388 5.59217 41.3362 13.0587C43.4329 17.0237 47.8057 18.5399 52.0187 18.3329C56.2201 18.1265 60.4272 16.2002 62.2444 13.0726C65.6641 7.18692 72.0532 0.978125 80.3755 0.978125C90.9778 0.978125 99.5673 9.50431 99.5673 20.0152C99.5673 30.5261 90.9778 39.0523 80.3755 39.0523C72.0429 39.0523 65.66 33.3703 62.2516 26.9707C60.4342 23.5585 56.0781 21.6324 51.8071 21.4948C47.5298 21.357 43.1443 23.0096 41.3259 26.9927Z" stroke="white" stroke-width="0.8"/>
<g opacity="0.5" filter="url(#filter1_d_1092_276)">
<path d="M64.4839 9.88933C64.4839 9.88933 74.3432 -4.29108 89.8744 3.33863C99.8724 10.3877 102.782 21.9627 96.8979 30.0108C89.4716 42.7054 76.3115 38.6861 76.3115 38.6861C76.3115 38.6861 83.2262 39.5177 88.1855 37.125C94.0022 34.3188 99.7891 25.9491 95.0054 24.0683C79.2049 17.8561 86.5145 5.44781 82.873 3.9375C75.2919 0.793182 64.4839 9.88933 64.4839 9.88933Z" fill="#F6F9FF"/>
</g>
<g filter="url(#filter2_d_1092_276)">
<path d="M89.0706 7.04342C91.6788 7.51253 94.6368 11.1987 94.8163 14.6641C94.8814 15.922 94.8687 17.9745 93.6253 18.1756C91.564 18.5089 90.3612 15.8252 89.3989 13.5871C88.3881 11.2365 85.0185 6.31461 89.0706 7.04342Z" fill="#F6F9FF"/>
</g>
<g filter="url(#filter3_d_1092_276)">
<path d="M94.1259 32.9381C94.1259 32.9381 86.9687 44.2554 71.4376 36.6256C68.6258 34.8265 63.4376 29.9376 61.0636 25.2182C59.9711 23.0464 55.942 21.4033 52.6886 21.4072C46.9152 21.2525 42.0948 24.3136 40.8136 28.4073C38.495 31.1345 37.7824 32.0619 37.7824 32.0619C37.7824 32.0619 39.684 25.3874 43.0937 22.4062C50.6415 15.8071 62.1876 23.3126 67.876 28.1873C70.4627 30.4041 75.0957 28.8471 78.501 28.7498C81.6227 28.6606 85.5311 33.6673 88.1886 34.5001C92.0703 35.7166 94.1259 32.9381 94.1259 32.9381Z" fill="#648AC7"/>
</g>
<g opacity="0.8" filter="url(#filter4_d_1092_276)">
<path d="M4.20312 22.5469C4.20312 22.5469 4.96991 36.9706 20.5 38.8763C34.75 40.6249 40.8125 27.8745 40.8125 27.8745C40.8125 27.8745 36.5073 32.8282 33.4375 31.75C30.2515 30.631 32.4015 26.3406 30.3125 23.6875C24.5718 16.3966 11.6432 27.5727 6.56228 24.4375C5.55752 23.8175 4.20312 22.5469 4.20312 22.5469Z" fill="#436EB4"/>
</g>
<g filter="url(#filter5_i_1092_276)">
<path d="M41.3259 26.9927C37.9329 34.4251 31.5698 39.0523 23.2129 39.0523C12.6105 39.0523 4.02109 30.5261 4.02109 20.0152C4.02109 9.50431 12.6105 0.978125 23.2129 0.978125C31.5559 0.978125 37.388 5.59217 41.3362 13.0587C43.4329 17.0237 47.8057 18.5399 52.0187 18.3329C56.2201 18.1265 60.4272 16.2002 62.2444 13.0726C65.6641 7.18692 72.0532 0.978125 80.3755 0.978125C90.9778 0.978125 99.5673 9.50431 99.5673 20.0152C99.5673 30.5261 90.9778 39.0523 80.3755 39.0523C72.0429 39.0523 65.66 33.3703 62.2516 26.9707C60.4342 23.5585 56.0781 21.6324 51.8071 21.4948C47.5298 21.357 43.1443 23.0096 41.3259 26.9927Z" stroke="white" stroke-width="0.8"/>
</g>
<g opacity="0.5" filter="url(#filter6_d_1092_276)">
<path d="M34.4367 4.43826C39.2099 7.8429 40.4375 14.0625 45.125 16.7188C49.6309 18.7241 55.5028 18.5701 60.1879 15.5628C62.6548 12.1799 64.6192 9.70208 65.7997 8.25695C66.3475 7.35226 67.0318 6.78138 67.0318 6.78138C67.0318 6.78138 66.5927 7.28614 65.7997 8.25695C65.6244 8.54636 65.4632 8.86993 65.3427 9.2199C64.7281 11.0062 64.6695 12.8974 63.4378 14.8761C59.4602 21.2659 55.4688 19.6875 45.625 17.4688C41.9032 16.1805 37.5719 8.15103 30.687 6.5C25.7012 5.30439 22.9136 7.90408 17.875 8.18819C14.0733 8.40255 8.1248 8.18819 8.1248 8.18819C8.1248 8.18819 13.6562 1.3125 22.1881 0.749681C26.6871 0.300741 31.3712 2.25164 34.4367 4.43826Z" fill="#F6F9FF"/>
</g>
<g opacity="0.8" filter="url(#filter7_d_1092_276)">
<path d="M27.312 35.5629C24.9098 36.6819 18.6875 37.0619 13.9879 32.7627C10.7846 29.8324 12.1191 27.6604 13.3122 28.0638C17.375 29.4375 18.8615 27.4139 20.9374 28.6889C23.1177 30.028 31.0441 33.8244 27.312 35.5629Z" fill="#37518B"/>
</g>
<defs>
<filter id="filter0_i_1092_276" x="3.62109" y="0.578125" width="96.3477" height="42.875" filterUnits="userSpaceOnUse" color-interpolation-filters="sRGB">
<feFlood flood-opacity="0" result="BackgroundImageFix"/>
<feBlend mode="normal" in="SourceGraphic" in2="BackgroundImageFix" result="shape"/>
<feColorMatrix in="SourceAlpha" type="matrix" values="0 0 0 0 0 0 0 0 0 0 0 0 0 0 0 0 0 0 127 0" result="hardAlpha"/>
<feOffset dy="4"/>
<feGaussianBlur stdDeviation="2"/>
<feComposite in2="hardAlpha" operator="arithmetic" k2="-1" k3="1"/>
<feColorMatrix type="matrix" values="0 0 0 0 0 0 0 0 0 0 0 0 0 0 0 0 0 0 0.55 0"/>
<feBlend mode="overlay" in2="shape" result="effect1_innerShadow_1092_276"/>
</filter>
<filter id="filter1_d_1092_276" x="60.4844" y="1.08398" width="43.4336" height="46.207" filterUnits="userSpaceOnUse" color-interpolation-filters="sRGB">
<feFlood flood-opacity="0" result="BackgroundImageFix"/>
<feColorMatrix in="SourceAlpha" type="matrix" values="0 0 0 0 0 0 0 0 0 0 0 0 0 0 0 0 0 0 127 0" result="hardAlpha"/>
<feOffset dy="4"/>
<feGaussianBlur stdDeviation="2"/>
<feComposite in2="hardAlpha" operator="out"/>
<feColorMatrix type="matrix" values="0 0 0 0 0.0509804 0 0 0 0 0.105882 0 0 0 0 0.172549 0 0 0 0.5 0"/>
<feBlend mode="normal" in2="BackgroundImageFix" result="effect1_dropShadow_1092_276"/>
<feBlend mode="normal" in="SourceGraphic" in2="effect1_dropShadow_1092_276" result="shape"/>
</filter>
<filter id="filter2_d_1092_276" x="83.125" y="6.9707" width="15.7109" height="19.2324" filterUnits="userSpaceOnUse" color-interpolation-filters="sRGB">
<feFlood flood-opacity="0" result="BackgroundImageFix"/>
<feColorMatrix in="SourceAlpha" type="matrix" values="0 0 0 0 0 0 0 0 0 0 0 0 0 0 0 0 0 0 127 0" result="hardAlpha"/>
<feOffset dy="4"/>
<feGaussianBlur stdDeviation="2"/>
<feComposite in2="hardAlpha" operator="out"/>
<feColorMatrix type="matrix" values="0 0 0 0 0.0509804 0 0 0 0 0.105882 0 0 0 0 0.172549 0 0 0 0.1 0"/>
<feBlend mode="normal" in2="BackgroundImageFix" result="effect1_dropShadow_1092_276"/>
<feBlend mode="normal" in="SourceGraphic" in2="effect1_dropShadow_1092_276" result="shape"/>
</filter>
<filter id="filter3_d_1092_276" x="33.7812" y="17.8125" width="64.3438" height="27.4551" filterUnits="userSpaceOnUse" color-interpolation-filters="sRGB">
<feFlood flood-opacity="0" result="BackgroundImageFix"/>
<feColorMatrix in="SourceAlpha" type="matrix" values="0 0 0 0 0 0 0 0 0 0 0 0 0 0 0 0 0 0 127 0" result="hardAlpha"/>
<feOffset dy="2"/>
<feGaussianBlur stdDeviation="2"/>
<feComposite in2="hardAlpha" operator="out"/>
<feColorMatrix type="matrix" values="0 0 0 0 0.0509804 0 0 0 0 0.105882 0 0 0 0 0.172549 0 0 0 0.4 0"/>
<feBlend mode="normal" in2="BackgroundImageFix" result="effect1_dropShadow_1092_276"/>
<feBlend mode="normal" in="SourceGraphic" in2="effect1_dropShadow_1092_276" result="shape"/>
</filter>
<filter id="filter4_d_1092_276" x="0.203125" y="19.168" width="44.6094" height="25.873" filterUnits="userSpaceOnUse" color-interpolation-filters="sRGB">
<feFlood flood-opacity="0" result="BackgroundImageFix"/>
<feColorMatrix in="SourceAlpha" type="matrix" values="0 0 0 0 0 0 0 0 0 0 0 0 0 0 0 0 0 0 127 0" result="hardAlpha"/>
<feOffset dy="2"/>
<feGaussianBlur stdDeviation="2"/>
<feComposite in2="hardAlpha" operator="out"/>
<feColorMatrix type="matrix" values="0 0 0 0 0.0509804 0 0 0 0 0.105882 0 0 0 0 0.172549 0 0 0 0.3 0"/>
<feBlend mode="normal" in2="BackgroundImageFix" result="effect1_dropShadow_1092_276"/>
<feBlend mode="normal" in="SourceGraphic" in2="effect1_dropShadow_1092_276" result="shape"/>
</filter>
<filter id="filter5_i_1092_276" x="3.62109" y="0.578125" width="96.3477" height="42.875" filterUnits="userSpaceOnUse" color-interpolation-filters="sRGB">
<feFlood flood-opacity="0" result="BackgroundImageFix"/>
<feBlend mode="normal" in="SourceGraphic" in2="BackgroundImageFix" result="shape"/>
<feColorMatrix in="SourceAlpha" type="matrix" values="0 0 0 0 0 0 0 0 0 0 0 0 0 0 0 0 0 0 127 0" result="hardAlpha"/>
<feOffset dy="4"/>
<feGaussianBlur stdDeviation="2"/>
<feComposite in2="hardAlpha" operator="arithmetic" k2="-1" k3="1"/>
<feColorMatrix type="matrix" values="0 0 0 0 0 0 0 0 0 0 0 0 0 0 0 0 0 0 0.55 0"/>
<feBlend mode="overlay" in2="shape" result="effect1_innerShadow_1092_276"/>
</filter>
<filter id="filter6_d_1092_276" x="4.125" y="0.685547" width="66.9062" height="26.7266" filterUnits="userSpaceOnUse" color-interpolation-filters="sRGB">
<feFlood flood-opacity="0" result="BackgroundImageFix"/>
<feColorMatrix in="SourceAlpha" type="matrix" values="0 0 0 0 0 0 0 0 0 0 0 0 0 0 0 0 0 0 127 0" result="hardAlpha"/>
<feOffset dy="4"/>
<feGaussianBlur stdDeviation="2"/>
<feComposite in2="hardAlpha" operator="out"/>
<feColorMatrix type="matrix" values="0 0 0 0 0.0509804 0 0 0 0 0.105882 0 0 0 0 0.172549 0 0 0 0.5 0"/>
<feBlend mode="normal" in2="BackgroundImageFix" result="effect1_dropShadow_1092_276"/>
<feBlend mode="normal" in="SourceGraphic" in2="effect1_dropShadow_1092_276" result="shape"/>
</filter>
<filter id="filter7_d_1092_276" x="7.99219" y="26.0156" width="24.3047" height="16.2871" filterUnits="userSpaceOnUse" color-interpolation-filters="sRGB">
<feFlood flood-opacity="0" result="BackgroundImageFix"/>
<feColorMatrix in="SourceAlpha" type="matrix" values="0 0 0 0 0 0 0 0 0 0 0 0 0 0 0 0 0 0 127 0" result="hardAlpha"/>
<feOffset dy="2"/>
<feGaussianBlur stdDeviation="2"/>
<feComposite in2="hardAlpha" operator="out"/>
<feColorMatrix type="matrix" values="0 0 0 0 0.0509804 0 0 0 0 0.105882 0 0 0 0 0.172549 0 0 0 0.33 0"/>
<feBlend mode="normal" in2="BackgroundImageFix" result="effect1_dropShadow_1092_276"/>
<feBlend mode="normal" in="SourceGraphic" in2="effect1_dropShadow_1092_276" result="shape"/>
</filter>
<linearGradient id="paint0_linear_1092_276" x1="51.7942" y1="0.578125" x2="51.7942" y2="39.4523" gradientUnits="userSpaceOnUse">
<stop stop-color="#91AFEF"/>
<stop offset="1" stop-color="#CDDDFF"/>
</linearGradient>
</defs>
</svg>
