<svg width="56" height="15" viewBox="0 0 56 15" fill="none" xmlns="http://www.w3.org/2000/svg">
<path fill-rule="evenodd" clip-rule="evenodd" d="M47.2254 10.8726C44.223 10.8726 41.7891 8.43871 41.7891 5.43632C41.7891 2.43392 44.223 0 47.2254 0C50.2278 0 52.6617 2.43392 52.6617 5.43632C52.6617 6.67617 52.2466 7.81909 51.5479 8.73369L55.6996 12.8854C55.9827 13.1685 55.9827 13.6275 55.6996 13.9105C55.4166 14.1936 54.9576 14.1936 54.6746 13.9105L50.5228 9.75878C49.6082 10.4576 48.4653 10.8726 47.2254 10.8726ZM47.2254 9.42295C49.4271 9.42295 51.212 7.63807 51.212 5.43632C51.212 3.23456 49.4271 1.44968 47.2254 1.44968C45.0236 1.44968 43.2387 3.23456 43.2387 5.43632C43.2387 7.63807 45.0236 9.42295 47.2254 9.42295Z" fill="#051324"/>
<mask id="path-2-inside-1_1099_1955" fill="white">
<path fill-rule="evenodd" clip-rule="evenodd" d="M12.0766 9.23153H1.05739C0.738766 9.23153 0.480469 9.48982 0.480469 9.80845C0.480469 10.1271 0.738766 10.3854 1.05739 10.3854H12.0766C12.3439 11.702 13.508 12.6931 14.9035 12.6931C16.4967 12.6931 17.7882 11.4016 17.7882 9.80845C17.7882 8.21532 16.4967 6.92384 14.9035 6.92384C13.508 6.92384 12.3439 7.91485 12.0766 9.23153ZM14.9219 11.8445C16.0264 11.8445 16.9219 10.9491 16.9219 9.84451C16.9219 8.73994 16.0264 7.84451 14.9219 7.84451C13.8173 7.84451 12.9219 8.73994 12.9219 9.84451C12.9219 10.9491 13.8173 11.8445 14.9219 11.8445Z"/>
<path fill-rule="evenodd" clip-rule="evenodd" d="M5.97325 2.32527H16.9925C17.3111 2.32527 17.5694 2.58357 17.5694 2.90219C17.5694 3.22082 17.3111 3.47912 16.9925 3.47912H5.97325C5.70597 4.7958 4.54189 5.78681 3.14633 5.78681C1.5532 5.78681 0.261719 4.49532 0.261719 2.90219C0.261719 1.30907 1.5532 0.0175776 3.14633 0.0175776C4.54189 0.0175776 5.70597 1.00859 5.97325 2.32527ZM3.128 4.93825C2.02343 4.93825 1.128 4.04282 1.128 2.93825C1.128 1.83368 2.02343 0.938251 3.128 0.938251C4.23257 0.938251 5.128 1.83368 5.128 2.93825C5.128 4.04282 4.23257 4.93825 3.128 4.93825Z"/>
</mask>
<path fill-rule="evenodd" clip-rule="evenodd" d="M12.0766 9.23153H1.05739C0.738766 9.23153 0.480469 9.48982 0.480469 9.80845C0.480469 10.1271 0.738766 10.3854 1.05739 10.3854H12.0766C12.3439 11.702 13.508 12.6931 14.9035 12.6931C16.4967 12.6931 17.7882 11.4016 17.7882 9.80845C17.7882 8.21532 16.4967 6.92384 14.9035 6.92384C13.508 6.92384 12.3439 7.91485 12.0766 9.23153ZM14.9219 11.8445C16.0264 11.8445 16.9219 10.9491 16.9219 9.84451C16.9219 8.73994 16.0264 7.84451 14.9219 7.84451C13.8173 7.84451 12.9219 8.73994 12.9219 9.84451C12.9219 10.9491 13.8173 11.8445 14.9219 11.8445Z" fill="#FFFAF6"/>
<path fill-rule="evenodd" clip-rule="evenodd" d="M5.97325 2.32527H16.9925C17.3111 2.32527 17.5694 2.58357 17.5694 2.90219C17.5694 3.22082 17.3111 3.47912 16.9925 3.47912H5.97325C5.70597 4.7958 4.54189 5.78681 3.14633 5.78681C1.5532 5.78681 0.261719 4.49532 0.261719 2.90219C0.261719 1.30907 1.5532 0.0175776 3.14633 0.0175776C4.54189 0.0175776 5.70597 1.00859 5.97325 2.32527ZM3.128 4.93825C2.02343 4.93825 1.128 4.04282 1.128 2.93825C1.128 1.83368 2.02343 0.938251 3.128 0.938251C4.23257 0.938251 5.128 1.83368 5.128 2.93825C5.128 4.04282 4.23257 4.93825 3.128 4.93825Z" fill="#FFFAF6"/>
<path d="M12.0766 9.23153V10.4623H13.0827L13.2828 9.47636L12.0766 9.23153ZM12.0766 10.3854L13.2828 10.1405L13.0827 9.1546H12.0766V10.3854ZM5.97325 2.32527L4.76708 2.57011L4.96721 3.55604H5.97325V2.32527ZM5.97325 3.47912V2.24835H4.96721L4.76708 3.23428L5.97325 3.47912ZM1.05739 10.4623H12.0766V8.00076H1.05739V10.4623ZM1.71124 9.80845C1.71124 10.1696 1.4185 10.4623 1.05739 10.4623V8.00076C0.0590306 8.00076 -0.750301 8.81009 -0.750301 9.80845H1.71124ZM1.05739 9.1546C1.4185 9.1546 1.71124 9.44734 1.71124 9.80845H-0.750301C-0.750301 10.8068 0.059035 11.6161 1.05739 11.6161V9.1546ZM12.0766 9.1546H1.05739V11.6161H12.0766V9.1546ZM14.9035 11.4623C14.1049 11.4623 13.4359 10.8949 13.2828 10.1405L10.8705 10.6302C11.2519 12.5092 12.9111 13.9238 14.9035 13.9238V11.4623ZM16.5574 9.80845C16.5574 10.7218 15.8169 11.4623 14.9035 11.4623V13.9238C17.1764 13.9238 19.0189 12.0813 19.0189 9.80845H16.5574ZM14.9035 8.15461C15.8169 8.15461 16.5574 8.89506 16.5574 9.80845H19.0189C19.0189 7.53558 17.1764 5.69307 14.9035 5.69307V8.15461ZM13.2828 9.47636C13.4359 8.72199 14.1049 8.15461 14.9035 8.15461V5.69307C12.9111 5.69307 11.2519 7.10771 10.8705 8.98669L13.2828 9.47636ZM15.6911 9.84451C15.6911 10.2693 15.3467 10.6137 14.9219 10.6137V13.0753C16.7062 13.0753 18.1526 11.6288 18.1526 9.84451H15.6911ZM14.9219 9.07528C15.3467 9.07528 15.6911 9.41968 15.6911 9.84451H18.1526C18.1526 8.06019 16.7062 6.61374 14.9219 6.61374V9.07528ZM14.1526 9.84451C14.1526 9.41968 14.497 9.07528 14.9219 9.07528V6.61374C13.1376 6.61374 11.6911 8.06019 11.6911 9.84451H14.1526ZM14.9219 10.6137C14.497 10.6137 14.1526 10.2693 14.1526 9.84451H11.6911C11.6911 11.6288 13.1376 13.0753 14.9219 13.0753V10.6137ZM16.9925 1.0945H5.97325V3.55604H16.9925V1.0945ZM18.8002 2.90219C18.8002 1.90383 17.9908 1.0945 16.9925 1.0945V3.55604C16.6314 3.55604 16.3386 3.2633 16.3386 2.90219H18.8002ZM16.9925 4.70989C17.9908 4.70989 18.8002 3.90056 18.8002 2.90219H16.3386C16.3386 2.54109 16.6314 2.24835 16.9925 2.24835V4.70989ZM5.97325 4.70989H16.9925V2.24835H5.97325V4.70989ZM3.14633 7.01758C5.13875 7.01758 6.798 5.60293 7.17942 3.72396L4.76708 3.23428C4.61395 3.98866 3.94502 4.55604 3.14633 4.55604V7.01758ZM-0.969051 2.90219C-0.969051 5.17506 0.873469 7.01758 3.14633 7.01758V4.55604C2.23294 4.55604 1.49249 3.81559 1.49249 2.90219H-0.969051ZM3.14633 -1.21319C0.873468 -1.21319 -0.969051 0.629332 -0.969051 2.90219H1.49249C1.49249 1.9888 2.23294 1.24835 3.14633 1.24835V-1.21319ZM7.17942 2.08043C6.798 0.201457 5.13875 -1.21319 3.14633 -1.21319V1.24835C3.94502 1.24835 4.61394 1.81573 4.76708 2.57011L7.17942 2.08043ZM-0.102765 2.93825C-0.102765 4.72256 1.3437 6.16902 3.128 6.16902V3.70748C2.70317 3.70748 2.35877 3.36309 2.35877 2.93825H-0.102765ZM3.128 -0.292518C1.3437 -0.292518 -0.102765 1.15395 -0.102765 2.93825H2.35877C2.35877 2.51342 2.70317 2.16902 3.128 2.16902V-0.292518ZM6.35877 2.93825C6.35877 1.15395 4.91231 -0.292518 3.128 -0.292518V2.16902C3.55284 2.16902 3.89723 2.51342 3.89723 2.93825H6.35877ZM3.128 6.16902C4.91231 6.16902 6.35877 4.72256 6.35877 2.93825H3.89723C3.89723 3.36309 3.55284 3.70748 3.128 3.70748V6.16902Z" fill="#051324" mask="url(#path-2-inside-1_1099_1955)"/>
</svg>
