<svg width="25" height="25" viewBox="0 0 25 25" fill="none" xmlns="http://www.w3.org/2000/svg">
<path d="M12.6005 4.01506C12.991 3.62454 13.6242 3.62454 14.0147 4.01506L21.7675 11.7678C21.7761 11.7758 21.7845 11.784 21.7929 11.7924C21.9883 11.9877 22.0859 12.2438 22.0858 12.4999C22.0859 12.756 21.9883 13.0121 21.7929 13.2074C21.7845 13.2158 21.7761 13.224 21.7675 13.232L14.0147 20.9848C13.6242 21.3753 12.991 21.3753 12.6005 20.9848C12.21 20.5942 12.21 19.9611 12.6005 19.5705L18.6712 13.4998H3.5C2.94772 13.4998 2.5 13.0521 2.5 12.4998C2.5 11.9476 2.94772 11.4998 3.5 11.4998H18.6711L12.6005 5.42927C12.21 5.03875 12.21 4.40559 12.6005 4.01506Z" fill="#408C68"/>
</svg>
