<svg width="46" height="46" viewBox="0 0 46 46" fill="none" xmlns="http://www.w3.org/2000/svg">
<g clip-path="url(#clip0_478_2502)">
<path d="M23.0001 34.4985C29.3513 34.4985 34.5001 29.3497 34.5001 22.9985C34.5001 16.6472 29.3513 11.4985 23.0001 11.4985C16.6488 11.4985 11.5001 16.6472 11.5001 22.9985C11.5001 29.3497 16.6488 34.4985 23.0001 34.4985Z" fill="#D6E3F1"/>
<path d="M37.1346 14.1293C36.1436 14.1293 35.1917 14.2945 34.3036 14.5944C36.0494 16.94 37.0838 19.8476 37.0838 22.9958C37.0838 26.144 36.0494 29.0517 34.3036 31.3973C35.1932 31.6972 36.145 31.8623 37.1346 31.8623C42.0314 31.8623 46.0011 27.8927 46.0011 22.9958C46.0011 18.099 42.0314 14.1293 37.1346 14.1293Z" fill="#D6E3F1"/>
<path opacity="0.2" d="M23.0006 31.8623C27.8975 31.8623 31.8671 27.8927 31.8671 22.9958C31.8671 18.099 27.8975 14.1293 23.0006 14.1293C18.1038 14.1293 14.1342 18.099 14.1342 22.9958C14.1342 27.8927 18.1038 31.8623 23.0006 31.8623Z" fill="url(#paint0_radial_478_2502)"/>
<path opacity="0.5" d="M23.0005 29.3878C26.5289 29.3878 29.3893 26.5274 29.3893 22.9989C29.3893 19.4704 26.5289 16.61 23.0005 16.61C19.472 16.61 16.6116 19.4704 16.6116 22.9989C16.6116 26.5274 19.472 29.3878 23.0005 29.3878Z" fill="url(#paint1_radial_478_2502)"/>
<path d="M23 25.5572C24.4113 25.5572 25.5555 24.413 25.5555 23.0016C25.5555 21.5902 24.4113 20.446 23 20.446C21.5886 20.446 20.4444 21.5902 20.4444 23.0016C20.4444 24.413 21.5886 25.5572 23 25.5572Z" fill="#3C77BC"/>
<path d="M23.0006 37.0807C19.851 37.0807 16.9448 36.0462 14.5992 34.3005C14.2993 35.19 14.1342 36.1419 14.1342 37.1314C14.1342 42.0282 18.1038 45.9979 23.0006 45.9979C27.8975 45.9979 31.8671 42.0282 31.8671 37.1314C31.8671 36.1404 31.702 35.1886 31.4021 34.3005C29.058 36.0477 26.1503 37.0807 23.0006 37.0807Z" fill="#D6E3F1"/>
<path d="M8.9172 22.9958C8.9172 19.8462 9.95163 16.94 11.6974 14.5944C10.8079 14.2945 9.85601 14.1293 8.8665 14.1293C3.96964 14.1293 0 18.099 0 22.9958C0 27.8927 3.96964 31.8623 8.8665 31.8623C9.85746 31.8623 10.8093 31.6972 11.6974 31.3973C9.95163 29.0531 8.9172 26.1455 8.9172 22.9958Z" fill="#D6E3F1"/>
<path d="M23.0006 8.9172C26.1503 8.9172 29.0565 9.95163 31.4021 11.6974C31.702 10.8079 31.8671 9.85601 31.8671 8.8665C31.8671 3.96964 27.8975 0 23.0006 0C18.1038 0 14.1342 3.96964 14.1342 8.8665C14.1342 9.85746 14.2993 10.8093 14.5992 11.6974C16.9448 9.95163 19.8525 8.9172 23.0006 8.9172Z" fill="#D6E3F1"/>
</g>
<defs>
<radialGradient id="paint0_radial_478_2502" cx="0" cy="0" r="1" gradientUnits="userSpaceOnUse" gradientTransform="translate(23.0006 22.9958) rotate(90) scale(8.86649)">
<stop stop-color="#3C77BC"/>
<stop offset="1" stop-color="#3C77BC"/>
</radialGradient>
<radialGradient id="paint1_radial_478_2502" cx="0" cy="0" r="1" gradientUnits="userSpaceOnUse" gradientTransform="translate(23.0005 22.9989) rotate(90) scale(6.38889)">
<stop stop-color="#3C77BC"/>
<stop offset="1" stop-color="#3C77BC"/>
</radialGradient>
<clipPath id="clip0_478_2502">
<rect width="46" height="46" fill="white"/>
</clipPath>
</defs>
</svg>
