<svg width="24" height="24" viewBox="0 0 24 24" fill="none" xmlns="http://www.w3.org/2000/svg">
<path d="M12.0001 23.4985C18.3513 23.4985 23.5001 18.3498 23.5001 11.9985C23.5001 5.64726 18.3513 0.498535 12.0001 0.498535C5.64879 0.498535 0.500061 5.64726 0.500061 11.9985C0.500061 18.3498 5.64879 23.4985 12.0001 23.4985Z" fill="#D6E3F1"/>
<path opacity="0.2" d="M12.0006 20.8624C16.8974 20.8624 20.8671 16.8927 20.8671 11.9959C20.8671 7.09906 16.8974 3.12939 12.0006 3.12939C7.10379 3.12939 3.13412 7.09906 3.13412 11.9959C3.13412 16.8927 7.10379 20.8624 12.0006 20.8624Z" fill="url(#paint0_radial_506_4857)"/>
<path opacity="0.5" d="M12.0005 18.3879C15.5289 18.3879 18.3893 15.5275 18.3893 11.999C18.3893 8.47051 15.5289 5.61011 12.0005 5.61011C8.47198 5.61011 5.61157 8.47051 5.61157 11.999C5.61157 15.5275 8.47198 18.3879 12.0005 18.3879Z" fill="url(#paint1_radial_506_4857)"/>
<path d="M12 14.5572C13.4113 14.5572 14.5555 13.413 14.5555 12.0016C14.5555 10.5902 13.4113 9.44604 12 9.44604C10.5886 9.44604 9.4444 10.5902 9.4444 12.0016C9.4444 13.413 10.5886 14.5572 12 14.5572Z" fill="#3C77BC"/>
<defs>
<radialGradient id="paint0_radial_506_4857" cx="0" cy="0" r="1" gradientUnits="userSpaceOnUse" gradientTransform="translate(12.0006 11.9959) rotate(90) scale(8.86649)">
<stop stop-color="#3C77BC"/>
<stop offset="1" stop-color="#3C77BC"/>
</radialGradient>
<radialGradient id="paint1_radial_506_4857" cx="0" cy="0" r="1" gradientUnits="userSpaceOnUse" gradientTransform="translate(12.0005 11.999) rotate(90) scale(6.38889)">
<stop stop-color="#3C77BC"/>
<stop offset="1" stop-color="#3C77BC"/>
</radialGradient>
</defs>
</svg>
