<svg width="75" height="20" viewBox="0 0 75 20" fill="none" xmlns="http://www.w3.org/2000/svg">
<path d="M2.51983 19.7994H0L7.4755 0.200703H10.3593L17.8068 19.7994H15.203L13.1311 14.5077H4.59169L2.51983 19.7994ZM8.84741 2.86053L5.31964 12.2959H12.4032L8.84741 2.86053Z" fill="#1D242F"/>
<path d="M19.6884 19.7994V0.200703H21.9842V19.7994H19.6884Z" fill="#1D242F"/>
<path d="M26.1933 16.0756V7.62021H23.6175V5.52035H26.1933V1.51662H28.4892V5.52035H32.1849V7.62021H28.4892V16.0476C28.4892 17.2516 28.9092 17.6995 30.1411 17.6995H32.4089V19.7994H29.9171C27.1733 19.7994 26.1933 18.5955 26.1933 16.0756Z" fill="#1D242F"/>
<path d="M52.4011 17.5595H53.913V19.7994H52.1211C50.6372 19.7994 49.8533 19.4074 49.1533 18.4555L48.9574 18.1755C47.4455 19.3234 45.5136 19.9674 43.3577 19.9674C37.8421 19.9674 34.0064 15.7677 34.0064 10.0001C34.0064 4.23243 37.8421 0.0327148 43.3577 0.0327148C48.8734 0.0327148 52.7091 4.23243 52.7091 10.0001C52.7091 12.6039 51.9252 14.8717 50.5533 16.6076C51.0852 17.3076 51.5612 17.5595 52.4011 17.5595ZM43.3577 17.7275C45.0096 17.7275 46.4375 17.1956 47.5574 16.2716L47.0255 15.5437C46.4935 14.8437 46.0175 14.5637 45.3176 14.5637H43.6657V12.3239H45.7096C47.0255 12.3239 47.7254 12.7439 48.4254 13.6958L49.0414 14.5357C49.7973 13.3038 50.2173 11.7359 50.2173 10.0001C50.2173 5.49235 47.4455 2.27256 43.3577 2.27256C39.27 2.27256 36.4982 5.49235 36.4982 10.0001C36.4982 14.5078 39.27 17.7275 43.3577 17.7275Z" fill="#1D242F"/>
<circle cx="2.25739" cy="2.25739" r="2.25739" transform="matrix(-1 0 0 1 63.0859 0)" fill="#1D242F"/>
<circle cx="2.25739" cy="2.25739" r="2.25739" transform="matrix(-1 0 0 1 63.0859 5)" fill="#1D242F"/>
<circle cx="2.25739" cy="2.25739" r="2.25739" transform="matrix(-1 0 0 1 63.0859 10.0518)" fill="#1D242F"/>
<circle cx="2.25739" cy="2.25739" r="2.25739" transform="matrix(-1 0 0 1 63.0859 15)" fill="#1D242F"/>
<circle cx="2.0233" cy="2.0233" r="2.0233" transform="matrix(-1 0 0 1 67.8203 3.5708)" fill="#1D242F"/>
<circle cx="2.0233" cy="2.0233" r="2.0233" transform="matrix(-1 0 0 1 67.8203 8)" fill="#1D242F"/>
<circle cx="2.0233" cy="2.0233" r="2.0233" transform="matrix(-1 0 0 1 67.8203 12.3823)" fill="#1D242F"/>
<circle cx="1.08459" cy="1.08459" r="1.08459" transform="matrix(-1 0 0 1 73.9648 9)" fill="#1D242F"/>
<circle cx="1.29941" cy="1.29941" r="1.29941" transform="matrix(-1 0 0 1 71.1055 7)" fill="#1D242F"/>
<circle cx="1.29941" cy="1.29941" r="1.29941" transform="matrix(-1 0 0 1 71.1055 9.94678)" fill="#1D242F"/>
</svg>
