<svg width="75" height="20" viewBox="0 0 75 20" fill="none" xmlns="http://www.w3.org/2000/svg">
<path d="M2.51983 19.7667H0L7.4755 0.167988H10.3593L17.8068 19.7667H15.203L13.1311 14.475H4.59169L2.51983 19.7667ZM8.84741 2.82781L5.31964 12.2632H12.4032L8.84741 2.82781Z" fill="#1D242F"/>
<path d="M19.6884 19.7667V0.167988H21.9842V19.7667H19.6884Z" fill="#1D242F"/>
<path d="M26.1933 16.0429V7.58749H23.6175V5.48763H26.1933V1.4839H28.4892V5.48763H32.1849V7.58749H28.4892V16.0149C28.4892 17.2189 28.9092 17.6668 30.1411 17.6668H32.4089V19.7667H29.9171C27.1733 19.7667 26.1933 18.5628 26.1933 16.0429Z" fill="#1D242F"/>
<path d="M52.4011 17.5268H53.913V19.7667H52.1211C50.6372 19.7667 49.8533 19.3747 49.1533 18.4228L48.9574 18.1428C47.4455 19.2907 45.5136 19.9347 43.3577 19.9347C37.8421 19.9347 34.0064 15.735 34.0064 9.96734C34.0064 4.19972 37.8421 0 43.3577 0C48.8734 0 52.7091 4.19972 52.7091 9.96734C52.7091 12.5712 51.9252 14.839 50.5533 16.5749C51.0852 17.2748 51.5612 17.5268 52.4011 17.5268ZM43.3577 17.6948C45.0096 17.6948 46.4375 17.1629 47.5574 16.2389L47.0255 15.511C46.4935 14.811 46.0176 14.531 45.3176 14.531H43.6657V12.2912H45.7096C47.0255 12.2912 47.7254 12.7112 48.4254 13.6631L49.0414 14.503C49.7973 13.2711 50.2173 11.7032 50.2173 9.96734C50.2173 5.45964 47.4455 2.23985 43.3577 2.23985C39.27 2.23985 36.4982 5.45964 36.4982 9.96734C36.4982 14.475 39.27 17.6948 43.3577 17.6948Z" fill="#1D242F"/>
<path d="M57.9141 2.79899C57.9141 1.56119 59.2593 0.792189 60.3259 1.42028L72.4517 8.56074C73.5025 9.17954 73.5025 10.6994 72.4517 11.3182L60.3259 18.4586C59.2593 19.0867 57.9141 18.3177 57.9141 17.0799V2.79899Z" fill="#DB6767"/>
</svg>
