<svg width="157" height="47" viewBox="0 0 157 47" fill="none" xmlns="http://www.w3.org/2000/svg">
<path d="M6.22928 45.8142C6.06716 46.2414 5.65779 46.5239 5.20084 46.5239H1.79199C1.02266 46.5239 0.490973 45.7544 0.763113 45.0348L17.0191 2.05082C17.1809 1.62299 17.5906 1.33993 18.048 1.33993H23.1189C23.5768 1.33993 23.9868 1.6236 24.1483 2.0521L40.3434 45.0361C40.6144 45.7555 40.0828 46.5239 39.314 46.5239H35.7111C35.2541 46.5239 34.8447 46.2414 34.6826 45.8142L30.4853 34.7537C30.3232 34.3264 29.9138 34.0439 29.4568 34.0439H11.4551C10.9981 34.0439 10.5887 34.3264 10.4266 34.7537L6.22928 45.8142ZM21.4574 10.1621C21.0991 9.21134 19.7535 9.21309 19.3977 10.1648L12.9153 27.5027C12.6464 28.2217 13.178 28.9879 13.9456 28.9879H26.9619C27.7307 28.9879 28.2623 28.2194 27.9912 27.5L21.4574 10.1621Z" fill="black"/>
<path d="M43.705 46.5239C43.0974 46.5239 42.605 46.0314 42.605 45.4239V2.43993C42.605 1.83242 43.0974 1.33993 43.705 1.33993H46.753C47.3605 1.33993 47.853 1.83242 47.853 2.43993V45.4239C47.853 46.0314 47.3605 46.5239 46.753 46.5239H43.705Z" fill="black"/>
<path d="M52.1245 37.6279V18.2999V13.4999V7.43993C52.1245 6.83242 52.6169 6.33993 53.2244 6.33993H56.2725C56.88 6.33993 57.3725 6.83242 57.3725 7.43993V12.3999C57.3725 13.0074 57.8649 13.4999 58.4725 13.4999H64.7205C65.328 13.4999 65.8204 13.9924 65.8204 14.5999V17.1999C65.8204 17.8074 65.328 18.2999 64.7205 18.2999H58.4725C57.8649 18.2999 57.3725 18.7924 57.3725 19.3999V37.5639C57.3725 40.3159 58.3325 41.3399 61.1485 41.3399H65.2325C65.84 41.3399 66.3325 41.8324 66.3325 42.4399V45.4239C66.3325 46.0314 65.84 46.5239 65.2325 46.5239H60.6365C54.3645 46.5239 52.1245 43.3879 52.1245 37.6279Z" fill="black"/>
<path d="M108.432 41.0199H110.788C111.395 41.0199 111.888 41.5124 111.888 42.1199V45.4239C111.888 46.0314 111.395 46.5239 110.788 46.5239H107.792C104.4 46.5239 102.608 45.2439 101.008 43.0679L100.56 42.4279C97.104 45.0519 92.688 46.5239 87.7599 46.5239C75.1519 46.5239 66.3839 36.9239 66.3839 23.7399C66.3839 10.5559 75.1519 0.955933 87.7599 0.955933C100.368 0.955933 109.136 10.5559 109.136 23.7399C109.136 29.6919 107.344 34.8759 104.208 38.8439C105.424 40.4439 106.512 41.0199 108.432 41.0199ZM87.7599 41.4039C91.5359 41.4039 94.7999 40.1879 97.3599 38.0759L96.144 36.4119C94.9279 34.8119 93.84 34.1719 92.24 34.1719H89.5639C88.9564 34.1719 88.464 33.6795 88.464 33.0719V30.1519C88.464 29.5444 88.9564 29.0519 89.5639 29.0519H93.1359C96.144 29.0519 97.7439 30.0119 99.3439 32.1879L100.752 34.1079C102.48 31.2919 103.44 27.7079 103.44 23.7399C103.44 13.4359 97.104 6.07593 87.7599 6.07593C78.4159 6.07593 72.0799 13.4359 72.0799 23.7399C72.0799 34.0439 78.4159 41.4039 87.7599 41.4039Z" fill="black"/>
<path d="M152.191 22.065C154.188 23.2203 154.188 26.1033 152.191 27.2586L123.39 43.9195C121.39 45.0764 118.888 43.6332 118.888 41.3227L118.888 8.00094C118.888 5.69041 121.39 4.24717 123.39 5.40414L152.191 22.065Z" fill="#F26565"/>
</svg>
