<svg width="80" height="19" viewBox="0 0 80 19" fill="none" xmlns="http://www.w3.org/2000/svg">
<path d="M3.38913 18.6369V11.0652C3.38913 8.98999 4.63921 7.47565 6.77823 7.47565C8.50056 7.47565 9.63952 8.59738 9.63952 10.925V18.6369H13.0286V10.1117C13.0286 6.52218 11.2507 4.36285 7.86163 4.36285C5.88929 4.36285 4.27808 5.23219 3.41691 6.57827L3.41688 0.464846H0L3.39105e-05 18.6369H3.38913Z" fill="#0D1B2C"/>
<path d="M18.4975 19.0014C20.6365 19.0014 22.4977 18.0199 23.0811 16.5897L23.0255 18.6369H26.3035V10.2239C26.3035 6.38197 24.0256 4.36285 20.3309 4.36285C16.6085 4.36285 14.1639 6.32588 14.1639 9.32651H17.053C17.053 7.86826 18.1641 7.02696 20.1643 7.02696C21.8866 7.02696 22.9978 7.78413 22.9978 9.66303V9.9715L18.8864 10.28C15.6362 10.5324 13.8028 12.1308 13.8028 14.6828C13.8028 17.2908 15.5806 19.0014 18.4975 19.0014ZM19.6087 16.4214C18.0808 16.4214 17.2474 15.8045 17.2474 14.5426C17.2474 13.4208 18.053 12.7197 20.1643 12.5234L23.0255 12.2991V13.0282C23.0255 15.1595 21.6921 16.4214 19.6087 16.4214Z" fill="#0D1B2C"/>
<path d="M31.1053 18.6369L31.0497 16.4775C31.8553 18.076 33.6054 19.0014 35.6611 19.0014C39.6058 19.0014 42.1893 16.0569 42.1893 11.7943C42.1893 7.41957 39.8002 4.33481 35.8833 4.33481C33.7999 4.33481 31.9664 5.26024 31.0775 6.80262L31.0774 0.464846H27.6883L27.6884 18.6369H31.1053ZM31.1053 11.6541C31.1053 9.15825 32.6331 7.41957 34.9666 7.41957C37.3556 7.41957 38.7724 9.18629 38.7724 11.6541C38.7724 14.1219 37.3556 15.8606 34.9666 15.8606C32.6331 15.8606 31.1053 14.1499 31.1053 11.6541Z" fill="#0D1B2C"/>
<path d="M46.3601 18.6369L46.3046 16.4775C47.1102 18.076 48.8603 19.0014 50.916 19.0014C54.8606 19.0014 57.4441 16.0569 57.4441 11.7943C57.4441 7.41957 55.0551 4.33481 51.1382 4.33481C49.0547 4.33481 47.2213 5.26024 46.3323 6.80262L46.3323 0.464846H42.9432L42.9432 18.6369H46.3601ZM46.3601 11.6541C46.3601 9.15825 47.888 7.41957 50.2215 7.41957C52.6105 7.41957 54.0273 9.18629 54.0273 11.6541C54.0273 14.1219 52.6105 15.8606 50.2215 15.8606C47.888 15.8606 46.3601 14.1499 46.3601 11.6541Z" fill="#0D1B2C"/>
<path d="M57.3925 11.6821C57.3925 16.0008 60.476 18.9734 64.7263 18.9734C68.9765 18.9734 72.0601 16.0008 72.0601 11.6821C72.0601 7.36348 68.9765 4.3909 64.7263 4.3909C60.476 4.3909 57.3925 7.36348 57.3925 11.6821ZM60.7816 11.6821C60.7816 9.15825 62.3928 7.44761 64.7263 7.44761C67.0597 7.44761 68.671 9.15825 68.671 11.6821C68.671 14.206 67.0597 15.9167 64.7263 15.9167C62.3928 15.9167 60.7816 14.206 60.7816 11.6821Z" fill="#0D1B2C"/>
<path d="M77.3332 18.6369V7.64391H80V4.7835H77.3332V0.464844H73.9441V4.7835H71.305V7.64391H73.9441V18.6369H77.3332Z" fill="#0D1B2C"/>
</svg>
