<svg width="18" height="18" viewBox="0 0 18 18" fill="none" xmlns="http://www.w3.org/2000/svg">
<path d="M3.94523 1.40264C3.94523 0.713939 4.50353 0.155637 5.19223 0.155637L15.9093 0.155636C16.598 0.155636 17.1563 0.713939 17.1563 1.40264C17.1563 2.09134 16.598 2.64964 15.9093 2.64964L5.19223 2.64964C4.50353 2.64964 3.94523 2.09134 3.94523 1.40264Z" fill="#03131F"/>
<path d="M15.9079 13.3653C16.5966 13.3653 17.1549 12.807 17.1549 12.1183L17.1549 1.4013C17.1549 0.7126 16.5966 0.154297 15.9079 0.154297C15.2192 0.154297 14.6609 0.7126 14.6609 1.4013L14.6609 12.1183C14.6609 12.807 15.2192 13.3653 15.9079 13.3653Z" fill="#03131F"/>
<path d="M14.5115 1.03553C14.9985 0.54854 15.788 0.548539 16.275 1.03552C16.762 1.52251 16.762 2.31207 16.275 2.79905L2.28502 16.7891C1.79803 17.276 1.00847 17.276 0.521489 16.7891C0.0345036 16.3021 0.0345038 15.5125 0.521489 15.0255L14.5115 1.03553Z" fill="#03131F"/>
</svg>
