<svg width="129" height="136" viewBox="0 0 129 136" fill="none" xmlns="http://www.w3.org/2000/svg">
<path d="M95.8075 133.637L95.7924 133.639L95.7774 133.641C82.36 135.877 71.5467 133.388 57.1789 127.819C55.5749 127.197 54.0755 126.637 52.664 126.109C48.2893 124.473 44.7603 123.154 41.5843 121.309C37.4797 118.926 33.9872 115.66 30.3246 109.618C28.0476 105.861 25.4253 99.3068 23.3676 92.4602C21.3074 85.6051 19.874 78.6577 19.874 74.1198C19.874 40.2686 52.0755 13.8471 86.3062 13.7979C91.9634 14.6552 97.4957 19.3664 102.626 26.6023C107.745 33.8219 112.275 43.2894 115.975 53.0773C119.67 62.8555 122.515 72.8946 124.28 81.2207C125.163 85.3842 125.773 89.1031 126.087 92.1358C126.404 95.2089 126.403 97.454 126.14 98.7381C124.7 105.742 120.946 113.965 115.587 120.704C110.217 127.455 103.371 132.556 95.8075 133.637Z" fill="#AADFFE" stroke="black" stroke-width="2.61914"/>
<path d="M126.229 97.7481C123.264 112.178 109.402 129.714 97.2294 131.743C83.4789 134.035 71.8721 132.216 57.4066 126.609C44.4758 121.597 38.5642 121.951 31.043 109.542C26.32 101.75 21.1914 83.9062 21.1914 74.4372C21.1914 39.6757 49.224 11.7197 84.0476 11.7197C109.026 15.321 128.685 85.7983 126.229 97.7481Z" fill="#AADFFE"/>
<path d="M94.7715 81.6122C95.7053 85.6465 94.5409 87.3746 92.6849 87.9414C90.8289 88.5083 88.984 87.6992 88.0502 83.665C87.1164 79.6307 87.864 75.9008 89.72 75.334C91.5761 74.7671 93.8377 77.578 94.7715 81.6122Z" fill="black"/>
<path d="M106.965 77.9999C107.899 82.0342 106.734 83.7623 104.878 84.3291C103.022 84.896 101.177 84.0869 100.244 80.0527C99.3097 76.0184 100.057 72.2885 101.913 71.7217C103.769 71.1548 106.031 73.9657 106.965 77.9999Z" fill="black"/>
<path d="M94.2428 100.412C93.9437 99.7583 94.231 98.986 94.8845 98.6869L109.821 91.8501C110.476 91.55 111.251 91.8382 111.551 92.494C111.785 93.0039 111.667 93.6051 111.247 93.9771C109.922 95.151 106.951 97.6612 104.505 98.8372C101.771 100.152 97.4524 100.877 95.5672 101.147C95.0103 101.226 94.477 100.923 94.2428 100.412Z" fill="black"/>
<path d="M70.4123 5.82776C92.4344 3.02684 106.499 19.2218 109.089 42.5601C109.089 42.5601 89.469 37.3307 75.368 36.995C52.8064 36.4578 18.3239 63.2257 18.3239 63.2257C15.7338 39.8873 36.7585 11.5055 70.4123 5.82776Z" fill="#F04341" stroke="black" stroke-width="2.61914"/>
<path d="M56.4016 3.08217C59.5476 2.68204 61.8909 4.4031 62.2528 7.66399C62.2528 7.66399 58.4953 8.21155 56.4016 9.00299C53.633 10.0495 49.8531 12.4871 49.8531 12.4871C49.4912 9.22623 51.5934 3.88895 56.4016 3.08217Z" fill="#F04341" stroke="black" stroke-width="1.39762"/>
<path d="M85.991 22.4045C76.8885 22.4643 71.8004 24.5997 63.2349 27.8259C42.3701 35.6847 18.3467 63.4228 18.3467 63.4228C18.3467 63.4228 53.8043 40.5697 78.4979 38.918C91.2089 38.0677 111.661 43.4957 111.661 43.4957C111.661 43.4957 118.466 38.2797 119.566 34.7061C122.624 24.7653 100.02 22.3123 85.991 22.4045Z" fill="#AC2321" stroke="black" stroke-width="2.61914"/>
<path d="M83.3551 22.5447C73.4459 23.4813 65.8666 26.9086 57.408 31.5627C40.1299 41.0697 18.3476 63.4217 18.3476 63.4217C18.3476 63.4217 53.8053 40.5686 78.4989 38.9169C91.2098 38.0667 111.661 43.4947 111.661 43.4947C111.661 43.4947 118.467 38.2786 119.567 34.705C122.625 24.7642 98.8933 21.0762 83.3551 22.5447Z" fill="#891211"/>
<path d="M29.0298 77.3368C30.8445 81.5014 32.0396 86.3737 31.7007 90.1254C31.532 91.9925 30.9937 93.4748 30.0779 94.48C29.1884 95.4564 27.8308 96.1056 25.7401 96.1056C20.2814 96.1056 16.0084 95.8526 12.5905 94.2484C9.25676 92.6838 6.59712 89.7571 4.58594 84.0375C4.5512 83.9386 4.51567 83.8378 4.47945 83.735C3.70366 81.5333 2.61429 78.4418 2.23197 75.3145C1.82998 72.0264 2.24215 68.9655 4.33899 66.8652C7.04431 64.1554 10.4252 64.1541 14.466 64.1524C14.5967 64.1524 14.7282 64.1523 14.8603 64.1522C17.8334 64.1489 20.5615 65.5781 22.9821 67.9845C25.4063 70.3944 27.4556 73.7242 29.0298 77.3368Z" fill="#5C9FD0" stroke="black" stroke-width="2.09531"/>
<path d="M13.8677 70.3037C13.3037 70.3037 11.0676 72.6609 10.584 77.0732C10.0181 82.2362 15.7832 88.6377 15.7832 88.6377" stroke="black" stroke-width="2.09531" stroke-linecap="round"/>
<path d="M20.8285 80.2296C20.2343 79.3074 20.125 79.2355 19.2549 78.5674C18.3848 77.8993 12.3009 76.5731 11.3648 76.5603" stroke="black" stroke-width="2.09531" stroke-linecap="round"/>
<path d="M38.1276 84.6506C38.1276 89.5326 24.0498 87.5971 24.0498 87.5971L22.7402 77.448L30.8983 75.2637C30.8983 75.2637 38.1276 79.7686 38.1276 84.6506Z" fill="#5C9FD0"/>
<path d="M32.8073 64.1668C33.5931 59.9762 46.2304 49.4326 46.2304 49.4326L32.8073 55.6531L17.4199 64.1668C18.1838 64.4942 21.3855 66.9524 23.6404 69.6491C26.5015 73.0708 26.7506 74.4449 27.5282 77.7597C27.5282 77.7597 29.0207 79.5533 30.843 80.0515C31.1067 80.1235 31.5072 80.2139 31.9258 80.3026C32.8002 80.4879 33.5866 79.748 33.4794 78.8607C33.0479 75.2888 32.2076 67.3655 32.8073 64.1668Z" fill="black"/>
<path d="M14.6864 81.2615C13.0923 82.2473 12.2509 83.3154 12.0295 83.7262L11.3652 76.9482C12.9151 77.1536 16.1478 77.5644 16.6792 77.5644C17.3434 77.5644 16.6792 80.0291 14.6864 81.2615Z" fill="black"/>
<path d="M104.444 128.999C102.05 130.616 89.4451 137.082 64.6452 129.715C51.0395 125.674 41.8465 121.225 37.1175 117.362C30.3554 111.837 25.9043 96.8995 25.9043 96.8995C25.9043 96.8995 29.6208 95.8099 31.0607 93.953C33.3525 90.9975 32.3868 87.1372 32.7795 83.394C33.8391 73.2958 31.1471 64.1018 33.3525 63.1045C38.5419 73.3462 44.3102 101.415 58.0706 113.351C77.0817 129.842 104.444 128.999 104.444 128.999Z" fill="#5C9FD0"/>
<path d="M33.4746 86.9004C33.3109 87.5225 33.4544 88.6245 30.0723 92.6137L30.4712 87.844L31.4693 85.1816C32.2059 85.4954 33.6383 86.2784 33.4746 86.9004Z" fill="#5C9FD0"/>
<path d="M88.6961 8.52979C86.3136 7.44188 79.371 6.40876 76 6.86423C76 6.86423 79.6112 14.3571 80.1882 15.5566C80.7652 16.7562 82.6252 16.2417 85.9508 16.8094C95.5645 18.4506 101.08 22.0235 101.08 22.0235L102.919 22.3357C102.919 22.3357 100.698 14.0104 88.6961 8.52979Z" fill="#EBAAA9"/>
<path d="M21.4707 41.76C31.6379 24.3082 45.5762 16.8252 45.5762 16.8252C45.5762 16.8252 33.9906 28.1778 33.299 38.1057C33.0565 41.5853 35.3654 44.27 31.6692 47.7959C23.8419 55.2626 19.4666 60.6003 19.4666 60.6003C19.4666 60.6003 16.5233 50.252 21.4707 41.76Z" fill="#AC2321"/>
<path d="M113.031 44.3796L117.038 55.6014C117.038 55.6014 113.114 48.8017 110.846 46.8598C108.241 44.6297 103.006 42.9053 103.006 42.9053L113.031 44.3796Z" fill="black"/>
</svg>
