<svg width="81" height="55" viewBox="0 0 81 55" fill="none" xmlns="http://www.w3.org/2000/svg">
<path fill-rule="evenodd" clip-rule="evenodd" d="M23.3214 52.0785C23.0468 53.6246 24.2453 54.9998 25.8156 54.9998H54.5745C56.1512 54.9998 57.3515 53.6141 57.0661 52.0635C55.4083 43.0529 49.6927 16.4033 40.083 16.4033C30.468 16.4033 24.9191 43.0826 23.3214 52.0785Z" fill="#FBC157"/>
<path fill-rule="evenodd" clip-rule="evenodd" d="M21.401 1.36559C19.5621 3.2167 19.4604 5.21763 21.0981 7.3133C22.0687 8.55567 22.8175 8.87307 24.7746 8.86952C27.0041 8.86596 35.1378 7.17415 37.6731 6.187C38.6173 5.81927 38.7025 6.35577 38.7025 12.6594V13.0306C38.7025 14.0052 39.4927 14.7953 40.4673 14.7953V14.7953V14.7953C41.4419 14.7953 42.232 14.0052 42.232 13.0306V12.6831C42.232 6.42979 42.322 5.86131 43.2615 6.15858C47.2786 7.42937 53.967 8.87366 55.8329 8.87366C58.5983 8.87366 60.4677 7.07881 60.4677 4.42413C60.4677 1.93584 58.3794 -0.0117896 55.7241 5.37261e-05C53.8723 0.00834405 47.4827 1.43843 42.2656 3.01181C40.4838 3.5495 39.3067 3.40442 34.8654 2.10106C31.9612 1.24834 28.0859 0.389108 26.254 0.191916C23.2134 -0.135551 22.7904 -0.0331076 21.401 1.36559Z" fill="#99CA9C"/>
<path fill-rule="evenodd" clip-rule="evenodd" d="M51.1097 17.9735C61.8215 20.7611 71.5749 28.539 76.0299 37.8459C78.3684 42.7301 79.2916 45.8978 80.0371 51.5898V51.5898C80.2342 53.4107 78.8076 55.0001 76.976 55.0001H73.6062H69.0071C67.7402 55.0001 66.6618 54.0779 66.4652 52.8264L66.038 50.107C63.6274 36.6324 57.1398 25.1767 48.7611 19.598C44.5088 16.7672 45.0462 16.3953 51.1097 17.9735Z" fill="#F28C8C"/>
<path fill-rule="evenodd" clip-rule="evenodd" d="M29.2965 17.9735C18.5848 20.7611 8.83137 28.539 4.37632 37.8459C2.03787 42.7301 1.11466 45.8978 0.369167 51.5898V51.5898C0.172046 53.4107 1.59863 55.0001 3.43024 55.0001H6.80006H11.3991C12.666 55.0001 13.7444 54.0779 13.941 52.8264L14.3683 50.107C16.7789 36.6324 23.2664 25.1767 31.6451 19.598C35.8974 16.7672 35.3601 16.3953 29.2965 17.9735Z" fill="#80BAFD"/>
</svg>
