<svg width="47" height="31" viewBox="0 0 47 31" fill="none" xmlns="http://www.w3.org/2000/svg">
<path d="M23.5 3.00367C19.4614 5.69148 16.8 10.2849 16.8 15.5C16.8 20.7151 19.4614 25.3085 23.5 27.9963C27.5387 25.3085 30.2 20.7151 30.2 15.5C30.2 10.2849 27.5387 5.69148 23.5 3.00367Z" fill="#CE6F8B"/>
<path fill-rule="evenodd" clip-rule="evenodd" d="M15.2 30.5C18.2692 30.5 21.1231 29.5782 23.5 27.9963C19.4614 25.3085 16.8 20.7151 16.8 15.5C16.8 10.2849 19.4614 5.69148 23.5 3.00367C21.1231 1.42181 18.2692 0.5 15.2 0.5C6.91574 0.5 0.200012 7.21573 0.200012 15.5C0.200012 23.7843 6.91574 30.5 15.2 30.5Z" fill="#3C40C6"/>
<path d="M31.8 30.5C40.0843 30.5 46.8 23.7843 46.8 15.5C46.8 7.21573 40.0843 0.5 31.8 0.5C28.7308 0.5 25.8769 1.42181 23.5 3.00367C27.5387 5.69148 30.2 10.2849 30.2 15.5C30.2 20.7151 27.5387 25.3085 23.5 27.9963C25.8769 29.5782 28.7308 30.5 31.8 30.5Z" fill="#FF3F34"/>
</svg>
