<svg width="48" height="48" viewBox="0 0 48 48" fill="none" xmlns="http://www.w3.org/2000/svg">
<path d="M47.9086 18.5975C47.8443 16.1907 46.6397 13.9605 44.6776 12.5656C38.616 8.25844 32.353 4.23424 25.9083 0.511519C24.7271 -0.170506 23.2692 -0.170506 22.088 0.511519C15.6433 4.23424 9.38032 8.25844 3.3187 12.5656C1.35664 13.9593 0.151972 16.1907 0.0877232 18.5975C0.0296522 20.7573 0 22.9245 0 25.0978C0 29.8707 0.140852 34.6115 0.417616 39.3153C0.643722 43.1517 3.68442 46.2282 7.51958 46.4889C12.3642 46.8188 17.2496 47.0029 22.1695 47.04C22.6341 47.0437 23.0122 46.6668 23.0122 46.2035V36.9579C23.0122 36.5514 22.7194 36.2005 22.319 36.1337C19.5378 35.6766 17.0346 34.3904 15.075 32.5371C14.3201 31.8044 13.6319 30.9766 13.0326 30.0598C10.7234 26.5298 10.2267 22.3746 11.3177 18.7606C11.6439 17.682 12.7027 16.9889 13.8209 17.1223C17.5696 17.5708 21.1774 19.691 23.4866 23.221C24.4182 24.6443 25.0533 26.1702 25.4104 27.7209C25.9281 27.003 26.5459 26.3358 27.2625 25.739C29.825 23.6065 33.0609 22.8763 35.983 23.473C36.6996 23.6201 37.221 24.249 37.2346 24.9804C37.284 27.6801 36.2153 30.4354 34.1099 32.5148C32.1454 34.3817 29.6347 35.6766 26.8412 36.135C26.4396 36.2005 26.148 36.5514 26.148 36.9591V46.1949C26.148 46.6607 26.5286 47.0375 26.9944 47.0313C31.5214 46.9757 36.0176 46.7941 40.4804 46.4902C44.3156 46.2282 47.3563 43.1529 47.5824 39.3165C47.8591 34.6128 48 29.872 48 25.099C48 22.9257 47.9703 20.7585 47.9123 18.5988L47.9086 18.5975Z" fill="url(#paint0_linear_65_3750)"/>
<defs>
<linearGradient id="paint0_linear_65_3750" x1="20.3625" y1="-6.21649" x2="28.6478" y2="70.2927" gradientUnits="userSpaceOnUse">
<stop offset="0.22" stop-color="#43E7B0"/>
<stop offset="0.94" stop-color="#4386F5"/>
</linearGradient>
</defs>
</svg>
