<svg width="49" height="48" viewBox="0 0 49 48" fill="none" xmlns="http://www.w3.org/2000/svg">
<path d="M1.35676 40.0717C5.23545 44.5921 11.2278 47.4988 17.9689 47.5C24.7101 47.4988 30.71 44.5921 34.5887 40.0717C35.7472 38.7221 35.7465 36.7438 34.5879 35.3953C33.4763 34.1008 32.1912 32.9387 30.7649 31.9395V21.891C30.7649 21.2554 31.2322 20.7068 31.8735 20.6038C36.3376 19.8865 40.3524 17.8622 43.491 14.9452C46.8575 11.6955 48.5645 7.38907 48.4857 3.16882C48.4646 2.02582 47.6322 1.0423 46.4861 0.81339C41.8168 -0.11978 36.645 1.02246 32.5484 4.35532C31.4031 5.28696 30.4162 6.33077 29.5884 7.4524V5.70454H27.6723V30.1381C27.0509 29.842 26.4116 29.5735 25.7562 29.3344C23.3479 28.4555 20.7225 27.9725 17.9728 27.973C11.2316 27.9718 5.23797 30.8765 1.35762 35.3953C0.19897 36.7438 0.198319 38.7221 1.35676 40.0717Z" fill="#001428"/>
</svg>
