<svg width="421" height="70" viewBox="0 0 421 70" fill="none" xmlns="http://www.w3.org/2000/svg">
<g clip-path="url(#clip0_689_11613)">
<path d="M0 25.68C0 23.1851 2.0225 21.1626 4.51739 21.1626C7.01228 21.1626 9.03478 23.1851 9.03478 25.6799V43.8542C9.03478 46.3491 7.01228 48.3716 4.51739 48.3716C2.0225 48.3716 0 46.3491 0 43.8542V25.68Z" fill="#FD8F93"/>
<path d="M15.125 13.587C15.125 11.0921 17.1475 9.06958 19.6424 9.06958C22.1373 9.06958 24.1598 11.0921 24.1598 13.587V55.9468C24.1598 58.4417 22.1373 60.4642 19.6424 60.4642C17.1475 60.4642 15.125 58.4417 15.125 55.9468V13.587Z" fill="#FFB66D"/>
<path d="M45.375 19.6331C45.375 17.1382 47.3975 15.1157 49.8924 15.1157C52.3873 15.1157 54.4098 17.1382 54.4098 19.6331V50.1255C54.4098 52.6204 52.3873 54.6429 49.8924 54.6429C47.3975 54.6429 45.375 52.6204 45.375 50.1255V19.6331Z" fill="#FD8F93"/>
<path d="M39.2848 4.51739C39.2848 2.0225 37.2623 0 34.7674 0C32.2725 0 30.25 2.0225 30.25 4.51739V65.0167C30.25 67.5116 32.2725 69.5341 34.7674 69.5341C37.2623 69.5341 39.2848 67.5116 39.2848 65.0167V4.51739Z" fill="#A785ED"/>
<path d="M60.4648 13.6047C60.4648 11.1 62.4952 9.06958 64.9999 9.06958C67.5045 9.06958 69.535 11.1 69.535 13.6047V55.9293C69.535 58.4339 67.5045 60.4644 64.9999 60.4644C62.4952 60.4644 60.4648 58.4339 60.4648 55.9293V13.6047Z" fill="#829CD7"/>
<path d="M105.867 44.9888V1.13599H112.628V44.707C112.628 56.5388 119.108 62.9242 130.845 62.9242C142.302 62.9242 148.781 56.351 148.781 44.707V1.13599H155.542V44.9888C155.542 60.201 146.152 69.4974 130.845 69.4974C115.257 69.4974 105.867 60.2949 105.867 44.9888Z" fill="#232225"/>
<path d="M173.794 68.3704H168.16V1.13623H174.639V31.7482C177.832 25.0811 184.029 21.7006 191.729 21.7006C204.97 21.7006 212.67 32.0299 212.67 45.7398C212.67 59.3557 204.782 69.4972 191.542 69.4972C183.935 69.4972 177.644 66.1167 174.451 59.074L173.794 68.3704ZM174.733 45.552C174.733 56.0691 180.555 63.5814 190.509 63.5814C200.368 63.5814 206.096 56.0691 206.096 45.552C206.096 35.1287 200.368 27.5226 190.509 27.5226C180.555 27.5226 174.733 35.1287 174.733 45.552Z" fill="#232225"/>
<path d="M240.181 69.4973C226.847 69.4973 217.926 59.9192 217.926 45.646C217.926 31.4666 226.753 21.7007 239.711 21.7007C252.013 21.7007 260.37 30.4337 260.37 43.2984V46.4911H224.217C224.687 57.5717 230.509 63.9571 240.275 63.9571C247.693 63.9571 252.482 60.7644 254.172 54.7546H260.37C257.929 64.3327 250.886 69.4973 240.181 69.4973ZM239.711 27.241C231.166 27.241 225.532 32.8752 224.405 41.7959H253.891C253.891 33.063 248.256 27.241 239.711 27.241Z" fill="#232225"/>
<path d="M275.332 68.3705H268.852V22.9214H274.487L275.426 30.8093C278.43 24.9873 284.44 21.7007 291.013 21.7007C303.503 21.7007 308.667 29.119 308.667 40.5752V68.3705H302.188V41.9838C302.188 31.3727 297.399 27.6166 289.887 27.6166C280.59 27.6166 275.332 34.3776 275.332 44.613V68.3705Z" fill="#232225"/>
<path d="M328.728 68.3705L313.703 22.9214H320.371L329.291 50.3411C330.324 53.346 331.169 56.4448 332.108 60.107C332.86 56.4448 334.362 51.8436 334.832 50.3411L343.846 22.9214H350.513L359.434 50.3411C360.279 52.7826 361.406 56.7265 362.251 60.107C363.19 56.3509 363.378 55.2241 364.975 50.3411L373.989 22.9214H380.75L365.35 68.3705H359.059L349.668 39.824C348.542 36.4435 347.79 33.6264 347.227 30.9032C346.57 33.3447 345.818 36.0679 344.598 39.824L335.207 68.3705H328.728Z" fill="#232225"/>
<path d="M398.003 69.4973C388.331 69.4973 382.602 64.051 382.602 56.0692C382.602 47.7118 388.988 42.4533 399.599 41.6081L414.623 40.3874V38.885C414.623 29.9642 409.271 27.1471 402.604 27.1471C394.716 27.1471 390.021 30.7154 390.021 36.8191H384.105C384.105 27.6166 391.617 21.7007 402.792 21.7007C413.309 21.7007 421.009 26.9593 421.009 38.9789V68.3705H415.562L414.717 60.3888C411.9 66.1168 405.703 69.4973 398.003 69.4973ZM399.505 64.2388C409.083 64.2388 414.623 57.5717 414.623 47.7118V45.2704L401.195 46.3033C392.65 47.0545 389.176 50.8106 389.176 55.8814C389.176 61.4217 393.307 64.2388 399.505 64.2388Z" fill="#232225"/>
</g>
<defs>
<clipPath id="clip0_689_11613">
<rect width="421" height="70" fill="white"/>
</clipPath>
</defs>
</svg>
