<svg width="1707" height="298" viewBox="0 0 1707 298" fill="none" xmlns="http://www.w3.org/2000/svg">
<mask id="mask0_203_80997" style="mask-type:alpha" maskUnits="userSpaceOnUse" x="0" y="0" width="657" height="243">
<path d="M0 0H101.486C171.277 0 222.501 44.8221 222.501 119.739C222.501 194.656 171.277 239.478 101.486 239.478H0V0ZM61.7879 53.1462V186.332H102.126C138.943 186.332 161.353 165.202 161.353 119.739C161.353 74.2767 138.943 53.1462 102.126 53.1462H61.7879Z" fill="black"/>
<path d="M303.233 69.1542C350.294 69.1542 375.585 91.8854 375.585 137.348V239.478H320.841V227.632C313.477 235.636 300.351 243 280.502 243C246.567 243 225.438 226.352 225.438 193.696C225.438 154.316 260.974 143.751 298.431 142.15L317.319 141.51V132.866C317.319 121.98 312.197 117.178 304.193 117.178C293.308 117.178 288.186 125.502 288.186 131.905L229.92 129.984C229.92 100.209 258.412 69.1542 303.233 69.1542ZM316.999 175.447L302.272 176.087C291.387 176.727 283.704 180.249 283.704 188.893C283.704 196.897 289.146 200.419 296.83 200.419C307.074 200.419 316.999 193.375 316.999 183.451V175.447Z" fill="black"/>
<path d="M466.636 122.621L466.316 169.364C466.316 184.091 477.521 190.814 488.726 190.814C495.129 190.814 498.971 190.174 502.493 189.534V241.079C494.809 242.04 488.406 243 474.32 243C434.622 243 407.73 224.751 408.05 184.731L408.37 122.621H378.277V72.6759H408.69L409.01 18.8893H467.277L466.957 72.6759H502.493V122.621H466.636Z" fill="black"/>
<path d="M584.647 69.1542C631.709 69.1542 657 91.8854 657 137.348V239.478H602.255V227.632C594.892 235.636 581.766 243 561.917 243C527.982 243 506.852 226.352 506.852 193.696C506.852 154.316 542.388 143.751 579.845 142.15L598.734 141.51V132.866C598.734 121.98 593.611 117.178 585.608 117.178C574.723 117.178 569.601 125.502 569.601 131.905L511.334 129.984C511.334 100.209 539.827 69.1542 584.647 69.1542ZM598.414 175.447L583.687 176.087C572.802 176.727 565.118 180.249 565.118 188.893C565.118 196.897 570.561 200.419 578.244 200.419C588.489 200.419 598.414 193.375 598.414 183.451V175.447Z" fill="black"/>
</mask>
<g mask="url(#mask0_203_80997)">
<rect x="-13.001" y="7" width="9.99998" height="688" rx="4.99999" transform="rotate(-90 -13.001 7)" fill="#406A88"/>
<rect x="-13.001" y="14" width="5.99998" height="688" rx="2.99999" transform="rotate(-90 -13.001 14)" fill="#058663"/>
<rect x="-13.001" y="30" width="15" height="688" rx="7.49999" transform="rotate(-90 -13.001 30)" fill="#00ABE0"/>
<rect x="-13.001" y="38" width="6.99998" height="688" rx="3.49999" transform="rotate(-90 -13.001 38)" fill="#153D6D"/>
<rect x="-13.001" y="42" width="2.99998" height="688" rx="1.49999" transform="rotate(-90 -13.001 42)" fill="#00ABE0"/>
<rect x="-13.001" y="49" width="5.99998" height="688" rx="2.99999" transform="rotate(-90 -13.001 49)" fill="#2668CC"/>
<rect x="-13.001" y="63" width="13" height="688" rx="6.49999" transform="rotate(-90 -13.001 63)" fill="#FFD557"/>
<rect x="-13.001" y="72" width="7.99998" height="688" rx="3.99999" transform="rotate(-90 -13.001 72)" fill="#406A88"/>
<rect x="-13.001" y="81" width="7.99998" height="688" rx="3.99999" transform="rotate(-90 -13.001 81)" fill="#406A88"/>
<rect x="-13.001" y="87" width="4.99998" height="688" rx="2.49999" transform="rotate(-90 -13.001 87)" fill="#058663"/>
<rect x="-13.001" y="92" width="3.99998" height="688" rx="1.99999" transform="rotate(-90 -13.001 92)" fill="#406A88"/>
<rect x="-13.001" y="101" width="7.99998" height="688" rx="3.99999" transform="rotate(-90 -13.001 101)" fill="#058663"/>
<rect x="-13.001" y="108" width="5.99998" height="688" rx="2.99999" transform="rotate(-90 -13.001 108)" fill="#058663"/>
<rect x="-13.001" y="115" width="5.99998" height="688" rx="2.99999" transform="rotate(-90 -13.001 115)" fill="#00ABE0"/>
<rect x="-13.001" y="122" width="5.99998" height="688" rx="2.99999" transform="rotate(-90 -13.001 122)" fill="#00ABE0"/>
<rect x="-13.001" y="130" width="6.99998" height="688" rx="3.49999" transform="rotate(-90 -13.001 130)" fill="#2668CC"/>
<rect x="-13.001" y="137" width="5.99998" height="688" rx="2.99999" transform="rotate(-90 -13.001 137)" fill="#406A88"/>
<rect x="-13.001" y="142" width="3.99998" height="688" rx="1.99999" transform="rotate(-90 -13.001 142)" fill="#FFD557"/>
<rect x="-13.001" y="149" width="5.99998" height="688" rx="2.99999" transform="rotate(-90 -13.001 149)" fill="#153D6D"/>
<rect x="-13.001" y="159" width="8.99998" height="688" rx="4.49999" transform="rotate(-90 -13.001 159)" fill="#058663"/>
<rect x="-13.001" y="163" width="2.99998" height="688" rx="1.49999" transform="rotate(-90 -13.001 163)" fill="#406A88"/>
<rect x="-13.001" y="167" width="2.99998" height="688" rx="1.49999" transform="rotate(-90 -13.001 167)" fill="#2668CC"/>
<rect x="-13.001" y="175" width="6.99998" height="688" rx="3.49999" transform="rotate(-90 -13.001 175)" fill="#153D6D"/>
<rect x="-13.001" y="181" width="4.99998" height="688" rx="2.49999" transform="rotate(-90 -13.001 181)" fill="#00ABE0"/>
<rect x="-13.001" y="188" width="5.99998" height="688" rx="2.99999" transform="rotate(-90 -13.001 188)" fill="#2668CC"/>
<rect x="-13.001" y="193" width="3.99998" height="688" rx="1.99999" transform="rotate(-90 -13.001 193)" fill="#FFD557"/>
<rect x="-13.001" y="198" width="3.99998" height="688" rx="1.99999" transform="rotate(-90 -13.001 198)" fill="#FFD557"/>
<rect x="-13.001" y="211" width="12" height="688" rx="5.99999" transform="rotate(-90 -13.001 211)" fill="#058663"/>
<rect x="-13.001" y="218" width="5.99998" height="688" rx="2.99999" transform="rotate(-90 -13.001 218)" fill="#2668CC"/>
<rect x="-13.001" y="233" width="14" height="688" rx="6.99999" transform="rotate(-90 -13.001 233)" fill="#00ABE0"/>
<rect x="-13.001" y="249" width="15" height="688" rx="7.49999" transform="rotate(-90 -13.001 249)" fill="#406A88"/>
</g>
<path d="M733.966 118.844C745.138 118.844 754.258 127.736 754.258 139.136C754.258 150.08 745.138 158.972 733.966 158.972C722.794 158.972 713.902 150.08 713.902 139.136C713.902 127.736 722.794 118.844 733.966 118.844ZM733.966 201.152C745.138 201.152 754.258 210.044 754.258 221.444C754.258 232.616 745.138 241.508 733.966 241.508C722.794 241.508 713.902 232.616 713.902 221.444C713.902 210.044 722.794 201.152 733.966 201.152Z" fill="#002644"/>
<path d="M851.276 118.844C882.968 118.844 900.296 135.26 900.296 166.268V239H868.148V229.424C861.536 236.264 851.504 241.508 838.052 241.508C814.34 241.508 798.836 229.424 798.836 206.624C798.836 180.404 820.952 171.968 846.032 170.828L867.008 169.688V165.128C867.008 153.272 861.992 146.888 851.732 146.888C840.332 146.888 835.316 154.64 835.316 162.392L802.028 161.024C802.028 140.276 820.952 118.844 851.276 118.844ZM867.008 191.576L849.224 192.716C839.192 193.172 832.124 196.592 832.124 205.028C832.124 212.78 837.824 215.744 845.804 215.744C857.888 215.744 867.008 209.132 867.008 196.592V191.576Z" fill="#002644"/>
<path d="M958.81 118.844C988.678 118.844 1004.41 135.032 1006.46 156.92L973.402 158.744C972.946 150.308 968.614 144.38 958.354 144.38C949.462 144.38 944.902 148.028 944.902 154.412C944.902 162.62 953.794 163.76 967.93 167.408C991.414 173.564 1008.06 180.86 1008.06 202.292C1008.06 226.232 990.502 241.508 959.722 241.508C929.626 241.508 912.07 227.828 909.562 203.204L942.85 201.38C943.306 210.044 948.55 215.972 959.95 215.972C969.07 215.972 974.77 212.096 974.77 205.256C974.77 198.188 970.438 195.908 953.338 191.804C928.258 185.42 911.614 180.176 911.614 156.008C911.614 133.436 929.17 118.844 958.81 118.844Z" fill="#002644"/>
<path d="M1103.92 118.844C1135.61 118.844 1152.94 135.26 1152.94 166.268V239H1120.79V229.424C1114.18 236.264 1104.15 241.508 1090.7 241.508C1066.98 241.508 1051.48 229.424 1051.48 206.624C1051.48 180.404 1073.6 171.968 1098.68 170.828L1119.65 169.688V165.128C1119.65 153.272 1114.64 146.888 1104.38 146.888C1092.98 146.888 1087.96 154.64 1087.96 162.392L1054.67 161.024C1054.67 140.276 1073.6 118.844 1103.92 118.844ZM1119.65 191.576L1101.87 192.716C1091.84 193.172 1084.77 196.592 1084.77 205.028C1084.77 212.78 1090.47 215.744 1098.45 215.744C1110.53 215.744 1119.65 209.132 1119.65 196.592V191.576Z" fill="#002644"/>
<path d="M1249.21 118.844C1279.08 118.844 1294.81 135.032 1296.86 156.92L1263.8 158.744C1263.34 150.308 1259.01 144.38 1248.75 144.38C1239.86 144.38 1235.3 148.028 1235.3 154.412C1235.3 162.62 1244.19 163.76 1258.33 167.408C1281.81 173.564 1298.46 180.86 1298.46 202.292C1298.46 226.232 1280.9 241.508 1250.12 241.508C1220.02 241.508 1202.47 227.828 1199.96 203.204L1233.25 201.38C1233.7 210.044 1238.95 215.972 1250.35 215.972C1259.47 215.972 1265.17 212.096 1265.17 205.256C1265.17 198.188 1260.84 195.908 1243.74 191.804C1218.66 185.42 1202.01 180.176 1202.01 156.008C1202.01 133.436 1219.57 118.844 1249.21 118.844Z" fill="#002644"/>
<path d="M1351.32 149.852L1351.09 193.628C1351.09 206.624 1359.53 211.412 1368.88 211.412C1373.66 211.412 1376.63 210.728 1379.14 210.272V239.912C1374.35 240.596 1369.79 241.28 1360.67 241.28C1335.13 241.28 1317.58 228.968 1317.8 201.608L1318.03 149.852H1296.6V121.124H1318.26L1318.49 82.136H1351.78L1351.55 121.124H1379.14V149.852H1351.32Z" fill="#002644"/>
<path d="M1445.32 118.844C1481.35 118.844 1508.02 143.012 1508.02 180.176C1508.02 217.112 1481.35 241.508 1445.32 241.508C1409.3 241.508 1382.62 217.112 1382.62 180.176C1382.62 143.012 1409.3 118.844 1445.32 118.844ZM1445.32 147.344C1428.22 147.344 1416.37 159.428 1416.37 180.176C1416.37 200.696 1428.22 212.78 1445.32 212.78C1462.42 212.78 1474.28 200.696 1474.28 180.176C1474.28 159.428 1462.42 147.344 1445.32 147.344Z" fill="#002644"/>
<path d="M1585.25 119.984V152.132C1566.09 152.132 1554.01 163.076 1554.01 179.264V239H1520.72V121.124H1552.87V134.576C1557.89 126.824 1567.23 119.984 1585.25 119.984Z" fill="#002644"/>
<path d="M1631.05 297.14H1594.79L1624.89 228.512L1578.83 121.124H1615.54L1642.67 191.348L1669.58 121.124H1706.51L1631.05 297.14Z" fill="#002644"/>
</svg>
