<svg width="1884" height="461" viewBox="0 0 1884 461" fill="none" xmlns="http://www.w3.org/2000/svg">
<g clip-path="url(#clip0_532_35263)">
<path d="M-28.9302 303.6C-10.0702 302.03 5.06983 302.18 15.4898 302.61C26.9998 303.09 32.1098 303.9 40.6798 302.12C54.9198 299.15 57.2798 293.46 71.2998 287.8C86.2898 281.74 99.4398 281.84 115.37 281.96C133.46 282.1 134.67 285.04 153.88 284.83C169.19 284.67 181.04 282.69 185.42 281.87C206.37 277.92 210.61 273.45 226.82 270.51C235.52 268.93 248.54 267.63 265.26 270.02C326.86 273.19 372.14 270.13 402.75 266.56C422.29 264.28 438.34 261.51 460.41 266.56C494.22 274.29 499.58 290.64 530.33 293.89C554.42 296.44 555.67 286.89 588.05 287.79C616.44 288.58 615.81 295.93 645.21 297.67C677.35 299.56 685.57 291.22 715.68 294.71C733.16 296.73 747.05 301.47 755.92 305.08C767.12 299.1 783.06 293.1 798.39 298.31C810.17 302.31 810.81 309.26 824.54 315.47C836.87 321.05 842.23 318.98 872.76 319.56C891.14 319.91 892.63 321.5 918.53 323.65C983.36 329.02 985.12 319.97 1023.15 326.1C1060.85 332.18 1060.44 339.96 1103.25 345.72C1129.86 349.3 1135.28 346.8 1169.18 348.63C1214.72 351.09 1208.06 358.07 1277.07 363.16C1302.03 365 1326.71 370.2 1351.72 371.33C1356.97 371.57 1368.13 371.98 1380.6 377.87C1394.43 384.4 1400.45 393.23 1406.02 398.49C1429.12 420.31 1462 397.38 1527.72 404.57C1556.74 407.74 1553.7 412.43 1595.83 418.19C1626.83 422.43 1636 420.82 1667.75 423.64C1724.21 428.64 1718.31 435.77 1757.11 437.81C1784.64 439.26 1831.94 438 1877.53 434C1892.96 432.64 1905.16 431.24 1915.67 438.9C1936.86 454.35 1932.58 493.08 1930.38 507.55C1538.79 496.36 1147.2 485.17 755.61 473.98C494.43 475.28 233.25 476.59 -27.9202 477.89C-28.2802 419.78 -28.6102 361.69 -28.9302 303.6Z" fill="#5E5042"/>
<path d="M-28.9702 303.571C-16.4302 302.501 -3.95021 302.071 8.58979 302.321C14.8498 302.411 21.0998 302.841 27.3498 303.081C30.4698 303.181 33.6098 303.121 36.6998 302.691C38.2498 302.491 39.7898 302.211 41.3098 301.861C42.8398 301.531 44.3498 301.121 45.8298 300.651C48.8098 299.711 51.6498 298.391 54.3598 296.831C57.0598 295.261 59.6698 293.531 62.3898 291.971C67.8198 288.831 73.6898 286.481 79.7298 284.801C85.7898 283.151 92.0398 282.331 98.2998 282.001C104.56 281.691 110.83 281.741 117.09 281.811C120.22 281.861 123.36 282.011 126.48 282.321C129.6 282.621 132.7 283.111 135.8 283.551C141.99 284.471 148.25 284.711 154.5 284.611C160.75 284.521 167 284.121 173.21 283.431C179.43 282.751 185.6 281.711 191.69 280.321C194.73 279.611 197.76 278.841 200.75 277.921C203.74 277.011 206.69 275.981 209.65 274.951C212.61 273.921 215.58 272.921 218.61 272.101C221.64 271.271 224.71 270.631 227.8 270.081C240.17 267.941 252.87 267.991 265.28 269.751H265.26C306.88 271.851 348.67 271.601 390.16 267.591C395.34 267.071 400.52 266.521 405.69 265.891C410.86 265.271 416.04 264.611 421.23 264.131C431.61 263.131 442.15 263.041 452.49 264.701C462.81 266.321 472.94 269.311 482.39 273.811C491.88 278.231 500.37 284.481 509.98 288.441C514.77 290.441 519.78 291.841 524.88 292.781C530.01 293.561 535.19 294.111 540.37 293.891C542.96 293.821 545.53 293.461 548.07 293.001C550.61 292.501 553.13 291.851 555.64 291.181C560.67 289.811 565.8 288.651 571 288.071C576.2 287.491 581.44 287.271 586.66 287.401C591.88 287.511 597.11 287.821 602.29 288.621C607.47 289.401 612.54 290.811 617.51 292.361C620 293.131 622.5 293.831 625.02 294.461C627.55 295.061 630.09 295.581 632.65 295.971C637.78 296.771 642.97 297.211 648.16 297.401C653.35 297.641 658.56 297.591 663.74 297.231C674.12 296.621 684.34 294.301 694.8 293.671C705.25 293.011 715.75 293.961 726.02 295.861C736.3 297.761 746.37 300.751 756.05 304.681L755.68 304.701C761.49 301.591 767.62 299.001 774.05 297.421C777.26 296.641 780.55 296.101 783.86 295.931C787.17 295.781 790.51 296.001 793.77 296.651C797.03 297.291 800.23 298.321 803.17 299.901C806.14 301.441 808.7 303.641 811.13 305.841C813.56 308.041 816.03 310.171 818.8 311.891C821.55 313.631 824.49 315.071 827.52 316.251C830.55 317.441 833.71 318.231 836.95 318.601C840.18 318.981 843.46 319.031 846.74 319.051C853.3 319.061 859.87 318.981 866.45 319.051C873.02 319.131 879.6 319.211 886.17 319.801C892.73 320.401 899.23 321.371 905.75 322.031C912.28 322.731 918.82 323.281 925.36 323.741L930.27 324.101L935.18 324.371L940.09 324.641L945.01 324.811C951.57 325.061 958.13 325.061 964.69 324.941C971.25 324.801 977.8 324.381 984.36 323.991C990.92 323.591 997.51 323.321 1004.09 323.651C1010.67 323.961 1017.21 324.801 1023.71 325.821C1030.2 326.901 1036.66 328.191 1043.02 329.871C1049.39 331.531 1055.62 333.691 1061.82 335.841C1068.02 337.981 1074.3 339.891 1080.69 341.351C1087.08 342.821 1093.54 344.001 1100.04 344.901C1106.53 345.861 1113.05 346.611 1119.59 347.051C1126.13 347.481 1132.7 347.501 1139.26 347.501C1152.4 347.501 1165.55 347.901 1178.66 348.941C1185.21 349.451 1191.75 350.251 1198.24 351.351C1204.73 352.451 1211.13 353.931 1217.56 355.261C1223.99 356.591 1230.45 357.731 1236.94 358.691C1240.19 359.141 1243.44 359.591 1246.7 359.981C1249.96 360.341 1253.22 360.761 1256.49 361.061C1269.54 362.461 1282.69 363.031 1295.73 364.761C1308.77 366.371 1321.76 368.381 1334.82 369.741C1341.35 370.441 1347.89 370.891 1354.46 371.201C1361.03 371.571 1367.58 372.721 1373.83 374.851C1380.07 376.981 1386 380.041 1391.27 384.011C1393.91 385.981 1396.36 388.201 1398.68 390.541C1401.01 392.861 1403.17 395.351 1405.5 397.651C1407.85 399.911 1410.43 401.951 1413.31 403.501C1416.17 405.071 1419.28 406.171 1422.47 406.841C1428.88 408.181 1435.5 408.081 1442.03 407.611C1448.57 407.141 1455.09 406.301 1461.62 405.561C1468.14 404.801 1474.68 404.121 1481.24 403.651C1494.35 402.701 1507.53 402.631 1520.64 403.701C1527.19 404.261 1533.73 404.981 1540.2 406.141C1546.69 407.251 1553.01 409.131 1559.33 410.901C1571.98 414.421 1584.97 416.571 1597.98 418.301C1604.49 419.171 1611.02 419.901 1617.56 420.411C1624.1 420.941 1630.66 421.251 1637.23 421.531C1650.36 422.061 1663.48 422.921 1676.54 424.301C1679.81 424.641 1683.07 425.051 1686.33 425.421C1689.58 425.901 1692.85 426.261 1696.09 426.831C1702.58 427.841 1709.04 429.131 1715.42 430.711C1721.8 432.281 1728.13 434.041 1734.59 435.191C1741.05 436.361 1747.59 436.991 1754.14 437.391C1767.24 438.211 1780.39 438.221 1793.52 438.081C1806.65 437.911 1819.78 437.441 1832.9 436.801C1846.02 436.151 1859.12 435.281 1872.21 434.191C1878.76 433.691 1885.29 432.931 1891.87 432.711C1895.16 432.621 1898.47 432.691 1901.74 433.161C1905.01 433.621 1908.23 434.511 1911.22 435.941C1917.22 438.791 1922.06 443.761 1925.27 449.521C1928.52 455.301 1930.33 461.751 1931.38 468.241C1932.41 474.751 1932.68 481.361 1932.49 487.931C1932.3 494.511 1931.64 501.071 1930.65 507.571L1930.62 507.801H1930.39L951.39 480.031L829.02 476.541L767.83 474.791L760.18 474.571C757.63 474.491 755.08 474.411 752.53 474.461L737.23 474.541L706.62 474.691L461.78 475.841L-27.9602 478.071H-28.1502V477.881L-28.9702 303.571ZM-28.8902 303.631L-27.7602 477.871L-27.9502 477.681L461.75 475.011L706.6 473.721L737.21 473.571L752.51 473.491C755.06 473.441 757.61 473.531 760.16 473.611L767.81 473.831L829 475.581L951.38 479.081L1930.38 507.281L1930.11 507.501C1931.09 501.021 1931.76 494.481 1931.95 487.931C1932.14 481.381 1931.88 474.801 1930.86 468.331C1929.83 461.881 1928.02 455.481 1924.82 449.771C1921.65 444.081 1916.89 439.191 1910.99 436.391C1908.05 434.981 1904.88 434.101 1901.65 433.641C1898.42 433.181 1895.13 433.101 1891.86 433.191C1885.31 433.401 1878.78 434.161 1872.23 434.651C1859.14 435.731 1846.02 436.601 1832.9 437.241C1819.78 437.881 1806.64 438.341 1793.51 438.501C1780.37 438.641 1767.22 438.621 1754.1 437.791C1747.54 437.391 1740.99 436.751 1734.51 435.571C1728.03 434.411 1721.69 432.641 1715.32 431.071C1708.95 429.481 1702.51 428.191 1696.03 427.181C1692.8 426.611 1689.53 426.251 1686.29 425.771C1683.03 425.391 1679.77 424.991 1676.51 424.651C1663.45 423.261 1650.34 422.391 1637.22 421.861C1630.66 421.571 1624.09 421.261 1617.54 420.731C1610.99 420.201 1604.46 419.481 1597.94 418.621C1584.92 416.901 1571.91 414.761 1559.24 411.241C1552.91 409.481 1546.61 407.611 1540.14 406.511C1533.68 405.361 1527.15 404.641 1520.61 404.091C1507.52 403.031 1494.36 403.101 1481.27 404.071C1474.72 404.551 1468.19 405.231 1461.67 405.991C1455.15 406.731 1448.63 407.581 1442.07 408.051C1435.53 408.531 1428.87 408.641 1422.39 407.291C1419.16 406.621 1416.01 405.501 1413.1 403.911C1410.19 402.341 1407.57 400.281 1405.19 397.991C1402.85 395.671 1400.69 393.191 1398.37 390.881C1396.06 388.561 1393.63 386.361 1391 384.401C1385.77 380.471 1379.88 377.431 1373.69 375.321C1367.49 373.211 1360.99 372.071 1354.45 371.711C1347.89 371.411 1341.32 370.961 1334.79 370.271C1321.71 368.921 1308.72 366.911 1295.69 365.311C1282.67 363.591 1269.54 363.031 1256.46 361.641C1253.19 361.341 1249.93 360.921 1246.66 360.561C1243.4 360.171 1240.14 359.721 1236.89 359.271C1230.39 358.321 1223.91 357.181 1217.47 355.851C1211.03 354.531 1204.63 353.051 1198.17 351.961C1191.7 350.871 1185.19 350.071 1178.65 349.571C1165.57 348.541 1152.43 348.151 1139.3 348.161C1132.73 348.161 1126.15 348.151 1119.58 347.721C1113.01 347.281 1106.48 346.541 1099.97 345.571C1093.46 344.671 1086.98 343.491 1080.56 342.021C1074.14 340.561 1067.83 338.641 1061.62 336.501C1055.41 334.351 1049.21 332.211 1042.86 330.561C1036.52 328.891 1030.09 327.611 1023.62 326.541C1017.14 325.531 1010.63 324.701 1004.09 324.391C997.55 324.061 990.99 324.341 984.44 324.741C977.89 325.141 971.32 325.571 964.75 325.711C958.18 325.841 951.6 325.841 945.03 325.591L940.1 325.431L935.18 325.161L930.26 324.891L925.34 324.531C918.78 324.071 912.23 323.521 905.7 322.831C899.16 322.171 892.65 321.201 886.13 320.611C879.61 320.031 873.04 319.951 866.48 319.881C859.92 319.811 853.35 319.901 846.78 319.891C843.49 319.871 840.19 319.831 836.9 319.441C833.61 319.061 830.35 318.251 827.26 317.041C824.18 315.841 821.19 314.381 818.38 312.611C815.56 310.861 813.03 308.681 810.59 306.481C808.16 304.281 805.68 302.161 802.8 300.671C799.96 299.141 796.83 298.131 793.65 297.511C790.47 296.881 787.21 296.661 783.96 296.801C780.71 296.961 777.48 297.481 774.32 298.251C767.98 299.801 761.91 302.361 756.15 305.441L755.97 305.541L755.78 305.461C746.15 301.541 736.14 298.571 725.92 296.671C715.71 294.771 705.28 293.821 694.91 294.471C684.54 295.091 674.31 297.401 663.85 298.011C658.64 298.371 653.4 298.421 648.18 298.171C642.96 297.981 637.75 297.531 632.58 296.721C629.99 296.331 627.43 295.801 624.88 295.201C622.34 294.571 619.82 293.851 617.33 293.091C612.35 291.531 607.35 290.141 602.22 289.361C597.09 288.561 591.89 288.251 586.7 288.141C581.5 288.011 576.3 288.221 571.14 288.791C565.98 289.361 560.91 290.511 555.88 291.871C553.36 292.541 550.83 293.191 548.25 293.691C545.67 294.151 543.06 294.511 540.44 294.581C535.19 294.811 529.97 294.241 524.8 293.451C519.65 292.501 514.58 291.081 509.75 289.061C500.04 285.041 491.56 278.781 482.14 274.391C472.76 269.921 462.7 266.941 452.43 265.321C442.16 263.661 431.68 263.741 421.33 264.731C416.15 265.201 410.98 265.861 405.8 266.481C400.62 267.101 395.44 267.661 390.25 268.171C348.72 272.161 306.9 272.381 265.26 270.251H265.25H265.24C252.88 268.481 240.23 268.431 227.92 270.551C215.5 272.351 204.16 278.221 191.83 280.751C190.3 281.101 188.77 281.431 187.23 281.731C185.69 282.041 184.15 282.331 182.61 282.581C179.52 283.091 176.41 283.511 173.3 283.851C167.07 284.531 160.81 284.921 154.54 285.001C148.28 285.091 141.99 284.841 135.78 283.911C132.68 283.471 129.59 282.971 126.48 282.671C123.37 282.351 120.25 282.201 117.12 282.141C110.87 282.061 104.6 281.991 98.3598 282.291C92.1198 282.611 85.8898 283.421 79.8598 285.051C73.8398 286.711 67.9898 289.041 62.5698 292.161C59.8498 293.711 57.2398 295.441 54.5298 297.011C51.8098 298.571 48.9398 299.891 45.9498 300.831C44.4498 301.301 42.9398 301.701 41.3998 302.031C39.8698 302.381 38.3298 302.651 36.7698 302.851C33.6598 303.271 30.5098 303.331 27.3798 303.231C21.1198 302.981 14.8798 302.541 8.61979 302.441C-3.88021 302.151 -16.4502 302.611 -28.8602 303.591L-28.8902 303.631Z" fill="#3C2415"/>
<path d="M1951.59 465.58C1935.13 459.36 1909.35 450.59 1876.94 443.78C1827.61 433.42 1786.72 433.1 1706.94 432.88C1630.08 432.67 1610.69 436.35 1573.99 424.71C1557.07 419.34 1546.23 413.82 1522.19 409.11C1491.32 403.06 1477.36 405.94 1439.95 399.65C1426.78 397.44 1428.45 396.9 1395.45 389.66C1332.68 375.9 1300.96 369.01 1284.3 368.95C1265.52 368.88 1244.83 371.01 1210.2 370.77C1204.89 370.73 1193.57 370.6 1178.96 368.23C1164 365.8 1153.19 362.26 1150.26 361.33C1117.69 350.94 1039.04 337.28 1008.41 332.63C930.88 320.88 916.25 329.96 891.26 328.28C875.45 327.22 864.27 323.1 858.02 321.19C808.48 306 757.31 303 746.87 302.39C721.96 300.93 704.16 299.89 685.21 300.61C685.21 300.61 664.59 301.41 644.16 297.51C630.71 294.94 632.06 293.56 622.6 292.24C603.27 289.54 597.12 295.21 573.19 295.38C558.59 295.48 547.32 293.48 541.67 292.42C520.73 288.47 516.49 284 500.3 281.06C491.61 279.48 478.6 278.18 461.88 280.57C400.31 283.74 355.06 280.68 324.46 277.11C304.93 274.83 288.89 272.06 266.83 277.11C233.04 284.84 227.68 301.19 196.95 304.44C172.88 306.99 171.63 297.44 139.26 298.34C110.89 299.13 111.52 306.48 82.1302 308.22C50.0102 310.11 41.8002 301.77 11.7002 305.26C-5.76977 307.28 -19.6498 312.02 -28.5098 315.63C-28.3998 371.92 -28.2998 428.22 -28.1898 484.51C232.88 484.29 493.91 485.6 754.92 488.42C1149.2 492.69 1543.46 500.42 1937.7 511.63C1942.33 496.28 1946.96 480.94 1951.59 465.59V465.58Z" fill="#968371"/>
<path d="M1951.5 465.629C1947.91 464.339 1944.16 462.939 1940.46 461.659C1936.75 460.359 1933.02 459.119 1929.28 457.899C1921.79 455.489 1914.25 453.239 1906.66 451.179C1891.48 447.029 1876.11 443.629 1860.61 440.969C1845.11 438.299 1829.45 436.629 1813.76 435.539C1798.07 434.489 1782.34 434.039 1766.61 433.779C1750.88 433.529 1735.14 433.479 1719.41 433.439C1703.67 433.379 1687.94 433.419 1672.21 433.589C1656.48 433.719 1640.74 434.079 1624.98 433.679C1617.1 433.449 1609.21 432.909 1601.4 431.779C1593.58 430.659 1585.86 428.899 1578.28 426.679C1570.69 424.519 1563.28 421.779 1555.87 419.159C1548.47 416.519 1540.98 414.159 1533.36 412.299C1525.74 410.439 1518.03 408.929 1510.26 407.809C1502.5 406.679 1494.68 405.979 1486.83 405.449C1478.99 404.909 1471.12 404.419 1463.28 403.589C1455.44 402.779 1447.62 401.699 1439.85 400.409C1435.96 399.759 1432.07 399.009 1428.23 398.079L1416.76 395.299C1409.11 393.479 1401.44 391.769 1393.75 390.089C1378.38 386.729 1363.01 383.359 1347.61 380.099C1339.91 378.479 1332.21 376.869 1324.5 375.369C1316.78 373.869 1309.05 372.439 1301.29 371.319C1297.41 370.759 1293.52 370.279 1289.62 370.009C1285.74 369.709 1281.83 369.769 1277.9 369.839C1270.05 369.999 1262.2 370.389 1254.33 370.719C1238.6 371.409 1222.85 371.779 1207.08 371.589C1191.28 371.329 1175.51 369.149 1160.21 365.159C1156.39 364.179 1152.59 362.999 1148.84 361.829L1143.21 360.149L1137.53 358.619C1129.93 356.639 1122.29 354.829 1114.61 353.129C1083.9 346.379 1052.92 340.759 1021.89 335.629C1006.37 333.079 990.81 330.849 975.17 329.279C967.36 328.459 959.52 327.949 951.68 327.579C943.84 327.299 935.99 327.259 928.15 327.599C920.31 327.899 912.49 328.679 904.6 329.119C896.7 329.539 888.72 329.179 880.9 327.899C876.99 327.279 873.11 326.429 869.29 325.409C865.46 324.399 861.7 323.159 857.96 321.989C850.44 319.739 842.88 317.609 835.23 315.819C827.6 313.939 819.89 312.409 812.18 310.919C804.45 309.539 796.69 308.249 788.91 307.189C773.34 305.049 757.68 303.579 741.98 302.759C726.27 301.849 710.57 300.879 694.85 300.989C690.93 300.989 687 301.159 683.05 301.239C679.1 301.289 675.16 301.209 671.22 301.039C663.34 300.699 655.47 299.959 647.68 298.679C643.79 298.009 639.91 297.269 636.08 296.229C634.17 295.719 632.28 295.079 630.42 294.479C628.57 293.869 626.69 293.429 624.76 293.099C620.91 292.459 617.01 292.029 613.11 292.009C609.2 291.959 605.31 292.359 601.43 292.939C597.55 293.519 593.67 294.209 589.75 294.709C585.84 295.209 581.9 295.559 577.95 295.709C570.06 296.009 562.16 295.689 554.32 294.789C546.48 293.879 538.72 292.429 531.07 290.469C527.25 289.469 523.49 288.269 519.77 286.969C516.05 285.679 512.35 284.369 508.57 283.329C493.43 279.219 477.42 278.709 461.9 280.919H461.88H461.86C420.24 283.019 378.44 282.769 336.93 278.739C331.74 278.219 326.56 277.669 321.39 277.039C316.22 276.419 311.05 275.759 305.87 275.279C295.52 274.279 285.05 274.199 274.78 275.859C264.52 277.489 254.46 280.469 245.09 284.939C235.67 289.329 227.2 295.589 217.5 299.609C212.67 301.629 207.6 303.059 202.46 303.999C197.29 304.789 192.07 305.359 186.83 305.129C184.21 305.059 181.6 304.699 179.02 304.239C176.45 303.739 173.91 303.089 171.4 302.419C166.38 301.059 161.31 299.909 156.15 299.339C151 298.759 145.8 298.559 140.6 298.689C135.41 298.809 130.21 299.109 125.09 299.919C119.96 300.699 114.96 302.089 109.99 303.649C107.5 304.419 104.98 305.129 102.45 305.769C99.9 306.369 97.34 306.899 94.75 307.299C89.58 308.109 84.37 308.559 79.15 308.749C73.93 308.999 68.7 308.949 63.49 308.589C53.04 307.979 42.81 305.669 32.45 305.049C22.09 304.399 11.68 305.349 1.47 307.259C-8.74 309.159 -18.74 312.139 -28.36 316.059L-28.05 315.599L-27.61 484.479L-28.23 483.859C135.62 483.599 299.46 483.879 463.31 484.909C545.23 485.419 627.15 486.059 709.07 486.859C790.99 487.689 872.91 488.679 954.82 489.829C1036.74 490.989 1118.65 492.229 1200.56 493.739C1282.47 495.249 1364.38 496.899 1446.28 498.699C1610.09 502.289 1773.88 506.469 1937.65 511.419L1937.47 511.549L1951.45 465.599L1951.5 465.629ZM1951.68 465.539L1937.87 511.679L1937.83 511.809H1937.69C1773.9 507.499 1610.11 503.479 1446.3 500.209C1282.49 496.889 1118.67 494.209 954.84 491.919C872.93 490.779 791.01 489.849 709.09 488.999C627.17 488.139 545.25 487.429 463.34 486.859C299.5 485.769 135.66 485.119 -28.19 485.129H-28.8V484.509L-29 315.629V315.289L-28.69 315.159C-19.01 311.229 -8.94 308.239 1.34 306.339C11.61 304.439 22.1 303.489 32.55 304.159C43.01 304.799 53.22 307.119 63.59 307.729C68.77 308.089 73.97 308.149 79.16 307.909C84.35 307.719 89.54 307.289 94.66 306.489C97.22 306.099 99.77 305.579 102.29 304.989C104.81 304.369 107.3 303.659 109.79 302.889C114.75 301.339 119.83 299.929 125 299.149C130.17 298.349 135.4 298.039 140.62 297.929C145.84 297.799 151.07 298.019 156.27 298.599C161.47 299.179 166.6 300.349 171.62 301.719C174.14 302.389 176.65 303.039 179.19 303.539C181.74 303.999 184.3 304.349 186.89 304.429C192.06 304.659 197.25 304.109 202.37 303.329C207.47 302.399 212.48 300.999 217.27 298.999C226.88 295.039 235.36 288.789 244.85 284.369C254.29 279.879 264.42 276.889 274.73 275.269C285.06 273.609 295.59 273.709 305.97 274.699C311.16 275.179 316.34 275.829 321.51 276.449C326.68 277.069 331.86 277.619 337.04 278.139C378.51 282.119 420.28 282.339 461.87 280.199H461.84C477.44 277.969 493.55 278.459 508.82 282.589C512.63 283.629 516.36 284.949 520.07 286.239C523.78 287.519 527.52 288.709 531.32 289.689C538.92 291.619 546.67 293.049 554.46 293.939C562.26 294.819 570.12 295.119 577.96 294.799C581.88 294.639 585.78 294.289 589.67 293.779C593.56 293.279 597.42 292.579 601.33 291.979C605.23 291.389 609.19 290.969 613.16 291.009C617.13 291.019 621.08 291.449 624.99 292.079C626.94 292.409 628.9 292.869 630.79 293.479C632.68 294.089 634.52 294.709 636.41 295.209C640.18 296.219 644.04 296.949 647.91 297.609C655.65 298.859 663.48 299.579 671.32 299.899C675.24 300.059 679.17 300.129 683.09 300.069C687.01 299.979 690.95 299.799 694.89 299.789C710.66 299.639 726.39 300.579 742.1 301.459C757.82 302.249 773.54 303.689 789.15 305.799C796.96 306.839 804.74 308.119 812.5 309.489C820.24 310.959 827.98 312.479 835.64 314.349C843.32 316.129 850.92 318.259 858.48 320.499C862.25 321.679 865.97 322.889 869.75 323.879C873.53 324.879 877.35 325.709 881.21 326.309C888.93 327.559 896.75 327.889 904.57 327.469C912.39 327.029 920.24 326.239 928.13 325.929C936.02 325.589 943.91 325.619 951.8 325.899C959.68 326.269 967.55 326.779 975.39 327.589C991.08 329.149 1006.68 331.379 1022.22 333.919C1053.29 339.039 1084.28 344.629 1115.05 351.379C1122.74 353.069 1130.41 354.889 1138.04 356.889L1143.75 358.429L1149.43 360.129C1153.2 361.309 1156.91 362.459 1160.71 363.449C1175.86 367.419 1191.49 369.599 1207.16 369.869C1222.87 370.069 1238.59 369.719 1254.31 369.039C1262.17 368.719 1270.03 368.329 1277.92 368.179C1281.85 368.109 1285.82 368.049 1289.79 368.359C1293.75 368.629 1297.67 369.119 1301.58 369.689C1309.39 370.829 1317.14 372.269 1324.87 373.779C1332.6 375.289 1340.3 376.899 1348 378.529C1363.4 381.799 1378.77 385.179 1394.14 388.559C1401.83 390.249 1409.51 391.969 1417.17 393.799L1428.64 396.589C1432.45 397.519 1436.28 398.259 1440.16 398.909C1447.91 400.209 1455.69 401.289 1463.5 402.099C1471.31 402.929 1479.15 403.419 1487 403.979C1494.85 404.519 1502.72 405.249 1510.53 406.399C1518.34 407.539 1526.09 409.069 1533.75 410.959C1541.42 412.849 1548.96 415.239 1556.37 417.899C1563.79 420.539 1571.15 423.279 1578.69 425.449C1586.21 427.669 1593.86 429.429 1601.62 430.559C1609.38 431.699 1617.21 432.249 1625.06 432.489C1640.77 432.919 1656.51 432.599 1672.24 432.489C1687.98 432.349 1703.72 432.349 1719.46 432.439C1735.2 432.509 1750.94 432.609 1766.67 432.919C1782.41 433.229 1798.15 433.729 1813.86 434.839C1829.56 435.989 1845.24 437.719 1860.75 440.439C1876.26 443.159 1891.64 446.619 1906.81 450.819C1914.4 452.919 1921.93 455.189 1929.42 457.629C1933.16 458.859 1936.89 460.119 1940.6 461.429C1944.32 462.759 1947.97 464.049 1951.74 465.539H1951.68Z" fill="#3C2415"/>
<path d="M-28.96 320.391C-7.47996 326.321 8.12004 324.341 18.45 321.381C36.73 316.141 39.88 307.461 61.41 303.111C79.19 299.511 79.71 303.451 96.47 299.981C112.32 296.701 116.31 293.191 128.08 293.401C143.85 293.671 144.49 299.951 158.11 300.701C179.91 301.911 182.24 285.731 208.82 283.601C220.67 282.651 223.82 285.581 243.88 284.341C253.22 283.761 260.88 282.621 266.01 281.701C284.01 272.561 312.57 261.631 346.78 264.581C347.53 264.641 350.32 265.051 353.56 265.541C374.85 268.711 382.16 271.411 384.53 272.321C388.46 273.841 390.96 275.121 392.8 276.081C399.16 279.411 412.21 283.681 441.48 287.821C452.29 284.461 471.12 280.111 494.5 282.521C519.3 285.071 537.69 294.041 547.65 299.831C553.85 301.181 560.99 303.181 568.69 306.221C574.76 308.621 580.11 311.241 584.71 313.801C635.32 302.971 664.86 305.641 682.82 310.671C684.74 311.211 688.5 312.331 693.78 313.661C698.34 314.891 709.05 317.531 726.91 319.921C734.81 320.981 744.82 322.071 756.56 322.781C758.56 321.751 761.78 320.291 765.92 319.371C785.24 315.051 798.44 328.081 820.77 333.721C826.88 335.261 840.07 337.721 856.1 335.351C862.6 334.391 867.48 332.911 880.62 330.991C890.24 329.591 895.06 328.891 899.15 328.811C918.61 328.451 935.38 335.681 942.2 338.621C947.65 340.971 951.25 343.001 958.82 345.431C964.47 346.731 970.2 348.091 975.98 349.521C981.42 350.861 986.77 352.221 992.05 353.611C992.59 352.801 993.63 351.481 995.33 350.641C1001.17 347.741 1007.71 354.011 1017.79 356.471C1021.51 357.381 1027.32 358.161 1035.14 356.611C1040.9 355.851 1049.75 355.251 1060.14 357.121C1080.63 360.801 1088.58 370.721 1107.56 376.771C1116.1 379.491 1128.95 382.081 1146.25 380.221C1152.63 383.091 1162.03 386.691 1173.86 388.941C1184.38 390.941 1192.43 391.041 1201.83 391.121C1211.18 391.201 1223.98 390.761 1239.24 388.581C1243.83 385.771 1250.72 382.551 1259.03 382.721C1270.29 382.951 1277.6 389.621 1284.64 394.031C1294.04 399.911 1309.02 405.711 1333.07 404.291C1339.83 407.481 1345.32 407.901 1349.48 407.421C1355.47 406.741 1357.74 404.331 1363.17 404.291C1369.81 404.241 1373.92 407.811 1378.22 410.221C1387.07 415.171 1394.91 414.411 1409.55 414.241C1422.41 414.091 1457.71 413.671 1485.42 418.741C1492.66 420.061 1507.58 424.671 1524.11 430.451C1535.7 434.511 1540.56 436.731 1549.86 437.941C1558.14 439.021 1561.88 438.241 1577.65 438.081C1583.06 438.021 1584.47 438.101 1604.08 438.491C1617.09 438.751 1636.5 439.121 1664.25 439.591C1666.5 442.521 1668.35 443.111 1669.6 443.121C1670.93 443.121 1671.58 442.481 1674.33 441.471C1675.44 441.091 1677.13 440.551 1679.22 440.081C1691.23 437.391 1700.98 440.371 1706.92 441.901C1719.61 445.171 1733.11 445.751 1760.11 446.921C1769.54 447.331 1770.66 447.051 1776.16 447.721C1790.38 449.451 1801.65 453.611 1809.07 456.941C1809.52 457.061 1810.17 457.241 1810.97 457.431C1822.65 460.231 1832.07 458.581 1837.55 457.841C1846.24 456.661 1855.08 457.291 1863.84 456.891C1875.75 456.341 1893.32 456.711 1916.91 461.191L1921.05 503.751C1271.37 502.541 621.69 501.341 -27.99 500.131C-28.29 440.201 -28.63 380.291 -28.96 320.391Z" fill="#766854"/>
<path d="M587.57 313.1C630.28 303.08 678.77 302.83 719.75 319.76L719.65 320.06C698 314.82 676.24 310.64 654.03 309C642.96 308.26 631.82 308.31 620.73 309.06C609.63 309.76 598.57 311.23 587.64 313.41L587.57 313.1Z" fill="#3D3227"/>
<path opacity="0.4" d="M171.54 332.24C174.64 327.67 178.33 322.76 182.71 317.72C185.93 314 189.13 310.68 192.2 307.71C190.57 306.88 188.44 305.99 185.86 305.41C181.32 304.37 177.42 304.72 174.95 305.15C173.67 306.47 168.43 312.2 168.41 320.88C168.4 326.28 170.41 330.32 171.54 332.23V332.24Z" fill="#3C2415"/>
<path opacity="0.4" d="M192.2 307.72C196.85 304.5 202.11 301.2 208.02 298.02C217.34 293 226.15 289.41 233.89 286.81C228.96 285.94 221.7 285.3 213.4 287.18C208.98 288.18 206.13 289.48 201.42 291.38C195.65 293.71 187.32 296.87 176.73 300.15C181.89 302.67 187.05 305.2 192.2 307.72Z" fill="#3C2415"/>
<path d="M108.84 317.63C132.82 299.6 167.76 292.09 195.03 307.1L194.91 307.4C187.67 305.4 180.4 303.78 172.96 302.99C166.54 302.3 160.01 301.96 153.55 302.36C145.2 302.97 136.96 304.84 129.07 307.76C122.05 310.35 115.32 313.77 109.02 317.9L108.84 317.64V317.63Z" fill="#3D3227"/>
<path d="M171 329.839C190.044 301.737 226.132 284.685 262.452 283.13C290.113 281.735 317.626 291.684 337.93 308.319C344.684 313.801 350.951 319.824 356 326.624L355.725 326.804C344.038 314.446 329.8 304.165 313.974 296.777C298.158 289.427 280.416 285.159 262.537 285.558C235.733 286.183 209.004 295.706 188.827 311.61C182.105 316.988 176.166 323.171 171.296 330L171.011 329.839H171Z" fill="#3D3227"/>
<path d="M261.34 283.969C299.65 262.269 349.52 256.339 391.24 271.249C397.26 273.399 403.16 275.929 408.78 278.979L408.65 279.269C402.69 277.079 396.69 275.039 390.57 273.379C344.37 260.869 304.09 263.529 261.35 283.969H261.34Z" fill="#3D3227"/>
<path d="M296.07 293.4C347.97 266.91 412.84 267.63 463.58 296.61C469 299.67 474.3 302.95 479.34 306.58C481.04 307.76 482.69 309.02 484.33 310.28L484.15 310.54C470.16 301.9 455.35 294.58 439.93 288.91C430.45 285.52 420.33 282.39 410.47 280.35C400.59 278.21 390.1 276.8 380.02 276.52C367.76 276.03 355.3 276.82 343.22 278.93C327.01 281.68 311.16 286.7 296.21 293.69L296.07 293.4Z" fill="#3D3227"/>
<path d="M61.3901 302.94C76.3101 300.74 91.1501 298.08 105.84 294.67C118.38 291.71 134.29 286.98 144.61 297.5C145.96 298.91 147.13 300.48 148.02 302.17L147.76 302.35C146.49 300.95 145.14 299.67 143.65 298.59C139.29 295.32 133.86 294.01 128.44 294.18C121.09 294.37 113.66 295.84 106.37 297.16C91.5101 299.97 76.5001 302.02 61.4301 303.25L61.3901 302.93V302.94Z" fill="#3D3227"/>
<path d="M210.78 392.181C196.98 381.791 179.81 375.341 162.42 376.551C152.02 377.181 142.1 379.551 132.27 383.321L132.12 383.041C135.02 381.001 138.15 379.291 141.43 377.891C157.94 370.541 177.33 372.811 193.35 380.351C199.72 383.441 205.68 387.321 210.98 391.931L210.78 392.181Z" fill="#3D3227"/>
<path d="M232.72 357.741C247.85 347.181 270.57 348.071 284.87 359.721L284.73 360.011C268.71 352.161 249.42 351.431 232.84 358.041L232.72 357.741Z" fill="#3D3227"/>
<path d="M281.91 335.27C308.02 336.59 334.38 332.76 358.81 323.48C369.27 319.17 380.16 315.32 391.59 314.63C409.63 313.18 427.66 317.96 443.96 325.4C448.18 327.38 452.43 329.6 456.46 331.91L456.32 332.2C452.04 330.39 447.67 328.59 443.33 326.93C426.88 320.87 409.4 316.81 391.8 317.79C380.62 318.17 369.99 321.63 359.61 325.66C334.83 334.56 308.06 337.7 281.88 335.6L281.9 335.28L281.91 335.27Z" fill="#3D3227"/>
<path d="M464.8 319.751C496.6 300.231 537.47 292.971 573.06 306.021C584.86 310.451 595.85 316.961 605.23 325.191L605.04 325.441C594.63 318.641 583.62 312.951 571.98 309.021C548.15 300.711 523.79 299.741 499.34 306.151C487.39 309.311 475.76 313.881 464.96 320.021L464.8 319.741V319.751Z" fill="#3D3227"/>
<path d="M169.44 301.21C183.61 288.17 203.14 280.02 222.52 282.79C228.86 283.68 235.01 285.67 240.68 288.53C232.02 284.59 222.46 282.73 212.99 283.51C211.59 283.59 209.67 283.79 208.31 284.05L205.99 284.43L203.7 284.98C191.54 287.95 180.48 294.76 171.65 303.52L169.43 301.22L169.44 301.21Z" fill="#3D3227"/>
<path d="M578.5 336.359C594.31 326.319 614.07 321.629 632.63 325.679C638.81 326.939 644.82 328.749 650.79 330.519C662.71 334.159 674.73 337.119 686.86 339.629C699.03 342.169 711.31 343.919 723.67 345.419L723.65 345.739C708.03 346.029 692.3 344.359 677.04 340.909C667.9 338.779 658.91 335.889 650.03 332.969C638.3 329.089 626.36 325.289 613.89 325.989C601.56 326.499 589.42 330.409 578.67 336.649L578.51 336.379L578.5 336.359Z" fill="#3D3227"/>
<path d="M551.66 302.291C533.36 290.571 512.9 282.631 491.21 281.181C474.33 279.931 457.72 282.661 441.55 287.971L441.42 287.681C468.07 275.131 500.01 274.571 526.89 286.751C535.85 290.701 544.27 295.861 551.85 302.051L551.65 302.301L551.66 302.291Z" fill="#3D3227"/>
<path d="M470.54 349.409C484.66 336.199 509.55 337.409 522.73 351.389L522.55 351.659C514.94 346.669 505.99 343.699 496.89 343.379C492.37 343.179 487.76 343.589 483.36 344.669C478.94 345.749 474.67 347.449 470.7 349.689L470.54 349.409Z" fill="#3D3227"/>
<path opacity="0.4" d="M412.04 286.561C420.03 288.011 428.81 290.061 438.14 292.981C453.93 297.931 467.24 304.101 477.97 310.011C470.27 312.741 464.21 312.831 460.26 312.481C443.51 311.001 440.4 299.421 422.48 297.781C417.72 297.351 412.04 297.621 410.39 294.351C409.22 292.021 410.6 288.911 412.04 286.551V286.561Z" fill="white"/>
<path opacity="0.4" d="M291.05 295.949C293.04 296.669 295.91 297.749 299.32 299.159C306.14 301.979 311.5 304.209 317.59 308.049C319.75 309.409 322.74 311.439 326.11 314.219C322.55 312.889 317.32 311.649 312.41 313.729C307.82 315.669 306.8 319.119 304.22 319.239C301.33 319.379 297.03 315.339 291.05 295.949Z" fill="white"/>
<path d="M466.98 336.35C494.42 322.26 527.43 316.61 557.38 325.56C567.31 328.71 576.75 333.43 585 339.65L584.83 339.92C580.25 337.56 575.61 335.42 570.89 333.51C547.31 323.98 521.09 320.99 496.18 326.87C486.2 329.05 476.44 332.35 467.12 336.64L466.98 336.35Z" fill="#3D3227"/>
<path d="M-28.93 321.101C-21.2 322.371 -13.36 322.921 -5.52996 322.881C2.25004 322.841 10.1 322.141 17.26 319.391C22.67 317.361 27.86 314.381 33.21 312.021C38.62 309.601 44.22 307.601 49.89 305.871C53.69 304.791 57.52 303.801 61.38 302.961L61.48 303.261C57.91 304.971 54.29 306.491 50.67 307.981C43.47 311.081 36.39 314.281 29.2 317.411C22 320.581 14.32 323.661 6.36004 324.211C-5.46996 325.181 -17.42 323.931 -28.96 321.411L-28.9 321.101H-28.93Z" fill="#3D3227"/>
<path d="M657.77 327.309C673.99 323.019 690.62 320.199 707.38 319.019C724.13 317.569 741.16 318.099 757.59 321.959L757.55 322.279C740.8 321.909 724.24 321.199 707.52 321.579C699.19 321.859 690.87 322.529 682.59 323.569C674.3 324.539 666.05 325.919 657.85 327.619L657.78 327.309H657.77Z" fill="#3D3227"/>
<path opacity="0.4" d="M112.28 318.481C115.33 316.481 119.23 314.281 123.95 312.361C128.43 310.541 132.54 309.421 135.99 308.721C137.43 311.651 138.73 315.271 137.22 317.051C135.76 318.781 132.44 317.981 127.84 317.421C124.24 316.981 119 316.851 112.28 318.481Z" fill="#3C2415"/>
<path opacity="0.4" d="M134.83 384.761C139.31 383.631 144.27 382.601 149.65 381.801C154.34 381.101 158.76 380.651 162.86 380.391C165.35 385.961 164.92 387.931 164.09 388.721C162.32 390.421 157.87 387.481 151.13 385.751C144.46 384.031 138.65 384.291 134.83 384.761Z" fill="#3C2415"/>
<path opacity="0.4" d="M541.12 297.861C532.83 296.621 526.38 297.101 521.98 297.801C516.9 298.601 508.21 300.681 508.21 300.681C508.21 300.681 508.7 296.571 507.47 293.601C506.24 290.641 502.78 287.801 502.78 287.801C508.03 288.191 514.2 289.041 520.98 290.721C528.98 292.711 535.74 295.341 541.12 297.861Z" fill="white"/>
<path d="M144.5 337.031C161.54 328.481 184.63 327.521 202.35 334.551L202.3 334.871C183.16 331.721 163.39 332.581 144.59 337.341L144.51 337.031H144.5Z" fill="#3D3227"/>
<path opacity="0.4" d="M583.59 330.9C585.77 329.73 588.28 328.53 591.12 327.44C594.77 326.03 598.16 325.1 601.12 324.48C597.03 322.24 592.42 319.96 587.29 317.81C582.62 315.85 578.19 314.27 574.08 313C575.76 314.04 580.66 317.37 582.72 323.74C583.64 326.58 583.71 329.13 583.58 330.9H583.59Z" fill="white"/>
<path opacity="0.4" d="M466.28 320.469C471.02 317.999 478.11 314.699 487.1 311.909C494.96 309.469 505.12 306.319 506.48 308.779C507.84 311.239 500.93 320.239 492.53 321.369C487.69 322.019 485.45 319.649 477.71 319.309C472.8 319.099 468.78 319.839 466.27 320.459L466.28 320.469Z" fill="#3C2415"/>
<path opacity="0.4" d="M84.7498 316.33C53.0998 321.85 36.9298 323.29 36.2298 320.64C35.9398 319.55 38.2498 317.79 43.1398 315.33C49.4398 312 55.7298 308.66 62.0298 305.33C65.9198 305.46 70.1398 305.45 74.6198 305.21C80.3798 304.9 85.6698 304.27 90.4198 303.48C89.0698 305.36 87.5398 307.89 86.3098 311.06C85.5698 312.97 85.0698 314.76 84.7398 316.33H84.7498Z" fill="#3C2415"/>
<path opacity="0.4" d="M120.51 306.98C120.51 306.98 117.96 307.47 127.84 304.02C137.72 300.56 140.02 299.49 140.02 299.49C140.02 299.49 139.61 297.51 132.2 298.34C124.79 299.16 116.07 299.16 116.07 299.16L120.51 306.98Z" fill="white"/>
<path opacity="0.4" d="M306.73 285.33C304.54 283.59 301.59 281.56 297.84 279.77C293.69 277.8 289.9 276.76 286.98 276.19C298.18 273.01 312.87 270.07 330.19 269.71C341.17 269.49 350.98 270.35 359.33 271.62C351.27 272.26 341.61 273.66 330.93 276.56C321.53 279.11 313.43 282.25 306.73 285.33Z" fill="white"/>
<path d="M460.37 439.699C474.87 425.649 498.1 422.449 516.52 430.159C522.69 432.649 528.43 436.169 533.12 440.759L532.94 441.019C527.63 437.409 521.81 434.559 515.72 432.539C503.58 428.469 490.17 428.059 477.88 431.729C471.73 433.569 465.88 436.369 460.56 439.959L460.38 439.699H460.37Z" fill="#3D3227"/>
<path d="M13.4102 372.79C24.0102 363.85 40.8402 360.62 54.0102 364.93V365.25C43.6202 365.1 33.2402 366.52 23.3102 369.56C20.0102 370.58 16.7502 371.76 13.5502 373.09L13.4202 372.8L13.4102 372.79Z" fill="#3D3227"/>
<path d="M40.8501 369.88C52.5301 360.24 71.2801 358.97 84.1701 366.91L84.0801 367.22C73.4601 364.29 62.1201 364.08 51.4201 366.69C47.8601 367.57 44.3701 368.74 40.9801 370.17L40.8501 369.88Z" fill="#3D3227"/>
<path d="M142.35 445.681C135.87 444.751 129.97 443.551 123.6 443.091C117.25 442.511 111.25 442.761 104.7 442.721L104.6 442.421C113.82 439.151 124.09 438.901 133.46 441.711C136.59 442.621 139.62 443.861 142.49 445.391L142.34 445.681H142.35Z" fill="#3D3227"/>
<path d="M748.38 329.631C751.21 325.851 754.95 322.641 759.39 320.791C759.92 320.511 760.5 320.341 761.07 320.151C761.64 319.961 762.21 319.761 762.78 319.591L764.54 319.211L765.42 319.021L766.32 318.921L768.12 318.721C768.72 318.691 769.32 318.691 769.92 318.671C771.13 318.601 772.32 318.731 773.52 318.791C778.31 319.211 782.94 320.441 787.47 321.801C792.01 323.171 796.45 324.741 800.92 326.141C809.82 329.001 818.99 330.701 828.18 332.221C837.38 333.721 846.7 334.521 856.11 335.211V335.531C846.72 336.611 837.18 336.501 827.74 335.391C823.02 334.841 818.34 333.921 813.73 332.771C809.13 331.581 804.58 330.161 800.12 328.571C795.66 326.991 791.28 325.281 786.85 323.781C782.43 322.291 777.95 320.951 773.36 320.381C772.21 320.281 771.07 320.091 769.92 320.111C769.35 320.111 768.77 320.071 768.19 320.081L766.47 320.191L765.61 320.251L764.76 320.391L763.06 320.681C762.5 320.821 761.95 320.991 761.4 321.141C760.85 321.301 760.28 321.441 759.76 321.681C755.41 323.261 751.6 326.211 748.64 329.821L748.39 329.621L748.38 329.631Z" fill="#3D3227"/>
<path d="M850.89 338.48C876 325.09 906.82 324.07 933.59 333.02C942.54 336.04 951.13 340.06 958.9 345.3L958.75 345.59C954.61 343.51 950.38 341.59 946.06 339.9C924.5 331.39 900.8 328.27 877.83 331.65C868.66 333.02 859.65 335.43 851 338.78L850.88 338.48H850.89Z" fill="#3D3227"/>
<path d="M942.73 350.731C950.86 348.721 959.26 347.861 967.65 348.021C976.08 347.941 984.64 349.371 992.12 353.461L992.03 353.771C983.67 353.071 975.77 351.581 967.51 350.581C959.29 349.801 951 350.031 942.79 351.051L942.73 350.741V350.731Z" fill="#3D3227"/>
<path d="M842.98 352.35C846.52 350.44 850.46 349.4 854.45 349.26C856.45 349.26 858.46 349.61 860.42 349.6C864.37 349.65 868.32 348.53 872.28 348.67C878.28 348.59 884.26 349.82 889.63 352.62L889.56 352.93C883.54 353.03 877.94 352.51 872.09 351.69C868.23 351.33 864.37 350.17 860.47 350.63C856.63 351.27 852.92 352.56 848.97 352.61C847.03 352.72 845.08 352.83 843.04 352.66L842.97 352.35H842.98Z" fill="#3D3227"/>
<path d="M939.66 382.63C950.86 373.22 969.79 369.46 981.52 379.89L981.36 380.17C979.54 379.68 977.79 379.18 976.04 378.74C970.83 377.58 965.66 376.49 960.28 376.48C953.08 376.69 945.96 378.95 939.85 382.88L939.66 382.62V382.63Z" fill="#3D3227"/>
<path d="M990.12 356.02C990.89 354.13 992.01 352.29 993.74 350.98C995.43 349.66 997.76 349.05 999.92 349.29C1002.1 349.49 1004.09 350.23 1006.02 350.94C1007.94 351.67 1009.81 352.45 1011.68 353.09C1015.42 354.44 1019.3 354.9 1023.16 355.47C1025.1 355.75 1027.07 355.92 1029.06 356.07L1035.14 356.46L1035.19 356.78C1031.29 358.25 1027.09 358.81 1022.89 358.66C1018.67 358.54 1014.55 357.16 1010.75 355.48C1008.85 354.65 1007.02 353.72 1005.21 352.86C1003.4 352.02 1001.59 351.19 999.72 350.88C998.79 350.7 997.85 350.65 996.94 350.82C996.02 350.96 995.12 351.29 994.3 351.8C992.66 352.8 991.38 354.41 990.41 356.17L990.12 356.03V356.02Z" fill="#3D3227"/>
<path d="M792.08 396.04C798.67 394.3 805.42 393.4 812.21 393.03C815.6 392.79 819 392.83 822.4 392.85C825.8 392.95 829.19 393.18 832.58 393.47C835.96 393.86 839.33 394.27 842.68 394.86C846.02 395.5 849.36 396.13 852.64 397.03C859.22 398.72 865.67 400.92 871.79 403.91L871.7 404.22C858.83 400.46 845.6 397.91 832.26 396.66C818.93 395.29 805.46 395.2 792.1 396.37L792.07 396.05L792.08 396.04Z" fill="#3D3227"/>
<path d="M1013.99 362.63C1022.21 359.16 1031.01 356.93 1039.97 356.16C1048.93 355.47 1058.04 356.04 1066.85 358.28C1071.25 359.4 1075.55 361.01 1079.65 362.88C1083.74 364.79 1087.67 366.84 1091.61 368.83C1095.55 370.83 1099.54 372.7 1103.6 374.48C1107.65 376.27 1111.78 377.91 1115.89 379.7L1115.8 380.01C1107.03 378.21 1098.42 375.45 1090.23 371.73C1088.19 370.79 1086.17 369.82 1084.18 368.8C1082.2 367.77 1080.24 366.73 1078.27 365.74C1074.37 363.71 1070.36 362.01 1066.16 360.75C1057.77 358.29 1048.87 357.4 1040.06 357.76C1031.24 358.09 1022.44 359.87 1014.09 362.93L1013.97 362.63H1013.99Z" fill="#3D3227"/>
<path d="M1098.42 386.449C1100.96 382.969 1104.38 380.009 1108.71 378.329C1110.86 377.439 1113.27 377.069 1115.71 377.099C1116.89 377.099 1118.28 377.389 1119.33 377.669C1120.37 377.949 1121.23 378.149 1122.18 378.329C1123.11 378.539 1124.08 378.719 1125.06 378.879L1128.05 379.339C1130.01 379.689 1131.96 379.829 1133.94 380.029C1137.9 380.319 1141.93 380.249 1146.22 380.049L1146.32 380.349C1142.35 381.649 1138.2 382.389 1134.02 382.529C1129.83 382.669 1125.67 382.189 1121.55 381.439C1119.47 381.049 1117.54 380.179 1115.51 380.089C1113.47 379.929 1111.41 380.169 1109.43 380.739C1105.46 381.859 1101.88 384.119 1098.64 386.679L1098.44 386.429L1098.42 386.449Z" fill="#3D3227"/>
<path d="M1128.87 389.161C1133.05 385.111 1140 377.611 1146.43 379.471C1147.11 379.701 1147.67 380.051 1148.21 380.371C1151.26 382.371 1154.54 383.611 1158.09 384.181C1166.59 385.101 1175.07 387.211 1183.48 388.461C1193.09 389.941 1202.79 389.951 1212.48 389.861C1222.19 389.761 1231.9 388.961 1241.73 388.121L1241.81 388.511C1227.63 392.931 1212.56 394.871 1197.72 393.701C1187.85 392.891 1178.08 390.701 1168.52 388.401C1163.72 387.101 1158.76 386.851 1154.03 385.281C1151.66 384.461 1149.35 383.171 1147.34 381.731C1146.35 381.021 1145.45 380.591 1144.34 380.551C1140.79 380.531 1137.63 382.741 1134.78 384.761C1132.82 386.201 1130.96 387.801 1129.15 389.451L1128.87 389.161Z" fill="#3D3227"/>
<path d="M1231.11 397.529C1232.51 395.479 1234.08 393.519 1235.85 391.729C1237.63 389.959 1239.57 388.329 1241.66 386.879C1243.78 385.489 1246.04 384.279 1248.42 383.309C1250.81 382.359 1253.33 381.719 1255.89 381.319C1260.99 380.529 1266.54 380.759 1271.36 383.009C1272.55 383.569 1273.71 384.199 1274.81 384.899C1275.89 385.639 1276.96 386.379 1277.91 387.259C1279.85 388.969 1281.54 390.939 1282.81 393.149L1282.52 393.419C1278.38 390.579 1274.27 388.189 1269.87 386.709C1267.68 385.959 1265.48 385.349 1263.2 384.939C1262.07 384.689 1260.91 384.589 1259.75 384.469L1258 384.429C1257.41 384.419 1256.83 384.479 1256.24 384.499C1251.55 384.829 1246.93 386.319 1242.69 388.589C1240.58 389.749 1238.57 391.109 1236.67 392.639C1234.8 394.199 1233.06 395.929 1231.42 397.769L1231.1 397.529H1231.11Z" fill="#3D3227"/>
<path d="M1267.88 394.93C1270.72 393.54 1273.8 392.54 1277.03 392.24C1280.24 391.93 1283.59 392.32 1286.67 393.59C1288.2 394.23 1289.61 395.09 1290.94 395.83C1292.28 396.56 1293.63 397.2 1295.04 397.68C1297.84 398.64 1300.89 399 1303.98 399.33C1307.08 399.64 1310.22 399.89 1313.36 400.14C1316.5 400.41 1319.63 400.82 1322.74 401.38C1325.84 401.99 1328.92 402.67 1331.99 403.45C1335.06 404.22 1338.11 405.07 1341.11 406.13L1341.04 406.52C1334.65 406.62 1328.4 406.03 1322.18 405.33C1315.94 404.72 1309.81 403.49 1303.55 402.49C1300.44 401.95 1297.21 401.38 1294.12 400.1C1292.58 399.47 1291.14 398.66 1289.77 397.8C1288.41 396.92 1287.18 396.06 1285.85 395.4C1283.21 394.05 1280.16 393.41 1277.11 393.46C1274.05 393.51 1270.98 394.2 1268.05 395.29L1267.89 394.92L1267.88 394.93Z" fill="#3D3227"/>
<path d="M1330.85 412.621C1330.53 410.341 1330.25 407.931 1331.23 405.541C1331.74 404.381 1332.82 403.241 1334.3 402.991C1335.76 402.781 1337.01 403.231 1338.12 403.621C1340.34 404.471 1342.37 405.341 1344.51 405.811C1346.62 406.311 1348.79 406.491 1350.89 406.301C1352.99 406.071 1354.94 405.401 1357.06 404.501C1359.15 403.641 1361.72 402.811 1364.37 402.911C1367 402.981 1369.46 403.701 1371.67 404.851C1373.87 405.991 1375.78 407.571 1377.24 409.461L1376.99 409.771C1374.85 408.801 1372.76 407.981 1370.66 407.471C1368.57 406.991 1366.44 406.711 1364.46 406.911C1362.47 407.041 1360.58 407.611 1358.34 408.251C1356.12 408.871 1353.59 409.471 1351.08 409.491C1348.57 409.521 1346.12 409.111 1343.8 408.371C1341.48 407.621 1339.36 406.451 1337.36 405.471C1336.37 404.981 1335.38 404.571 1334.52 404.601C1333.68 404.631 1332.85 405.231 1332.34 406.101C1331.83 406.991 1331.56 408.081 1331.41 409.191C1331.26 410.301 1331.23 411.451 1331.26 412.591L1330.86 412.631L1330.85 412.621Z" fill="#3D3227"/>
<path d="M1108.06 428.58C1109.53 426.99 1111.19 425.53 1113.11 424.42C1115.02 423.3 1117.17 422.51 1119.43 422.25C1121.7 421.96 1124.04 422.33 1126.18 423.01C1128.32 423.7 1130.32 424.62 1132.28 425.49C1136.18 427.27 1140.19 428.41 1144.18 429.76C1148.18 431.1 1152.27 432.18 1156.46 433.47L1156.43 433.79C1152.05 434.25 1147.62 433.82 1143.33 432.84C1141.18 432.33 1139.08 431.64 1137.06 430.74C1135.04 429.84 1133.08 428.82 1131.17 427.8C1129.26 426.78 1127.4 425.76 1125.49 424.98C1123.58 424.23 1121.6 423.76 1119.56 423.86C1117.52 423.9 1115.48 424.42 1113.58 425.31C1111.68 426.2 1109.92 427.43 1108.3 428.83L1108.08 428.6L1108.06 428.58Z" fill="#3D3227"/>
<path d="M1098.44 436.82C1100.48 435.33 1102.77 434.16 1105.18 433.26C1106.39 432.82 1107.65 432.51 1108.91 432.22C1110.19 431.99 1111.48 431.81 1112.79 431.74C1115.38 431.6 1118.1 431.5 1120.6 432.38C1121.85 432.78 1123.05 433.33 1124.18 434C1125.31 434.66 1126.37 435.45 1127.28 436.43L1127.13 436.71C1124.52 436.37 1122.18 435.85 1119.82 435.49C1118.65 435.29 1117.49 435.06 1116.33 434.82C1115.17 434.56 1113.99 434.37 1112.79 434.3C1110.4 434.17 1107.98 434.33 1105.6 434.81C1103.2 435.25 1100.86 436.07 1098.59 437.1L1098.43 436.82H1098.44Z" fill="#3D3227"/>
<path d="M1366.86 412.28C1369.89 410.83 1373.21 409.89 1376.62 409.78C1378.32 409.73 1380.03 409.86 1381.71 410.21C1383.39 410.55 1385.01 411.13 1386.57 411.76C1389.62 413.06 1392.78 413.84 1396.05 414.02C1399.31 414.21 1402.59 413.89 1405.9 413.53C1412.57 412.79 1419.31 412.53 1426.01 412.42C1432.72 412.31 1439.42 412.39 1446.13 412.64C1459.53 413.18 1473.01 414 1486.23 416.84C1492.83 418.27 1499.34 420.08 1505.69 422.32C1512.05 424.52 1518.24 427.21 1524.21 430.26L1524.06 430.63C1517.68 428.59 1511.29 426.69 1504.87 425.02C1498.44 423.36 1491.98 421.91 1485.46 420.78C1482.2 420.22 1478.94 419.68 1475.66 419.2C1472.39 418.7 1469.1 418.22 1465.81 417.83C1459.23 416.95 1452.61 416.31 1445.97 415.85C1439.33 415.4 1432.68 415.13 1426.02 415.04C1419.36 414.96 1412.72 415.01 1406.08 415.55C1402.75 415.77 1399.34 415.98 1395.92 415.64C1392.51 415.32 1389.14 414.33 1386.1 412.89C1383.11 411.48 1379.94 410.59 1376.63 410.6C1373.35 410.58 1370.06 411.35 1367.02 412.67L1366.85 412.31L1366.86 412.28Z" fill="#3D3227"/>
<path d="M1503.3 431.66C1509.01 429.8 1515.11 428.93 1521.16 429.53C1524.18 429.84 1527.17 430.46 1530.05 431.46C1531.49 431.95 1532.9 432.55 1534.27 433.16L1536.32 433.98C1537 434.25 1537.72 434.45 1538.41 434.69C1544.03 436.48 1549.97 437.16 1555.9 437.28C1561.84 437.41 1567.79 436.99 1573.81 436.74C1585.84 436.28 1597.86 436.16 1609.86 436.76C1621.85 437.36 1633.82 438.26 1645.75 439.74L1645.73 440.04C1633.71 440.22 1621.73 439.96 1609.76 439.76C1603.77 439.67 1597.79 439.46 1591.81 439.32C1585.83 439.14 1579.85 439.05 1573.88 439.14C1567.92 439.24 1561.88 439.52 1555.83 439.23C1549.79 438.96 1543.7 438.11 1537.93 436.11C1537.22 435.84 1536.49 435.61 1535.79 435.3L1533.7 434.38C1532.35 433.72 1531.02 433.1 1529.64 432.58C1526.89 431.52 1524 430.81 1521.06 430.41C1515.18 429.63 1509.13 430.27 1503.39 431.94L1503.3 431.65V431.66Z" fill="#3D3227"/>
<path d="M1623.76 448.71C1635.9 438.56 1655.75 433.69 1669.68 442.97L1669.56 443.25C1657.94 441.04 1645.93 439.3 1634.61 443.6C1630.86 444.9 1627.29 446.73 1623.94 448.95L1623.76 448.71Z" fill="#3D3227"/>
<path d="M1661.84 446.19L1667.02 443.9L1669.62 442.76L1672.27 441.75L1672.22 441.77C1674.3 441.06 1676.37 440.33 1678.48 439.64C1680.71 439.06 1682.92 439.01 1685.12 438.98C1689.52 438.98 1693.89 439.34 1698.23 439.78C1700.4 440.01 1702.58 440.26 1704.74 440.55L1707.97 440.99C1709.01 441.14 1710.02 441.16 1711.13 441.19C1715.5 441.31 1719.86 441.54 1724.22 441.76C1728.58 441.97 1732.92 442.27 1737.27 442.63C1741.62 442.96 1745.95 443.41 1750.29 443.91C1758.95 444.9 1767.6 446.02 1776.2 447.55L1776.17 447.85C1767.42 447.8 1758.72 447.35 1750.04 446.77C1745.7 446.49 1741.36 446.15 1737.03 445.69C1732.7 445.28 1728.38 444.71 1724.04 444.36C1719.71 443.97 1715.38 443.61 1711.04 443.36C1709.97 443.3 1708.8 443.23 1707.69 443.04L1704.46 442.5C1702.32 442.15 1700.17 441.83 1698.02 441.54C1693.72 440.96 1689.41 440.49 1685.1 440.3C1682.96 440.24 1680.77 440.22 1678.75 440.65L1672.56 442.46L1672.51 442.48L1669.84 443.37L1667.22 444.4L1661.97 446.47L1661.84 446.2V446.19Z" fill="#3D3227"/>
<path d="M1449.74 435.279C1452.08 431.559 1455.43 428.249 1459.74 426.549C1461.87 425.699 1464.24 425.329 1466.54 425.409C1468.85 425.469 1471.06 425.869 1473.23 426.229C1477.55 427.029 1481.84 427.359 1486.12 428.069C1490.4 428.769 1494.7 429.359 1499.08 430.279V430.599C1496.88 431.039 1494.66 431.249 1492.44 431.339C1490.22 431.439 1487.99 431.389 1485.77 431.249C1483.55 431.089 1481.34 430.779 1479.17 430.309C1477 429.829 1474.83 429.279 1472.71 428.739C1470.59 428.219 1468.49 427.689 1466.42 427.489C1464.35 427.269 1462.27 427.439 1460.27 428.059C1456.21 429.209 1452.73 432.069 1450.01 435.459L1449.75 435.269L1449.74 435.279Z" fill="#3D3227"/>
<path d="M1347.3 442.261C1349.2 441.271 1351.15 440.631 1353.1 440.041C1355.06 439.501 1357.02 438.991 1359.06 438.801C1361.1 438.651 1363.19 438.641 1365.19 438.271C1367.2 437.901 1369.13 437.231 1371.05 436.461C1372.97 435.691 1374.97 435.001 1377.15 434.721C1379.32 434.411 1381.64 434.491 1383.76 435.081C1388.03 436.301 1391.68 439.051 1394.01 442.561L1393.79 442.801C1391.92 441.851 1390.16 440.901 1388.35 440.151C1386.55 439.401 1384.75 438.801 1382.92 438.401C1382.01 438.191 1381.09 438.041 1380.18 437.891C1379.27 437.781 1378.34 437.721 1377.39 437.731C1376.44 437.761 1375.47 437.831 1374.48 437.921L1371.45 438.161C1369.41 438.341 1367.38 438.681 1365.42 439.261C1363.45 439.821 1361.59 440.831 1359.61 441.391C1357.64 441.981 1355.59 442.241 1353.55 442.471C1351.5 442.651 1349.44 442.781 1347.33 442.561L1347.28 442.241L1347.3 442.261Z" fill="#3D3227"/>
<path d="M1810.91 457.53C1793.27 449.99 1777.78 448.8 1759.3 454L1759.16 453.73C1771.24 447.21 1786.11 445.99 1799 450.88C1803.28 452.48 1807.37 454.61 1811.08 457.28L1810.91 457.52V457.53Z" fill="#3D3227"/>
<path d="M1792.37 455.49C1802.06 456.32 1811.78 456.81 1821.49 456.92C1831.2 457.12 1840.89 456.72 1850.63 456.39C1855.5 456.22 1860.38 456.08 1865.26 456.03C1870.15 456.01 1875.03 456.12 1879.9 456.44C1889.64 457.09 1899.36 458.23 1908.93 460.22L1908.89 460.52C1899.14 460.16 1889.45 459.68 1879.76 459.44C1870.06 459.2 1860.4 458.73 1850.67 458.8C1840.95 458.83 1831.18 458.93 1821.44 458.43C1811.7 457.92 1801.99 457.03 1792.34 455.8L1792.37 455.5V455.49Z" fill="#3D3227"/>
</g>
<rect x="373" width="1138" height="98" rx="24" fill="#003960"/>
<path d="M423.704 39.432C423.704 32.488 429.304 27.784 437.648 27.784C445.376 27.784 450.36 32.096 450.808 39.096H445.264C444.984 35.064 442.128 32.712 437.592 32.712C432.496 32.712 429.192 35.288 429.192 39.264C429.192 42.512 431.04 44.472 434.848 45.368L441.512 46.936C448.12 48.448 451.48 52.032 451.48 57.744C451.48 65.024 445.824 69.672 437.2 69.672C428.968 69.672 423.48 65.36 423.144 58.416H428.744C428.856 62.28 432.104 64.744 437.2 64.744C442.576 64.744 445.992 62.224 445.992 58.192C445.992 55 444.256 52.984 440.392 52.088L433.728 50.576C427.12 49.064 423.704 45.256 423.704 39.432ZM463.416 69H458.152V46.04H452.776V41.616H458.152V33.048H463.416V41.616H468.792V46.04H463.416V69ZM479.404 69.672C473.524 69.672 470.052 66.368 470.052 61.384C470.052 56.344 473.804 53.208 480.244 52.704L488.868 52.032V51.248C488.868 46.656 486.124 45.032 482.428 45.032C478.004 45.032 475.484 46.992 475.484 50.296H470.892C470.892 44.584 475.596 40.832 482.652 40.832C489.428 40.832 494.02 44.416 494.02 51.808V69H489.54L488.98 64.576C487.58 67.712 483.828 69.672 479.404 69.672ZM480.916 65.584C485.9 65.584 488.924 62.336 488.924 57.184V55.728L481.924 56.288C477.276 56.736 475.372 58.528 475.372 61.216C475.372 64.128 477.5 65.584 480.916 65.584ZM504.894 69H499.63V27.784H504.894V54.496L517.046 41.616H523.654L513.182 52.536L523.598 69H517.55L509.542 56.344L504.894 61.216V69ZM536.941 69.672C528.877 69.672 523.333 63.848 523.333 55.336C523.333 46.768 528.765 40.832 536.717 40.832C544.501 40.832 549.597 46.208 549.597 54.328V56.288L528.429 56.344C528.821 62.112 531.845 65.304 537.053 65.304C541.141 65.304 543.829 63.624 544.725 60.488H549.653C548.309 66.368 543.717 69.672 536.941 69.672ZM536.717 45.256C532.125 45.256 529.213 48 528.541 52.816H544.333C544.333 48.28 541.365 45.256 536.717 45.256ZM558.948 68.944H553.684V27.784H558.948V45.816C560.684 42.848 563.988 40.832 568.244 40.832C575.244 40.832 578.604 45.256 578.604 52.256V69H573.34V53.432C573.34 47.888 570.708 45.648 566.788 45.648C561.692 45.648 558.948 49.344 558.948 54.048V68.944ZM582.311 55.28C582.311 46.824 588.359 40.888 596.591 40.888C604.767 40.888 610.815 46.824 610.815 55.28C610.815 63.736 604.767 69.672 596.591 69.672C588.359 69.672 582.311 63.736 582.311 55.28ZM587.631 55.28C587.631 60.992 591.271 64.968 596.591 64.968C601.855 64.968 605.551 60.992 605.551 55.28C605.551 49.568 601.855 45.592 596.591 45.592C591.271 45.592 587.631 49.568 587.631 55.28ZM620.226 69H614.962V27.784H620.226V69ZM637.159 69.672C629.207 69.672 624.391 63.736 624.391 55.392C624.391 46.992 629.263 40.832 637.383 40.832C641.583 40.832 645.111 42.68 646.959 46.04V27.784H652.167V69H647.463L647.015 64.016C645.223 67.768 641.527 69.672 637.159 69.672ZM638.223 64.912C643.599 64.912 646.903 60.936 646.903 55.224C646.903 49.624 643.599 45.592 638.223 45.592C632.847 45.592 629.711 49.624 629.711 55.224C629.711 60.88 632.847 64.912 638.223 64.912ZM669.786 69.672C661.722 69.672 656.178 63.848 656.178 55.336C656.178 46.768 661.61 40.832 669.562 40.832C677.346 40.832 682.442 46.208 682.442 54.328V56.288L661.274 56.344C661.666 62.112 664.69 65.304 669.898 65.304C673.986 65.304 676.674 63.624 677.57 60.488H682.498C681.154 66.368 676.562 69.672 669.786 69.672ZM669.562 45.256C664.97 45.256 662.058 48 661.386 52.816H677.178C677.178 48.28 674.21 45.256 669.562 45.256ZM702.209 41.392V46.208H699.857C694.873 46.208 691.793 49.232 691.793 54.496V69H686.529V41.672H691.457L691.793 45.816C692.913 42.96 695.657 41.056 699.409 41.056C700.361 41.056 701.145 41.168 702.209 41.392ZM703.114 61.048H708.154C708.154 63.848 710.282 65.528 713.754 65.528C717.45 65.528 719.578 64.016 719.578 61.496C719.578 59.648 718.682 58.528 715.826 57.8L711.01 56.68C706.138 55.504 703.842 53.096 703.842 49.064C703.842 44.024 708.098 40.832 714.146 40.832C720.138 40.832 724.058 44.192 724.17 49.4H719.13C719.018 46.656 717.17 44.92 713.978 44.92C710.674 44.92 708.826 46.376 708.826 48.896C708.826 50.744 710.17 51.976 712.858 52.648L717.674 53.824C722.322 54.944 724.618 57.072 724.618 61.16C724.618 66.368 720.138 69.672 713.642 69.672C707.202 69.672 703.114 66.256 703.114 61.048Z" fill="white"/>
<g opacity="0.5">
<path d="M815.201 32.0311C815.982 31.2501 817.248 31.2501 818.029 32.0311L833.535 47.5367C833.552 47.5527 833.569 47.569 833.586 47.5857C833.977 47.9765 834.172 48.4887 834.172 49.0008C834.172 49.5129 833.977 50.0251 833.586 50.4159C833.569 50.4326 833.552 50.4489 833.535 50.4649L818.029 65.9705C817.248 66.7515 815.982 66.7515 815.201 65.9705C814.42 65.1894 814.42 63.9231 815.201 63.1421L827.342 51.0007H797C795.895 51.0007 795 50.1052 795 49.0007C795 47.8961 795.895 47.0007 797 47.0007H827.342L815.201 34.8595C814.42 34.0785 814.42 32.8121 815.201 32.0311Z" fill="white"/>
</g>
<path d="M923.453 54.552H913.205V69H907.717V28.512H923.453C931.405 28.512 936.501 33.72 936.501 41.504C936.501 49.064 931.349 54.552 923.453 54.552ZM922.501 33.44H913.205V49.624H922.277C927.709 49.624 930.733 46.432 930.733 41.448C930.733 36.352 927.653 33.44 922.501 33.44ZM946.943 69.672C941.063 69.672 937.591 66.368 937.591 61.384C937.591 56.344 941.343 53.208 947.783 52.704L956.407 52.032V51.248C956.407 46.656 953.663 45.032 949.967 45.032C945.543 45.032 943.023 46.992 943.023 50.296H938.431C938.431 44.584 943.135 40.832 950.191 40.832C956.967 40.832 961.559 44.416 961.559 51.808V69H957.079L956.519 64.576C955.119 67.712 951.367 69.672 946.943 69.672ZM948.455 65.584C953.439 65.584 956.463 62.336 956.463 57.184V55.728L949.463 56.288C944.815 56.736 942.911 58.528 942.911 61.216C942.911 64.128 945.039 65.584 948.455 65.584ZM969.634 35.12C967.73 35.12 966.162 33.552 966.162 31.648C966.162 29.688 967.73 28.176 969.634 28.176C971.538 28.176 973.106 29.688 973.106 31.648C973.106 33.552 971.538 35.12 969.634 35.12ZM967.058 69V41.616H972.322V69H967.058ZM983.436 69H978.172V41.616H982.932L983.492 45.816C985.228 42.68 988.7 40.832 992.564 40.832C999.788 40.832 1003.09 45.256 1003.09 52.256V69H997.828V53.432C997.828 47.888 995.252 45.648 991.22 45.648C986.292 45.648 983.436 49.176 983.436 54.496V69ZM1008.59 81.264V41.616H1013.35L1013.74 46.544C1015.59 42.792 1019.29 40.832 1023.65 40.832C1031.49 40.832 1036.37 46.712 1036.37 55.112C1036.37 63.456 1031.77 69.728 1023.65 69.728C1019.29 69.728 1015.65 67.88 1013.85 64.52V81.264H1008.59ZM1013.91 55.336C1013.91 60.936 1017.16 64.968 1022.53 64.968C1027.91 64.968 1031.1 60.936 1031.1 55.336C1031.1 49.68 1027.91 45.648 1022.53 45.648C1017.16 45.648 1013.91 49.624 1013.91 55.336ZM1038.58 55.28C1038.58 46.824 1044.63 40.888 1052.86 40.888C1061.04 40.888 1067.09 46.824 1067.09 55.28C1067.09 63.736 1061.04 69.672 1052.86 69.672C1044.63 69.672 1038.58 63.736 1038.58 55.28ZM1043.9 55.28C1043.9 60.992 1047.54 64.968 1052.86 64.968C1058.13 64.968 1061.82 60.992 1061.82 55.28C1061.82 49.568 1058.13 45.592 1052.86 45.592C1047.54 45.592 1043.9 49.568 1043.9 55.28ZM1073.7 35.12C1071.8 35.12 1070.23 33.552 1070.23 31.648C1070.23 29.688 1071.8 28.176 1073.7 28.176C1075.6 28.176 1077.17 29.688 1077.17 31.648C1077.17 33.552 1075.6 35.12 1073.7 35.12ZM1071.12 69V41.616H1076.39V69H1071.12ZM1087.5 69H1082.24V41.616H1087L1087.56 45.816C1089.29 42.68 1092.77 40.832 1096.63 40.832C1103.85 40.832 1107.16 45.256 1107.16 52.256V69H1101.89V53.432C1101.89 47.888 1099.32 45.648 1095.29 45.648C1090.36 45.648 1087.5 49.176 1087.5 54.496V69ZM1120.39 69H1115.12V46.04H1109.75V41.616H1115.12V33.048H1120.39V41.616H1125.76V46.04H1120.39V69ZM1126.45 61.048H1131.49C1131.49 63.848 1133.62 65.528 1137.09 65.528C1140.79 65.528 1142.92 64.016 1142.92 61.496C1142.92 59.648 1142.02 58.528 1139.17 57.8L1134.35 56.68C1129.48 55.504 1127.18 53.096 1127.18 49.064C1127.18 44.024 1131.44 40.832 1137.49 40.832C1143.48 40.832 1147.4 44.192 1147.51 49.4H1142.47C1142.36 46.656 1140.51 44.92 1137.32 44.92C1134.01 44.92 1132.17 46.376 1132.17 48.896C1132.17 50.744 1133.51 51.976 1136.2 52.648L1141.01 53.824C1145.66 54.944 1147.96 57.072 1147.96 61.16C1147.96 66.368 1143.48 69.672 1136.98 69.672C1130.54 69.672 1126.45 66.256 1126.45 61.048Z" fill="white"/>
<g opacity="0.5">
<path d="M1238.2 32.0311C1238.98 31.2501 1240.25 31.2501 1241.03 32.0311L1256.54 47.5367C1256.55 47.5527 1256.57 47.569 1256.59 47.5857C1256.98 47.9765 1257.17 48.4887 1257.17 49.0008C1257.17 49.5129 1256.98 50.0251 1256.59 50.4159C1256.57 50.4326 1256.55 50.4489 1256.54 50.4649L1241.03 65.9705C1240.25 66.7515 1238.98 66.7515 1238.2 65.9705C1237.42 65.1894 1237.42 63.9231 1238.2 63.1421L1250.34 51.0007H1220C1218.9 51.0007 1218 50.1052 1218 49.0007C1218 47.8961 1218.9 47.0007 1220 47.0007H1250.34L1238.2 34.8595C1237.42 34.0785 1237.42 32.8121 1238.2 32.0311Z" fill="white"/>
</g>
<path d="M1348.4 32.992C1339.66 32.992 1334.4 39.432 1334.4 49.008C1334.4 58.808 1340.11 64.464 1348.45 64.464C1355.34 64.464 1360.89 60.936 1360.89 52.76V51.584H1347.33V46.712H1366.04V69.056H1361.45L1361.05 63.568C1358.87 67.096 1353.94 69.672 1348.01 69.672C1336.53 69.672 1328.63 61.384 1328.63 48.896C1328.63 36.576 1336.58 27.84 1348.51 27.84C1357.36 27.84 1364.25 32.936 1365.59 40.72H1359.77C1358.25 35.568 1353.77 32.992 1348.4 32.992ZM1369.38 55.28C1369.38 46.824 1375.43 40.888 1383.66 40.888C1391.83 40.888 1397.88 46.824 1397.88 55.28C1397.88 63.736 1391.83 69.672 1383.66 69.672C1375.43 69.672 1369.38 63.736 1369.38 55.28ZM1374.7 55.28C1374.7 60.992 1378.34 64.968 1383.66 64.968C1388.92 64.968 1392.62 60.992 1392.62 55.28C1392.62 49.568 1388.92 45.592 1383.66 45.592C1378.34 45.592 1374.7 49.568 1374.7 55.28ZM1409.93 69.672C1404.05 69.672 1400.57 66.368 1400.57 61.384C1400.57 56.344 1404.33 53.208 1410.77 52.704L1419.39 52.032V51.248C1419.39 46.656 1416.65 45.032 1412.95 45.032C1408.53 45.032 1406.01 46.992 1406.01 50.296H1401.41C1401.41 44.584 1406.12 40.832 1413.17 40.832C1419.95 40.832 1424.54 44.416 1424.54 51.808V69H1420.06L1419.5 64.576C1418.1 67.712 1414.35 69.672 1409.93 69.672ZM1411.44 65.584C1416.42 65.584 1419.45 62.336 1419.45 57.184V55.728L1412.45 56.288C1407.8 56.736 1405.89 58.528 1405.89 61.216C1405.89 64.128 1408.02 65.584 1411.44 65.584ZM1435.42 69H1430.15V27.784H1435.42V69ZM1439.13 61.048H1444.17C1444.17 63.848 1446.3 65.528 1449.77 65.528C1453.47 65.528 1455.6 64.016 1455.6 61.496C1455.6 59.648 1454.7 58.528 1451.84 57.8L1447.03 56.68C1442.16 55.504 1439.86 53.096 1439.86 49.064C1439.86 44.024 1444.12 40.832 1450.16 40.832C1456.16 40.832 1460.08 44.192 1460.19 49.4H1455.15C1455.04 46.656 1453.19 44.92 1450 44.92C1446.69 44.92 1444.84 46.376 1444.84 48.896C1444.84 50.744 1446.19 51.976 1448.88 52.648L1453.69 53.824C1458.34 54.944 1460.64 57.072 1460.64 61.16C1460.64 66.368 1456.16 69.672 1449.66 69.672C1443.22 69.672 1439.13 66.256 1439.13 61.048Z" fill="white"/>
<path d="M1811 192V192C1811 182.828 1803.56 175.393 1794.39 175.393H939M67 192V192C67 182.828 74.4353 175.393 83.6071 175.393H939M939 175.393V148" stroke="#003960" stroke-width="3.2" stroke-linecap="round" stroke-linejoin="round"/>
<defs>
<clipPath id="clip0_532_35263">
<rect width="1884" height="198" fill="white" transform="translate(0 263)"/>
</clipPath>
</defs>
</svg>
