<svg width="158" height="24" viewBox="0 0 158 24" fill="none" xmlns="http://www.w3.org/2000/svg">
<circle cx="6" cy="12" r="6" fill="#91AFEF"/>
<path d="M28.6479 23.5V13.116C28.6479 10.27 30.3623 8.19321 33.2958 8.19321C35.6579 8.19321 37.2199 9.73159 37.2199 12.9237V23.5H41.8678V11.8084C41.8678 6.8856 39.4295 3.92423 34.7816 3.92423C32.0767 3.92423 29.867 5.11647 28.686 6.96251V0H24V23.5H28.6479Z" fill="#FFFAF6"/>
<path d="M49.368 24C52.3015 24 54.854 22.6539 55.6541 20.6925L55.5779 23.5H60.0734V11.9622C60.0734 6.6933 56.9494 3.92423 51.8824 3.92423C46.7773 3.92423 43.4247 6.61638 43.4247 10.7315H47.3869C47.3869 8.73164 48.9108 7.57786 51.6538 7.57786C54.0159 7.57786 55.5398 8.61627 55.5398 11.193V11.6161L49.9013 12.0391C45.4439 12.3853 42.9295 14.5775 42.9295 18.0773C42.9295 21.654 45.3677 24 49.368 24ZM50.8919 20.4617C48.7965 20.4617 47.6536 19.6156 47.6536 17.885C47.6536 16.3466 48.7584 15.3851 51.6538 15.1159L55.5779 14.8082V15.8082C55.5779 18.7311 53.7492 20.4617 50.8919 20.4617Z" fill="#FFFAF6"/>
<path d="M66.6586 23.5L66.5824 20.5387C67.6873 22.7308 70.0874 24 72.9066 24C78.3165 24 81.8596 19.9618 81.8596 14.116C81.8596 8.1163 78.5832 3.88577 73.2114 3.88577C70.3541 3.88577 67.8397 5.15492 66.6205 7.27019V0H61.9726V23.5H66.6586ZM66.6586 13.9237C66.6586 10.5008 68.754 8.11629 71.9542 8.11629C75.2306 8.11629 77.1736 10.5392 77.1736 13.9237C77.1736 17.3081 75.2306 19.6926 71.9542 19.6926C68.754 19.6926 66.6586 17.3465 66.6586 13.9237Z" fill="#FFFAF6"/>
<path d="M87.5796 23.5L87.5034 20.5387C88.6082 22.7308 91.0084 24 93.8276 24C99.2375 24 102.781 19.9618 102.781 14.116C102.781 8.1163 99.5041 3.88577 94.1324 3.88577C91.2751 3.88577 88.7606 5.15492 87.5415 7.27019V0H82.8936V23.5H87.5796ZM87.5796 13.9237C87.5796 10.5008 89.6749 8.11629 92.8752 8.11629C96.1516 8.11629 98.0945 10.5392 98.0945 13.9237C98.0945 17.3081 96.1516 19.6926 92.8752 19.6926C89.6749 19.6926 87.5796 17.3465 87.5796 13.9237Z" fill="#FFFAF6"/>
<path d="M102.71 13.9621C102.71 19.8849 106.939 23.9615 112.767 23.9615C118.596 23.9615 122.825 19.8849 122.825 13.9621C122.825 8.03938 118.596 3.96269 112.767 3.96269C106.939 3.96269 102.71 8.03938 102.71 13.9621ZM107.358 13.9621C107.358 10.5008 109.567 8.15475 112.767 8.15475C115.968 8.15475 118.177 10.5008 118.177 13.9621C118.177 17.4235 115.968 19.7695 112.767 19.7695C109.567 19.7695 107.358 17.4235 107.358 13.9621Z" fill="#FFFAF6"/>
<path d="M130.057 23.5V8.42397H133.714V4.50112H130.057L130.057 -3.35339e-06H125.409L125.409 4.50112H121.79V8.42397H125.409V23.5H130.057Z" fill="#FFFAF6"/>
<circle cx="151.714" cy="12" r="6" fill="#91AFEF"/>
</svg>
