<svg width="588" height="251" viewBox="0 0 588 251" fill="none" xmlns="http://www.w3.org/2000/svg">
<g filter="url(#filter0_d_2497_5414)">
<rect x="198" y="10" width="190.37" height="84.3009" rx="37.5114" fill="#FA983A" shape-rendering="crispEdges"/>
<path d="M267.458 61.5085C264.247 70.5949 255.581 75.5453 245.395 75.5453C232.474 75.5453 222 65.0711 222 52.1506C222 39.23 232.474 28.7559 245.395 28.7559C255.581 28.7559 264.247 33.7062 267.458 42.7927C270.67 51.8791 315.7 51.8791 318.912 42.7927C322.123 33.7062 330.789 28.7559 340.975 28.7559C353.896 28.7559 364.37 39.23 364.37 52.1506C364.37 65.0711 353.896 75.5453 340.975 75.5453C330.789 75.5453 322.123 70.5949 318.912 61.5085C315.7 52.422 270.67 52.422 267.458 61.5085Z" fill="#FFFAF6"/>
</g>
<path d="M24.9084 247.938V192.289C24.9084 177.038 34.096 165.908 49.8169 165.908C62.4753 165.908 70.8461 174.152 70.8461 191.259V247.938H95.7546V185.282C95.7546 158.9 82.6879 143.03 57.7794 143.03C43.2835 143.03 31.4418 149.419 25.1126 159.313V122H0V247.938H24.9084Z" fill="#FFFAF6"/>
<path d="M135.948 250.617C151.669 250.617 165.349 243.404 169.636 232.892L169.228 247.938H193.32V186.106C193.32 157.87 176.578 143.03 149.424 143.03C122.065 143.03 104.098 157.458 104.098 179.511H125.332C125.332 168.793 133.498 162.61 148.199 162.61C160.857 162.61 169.024 168.175 169.024 181.984V184.251L138.807 186.519C114.919 188.373 101.444 200.122 101.444 218.877C101.444 238.045 114.511 250.617 135.948 250.617ZM144.115 231.656C132.886 231.656 126.761 227.121 126.761 217.847C126.761 209.602 132.682 204.45 148.199 203.007L169.228 201.358V206.717C169.228 222.381 159.428 231.656 144.115 231.656Z" fill="#FFFAF6"/>
<path d="M228.61 247.938L228.202 232.068C234.123 243.816 246.985 250.617 262.094 250.617C291.086 250.617 310.073 228.976 310.073 197.648C310.073 165.496 292.515 142.824 263.727 142.824C248.414 142.824 234.939 149.626 228.406 160.961V122H203.498V247.938H228.61ZM228.61 196.618C228.61 178.274 239.839 165.496 256.99 165.496C274.548 165.496 284.96 178.48 284.96 196.618C284.96 214.755 274.548 227.534 256.99 227.534C239.839 227.534 228.61 214.961 228.61 196.618Z" fill="#FFFAF6"/>
<path d="M340.727 247.938L340.319 232.068C346.239 243.816 359.102 250.617 374.21 250.617C403.202 250.617 422.19 228.976 422.19 197.648C422.19 165.496 404.631 142.824 375.844 142.824C360.531 142.824 347.056 149.626 340.523 160.961V122H315.614V247.938H340.727ZM340.727 196.618C340.727 178.274 351.956 165.496 369.106 165.496C386.665 165.496 397.077 178.48 397.077 196.618C397.077 214.755 386.665 227.534 369.106 227.534C351.956 227.534 340.727 214.961 340.727 196.618Z" fill="#FFFAF6"/>
<path d="M421.81 196.824C421.81 228.564 444.473 250.411 475.71 250.411C506.948 250.411 529.611 228.564 529.611 196.824C529.611 165.084 506.948 143.236 475.71 143.236C444.473 143.236 421.81 165.084 421.81 196.824ZM446.719 196.824C446.719 178.274 458.56 165.702 475.71 165.702C492.86 165.702 504.702 178.274 504.702 196.824C504.702 215.373 492.86 227.946 475.71 227.946C458.56 227.946 446.719 215.373 446.719 196.824Z" fill="#FFFAF6"/>
<path d="M568.366 247.938V167.145H587.966V146.122H568.366L568.366 122H543.458L543.457 146.122H524.061V167.145H543.457V247.938H568.366Z" fill="#FFFAF6"/>
<defs>
<filter id="filter0_d_2497_5414" x="179.244" y="0.622147" width="227.883" height="121.812" filterUnits="userSpaceOnUse" color-interpolation-filters="sRGB">
<feFlood flood-opacity="0" result="BackgroundImageFix"/>
<feColorMatrix in="SourceAlpha" type="matrix" values="0 0 0 0 0 0 0 0 0 0 0 0 0 0 0 0 0 0 127 0" result="hardAlpha"/>
<feOffset dy="9.37785"/>
<feGaussianBlur stdDeviation="9.37785"/>
<feComposite in2="hardAlpha" operator="out"/>
<feColorMatrix type="matrix" values="0 0 0 0 0.0196078 0 0 0 0 0.0745098 0 0 0 0 0.141176 0 0 0 0.25 0"/>
<feBlend mode="normal" in2="BackgroundImageFix" result="effect1_dropShadow_2497_5414"/>
<feBlend mode="normal" in="SourceGraphic" in2="effect1_dropShadow_2497_5414" result="shape"/>
</filter>
</defs>
</svg>
