<svg width="120" height="19" viewBox="0 0 120 19" fill="none" xmlns="http://www.w3.org/2000/svg">
<g clip-path="url(#clip0_553_3868)">
<path d="M4.55696 13.6706C7.0737 13.6706 9.11392 11.6303 9.11392 9.1136C9.11392 6.59686 7.0737 4.55664 4.55696 4.55664C2.04022 4.55664 0 6.59686 0 9.1136C0 11.6303 2.04022 13.6706 4.55696 13.6706Z" fill="#91AFEF"/>
<path d="M21.7576 17.8481V9.96152C21.7576 7.8 23.0597 6.22269 25.2876 6.22269C27.0816 6.22269 28.268 7.39108 28.268 9.81547V17.8481H31.798V8.9684C31.798 5.22957 29.9461 2.98043 26.4161 2.98043C24.3617 2.98043 22.6835 3.88593 21.7865 5.28798V0H18.2275V17.8481H21.7576Z" fill="#FFFAF6"/>
<path d="M37.4945 18.2279C39.7225 18.2279 41.6611 17.2055 42.2687 15.7159L42.2109 17.8481H45.6252V9.08526C45.6252 5.08356 43.2525 2.98047 39.4042 2.98047C35.5269 2.98047 32.9806 5.02514 32.9806 8.15055H35.9899C35.9899 6.63167 37.1473 5.75538 39.2305 5.75538C41.0245 5.75538 42.1819 6.54404 42.1819 8.50105V8.8224L37.8995 9.14366C34.5142 9.4066 32.6045 11.0716 32.6045 13.7296C32.6045 16.4461 34.4563 18.2279 37.4945 18.2279ZM38.6519 15.5406C37.0604 15.5406 36.1924 14.898 36.1924 13.5836C36.1924 12.4152 37.0315 11.6849 39.2305 11.4805L42.2109 11.2468V12.0063C42.2109 14.2262 40.822 15.5406 38.6519 15.5406Z" fill="#FFFAF6"/>
<path d="M50.6264 17.8481L50.5685 15.599C51.4077 17.2639 53.2305 18.2278 55.3717 18.2278C59.4805 18.2278 62.1714 15.1609 62.1714 10.721C62.1714 6.16428 59.683 2.95122 55.6032 2.95122C53.4331 2.95122 51.5234 3.91513 50.5974 5.52166V0H47.0674V17.8481H50.6264ZM50.6264 10.575C50.6264 7.97529 52.2178 6.16427 54.6483 6.16427C57.1368 6.16427 58.6124 8.00446 58.6124 10.575C58.6124 13.1454 57.1368 14.9564 54.6483 14.9564C52.2178 14.9564 50.6264 13.1746 50.6264 10.575Z" fill="#FFFAF6"/>
<path d="M66.516 17.8481L66.4581 15.599C67.2972 17.2639 69.1202 18.2278 71.2613 18.2278C75.3701 18.2278 78.0614 15.1609 78.0614 10.721C78.0614 6.16428 75.5726 2.95122 71.4928 2.95122C69.3227 2.95122 67.413 3.91513 66.4871 5.52166V0H62.957V17.8481H66.516ZM66.516 10.575C66.516 7.97529 68.1074 6.16427 70.538 6.16427C73.0264 6.16427 74.502 8.00446 74.502 10.575C74.502 13.1454 73.0264 14.9564 70.538 14.9564C68.1074 14.9564 66.516 13.1746 66.516 10.575Z" fill="#FFFAF6"/>
<path d="M78.0078 10.6043C78.0078 15.1026 81.2197 18.1987 85.646 18.1987C90.0731 18.1987 93.285 15.1026 93.285 10.6043C93.285 6.10599 90.0731 3.00977 85.646 3.00977C81.2197 3.00977 78.0078 6.10599 78.0078 10.6043ZM81.5379 10.6043C81.5379 7.97542 83.2157 6.19361 85.646 6.19361C88.0772 6.19361 89.7549 7.97542 89.7549 10.6043C89.7549 13.2332 88.0772 15.0149 85.646 15.0149C83.2157 15.0149 81.5379 13.2332 81.5379 10.6043Z" fill="#FFFAF6"/>
<path d="M98.7778 17.8481V6.39796H101.555V3.41857H98.7778V0H95.2476V3.41857H92.499V6.39796H95.2476V17.8481H98.7778Z" fill="#FFFAF6"/>
<path d="M115.226 13.6706C117.743 13.6706 119.783 11.6303 119.783 9.1136C119.783 6.59686 117.743 4.55664 115.226 4.55664C112.709 4.55664 110.669 6.59686 110.669 9.1136C110.669 11.6303 112.709 13.6706 115.226 13.6706Z" fill="#91AFEF"/>
</g>
<defs>
<clipPath id="clip0_553_3868">
<rect width="120" height="18.2278" fill="white"/>
</clipPath>
</defs>
</svg>
