<?xml version="1.0" encoding="UTF-8"?><svg id="Layer_2" xmlns="http://www.w3.org/2000/svg" xmlns:xlink="http://www.w3.org/1999/xlink" viewBox="0 0 1735.18 2048"><defs><style>.cls-1{fill:none;}.cls-2{clip-path:url(#clippath);}.cls-3{fill:#003960;}</style><clipPath id="clippath"><path class="cls-3" d="M827.16,259.02c-132.03,76.27-260.32,158.7-384.5,246.94-40.2,28.56-64.86,74.27-66.19,123.56-1.19,44.25-1.79,88.64-1.79,133.17,0,97.78,2.88,194.89,8.55,291.24,4.62,78.6,66.92,141.61,145.48,146.96,99.25,6.77,199.33,10.54,300.12,11.29,9.51,.07,17.25-7.64,17.25-17.15v-189.4c0-8.33-5.99-15.52-14.21-16.87-56.98-9.36-108.25-35.7-148.4-73.68-15.46-15.02-29.56-31.97-41.84-50.76-47.3-72.31-57.48-157.44-35.13-231.48,6.67-22.11,28.37-36.3,51.29-33.55,76.79,9.19,150.71,52.63,198.01,124.94,19.08,29.16,32.1,60.41,39.4,92.18,10.61-14.7,23.26-28.38,37.94-40.59,52.51-43.68,118.8-58.65,178.65-46.42,14.69,3,25.36,15.89,25.63,30.87,1.01,55.31-20.87,111.75-64.02,154.34-40.23,38.23-91.69,64.76-148.91,74.16-8.22,1.35-14.21,8.54-14.21,16.87v189.19c0,9.54,7.79,17.26,17.33,17.14,92.73-1.14,184.85-4.86,276.28-11.09,78.55-5.36,140.85-68.36,145.48-146.96,5.67-96.36,8.55-193.46,8.55-291.24,0-44.53-.61-88.92-1.79-133.17-1.32-49.3-25.99-95-66.19-123.56-124.18-88.23-252.47-170.67-384.51-246.94-12.1-6.99-25.61-10.48-39.13-10.48s-27.03,3.49-39.13,10.48"/></clipPath></defs><g id="Layer_1-2"><g><rect class="cls-1" width="1735.18" height="2048"/><g><g><path class="cls-3" d="M827.16,259.02c-132.03,76.27-260.32,158.7-384.5,246.94-40.2,28.56-64.86,74.27-66.19,123.56-1.19,44.25-1.79,88.64-1.79,133.17,0,97.78,2.88,194.89,8.55,291.24,4.62,78.6,66.92,141.61,145.48,146.96,99.25,6.77,199.33,10.54,300.12,11.29,9.51,.07,17.25-7.64,17.25-17.15v-189.4c0-8.33-5.99-15.52-14.21-16.87-56.98-9.36-108.25-35.7-148.4-73.68-15.46-15.02-29.56-31.97-41.84-50.76-47.3-72.31-57.48-157.44-35.13-231.48,6.67-22.11,28.37-36.3,51.29-33.55,76.79,9.19,150.71,52.63,198.01,124.94,19.08,29.16,32.1,60.41,39.4,92.18,10.61-14.7,23.26-28.38,37.94-40.59,52.51-43.68,118.8-58.65,178.65-46.42,14.69,3,25.36,15.89,25.63,30.87,1.01,55.31-20.87,111.75-64.02,154.34-40.23,38.23-91.69,64.76-148.91,74.16-8.22,1.35-14.21,8.54-14.21,16.87v189.19c0,9.54,7.79,17.26,17.33,17.14,92.73-1.14,184.85-4.86,276.28-11.09,78.55-5.36,140.85-68.36,145.48-146.96,5.67-96.36,8.55-193.46,8.55-291.24,0-44.53-.61-88.92-1.79-133.17-1.32-49.3-25.99-95-66.19-123.56-124.18-88.23-252.47-170.67-384.51-246.94-12.1-6.99-25.61-10.48-39.13-10.48s-27.03,3.49-39.13,10.48"/><g class="cls-2"><rect class="cls-3" x="325.65" y="198.4" width="1081.28" height="1063.99" transform="translate(-73.61 97.52) rotate(-6.18)"/></g></g><g><g><path class="cls-3" d="M592.39,1374.39c-15.4,0-27.88,12.48-27.88,27.88v296.38c0,15.4,12.48,27.88,27.88,27.88s27.88-12.48,27.88-27.88v-296.38c0-15.4-12.48-27.88-27.88-27.88Z"/><path class="cls-3" d="M390.12,1462.16c-36.66,0-68.16,13.94-90.88,36.66v-5.67c0-13.69-11.1-24.78-24.78-24.78s-24.78,11.1-24.78,24.78v283.72c0,15.54,12.6,28.14,28.14,28.14s28.14-12.6,28.14-28.14v-75.13c21.69,19.1,50.6,30.98,84.16,30.98,76.42,0,129.6-59.9,129.6-135.28s-53.7-135.28-129.6-135.28Zm-7.75,221.51c-44.4,0-80.55-29.95-80.55-86.23s36.66-86.23,80.55-86.23c49.57,0,81.07,38.73,81.07,86.23s-31.5,86.23-81.07,86.23Z"/><path class="cls-3" d="M1092.28,1462.16c-37.69,0-66.09,16.01-84.16,39.76v-8.78c0-13.69-11.1-24.78-24.78-24.78s-24.78,11.1-24.78,24.78c0,0,0,0,0,0v204.99c0,15.68,12.71,28.4,28.4,28.4s28.4-12.71,28.4-28.4v-122.37c0-39.24,26.85-65.06,64.54-65.06s62.48,25.82,62.48,65.06v122.37c0,15.68,12.71,28.4,28.4,28.4s28.4-12.71,28.4-28.4v-127.02c0-64.03-41.82-108.95-106.88-108.95Z"/><path class="cls-3" d="M1453.97,1684.11l-78.8-100.09,77.78-81.95c9.15-9.89,8.54-25.33-1.35-34.48-9.89-9.15-25.33-8.54-34.48,1.35l-112.17,120.75v-187.17c0-15.54-12.6-28.14-28.14-28.14s-28.14,12.6-28.14,28.14v295.86c0,15.54,12.6,28.14,28.14,28.14s28.14-12.6,28.14-28.14v-53.44l28.92-30.46,78.3,101.74c8.87,11.55,25.42,13.72,36.96,4.85,11.55-8.87,13.71-25.42,4.85-36.96Z"/><path class="cls-3" d="M877.38,1468.36c-15.54,0-28.14,12.6-28.14,28.14v122.63c0,39.24-24.27,65.06-61.96,65.06-35.63,0-58.86-25.3-58.86-62.48v-125.21c0-15.54-12.6-28.14-28.14-28.14s-28.14,12.6-28.14,28.14v127.28c0,65.57,41.82,108.95,103.79,108.95,36.14,0,62.99-14.97,80.03-37.18v6.2h0c0,13.69,11.1,24.78,24.78,24.78s24.78-11.1,24.78-24.78v-205.25c0-15.54-12.6-28.14-28.14-28.14Z"/></g><g><path class="cls-3" d="M1518.69,1703.55c3.01-1.41,5.02-4.22,5.02-8.64,0-6.13-4.02-9.34-9.44-9.34h-10.4c-1.14,0-2.06,.92-2.06,2.06v26.23c0,1.36,1.1,2.46,2.46,2.46s2.46-1.1,2.46-2.46v-9.5h6.93l5.55,10.66c.62,1.18,2.07,1.64,3.25,1.02,1.18-.62,1.64-2.07,1.02-3.25l-4.8-9.23Zm-5.73-3.32h-6.23v-10.55h6.23c3.11,0,5.73,1.41,5.73,5.23s-2.61,5.33-5.73,5.33Z"/><path class="cls-3" d="M1511.98,1675.78c-15.07,0-26.33,11.05-26.33,25.42s11.25,25.32,26.33,25.32,26.12-11.05,26.12-25.32-11.35-25.42-26.12-25.42Zm-.1,47.53c-12.96,0-22.61-9.45-22.61-22.11s9.65-22.21,22.61-22.21,22.61,9.55,22.61,22.21-9.65,22.11-22.61,22.11Z"/></g></g></g></g></g></svg>