<svg width="57" height="60" viewBox="0 0 57 60" fill="none" xmlns="http://www.w3.org/2000/svg">
<g clip-path="url(#clip0_456_22)">
<path d="M39.0609 11.0604C38.2854 11.0604 37.5405 11.1897 36.8455 11.4244C38.2117 13.26 39.0213 15.5356 39.0213 17.9994C39.0213 20.4632 38.2117 22.7388 36.8455 24.5745C37.5416 24.8092 38.2865 24.9384 39.0609 24.9384C42.8933 24.9384 45.9999 21.8317 45.9999 17.9994C45.9999 14.1671 42.8933 11.0604 39.0609 11.0604Z" fill="#3C77BC"/>
<path d="M27.9994 24.9384C31.8317 24.9384 34.9384 21.8317 34.9384 17.9994C34.9384 14.1671 31.8317 11.0604 27.9994 11.0604C24.1671 11.0604 21.0604 14.1671 21.0604 17.9994C21.0604 21.8317 24.1671 24.9384 27.9994 24.9384Z" fill="#3C77BC"/>
<path d="M27.9994 29.0202C25.5345 29.0202 23.26 28.2106 21.4244 26.8444C21.1897 27.5405 21.0604 28.2854 21.0604 29.0598C21.0604 32.8922 24.1671 35.9988 27.9994 35.9988C31.8317 35.9988 34.9384 32.8922 34.9384 29.0598C34.9384 28.2843 34.8092 27.5394 34.5745 26.8444C32.7399 28.2117 30.4643 29.0202 27.9994 29.0202Z" fill="#3C77BC"/>
<path d="M16.9787 17.9994C16.9787 15.5345 17.7882 13.26 19.1545 11.4244C18.4583 11.1897 17.7134 11.0604 16.939 11.0604C13.1067 11.0604 10 14.1671 10 17.9994C10 21.8317 13.1067 24.9384 16.939 24.9384C17.7145 24.9384 18.4595 24.8092 19.1545 24.5745C17.7882 22.7399 16.9787 20.4643 16.9787 17.9994Z" fill="#3C77BC"/>
<path d="M27.9994 6.97868C30.4643 6.97868 32.7388 7.78823 34.5745 9.15449C34.8092 8.45832 34.9384 7.7134 34.9384 6.939C34.9384 3.10668 31.8317 0 27.9994 0C24.1671 0 21.0604 3.10668 21.0604 6.939C21.0604 7.71453 21.1897 8.45945 21.4244 9.15449C23.26 7.78823 25.5356 6.97868 27.9994 6.97868Z" fill="#3C77BC"/>
</g>
<path d="M7.3984 52.5488H3.2768V59H0V40.2864H7.3984C11.1616 40.2864 13.5936 42.744 13.5936 46.4048C13.5936 50.0144 11.136 52.5488 7.3984 52.5488ZM6.7584 43.2048H3.2768V49.6304H6.7072C8.96 49.6304 10.1632 48.4272 10.1632 46.3792C10.1632 44.3312 8.9344 43.2048 6.7584 43.2048Z" fill="#3C77BC"/>
<path d="M13.4818 52.6512C13.4818 48.7088 16.3234 45.9952 20.2402 45.9952C24.157 45.9952 26.9986 48.7088 26.9986 52.6512C26.9986 56.5936 24.157 59.3072 20.2402 59.3072C16.3234 59.3072 13.4818 56.5936 13.4818 52.6512ZM16.605 52.6512C16.605 54.9552 18.0898 56.5168 20.2402 56.5168C22.3906 56.5168 23.8754 54.9552 23.8754 52.6512C23.8754 50.3472 22.3906 48.7856 20.2402 48.7856C18.0898 48.7856 16.605 50.3472 16.605 52.6512Z" fill="#3C77BC"/>
<path d="M31.583 59H28.4854V41.9536H31.583V59Z" fill="#3C77BC"/>
<path d="M36.968 59H33.8704V41.9536H36.968V59Z" fill="#3C77BC"/>
<path d="M40.7658 43.8192C39.6906 43.8192 38.8458 42.9744 38.8458 41.9248C38.8458 40.8752 39.6906 40.056 40.7658 40.056C41.7898 40.056 42.6346 40.8752 42.6346 41.9248C42.6346 42.9744 41.7898 43.8192 40.7658 43.8192ZM39.2042 59V45.9536H42.3274V59H39.2042Z" fill="#3C77BC"/>
<path d="M47.6374 59H44.5142V46.3536H47.407L47.663 47.992C48.4566 46.712 49.9926 45.9696 51.7078 45.9696C54.8822 45.9696 56.5206 47.9408 56.5206 51.2176V59H53.3974V51.96C53.3974 49.8352 52.3478 48.8112 50.735 48.8112C48.815 48.8112 47.6374 50.1424 47.6374 52.1904V59Z" fill="#3C77BC"/>
<defs>
<clipPath id="clip0_456_22">
<rect width="36" height="36" fill="white" transform="translate(10)"/>
</clipPath>
</defs>
</svg>
