<svg width="84" height="86" viewBox="0 0 84 86" fill="none" xmlns="http://www.w3.org/2000/svg">
<g clip-path="url(#clip0_506_4868)">
<path d="M42.0001 34.4985C48.3513 34.4985 53.5001 29.3498 53.5001 22.9985C53.5001 16.6473 48.3513 11.4985 42.0001 11.4985C35.6488 11.4985 30.5001 16.6473 30.5001 22.9985C30.5001 29.3498 35.6488 34.4985 42.0001 34.4985Z" fill="white"/>
<path d="M56.1346 14.1294C55.1436 14.1294 54.1917 14.2946 53.3036 14.5945C55.0494 16.94 56.0838 19.8477 56.0838 22.9959C56.0838 26.1441 55.0494 29.0518 53.3036 31.3973C54.1932 31.6972 55.145 31.8624 56.1346 31.8624C61.0314 31.8624 65.0011 27.8927 65.0011 22.9959C65.0011 18.099 61.0314 14.1294 56.1346 14.1294Z" fill="white"/>
<path opacity="0.2" d="M42.0006 31.8624C46.8975 31.8624 50.8671 27.8927 50.8671 22.9959C50.8671 18.0991 46.8975 14.1294 42.0006 14.1294C37.1038 14.1294 33.1342 18.0991 33.1342 22.9959C33.1342 27.8927 37.1038 31.8624 42.0006 31.8624Z" fill="url(#paint0_radial_506_4868)"/>
<path opacity="0.5" d="M42.0005 29.3879C45.5289 29.3879 48.3893 26.5275 48.3893 22.999C48.3893 19.4705 45.5289 16.6101 42.0005 16.6101C38.472 16.6101 35.6116 19.4705 35.6116 22.999C35.6116 26.5275 38.472 29.3879 42.0005 29.3879Z" fill="url(#paint1_radial_506_4868)"/>
<path d="M42 25.5572C43.4113 25.5572 44.5555 24.413 44.5555 23.0016C44.5555 21.5902 43.4113 20.446 42 20.446C40.5886 20.446 39.4444 21.5902 39.4444 23.0016C39.4444 24.413 40.5886 25.5572 42 25.5572Z" fill="#3C77BC"/>
<path d="M42.0006 37.0807C38.851 37.0807 35.9448 36.0463 33.5992 34.3005C33.2993 35.1901 33.1342 36.1419 33.1342 37.1314C33.1342 42.0283 37.1038 45.9979 42.0006 45.9979C46.8975 45.9979 50.8671 42.0283 50.8671 37.1314C50.8671 36.1405 50.702 35.1886 50.4021 34.3005C48.058 36.0478 45.1503 37.0807 42.0006 37.0807Z" fill="white"/>
<path d="M27.9172 22.9959C27.9172 19.8463 28.9516 16.94 30.6974 14.5945C29.8079 14.2946 28.856 14.1294 27.8665 14.1294C22.9696 14.1294 19 18.099 19 22.9959C19 27.8927 22.9696 31.8624 27.8665 31.8624C28.8575 31.8624 29.8093 31.6972 30.6974 31.3973C28.9516 29.0532 27.9172 26.1455 27.9172 22.9959Z" fill="white"/>
<path d="M42.0006 8.9172C45.1503 8.9172 48.0565 9.95163 50.4021 11.6974C50.702 10.8079 50.8671 9.85601 50.8671 8.8665C50.8671 3.96964 46.8975 0 42.0006 0C37.1038 0 33.1342 3.96964 33.1342 8.8665C33.1342 9.85746 33.2993 10.8093 33.5992 11.6974C35.9448 9.95163 38.8525 8.9172 42.0006 8.9172Z" fill="white"/>
</g>
<path d="M12.3025 69.936H7.1505V78H3.0545V54.608H12.3025C17.0065 54.608 20.0465 57.68 20.0465 62.256C20.0465 66.768 16.9745 69.936 12.3025 69.936ZM11.5025 58.256H7.1505V66.288H11.4385C14.2545 66.288 15.7585 64.784 15.7585 62.224C15.7585 59.664 14.2225 58.256 11.5025 58.256ZM19.9068 70.064C19.9068 65.136 23.4588 61.744 28.3548 61.744C33.2508 61.744 36.8028 65.136 36.8028 70.064C36.8028 74.992 33.2508 78.384 28.3548 78.384C23.4588 78.384 19.9068 74.992 19.9068 70.064ZM23.8108 70.064C23.8108 72.944 25.6668 74.896 28.3548 74.896C31.0428 74.896 32.8988 72.944 32.8988 70.064C32.8988 67.184 31.0428 65.232 28.3548 65.232C25.6668 65.232 23.8108 67.184 23.8108 70.064ZM42.5333 78H38.6613V54.192H42.5333V78ZM49.2645 78H45.3925V54.192H49.2645V78ZM54.6838 78.384C53.2758 78.384 52.0918 77.232 52.0918 75.856C52.0918 74.448 53.2758 73.296 54.6838 73.296C56.0918 73.296 57.2758 74.448 57.2758 75.856C57.2758 77.232 56.0918 78.384 54.6838 78.384ZM62.0243 59.024C60.6803 59.024 59.6243 57.968 59.6243 56.656C59.6243 55.344 60.6803 54.32 62.0243 54.32C63.3043 54.32 64.3603 55.344 64.3603 56.656C64.3603 57.968 63.3043 59.024 62.0243 59.024ZM60.0723 78V62.192H63.9763V78H60.0723ZM70.6137 78H66.7097V62.192H70.3257L70.6457 64.24C71.6377 62.64 73.5577 61.712 75.7017 61.712C79.6697 61.712 81.7177 64.176 81.7177 68.272V78H77.8137V69.2C77.8137 66.544 76.5017 65.264 74.4857 65.264C72.0857 65.264 70.6137 66.928 70.6137 69.488V78Z" fill="#3C77BC"/>
<defs>
<radialGradient id="paint0_radial_506_4868" cx="0" cy="0" r="1" gradientUnits="userSpaceOnUse" gradientTransform="translate(42.0006 22.9959) rotate(90) scale(8.86649)">
<stop stop-color="#3C77BC"/>
<stop offset="1" stop-color="#3C77BC"/>
</radialGradient>
<radialGradient id="paint1_radial_506_4868" cx="0" cy="0" r="1" gradientUnits="userSpaceOnUse" gradientTransform="translate(42.0005 22.999) rotate(90) scale(6.38889)">
<stop stop-color="#3C77BC"/>
<stop offset="1" stop-color="#3C77BC"/>
</radialGradient>
<clipPath id="clip0_506_4868">
<rect width="46" height="46" fill="white" transform="translate(19)"/>
</clipPath>
</defs>
</svg>
