<?xml version="1.0" standalone="no"?>
<!DOCTYPE svg PUBLIC "-//W3C//DTD SVG 20010904//EN"
 "http://www.w3.org/TR/2001/REC-SVG-20010904/DTD/svg10.dtd">
<svg version="1.0" xmlns="http://www.w3.org/2000/svg"
 width="800.000000pt" height="800.000000pt" viewBox="0 0 800.000000 800.000000"
 preserveAspectRatio="xMidYMid meet">
<metadata>
Created by potrace 1.14, written by Peter Selinger 2001-2017
</metadata>
<g transform="translate(0.000000,800.000000) scale(0.100000,-0.100000)"
fill="#000000" stroke="none">
<path d="M1837 3629 c-173 -41 -256 -201 -256 -494 -1 -642 371 -1243 1001
-1616 778 -462 1806 -505 2633 -110 628 301 1047 803 1176 1411 30 140 34 450
7 547 -50 180 -140 259 -308 270 -142 10 -306 -28 -830 -191 -352 -111 -616
-174 -885 -213 -168 -24 -582 -24 -750 0 -283 41 -525 101 -965 237 -162 50
-335 102 -385 115 -185 50 -344 66 -438 44z"/>
</g>
</svg>
