<svg width="24" height="24" viewBox="0 0 24 24" fill="none" xmlns="http://www.w3.org/2000/svg">
<path d="M0 12C0 5.37258 5.37258 0 12 0C18.6274 0 24 5.37258 24 12C24 18.6274 18.6274 24 12 24C5.37258 24 0 18.6274 0 12Z" fill="#CDE4FF"/>
<path fill-rule="evenodd" clip-rule="evenodd" d="M8.21669 8.11066C8.07505 8.43631 8.09705 8.85601 8.14103 9.6954L8.39554 14.5524C8.43556 15.316 8.45557 15.6979 8.61013 15.9911C8.76453 16.284 9.01106 16.5179 9.31166 16.6568C9.61256 16.7958 9.99491 16.7958 10.7596 16.7958H13.3265C14.1034 16.7958 14.4919 16.7958 14.7956 16.6536C15.099 16.5117 15.3465 16.2727 15.499 15.9744C15.6517 15.6758 15.6653 15.2876 15.6924 14.5111L15.8075 11.2174L15.8527 9.92108C15.8816 9.09412 15.9054 8.41373 15.7613 8.09347C15.6175 7.7738 15.3669 7.51421 15.0524 7.35934C14.7374 7.20419 14.3236 7.20419 13.4962 7.20419H10.5051C9.66457 7.20419 9.2443 7.20419 8.92651 7.36267C8.60935 7.52083 8.35804 7.78566 8.21669 8.11066ZM14.5131 13.4185C14.5131 14.7054 13.3786 15.7487 11.9791 15.7487C10.5796 15.7487 9.44504 14.0548 9.44504 13.6515C9.44504 13.2482 14.5131 12.1315 14.5131 13.4185ZM11.2513 11.5602C11.2513 11.7453 11.1013 11.8953 10.9162 11.8953C10.7312 11.8953 10.5079 11.7453 10.5079 11.5602C10.5079 11.3752 10.7312 11.1414 10.9162 11.1414C11.1013 11.1414 11.2513 11.3752 11.2513 11.5602ZM13.0419 11.8953C12.8568 11.8953 12.7068 11.7453 12.7068 11.5602C12.7068 11.3752 12.8568 11.1414 13.0419 11.1414C13.2269 11.1414 13.4503 11.3752 13.4503 11.5602C13.4503 11.7453 13.2269 11.8953 13.0419 11.8953Z" fill="#0C6DE0"/>
<path d="M15.7483 12.9106C16.5695 12.9106 17.445 12.2348 17.445 11.4136C17.445 10.5924 16.6739 9.92108 15.8527 9.92108L15.8075 11.2174C15.8688 11.1909 15.929 11.1591 15.9866 11.1286C16.2634 10.9823 16.4817 10.8669 16.4817 11.5294C16.4817 11.9689 16.2083 12.3248 15.7688 12.3248L15.7483 12.9106Z" fill="#0C6DE0"/>
<path d="M8.15803 10.0198C7.33683 10.0198 6.62304 10.5924 6.62304 11.4136C6.62304 12.2348 7.4712 13.0524 8.31224 12.9626L8.2786 12.3207C7.83909 12.3207 7.66492 11.9689 7.66492 11.5294C7.66492 10.8669 7.94006 10.9951 8.2168 11.1414L8.15803 10.0198Z" fill="#0C6DE0"/>
</svg>
