<svg width="231" height="243" viewBox="0 0 231 243" fill="none" xmlns="http://www.w3.org/2000/svg">
<path d="M172.188 239.159L172.161 239.163L172.134 239.168C147.959 243.197 128.476 238.711 102.589 228.677C99.6995 227.557 96.998 226.547 94.455 225.597C86.5729 222.65 80.2145 220.273 74.4921 216.949C67.0968 212.654 60.8043 206.771 54.2052 195.884C50.1026 189.116 45.378 177.306 41.6706 164.971C37.9586 152.62 35.3761 140.102 35.3761 131.926C35.3761 70.9355 93.3945 23.3311 155.069 23.2424C165.262 24.787 175.229 33.2753 184.473 46.3125C193.696 59.3202 201.859 76.3782 208.524 94.0132C215.182 111.631 220.307 129.719 223.488 144.72C225.079 152.222 226.178 158.922 226.743 164.386C227.315 169.923 227.313 173.968 226.838 176.282C224.245 188.901 217.481 203.716 207.824 215.858C198.15 228.022 185.816 237.212 172.188 239.159Z" fill="#AADFFE" stroke="black" stroke-width="4.71898"/>
<path d="M227 174.5C221.658 200.498 196.682 232.095 174.75 235.75C149.975 239.879 129.063 236.602 103 226.5C79.7023 217.47 69.0511 218.107 55.5 195.75C46.9903 181.711 37.75 149.561 37.75 132.5C37.75 69.8691 88.2571 19.5 151 19.5C196.004 25.9886 231.424 152.97 227 174.5Z" fill="#AADFFE"/>
<path d="M170.319 145.427C172.002 152.696 169.904 155.809 166.56 156.831C163.216 157.852 159.892 156.394 158.209 149.126C156.527 141.857 157.874 135.137 161.218 134.116C164.562 133.094 168.637 138.159 170.319 145.427Z" fill="black"/>
<path d="M192.288 138.919C193.971 146.188 191.873 149.302 188.529 150.323C185.185 151.344 181.861 149.887 180.178 142.618C178.496 135.349 179.843 128.629 183.187 127.608C186.531 126.586 190.606 131.651 192.288 138.919Z" fill="black"/>
<path d="M169.368 179.296C168.829 178.119 169.347 176.727 170.525 176.188L197.436 163.87C198.617 163.329 200.013 163.849 200.554 165.03V165.03C200.975 165.949 200.761 167.032 200.005 167.702C197.618 169.817 192.265 174.34 187.858 176.459C182.933 178.828 175.151 180.135 171.755 180.62C170.751 180.763 169.79 180.218 169.368 179.296V179.296Z" fill="black"/>
<path d="M126.431 8.88107C166.109 3.83457 191.45 33.0135 196.117 75.0628C196.117 75.0628 160.766 65.6409 135.36 65.036C94.71 64.0682 32.5819 112.297 32.5819 112.297C27.9152 70.2473 65.7961 19.1108 126.431 8.88107Z" fill="#F04341" stroke="black" stroke-width="4.71898"/>
<path d="M101.189 3.93774C106.857 3.21681 111.079 6.31771 111.731 12.1929C111.731 12.1929 104.961 13.1795 101.189 14.6055C96.2002 16.4911 89.39 20.8829 89.39 20.8829C88.7379 15.0077 92.5255 5.39135 101.189 3.93774Z" fill="#F04341" stroke="black" stroke-width="2.51813"/>
<path d="M154.5 38.7471C138.1 38.8549 128.933 42.7023 113.5 48.515C75.9074 62.6744 32.6236 112.651 32.6236 112.651C32.6236 112.651 96.5087 71.476 141 68.5C163.902 66.9681 200.75 76.7479 200.75 76.7479C200.75 76.7479 213.012 67.3501 214.993 60.9114C220.503 43.0006 179.776 38.5811 154.5 38.7471Z" fill="#AC2321" stroke="black" stroke-width="4.71898"/>
<path d="M149.75 39.0037C131.896 40.6911 118.24 46.8661 103 55.2517C71.8698 72.3806 32.624 112.653 32.624 112.653C32.624 112.653 96.5091 71.4779 141 68.5019C163.902 66.97 200.75 76.7498 200.75 76.7498C200.75 76.7498 213.013 67.3519 214.993 60.9133C220.503 43.0025 177.746 36.3578 149.75 39.0037Z" fill="#891211"/>
<path d="M51.8728 137.721C55.1424 145.224 57.2957 154.003 56.6849 160.763C56.381 164.127 55.4111 166.797 53.7612 168.608C52.1586 170.368 49.7126 171.537 45.9455 171.537C36.1105 171.537 28.4118 171.081 22.2536 168.191C16.2471 165.372 11.4551 160.099 7.83153 149.794C7.76893 149.616 7.70491 149.434 7.63966 149.249C6.24189 145.282 4.27913 139.712 3.59029 134.077C2.86603 128.153 3.60865 122.638 7.38658 118.854C12.2608 113.972 18.3523 113.969 25.6328 113.966C25.8683 113.966 26.1051 113.966 26.3431 113.966C31.6998 113.96 36.6152 116.535 40.9765 120.871C45.3441 125.213 49.0366 131.212 51.8728 137.721Z" fill="#5C9FD0" stroke="black" stroke-width="3.77518"/>
<path d="M24.5522 125.051C23.536 125.051 19.5071 129.298 18.6359 137.248C17.6163 146.55 28.0034 158.084 28.0034 158.084" stroke="black" stroke-width="3.77518" stroke-linecap="round"/>
<path d="M37.0937 142.938C36.0232 141.276 35.8262 141.146 34.2585 139.943C32.6908 138.739 21.7293 136.349 20.0427 136.326" stroke="black" stroke-width="3.77518" stroke-linecap="round"/>
<path d="M68.2619 150.901C68.2619 159.697 42.8976 156.21 42.8976 156.21L40.5381 137.924L55.2368 133.988C55.2368 133.988 68.2619 142.105 68.2619 150.901Z" fill="#5C9FD0"/>
<path d="M58.6762 113.992C60.0918 106.442 82.8609 87.4453 82.8609 87.4453L58.6762 98.6529L30.9521 113.992C32.3285 114.582 38.0971 119.011 42.1597 123.87C47.3147 130.035 47.7635 132.511 49.1645 138.483C49.1645 138.483 51.8537 141.715 55.1369 142.612C55.6121 142.742 56.3336 142.905 57.0878 143.065C58.6633 143.399 60.0801 142.066 59.887 140.467C59.1096 134.031 57.5956 119.755 58.6762 113.992Z" fill="black"/>
<path d="M26.0269 144.795C23.1546 146.571 21.6387 148.495 21.2398 149.235L20.043 137.023C22.8355 137.393 28.6598 138.134 29.6172 138.134C30.814 138.134 29.6172 142.574 26.0269 144.795Z" fill="black"/>
<path d="M187.748 230.803C183.435 233.715 160.725 245.365 116.042 232.093C91.5281 224.812 74.9647 216.795 66.4443 209.835C54.261 199.882 46.2412 172.968 46.2412 172.968C46.2412 172.968 52.9373 171.005 55.5317 167.659C59.6608 162.334 57.9209 155.379 58.6285 148.634C60.5375 130.44 55.6873 113.875 59.6608 112.078C69.0107 130.531 79.4037 181.103 104.196 202.609C138.449 232.321 187.748 230.803 187.748 230.803Z" fill="#5C9FD0"/>
<path d="M59.88 154.956C59.5851 156.077 59.8438 158.062 53.75 165.25L54.4688 156.656L56.2671 151.859C57.5943 152.425 60.175 153.835 59.88 154.956Z" fill="#5C9FD0"/>
<path d="M159.375 13.7504C155.082 11.7903 142.574 9.92892 136.5 10.7496C136.5 10.7496 143.006 24.2496 144.046 26.411C145.086 28.5723 148.437 27.6452 154.429 28.6681C171.75 31.625 181.688 38.0625 181.688 38.0625L185 38.625C185 38.625 181 23.625 159.375 13.7504Z" fill="#EBAAA9"/>
<path d="M38.25 73.625C56.5687 42.1815 81.6816 28.6992 81.6816 28.6992C81.6816 28.6992 60.8076 49.1535 59.5614 67.0409C59.1246 73.3103 63.2845 78.1473 56.625 84.5C42.5223 97.953 34.6392 107.57 34.6392 107.57C34.6392 107.57 29.3362 88.9253 38.25 73.625Z" fill="#AC2321"/>
<path d="M203.219 78.3438L210.438 98.5625C210.438 98.5625 203.368 86.3113 199.281 82.8125C194.588 78.7944 185.156 75.6875 185.156 75.6875L203.219 78.3438Z" fill="black"/>
</svg>
