<svg width="234" height="59" viewBox="0 0 234 59" fill="none" xmlns="http://www.w3.org/2000/svg">
<g filter="url(#filter0_d_562_9297)">
<path fill-rule="evenodd" clip-rule="evenodd" d="M13.0221 42.4716C13.4909 42.4551 13.982 42.658 14.1308 43.1176C14.2828 43.587 14.0232 44.0709 13.6331 44.3584C13.2547 44.6373 12.7445 44.7012 12.3728 44.4129C12.016 44.1362 11.9792 43.6242 12.125 43.1885C12.2615 42.7805 12.6044 42.4864 13.0221 42.4716Z" fill="#65D36E"/>
</g>
<g filter="url(#filter1_d_562_9297)">
<path fill-rule="evenodd" clip-rule="evenodd" d="M16.6178 35.7806C14.9436 35.7237 13.1898 36.4195 12.6583 37.9951C12.1155 39.6045 13.0427 41.2639 14.4358 42.2494C15.7874 43.2054 17.6092 43.4248 18.9367 42.4362C20.2111 41.4872 20.3423 39.7323 19.8219 38.2385C19.3343 36.8393 18.1097 35.8312 16.6178 35.7806Z" fill="#65D36E"/>
</g>
<g filter="url(#filter2_d_562_9297)">
<path fill-rule="evenodd" clip-rule="evenodd" d="M26.2575 9.00216C19.0748 8.89017 12.4432 13.1503 10.1289 19.9534C7.71448 27.0511 9.06705 32.5183 15.2456 36.7621C21.0182 40.7271 29.7631 41.6449 35.337 37.4046C40.4798 33.4921 42.7886 26.6175 40.9097 20.4333C38.9185 13.8792 33.1044 9.10889 26.2575 9.00216ZM22.2377 23.7008C26.4942 23.7008 30.6115 24.7611 33.8488 26.6992C34.3917 27.0105 34.5919 27.4057 34.5924 27.9846C34.5924 28.689 34.0316 29.258 33.324 29.258C32.9916 29.258 32.7757 29.1316 32.5516 29.0006L32.5238 28.9843L32.5095 28.9759C29.8642 27.4057 26.1983 26.3621 22.183 26.3621C20.1246 26.3621 18.3468 26.6507 16.8762 27.0424C16.7875 27.0669 16.7097 27.0919 16.6372 27.1153C16.4503 27.1752 16.2983 27.2241 16.0845 27.2241C15.3852 27.2241 14.8144 26.654 14.8144 25.9486C14.8144 25.257 15.1498 24.7814 15.8258 24.5906C17.6534 24.0886 19.5207 23.7008 22.2377 23.7008ZM31.9197 31.4655C29.1907 29.8294 26.0192 29.0124 22.4612 29.0124C20.3833 29.0124 18.3829 29.2741 16.3746 29.7314C15.8843 29.8261 15.4897 30.1656 15.4897 30.849C15.4897 31.3806 15.9013 31.8711 16.5189 31.8711C16.6612 31.8711 16.8715 31.8192 17.077 31.7684H17.0772C17.1608 31.7477 17.2435 31.7273 17.3205 31.7106C18.9582 31.3698 20.7099 31.1471 22.4497 31.1471C25.5678 31.1471 28.5067 31.8968 30.864 33.3232C31.1106 33.472 31.2892 33.5637 31.5521 33.5637C32.0872 33.5637 32.5634 33.1329 32.5634 32.5466C32.5634 31.9449 32.3256 31.7027 31.9197 31.4655ZM22.5689 18.1109C27.3431 18.1109 32.3674 19.0936 36.0374 21.2494C36.5323 21.5298 36.8758 21.9527 36.8755 22.7272C36.8755 23.6142 36.1626 24.251 35.3414 24.251C35.0106 24.251 34.8145 24.1706 34.5037 24.0006C31.5608 22.2346 26.9929 21.2627 22.5756 21.2627C20.3704 21.2627 18.1308 21.487 16.0795 22.0438C16.0186 22.0591 15.9537 22.0782 15.8858 22.0983C15.6894 22.1563 15.4675 22.2217 15.2455 22.2217C14.378 22.2217 13.7123 21.5351 13.7123 20.6676C13.7123 19.7832 14.2598 19.2873 14.8505 19.1127C17.1688 18.4294 19.7565 18.1109 22.5689 18.1109Z" fill="#65D36E"/>
</g>
<path d="M61.6225 20.9353L58.3928 21.925C58.2713 21.2652 57.9413 20.6662 57.4031 20.1279C56.8648 19.5896 56.0747 19.3205 55.0329 19.3205C54.1821 19.3205 53.4875 19.5549 52.9492 20.0237C52.411 20.4752 52.1418 21.0221 52.1418 21.6646C52.1418 22.7932 52.8103 23.4878 54.1473 23.7482L56.7259 24.2431C58.3581 24.5557 59.6256 25.2068 60.5286 26.1965C61.4315 27.1863 61.8829 28.3497 61.8829 29.6867C61.8829 31.2147 61.2752 32.5517 60.0597 33.6977C58.8616 34.8264 57.2468 35.3907 55.2152 35.3907C54.0518 35.3907 53.0013 35.217 52.0637 34.8698C51.126 34.5225 50.3707 34.0624 49.7977 33.4893C49.2247 32.899 48.7732 32.2826 48.4433 31.6401C48.1308 30.9803 47.9398 30.3031 47.8703 29.6085L51.2042 28.723C51.291 29.7127 51.673 30.5375 52.3502 31.1973C53.0447 31.8571 54.0084 32.1871 55.2413 32.1871C56.1789 32.1871 56.9082 31.9787 57.4291 31.562C57.9674 31.1452 58.2365 30.5983 58.2365 29.9211C58.2365 29.3828 58.0368 28.9227 57.6375 28.5407C57.2555 28.1413 56.7085 27.8722 55.9966 27.7332L53.4181 27.2123C51.9248 26.8998 50.744 26.2834 49.8759 25.3631C49.0077 24.4428 48.5736 23.2968 48.5736 21.925C48.5736 20.2929 49.1987 18.9211 50.4489 17.8098C51.7164 16.6985 53.2357 16.1429 55.0069 16.1429C56.0661 16.1429 57.0124 16.2905 57.8458 16.5857C58.6793 16.8809 59.3478 17.2802 59.8514 17.7838C60.3549 18.27 60.7456 18.7735 61.0234 19.2944C61.3012 19.8153 61.5009 20.3623 61.6225 20.9353ZM67.7398 39.9487H64.2757V22.1855H67.6356V23.7482C67.9481 23.2273 68.4517 22.7932 69.1462 22.446C69.8408 22.0813 70.6482 21.899 71.5685 21.899C73.3917 21.899 74.8329 22.5241 75.8921 23.7743C76.9513 25.0071 77.4809 26.6046 77.4809 28.5667C77.4809 30.5288 76.9165 32.1437 75.7879 33.4112C74.6766 34.6788 73.2267 35.3125 71.4382 35.3125C69.7366 35.3125 68.5038 34.7916 67.7398 33.7498V39.9487ZM73.1573 31.2494C73.765 30.5896 74.0689 29.704 74.0689 28.5928C74.0689 27.4815 73.765 26.6046 73.1573 25.9621C72.5669 25.3197 71.8116 24.9984 70.8913 24.9984C69.971 24.9984 69.207 25.3284 68.5993 25.9882C67.9915 26.6306 67.6877 27.4988 67.6877 28.5928C67.6877 29.6867 67.9915 30.5635 68.5993 31.2234C69.207 31.8832 69.971 32.2131 70.8913 32.2131C71.8116 32.2131 72.5669 31.8919 73.1573 31.2494ZM83.6616 31.2755C84.3041 31.9179 85.0768 32.2392 85.9797 32.2392C86.8826 32.2392 87.6466 31.9179 88.2717 31.2755C88.9142 30.633 89.2354 29.7388 89.2354 28.5928C89.2354 27.4467 88.9142 26.5525 88.2717 25.91C87.6466 25.2676 86.8826 24.9464 85.9797 24.9464C85.0768 24.9464 84.3041 25.2676 83.6616 25.91C83.0365 26.5525 82.724 27.4467 82.724 28.5928C82.724 29.7388 83.0365 30.633 83.6616 31.2755ZM81.1612 23.7222C82.4462 22.4373 84.0523 21.7948 85.9797 21.7948C87.9071 21.7948 89.5045 22.4373 90.7721 23.7222C92.057 25.0071 92.6995 26.6306 92.6995 28.5928C92.6995 30.5549 92.057 32.1784 90.7721 33.4633C89.5045 34.7482 87.9071 35.3907 85.9797 35.3907C84.0523 35.3907 82.4462 34.7482 81.1612 33.4633C79.8937 32.1784 79.2599 30.5549 79.2599 28.5928C79.2599 26.6306 79.8937 25.0071 81.1612 23.7222ZM99.6545 18.3568V22.1855H102.233V25.2589H99.6545V30.6243C99.6545 31.1626 99.7761 31.5446 100.019 31.7703C100.262 31.9961 100.644 32.1089 101.165 32.1089C101.634 32.1089 101.99 32.0742 102.233 32.0047V34.8698C101.729 35.0781 101.078 35.1823 100.28 35.1823C99.0294 35.1823 98.0397 34.835 97.3104 34.1405C96.5811 33.4286 96.2165 32.4562 96.2165 31.2234V25.2589H93.8984V22.1855H94.5496C95.192 22.1855 95.6782 22.0032 96.0081 21.6385C96.3554 21.2565 96.529 20.7617 96.529 20.1539V18.3568H99.6545ZM108.64 35H105.176V22.1855H108.64V35ZM104.759 17.9921C104.759 17.4018 104.967 16.8982 105.384 16.4815C105.801 16.0474 106.304 15.8303 106.895 15.8303C107.485 15.8303 107.989 16.0387 108.405 16.4554C108.822 16.8722 109.03 17.3844 109.03 17.9921C109.03 18.5652 108.822 19.06 108.405 19.4768C107.989 19.8935 107.485 20.1018 106.895 20.1018C106.304 20.1018 105.801 19.8935 105.384 19.4768C104.967 19.06 104.759 18.5652 104.759 17.9921ZM118.287 19.0079C117.801 19.0079 117.375 19.1468 117.011 19.4247C116.663 19.6851 116.49 20.1366 116.49 20.779V22.1855H119.381V25.1547H116.49V35H112.999V25.1547H110.864V22.1855H112.999V20.7269C112.999 19.2857 113.416 18.1311 114.25 17.2629C115.101 16.3947 116.238 15.9606 117.662 15.9606C118.426 15.9606 118.999 16.0474 119.381 16.221V19.1382C119.085 19.0513 118.721 19.0079 118.287 19.0079ZM126.696 40.0529H123.023L126.045 33.3852L120.601 22.1855H124.482L127.894 29.6867L131.046 22.1855H134.744L126.696 40.0529ZM147.132 31.6661H149.997C151.612 31.6661 152.941 31.1626 153.982 30.1555C155.024 29.1484 155.545 27.6898 155.545 25.7798C155.545 23.8698 155.024 22.4112 153.982 21.4041C152.941 20.3797 151.621 19.8674 150.023 19.8674H147.132V31.6661ZM150.128 35H143.538V16.5336H150.154C152.845 16.5336 155.033 17.3584 156.717 19.0079C158.419 20.6575 159.27 22.9148 159.27 25.7798C159.27 28.6275 158.419 30.8761 156.717 32.5257C155.016 34.1752 152.819 35 150.128 35ZM169.939 22.1334V25.6235C169.592 25.5541 169.244 25.5194 168.897 25.5194C167.907 25.5194 167.109 25.8059 166.501 26.3789C165.893 26.9345 165.589 27.8548 165.589 29.1397V35H162.125V22.1855H165.485V24.0868C166.11 22.7498 167.326 22.0813 169.131 22.0813C169.322 22.0813 169.592 22.0987 169.939 22.1334ZM174.775 27.1342H180.505C180.47 26.4223 180.21 25.8232 179.724 25.337C179.255 24.8509 178.56 24.6078 177.64 24.6078C176.806 24.6078 176.129 24.8682 175.608 25.3891C175.087 25.91 174.81 26.4917 174.775 27.1342ZM180.843 30.468L183.735 31.3276C183.387 32.5083 182.701 33.4807 181.677 34.2447C180.67 35.0087 179.411 35.3907 177.9 35.3907C176.06 35.3907 174.497 34.7743 173.212 33.5414C171.927 32.2912 171.285 30.6243 171.285 28.5407C171.285 26.5612 171.91 24.9464 173.16 23.6962C174.41 22.4286 175.886 21.7948 177.588 21.7948C179.567 21.7948 181.113 22.3852 182.224 23.5659C183.353 24.7467 183.917 26.3702 183.917 28.4365C183.917 28.5754 183.908 28.7317 183.891 28.9053C183.891 29.0789 183.891 29.2179 183.891 29.322L183.865 29.5044H174.697C174.731 30.3378 175.061 31.0324 175.686 31.588C176.312 32.1437 177.058 32.4215 177.926 32.4215C179.402 32.4215 180.375 31.7703 180.843 30.468ZM185.863 31.5099C185.863 30.416 186.219 29.5391 186.931 28.8793C187.643 28.2194 188.563 27.8027 189.692 27.6291L192.844 27.1602C193.486 27.0734 193.807 26.7696 193.807 26.2486C193.807 25.7625 193.616 25.3631 193.234 25.0505C192.87 24.738 192.34 24.5817 191.646 24.5817C190.916 24.5817 190.335 24.7814 189.9 25.1808C189.484 25.5801 189.249 26.075 189.197 26.6654L186.124 26.0142C186.245 24.9029 186.792 23.9219 187.765 23.0711C188.737 22.2202 190.022 21.7948 191.619 21.7948C193.53 21.7948 194.936 22.255 195.839 23.1752C196.742 24.0782 197.193 25.2415 197.193 26.6654V32.9684C197.193 33.7324 197.245 34.4096 197.35 35H194.172C194.085 34.618 194.042 34.1058 194.042 33.4633C193.226 34.7309 191.967 35.3646 190.265 35.3646C188.945 35.3646 187.878 34.9826 187.061 34.2186C186.263 33.4546 185.863 32.5517 185.863 31.5099ZM190.994 32.7861C191.81 32.7861 192.479 32.5604 193 32.1089C193.538 31.6401 193.807 30.8761 193.807 29.8169V29.2439L190.916 29.6867C189.857 29.8429 189.327 30.3812 189.327 31.3015C189.327 31.7182 189.475 32.0742 189.77 32.3694C190.065 32.6472 190.473 32.7861 190.994 32.7861ZM204.149 35H200.685V22.1855H203.993V23.7482C204.323 23.1579 204.844 22.6891 205.556 22.3418C206.268 21.9945 206.997 21.8209 207.743 21.8209C209.601 21.8209 210.869 22.5328 211.546 23.9566C212.466 22.5328 213.821 21.8209 215.609 21.8209C216.912 21.8209 218.005 22.2289 218.891 23.045C219.794 23.8611 220.245 25.0766 220.245 26.6914V35H216.885V27.3946C216.885 26.6654 216.694 26.0837 216.312 25.6496C215.948 25.1981 215.384 24.9724 214.62 24.9724C213.908 24.9724 213.335 25.2155 212.9 25.7017C212.466 26.1879 212.249 26.7869 212.249 27.4988V35H208.811V27.3946C208.811 26.6654 208.62 26.0837 208.238 25.6496C207.856 25.1981 207.292 24.9724 206.545 24.9724C205.816 24.9724 205.234 25.2155 204.8 25.7017C204.366 26.1705 204.149 26.7696 204.149 27.4988V35ZM222.661 31.4317L225.63 30.7806C225.665 31.3362 225.882 31.8051 226.281 32.1871C226.698 32.5517 227.262 32.734 227.974 32.734C228.513 32.734 228.929 32.6125 229.224 32.3694C229.52 32.1263 229.667 31.8224 229.667 31.4578C229.667 30.8153 229.207 30.3986 228.287 30.2076L226.594 29.8169C225.396 29.5564 224.493 29.0876 223.885 28.4104C223.295 27.7332 222.999 26.9258 222.999 25.9882C222.999 24.8248 223.451 23.8351 224.354 23.019C225.274 22.2029 226.42 21.7948 227.792 21.7948C228.66 21.7948 229.424 21.925 230.084 22.1855C230.744 22.4286 231.256 22.7498 231.621 23.1492C231.985 23.5312 232.263 23.9219 232.454 24.3213C232.645 24.7206 232.767 25.1113 232.819 25.4933L229.928 26.1445C229.858 25.693 229.65 25.2936 229.303 24.9464C228.973 24.5991 228.478 24.4254 227.818 24.4254C227.366 24.4254 226.976 24.547 226.646 24.7901C226.333 25.0332 226.177 25.337 226.177 25.7017C226.177 26.3268 226.568 26.7088 227.349 26.8477L229.172 27.2384C230.405 27.4988 231.343 27.9763 231.985 28.6709C232.645 29.3654 232.975 30.1989 232.975 31.1713C232.975 32.3173 232.541 33.307 231.673 34.1405C230.805 34.974 229.58 35.3907 228 35.3907C227.097 35.3907 226.29 35.2605 225.578 35C224.866 34.7222 224.31 34.3749 223.911 33.9582C223.529 33.5241 223.234 33.0987 223.026 32.6819C222.835 32.2478 222.713 31.8311 222.661 31.4317Z" fill="white"/>
<defs>
<filter id="filter0_d_562_9297" x="3.82957" y="34.2554" width="24.0375" height="24.0385" filterUnits="userSpaceOnUse" color-interpolation-filters="sRGB">
<feFlood flood-opacity="0" result="BackgroundImageFix"/>
<feColorMatrix in="SourceAlpha" type="matrix" values="0 0 0 0 0 0 0 0 0 0 0 0 0 0 0 0 0 0 127 0" result="hardAlpha"/>
<feOffset dx="2.73845" dy="2.73845"/>
<feGaussianBlur stdDeviation="5.4769"/>
<feComposite in2="hardAlpha" operator="out"/>
<feColorMatrix type="matrix" values="0 0 0 0 0.00424793 0 0 0 0 0.183507 0 0 0 0 0.0436849 0 0 0 0.1 0"/>
<feBlend mode="normal" in2="BackgroundImageFix" result="effect1_dropShadow_562_9297"/>
<feBlend mode="normal" in="SourceGraphic" in2="effect1_dropShadow_562_9297" result="shape"/>
</filter>
<filter id="filter1_d_562_9297" x="4.28562" y="27.562" width="29.514" height="29.2103" filterUnits="userSpaceOnUse" color-interpolation-filters="sRGB">
<feFlood flood-opacity="0" result="BackgroundImageFix"/>
<feColorMatrix in="SourceAlpha" type="matrix" values="0 0 0 0 0 0 0 0 0 0 0 0 0 0 0 0 0 0 127 0" result="hardAlpha"/>
<feOffset dx="2.73845" dy="2.73845"/>
<feGaussianBlur stdDeviation="5.4769"/>
<feComposite in2="hardAlpha" operator="out"/>
<feColorMatrix type="matrix" values="0 0 0 0 0.00424793 0 0 0 0 0.183507 0 0 0 0 0.0436849 0 0 0 0.1 0"/>
<feBlend mode="normal" in2="BackgroundImageFix" result="effect1_dropShadow_562_9297"/>
<feBlend mode="normal" in="SourceGraphic" in2="effect1_dropShadow_562_9297" result="shape"/>
</filter>
<filter id="filter2_d_562_9297" x="0.785625" y="0.784648" width="54.4652" height="53.0951" filterUnits="userSpaceOnUse" color-interpolation-filters="sRGB">
<feFlood flood-opacity="0" result="BackgroundImageFix"/>
<feColorMatrix in="SourceAlpha" type="matrix" values="0 0 0 0 0 0 0 0 0 0 0 0 0 0 0 0 0 0 127 0" result="hardAlpha"/>
<feOffset dx="2.73845" dy="2.73845"/>
<feGaussianBlur stdDeviation="5.4769"/>
<feComposite in2="hardAlpha" operator="out"/>
<feColorMatrix type="matrix" values="0 0 0 0 0.00424793 0 0 0 0 0.183507 0 0 0 0 0.0436849 0 0 0 0.1 0"/>
<feBlend mode="normal" in2="BackgroundImageFix" result="effect1_dropShadow_562_9297"/>
<feBlend mode="normal" in="SourceGraphic" in2="effect1_dropShadow_562_9297" result="shape"/>
</filter>
</defs>
</svg>
