<svg width="287" height="214" viewBox="0 0 287 214" fill="none" xmlns="http://www.w3.org/2000/svg">
<mask id="mask0_1_53107" style="mask-type:alpha" maskUnits="userSpaceOnUse" x="128" y="10" width="32" height="29">
<path d="M128.947 12.1166L135.847 10.7591L142.747 12.1166V25.5402H145.953V12.1166L152.476 10.7591L159.414 12.1166V25.5402L157.378 28.1043V38.5868L142.211 26.8907L130.53 35.9473V28.1043L129.236 27.8045L129.236 25.7431L128.947 12.1166Z" fill="#D9D9D9"/>
</mask>
<g mask="url(#mask0_1_53107)">
<path d="M157.077 13.7231H-6.36511V13.9161H157.077V13.7231Z" fill="#002644"/>
<path d="M157.077 17.8839H-6.36511V18.0769H157.077V17.8839Z" fill="#002644"/>
<path d="M157.077 22.0449H-6.36511V22.2379H157.077V22.0449Z" fill="#002644"/>
<path d="M157.077 26.2057H-6.36511V26.3988H157.077V26.2057Z" fill="#002644"/>
<path d="M157.077 30.3666H-6.36511V30.5596H157.077V30.3666Z" fill="#002644"/>
<path d="M157.077 34.5275H-6.36511V34.7205H157.077V34.5275Z" fill="#002644"/>
<path d="M157.077 11.6426H-6.36511V11.8357H157.077V11.6426Z" fill="#002644"/>
<path d="M157.077 15.8035H-6.36511V15.9965H157.077V15.8035Z" fill="#002644"/>
<path d="M157.077 19.9644H-6.36511V20.1574H157.077V19.9644Z" fill="#002644"/>
<path d="M157.077 24.1253H-6.36511V24.3183H157.077V24.1253Z" fill="#002644"/>
<path d="M157.077 28.2862H-6.36511V28.4792H157.077V28.2862Z" fill="#002644"/>
<path d="M157.077 32.4471H-6.36511V32.6401H157.077V32.4471Z" fill="#002644"/>
<path d="M157.077 36.6079H-6.36511V36.8009H157.077V36.6079Z" fill="#002644"/>
<path d="M133.601 -27.5627L133.245 88.7911L133.453 88.7913L133.809 -27.5625L133.601 -27.5627Z" fill="#002644"/>
<path d="M140.125 -27.5559L139.768 88.7979L139.976 88.7981L140.333 -27.5556L140.125 -27.5559Z" fill="#002644"/>
<path d="M146.648 -27.5489L146.292 88.8049L146.5 88.8051L146.856 -27.5487L146.648 -27.5489Z" fill="#002644"/>
<path d="M153.172 -27.5419L152.815 88.8118L153.023 88.812L153.38 -27.5417L153.172 -27.5419Z" fill="#002644"/>
<path d="M156.434 -27.7156L156.077 88.8118L156.285 88.812L156.642 -27.7154L156.434 -27.7156Z" fill="#002644"/>
<path d="M130.339 -27.5662L129.983 88.7875L130.191 88.7878L130.548 -27.566L130.339 -27.5662Z" fill="#002644"/>
<path d="M136.863 -27.5593L136.507 88.7945L136.715 88.7947L137.071 -27.5591L136.863 -27.5593Z" fill="#002644"/>
<path d="M143.387 -27.5523L143.03 88.8015L143.238 88.8017L143.595 -27.5521L143.387 -27.5523Z" fill="#002644"/>
<path d="M149.91 -27.5454L149.553 88.8084L149.761 88.8086L150.118 -27.5451L149.91 -27.5454Z" fill="#002644"/>
<path d="M319.98 13.7231H157.128V13.9161H319.98V13.7231Z" fill="#002644"/>
<path d="M319.98 17.8839H157.128V18.0769H319.98V17.8839Z" fill="#002644"/>
<path d="M319.98 22.0449H157.128V22.2379H319.98V22.0449Z" fill="#002644"/>
<path d="M319.98 26.2057H157.128V26.3988H319.98V26.2057Z" fill="#002644"/>
<path d="M319.98 30.3666H157.128V30.5596H319.98V30.3666Z" fill="#002644"/>
<path d="M319.98 34.5275H157.128V34.7205H319.98V34.5275Z" fill="#002644"/>
<path d="M319.98 11.6426H157.128V11.8357H319.98V11.6426Z" fill="#002644"/>
<path d="M319.98 15.8035H157.128V15.9965H319.98V15.8035Z" fill="#002644"/>
<path d="M319.98 19.9644H157.128V20.1574H319.98V19.9644Z" fill="#002644"/>
<path d="M319.98 24.1253H157.128V24.3183H319.98V24.1253Z" fill="#002644"/>
<path d="M319.98 28.2862H157.128V28.4792H319.98V28.2862Z" fill="#002644"/>
<path d="M319.98 32.4471H157.128V32.6401H319.98V32.4471Z" fill="#002644"/>
<path d="M319.98 36.6079H157.128V36.8009H319.98V36.6079Z" fill="#002644"/>
</g>
<mask id="mask1_1_53107" style="mask-type:alpha" maskUnits="userSpaceOnUse" x="8" y="34" width="270" height="180">
<path d="M61.2157 102.378L142.254 35.2034L223.291 102.378V104.781H224.675V106.609H228.704H277.226V212.841H228.704H56.7514H9.28064V155.931V106.534L56.7514 106.609H59.832V104.781H61.2157V102.378Z" fill="#D9D9D9"/>
<path d="M59.832 104.008V104.781M59.8066 104.781H59.832M277.226 106.534V106.609M224.7 104.781H224.675M224.675 104.781H223.291V102.378L142.254 35.2034L61.2157 102.378V104.781H59.832M224.675 104.781V106.609H228.704M59.832 104.781V106.609H56.7514M228.704 106.609V212.841M228.704 106.609H277.226M228.704 212.841H277.226V106.609M228.704 212.841H56.7514M56.7514 106.609V212.841M56.7514 106.609L9.28064 106.534L9.28064 155.931L9.28064 212.841H56.7514" stroke="#002644"/>
</mask>
<g mask="url(#mask1_1_53107)">
<path d="M221.194 39.2469H-43.2687V39.5592H221.194V39.2469Z" fill="#002644" fill-opacity="0.6"/>
<path d="M221.194 45.9795H-43.2687V46.2918H221.194V45.9795Z" fill="#002644" fill-opacity="0.6"/>
<path d="M221.194 52.7122H-43.2687V53.0245H221.194V52.7122Z" fill="#002644" fill-opacity="0.6"/>
<path d="M221.194 59.4448H-43.2687V59.7571H221.194V59.4448Z" fill="#002644" fill-opacity="0.6"/>
<path d="M221.194 66.1775H-43.2687V66.4898H221.194V66.1775Z" fill="#002644" fill-opacity="0.6"/>
<path d="M221.194 72.9101H-43.2687V73.2224H221.194V72.9101Z" fill="#002644" fill-opacity="0.6"/>
<path d="M221.194 79.6428H-43.2687V79.9551H221.194V79.6428Z" fill="#002644" fill-opacity="0.6"/>
<path d="M221.194 86.3754H-43.2687V86.6877H221.194V86.3754Z" fill="#002644" fill-opacity="0.6"/>
<path d="M221.194 93.108H-43.2687V93.4203H221.194V93.108Z" fill="#002644" fill-opacity="0.6"/>
<path d="M221.194 99.8407H-43.2687V100.153H221.194V99.8407Z" fill="#002644" fill-opacity="0.6"/>
<path d="M221.194 106.573H-43.2687V106.886H221.194V106.573Z" fill="#002644" fill-opacity="0.6"/>
<path d="M221.194 113.306H-43.2687V113.618H221.194V113.306Z" fill="#002644" fill-opacity="0.6"/>
<path d="M221.194 120.039H-43.2687V120.351H221.194V120.039Z" fill="#002644" fill-opacity="0.6"/>
<path d="M221.194 126.771H-43.2687V127.084H221.194V126.771Z" fill="#002644" fill-opacity="0.6"/>
<path d="M221.194 133.504H-43.2687V133.816H221.194V133.504Z" fill="#002644" fill-opacity="0.6"/>
<path d="M221.194 140.237H-43.2687V140.549H221.194V140.237Z" fill="#002644" fill-opacity="0.6"/>
<path d="M221.194 146.969H-43.2687V147.282H221.194V146.969Z" fill="#002644" fill-opacity="0.6"/>
<path d="M221.194 153.702H-43.2687V154.014H221.194V153.702Z" fill="#002644" fill-opacity="0.6"/>
<path d="M221.194 160.435H-43.2687V160.747H221.194V160.435Z" fill="#002644" fill-opacity="0.6"/>
<path d="M221.194 167.167H-43.2687V167.48H221.194V167.167Z" fill="#002644" fill-opacity="0.6"/>
<path d="M221.194 173.9H-43.2687V174.212H221.194V173.9Z" fill="#002644" fill-opacity="0.6"/>
<path d="M221.194 180.633H-43.2687V180.945H221.194V180.633Z" fill="#002644" fill-opacity="0.6"/>
<path d="M221.194 187.365H-43.2687V187.677H221.194V187.365Z" fill="#002644" fill-opacity="0.6"/>
<path d="M221.194 194.098H-43.2687V194.41H221.194V194.098Z" fill="#002644" fill-opacity="0.6"/>
<path d="M221.194 200.83H-43.2687V201.143H221.194V200.83Z" fill="#002644" fill-opacity="0.6"/>
<path d="M221.194 207.563H-43.2687V207.875H221.194V207.563Z" fill="#002644" fill-opacity="0.6"/>
<path d="M221.194 35.8805H-43.2687V36.1928H221.194V35.8805Z" fill="#002644" fill-opacity="0.6"/>
<path d="M221.194 42.6132H-43.2687V42.9255H221.194V42.6132Z" fill="#002644" fill-opacity="0.6"/>
<path d="M221.194 49.3458H-43.2687V49.6581H221.194V49.3458Z" fill="#002644" fill-opacity="0.6"/>
<path d="M221.194 56.0785H-43.2687V56.3908H221.194V56.0785Z" fill="#002644" fill-opacity="0.6"/>
<path d="M221.194 62.8112H-43.2687V63.1235H221.194V62.8112Z" fill="#002644" fill-opacity="0.6"/>
<path d="M221.194 69.5438H-43.2687V69.8561H221.194V69.5438Z" fill="#002644" fill-opacity="0.6"/>
<path d="M221.194 76.2764H-43.2687V76.5887H221.194V76.2764Z" fill="#002644" fill-opacity="0.6"/>
<path d="M221.194 83.0091H-43.2687V83.3214H221.194V83.0091Z" fill="#002644" fill-opacity="0.6"/>
<path d="M221.194 89.7417H-43.2687V90.054H221.194V89.7417Z" fill="#002644" fill-opacity="0.6"/>
<path d="M221.194 96.4744H-43.2687V96.7867H221.194V96.4744Z" fill="#002644" fill-opacity="0.6"/>
<path d="M221.194 103.207H-43.2687V103.519H221.194V103.207Z" fill="#002644" fill-opacity="0.6"/>
<path d="M221.194 109.94H-43.2687V110.252H221.194V109.94Z" fill="#002644" fill-opacity="0.6"/>
<path d="M221.194 116.672H-43.2687V116.985H221.194V116.672Z" fill="#002644" fill-opacity="0.6"/>
<path d="M221.194 123.405H-43.2687V123.717H221.194V123.405Z" fill="#002644" fill-opacity="0.6"/>
<path d="M221.194 130.138H-43.2687V130.45H221.194V130.138Z" fill="#002644" fill-opacity="0.6"/>
<path d="M221.194 136.87H-43.2687V137.183H221.194V136.87Z" fill="#002644" fill-opacity="0.6"/>
<path d="M221.194 143.603H-43.2687V143.915H221.194V143.603Z" fill="#002644" fill-opacity="0.6"/>
<path d="M221.194 150.336H-43.2687V150.648H221.194V150.336Z" fill="#002644" fill-opacity="0.6"/>
<path d="M221.194 157.068H-43.2687V157.381H221.194V157.068Z" fill="#002644" fill-opacity="0.6"/>
<path d="M221.194 163.801H-43.2687V164.113H221.194V163.801Z" fill="#002644" fill-opacity="0.6"/>
<path d="M221.194 170.534H-43.2687V170.846H221.194V170.534Z" fill="#002644" fill-opacity="0.6"/>
<path d="M221.194 177.266H-43.2687V177.578H221.194V177.266Z" fill="#002644" fill-opacity="0.6"/>
<path d="M221.194 183.999H-43.2687V184.311H221.194V183.999Z" fill="#002644" fill-opacity="0.6"/>
<path d="M221.194 190.732H-43.2687V191.044H221.194V190.732Z" fill="#002644" fill-opacity="0.6"/>
<path d="M221.194 197.464H-43.2687V197.776H221.194V197.464Z" fill="#002644" fill-opacity="0.6"/>
<path d="M221.194 204.197H-43.2687V204.509H221.194V204.197Z" fill="#002644" fill-opacity="0.6"/>
<path d="M221.194 210.929H-43.2687V211.242H221.194V210.929Z" fill="#002644" fill-opacity="0.6"/>
<path d="M14.3191 32.8573L13.742 221.127L14.0786 221.127L14.6557 32.8576L14.3191 32.8573Z" fill="#002644" fill-opacity="0.6"/>
<path d="M24.8746 32.8685L24.2975 221.138L24.6341 221.139L25.2112 32.8689L24.8746 32.8685Z" fill="#002644" fill-opacity="0.6"/>
<path d="M35.4303 32.8797L34.8531 221.149L35.1897 221.15L35.7669 32.88L35.4303 32.8797Z" fill="#002644" fill-opacity="0.6"/>
<path d="M45.9859 32.891L45.4087 221.161L45.7453 221.161L46.3225 32.8913L45.9859 32.891Z" fill="#002644" fill-opacity="0.6"/>
<path d="M56.5414 32.9022L55.9642 221.172L56.3008 221.172L56.878 32.9026L56.5414 32.9022Z" fill="#002644" fill-opacity="0.6"/>
<path d="M67.097 32.9135L66.5198 221.183L66.8564 221.183L67.4336 32.9138L67.097 32.9135Z" fill="#002644" fill-opacity="0.6"/>
<path d="M77.6525 32.9246L77.0753 221.194L77.4119 221.195L77.9891 32.925L77.6525 32.9246Z" fill="#002644" fill-opacity="0.6"/>
<path d="M88.2081 32.9359L87.631 221.206L87.9676 221.206L88.5448 32.9362L88.2081 32.9359Z" fill="#002644" fill-opacity="0.6"/>
<path d="M98.7636 32.9472L98.1864 221.217L98.523 221.217L99.1002 32.9475L98.7636 32.9472Z" fill="#002644" fill-opacity="0.6"/>
<path d="M109.319 32.9584L108.742 221.228L109.079 221.228L109.656 32.9588L109.319 32.9584Z" fill="#002644" fill-opacity="0.6"/>
<path d="M119.875 32.9696L119.298 221.239L119.634 221.24L120.211 32.9699L119.875 32.9696Z" fill="#002644" fill-opacity="0.6"/>
<path d="M130.43 32.9808L129.853 221.251L130.19 221.251L130.767 32.9812L130.43 32.9808Z" fill="#002644" fill-opacity="0.6"/>
<path d="M140.986 32.9921L140.409 221.262L140.745 221.262L141.323 32.9924L140.986 32.9921Z" fill="#002644" fill-opacity="0.6"/>
<path d="M151.541 33.0034L150.964 221.273L151.301 221.273L151.878 33.0037L151.541 33.0034Z" fill="#002644" fill-opacity="0.6"/>
<path d="M162.097 33.0145L161.52 221.284L161.857 221.285L162.434 33.0149L162.097 33.0145Z" fill="#002644" fill-opacity="0.6"/>
<path d="M172.653 33.0258L172.075 221.295L172.412 221.296L172.989 33.0261L172.653 33.0258Z" fill="#002644" fill-opacity="0.6"/>
<path d="M183.208 33.037L182.631 221.307L182.968 221.307L183.545 33.0374L183.208 33.037Z" fill="#002644" fill-opacity="0.6"/>
<path d="M193.764 33.0482L193.186 221.318L193.523 221.318L194.1 33.0486L193.764 33.0482Z" fill="#002644" fill-opacity="0.6"/>
<path d="M204.319 33.0595L203.742 221.329L204.079 221.329L204.656 33.0598L204.319 33.0595Z" fill="#002644" fill-opacity="0.6"/>
<path d="M214.875 33.0707L214.298 221.34L214.634 221.341L215.212 33.071L214.875 33.0707Z" fill="#002644" fill-opacity="0.6"/>
<path d="M220.154 32.7897L219.576 221.34L219.912 221.341L220.49 32.7901L220.154 32.7897Z" fill="#002644" fill-opacity="0.6"/>
<path d="M9.04124 32.8517L8.46408 221.121L8.80069 221.122L9.37785 32.8521L9.04124 32.8517Z" fill="#002644" fill-opacity="0.6"/>
<path d="M19.597 32.8629L19.0199 221.133L19.3565 221.133L19.9336 32.8632L19.597 32.8629Z" fill="#002644" fill-opacity="0.6"/>
<path d="M30.1525 32.8741L29.5753 221.144L29.912 221.144L30.4891 32.8745L30.1525 32.8741Z" fill="#002644" fill-opacity="0.6"/>
<path d="M40.708 32.8854L40.1308 221.155L40.4674 221.155L41.0446 32.8857L40.708 32.8854Z" fill="#002644" fill-opacity="0.6"/>
<path d="M51.2636 32.8967L50.6864 221.166L51.0231 221.167L51.6002 32.897L51.2636 32.8967Z" fill="#002644" fill-opacity="0.6"/>
<path d="M61.8193 32.9078L61.2421 221.177L61.5787 221.178L62.1559 32.9082L61.8193 32.9078Z" fill="#002644" fill-opacity="0.6"/>
<path d="M72.3747 32.9191L71.7975 221.189L72.1342 221.189L72.7113 32.9194L72.3747 32.9191Z" fill="#002644" fill-opacity="0.6"/>
<path d="M82.9302 32.9303L82.353 221.2L82.6896 221.2L83.2668 32.9307L82.9302 32.9303Z" fill="#002644" fill-opacity="0.6"/>
<path d="M93.4859 32.9415L92.9087 221.211L93.2453 221.212L93.8225 32.9419L93.4859 32.9415Z" fill="#002644" fill-opacity="0.6"/>
<path d="M104.041 32.9528L103.464 221.222L103.801 221.223L104.378 32.9531L104.041 32.9528Z" fill="#002644" fill-opacity="0.6"/>
<path d="M114.597 32.964L114.02 221.234L114.356 221.234L114.934 32.9643L114.597 32.964Z" fill="#002644" fill-opacity="0.6"/>
<path d="M125.153 32.9752L124.575 221.245L124.912 221.245L125.489 32.9756L125.153 32.9752Z" fill="#002644" fill-opacity="0.6"/>
<path d="M135.708 32.9864L135.131 221.256L135.468 221.256L136.045 32.9868L135.708 32.9864Z" fill="#002644" fill-opacity="0.6"/>
<path d="M146.264 32.9977L145.687 221.267L146.023 221.268L146.6 32.998L146.264 32.9977Z" fill="#002644" fill-opacity="0.6"/>
<path d="M156.819 33.0089L156.242 221.279L156.579 221.279L157.156 33.0093L156.819 33.0089Z" fill="#002644" fill-opacity="0.6"/>
<path d="M167.375 33.0202L166.798 221.29L167.134 221.29L167.711 33.0205L167.375 33.0202Z" fill="#002644" fill-opacity="0.6"/>
<path d="M177.93 33.0313L177.353 221.301L177.69 221.301L178.267 33.0317L177.93 33.0313Z" fill="#002644" fill-opacity="0.6"/>
<path d="M188.486 33.0426L187.909 221.312L188.246 221.313L188.823 33.043L188.486 33.0426Z" fill="#002644" fill-opacity="0.6"/>
<path d="M199.042 33.0539L198.464 221.324L198.801 221.324L199.378 33.0542L199.042 33.0539Z" fill="#002644" fill-opacity="0.6"/>
<path d="M209.597 33.0651L209.02 221.335L209.356 221.335L209.934 33.0655L209.597 33.0651Z" fill="#002644" fill-opacity="0.6"/>
<path d="M113.177 109.826H114.536L115.514 137.183H113.177V109.826Z" fill="#002644" fill-opacity="0.5"/>
<path d="M200.392 109.826H201.75L202.729 137.183H200.392V109.826Z" fill="#002644" fill-opacity="0.5"/>
<path d="M53.7401 169.454H55.2288L56.3008 212.687H53.7401V169.454Z" fill="#002644" fill-opacity="0.5"/>
<path d="M9.28064 162.755H56.4211V165.984L9.28064 164.008V162.755Z" fill="#002644" fill-opacity="0.5"/>
<path d="M7.16248 107.023H56.4211V109.94L7.16248 108.155V107.023Z" fill="#002644" fill-opacity="0.5"/>
<path d="M215.396 135.856H216.506L219.38 212.687H215.857L215.396 135.856Z" fill="#002644" fill-opacity="0.3"/>
<path d="M61.3618 101.344L141.957 35.4309L148.049 39.9605L61.3618 102.438L61.3618 101.344Z" fill="#002644" fill-opacity="0.5"/>
<path d="M484.784 39.2469H221.276V39.5592H484.784V39.2469Z" fill="#002644" fill-opacity="0.6"/>
<path d="M484.784 45.9795H221.276V46.2918H484.784V45.9795Z" fill="#002644" fill-opacity="0.6"/>
<path d="M484.784 52.7122H221.276V53.0245H484.784V52.7122Z" fill="#002644" fill-opacity="0.6"/>
<path d="M484.784 59.4448H221.276V59.7571H484.784V59.4448Z" fill="#002644" fill-opacity="0.6"/>
<path d="M484.784 66.1775H221.276V66.4898H484.784V66.1775Z" fill="#002644" fill-opacity="0.6"/>
<path d="M484.784 72.9101H221.276V73.2224H484.784V72.9101Z" fill="#002644" fill-opacity="0.6"/>
<path d="M484.784 79.6428H221.276V79.9551H484.784V79.6428Z" fill="#002644" fill-opacity="0.6"/>
<path d="M484.784 86.3754H221.276V86.6877H484.784V86.3754Z" fill="#002644" fill-opacity="0.6"/>
<path d="M484.784 93.108H221.276V93.4203H484.784V93.108Z" fill="#002644" fill-opacity="0.6"/>
<path d="M484.784 99.8407H221.276V100.153H484.784V99.8407Z" fill="#002644" fill-opacity="0.6"/>
<path d="M484.784 106.573H221.276V106.886H484.784V106.573Z" fill="#002644" fill-opacity="0.6"/>
<path d="M484.784 113.306H221.276V113.618H484.784V113.306Z" fill="#002644" fill-opacity="0.6"/>
<path d="M484.784 120.039H221.276V120.351H484.784V120.039Z" fill="#002644" fill-opacity="0.6"/>
<path d="M484.784 126.771H221.276V127.084H484.784V126.771Z" fill="#002644" fill-opacity="0.6"/>
<path d="M484.784 133.504H221.276V133.816H484.784V133.504Z" fill="#002644" fill-opacity="0.6"/>
<path d="M484.784 140.237H221.276V140.549H484.784V140.237Z" fill="#002644" fill-opacity="0.6"/>
<path d="M484.784 146.969H221.276V147.282H484.784V146.969Z" fill="#002644" fill-opacity="0.6"/>
<path d="M484.784 153.702H221.276V154.014H484.784V153.702Z" fill="#002644" fill-opacity="0.6"/>
<path d="M484.784 160.435H221.276V160.747H484.784V160.435Z" fill="#002644" fill-opacity="0.6"/>
<path d="M484.784 167.167H221.276V167.48H484.784V167.167Z" fill="#002644" fill-opacity="0.6"/>
<path d="M484.784 173.9H221.276V174.212H484.784V173.9Z" fill="#002644" fill-opacity="0.6"/>
<path d="M484.784 180.633H221.276V180.945H484.784V180.633Z" fill="#002644" fill-opacity="0.6"/>
<path d="M484.784 187.365H221.276V187.677H484.784V187.365Z" fill="#002644" fill-opacity="0.6"/>
<path d="M484.784 194.098H221.276V194.41H484.784V194.098Z" fill="#002644" fill-opacity="0.6"/>
<path d="M484.784 200.83H221.276V201.143H484.784V200.83Z" fill="#002644" fill-opacity="0.6"/>
<path d="M484.784 207.563H221.276V207.875H484.784V207.563Z" fill="#002644" fill-opacity="0.6"/>
<path d="M484.784 35.8805H221.276V36.1928H484.784V35.8805Z" fill="#002644" fill-opacity="0.6"/>
<path d="M484.784 42.6132H221.276V42.9255H484.784V42.6132Z" fill="#002644" fill-opacity="0.6"/>
<path d="M484.784 49.3458H221.276V49.6581H484.784V49.3458Z" fill="#002644" fill-opacity="0.6"/>
<path d="M484.784 56.0785H221.276V56.3908H484.784V56.0785Z" fill="#002644" fill-opacity="0.6"/>
<path d="M484.784 62.8112H221.276V63.1235H484.784V62.8112Z" fill="#002644" fill-opacity="0.6"/>
<path d="M484.784 69.5438H221.276V69.8561H484.784V69.5438Z" fill="#002644" fill-opacity="0.6"/>
<path d="M484.784 76.2764H221.276V76.5887H484.784V76.2764Z" fill="#002644" fill-opacity="0.6"/>
<path d="M484.784 83.0091H221.276V83.3214H484.784V83.0091Z" fill="#002644" fill-opacity="0.6"/>
<path d="M484.784 89.7417H221.276V90.054H484.784V89.7417Z" fill="#002644" fill-opacity="0.6"/>
<path d="M484.784 96.4744H221.276V96.7867H484.784V96.4744Z" fill="#002644" fill-opacity="0.6"/>
<path d="M484.784 103.207H221.276V103.519H484.784V103.207Z" fill="#002644" fill-opacity="0.6"/>
<path d="M484.784 109.94H221.276V110.252H484.784V109.94Z" fill="#002644" fill-opacity="0.6"/>
<path d="M484.784 116.672H221.276V116.985H484.784V116.672Z" fill="#002644" fill-opacity="0.6"/>
<path d="M484.784 123.405H221.276V123.717H484.784V123.405Z" fill="#002644" fill-opacity="0.6"/>
<path d="M484.784 130.138H221.276V130.45H484.784V130.138Z" fill="#002644" fill-opacity="0.6"/>
<path d="M484.784 136.87H221.276V137.183H484.784V136.87Z" fill="#002644" fill-opacity="0.6"/>
<path d="M484.784 143.603H221.276V143.915H484.784V143.603Z" fill="#002644" fill-opacity="0.6"/>
<path d="M484.784 150.336H221.276V150.648H484.784V150.336Z" fill="#002644" fill-opacity="0.6"/>
<path d="M484.784 157.068H221.276V157.381H484.784V157.068Z" fill="#002644" fill-opacity="0.6"/>
<path d="M484.784 163.801H221.276V164.113H484.784V163.801Z" fill="#002644" fill-opacity="0.6"/>
<path d="M484.784 170.534H221.276V170.846H484.784V170.534Z" fill="#002644" fill-opacity="0.6"/>
<path d="M484.784 177.266H221.276V177.578H484.784V177.266Z" fill="#002644" fill-opacity="0.6"/>
<path d="M484.784 183.999H221.276V184.311H484.784V183.999Z" fill="#002644" fill-opacity="0.6"/>
<path d="M484.784 190.732H221.276V191.044H484.784V190.732Z" fill="#002644" fill-opacity="0.6"/>
<path d="M484.784 197.464H221.276V197.776H484.784V197.464Z" fill="#002644" fill-opacity="0.6"/>
<path d="M484.784 204.197H221.276V204.509H484.784V204.197Z" fill="#002644" fill-opacity="0.6"/>
<path d="M484.784 210.929H221.276V211.242H484.784V210.929Z" fill="#002644" fill-opacity="0.6"/>
<path d="M226.069 32.8011L225.494 221.071L225.829 221.071L226.404 32.8014L226.069 32.8011Z" fill="#002644" fill-opacity="0.6"/>
<path d="M236.587 32.8123L236.011 221.082L236.347 221.082L236.922 32.8127L236.587 32.8123Z" fill="#002644" fill-opacity="0.6"/>
<path d="M247.104 32.8236L246.529 221.093L246.864 221.094L247.439 32.824L247.104 32.8236Z" fill="#002644" fill-opacity="0.6"/>
<path d="M257.621 32.8348L257.046 221.105L257.382 221.105L257.957 32.8352L257.621 32.8348Z" fill="#002644" fill-opacity="0.6"/>
<path d="M268.139 32.846L267.564 221.116L267.899 221.116L268.474 32.8464L268.139 32.846Z" fill="#002644" fill-opacity="0.6"/>
<path d="M231.328 32.8067L230.753 221.076L231.088 221.077L231.663 32.8071L231.328 32.8067Z" fill="#002644" fill-opacity="0.6"/>
<path d="M241.845 32.8179L241.27 221.088L241.605 221.088L242.181 32.8183L241.845 32.8179Z" fill="#002644" fill-opacity="0.6"/>
<path d="M252.363 32.8292L251.788 221.099L252.123 221.099L252.698 32.8295L252.363 32.8292Z" fill="#002644" fill-opacity="0.6"/>
<path d="M262.88 32.8404L262.305 221.11L262.64 221.11L263.215 32.8408L262.88 32.8404Z" fill="#002644" fill-opacity="0.6"/>
<path d="M273.397 32.8517L272.822 221.121L273.158 221.122L273.733 32.8521L273.397 32.8517Z" fill="#002644" fill-opacity="0.6"/>
<path d="M270.66 169.454H271.591L272.261 212.687H270.66V169.454Z" fill="#002644" fill-opacity="0.5"/>
<path d="M230.753 162.755H277.893V165.984L230.753 164.008V162.755Z" fill="#002644" fill-opacity="0.5"/>
<path d="M228.634 107.023H277.893V109.94L228.634 108.155V107.023Z" fill="#002644" fill-opacity="0.5"/>
</g>
<path d="M120.493 170.846H121.385L122.028 209.06H120.493V170.846Z" fill="#002644" fill-opacity="0.5"/>
<path d="M121.503 209.06H122.233L122.758 211.476H121.503V209.06Z" fill="#002644" fill-opacity="0.5"/>
<path d="M206.647 170.846H208.15L209.233 209.06H206.647V170.846Z" fill="#002644" fill-opacity="0.5"/>
<path d="M208.349 209.06H209.578L210.464 211.476H208.349V209.06Z" fill="#002644" fill-opacity="0.5"/>
<path d="M157.532 38.964V29.8231V28.1805H130.541V29.8231V36.3001" stroke="#002644" stroke-width="0.6"/>
<path d="M135.977 10.8398V25.7695" stroke="#002644" stroke-width="0.4"/>
<rect x="166.123" y="170.801" width="40.5238" height="38.4599" fill="#F3F7FC" stroke="#002644" stroke-width="0.4"/>
<rect x="167.131" y="171.758" width="38.8482" height="36.5465" fill="#F3F7FC" stroke="#002644" stroke-width="0.4"/>
<path d="M152.579 10.8398V25.7695" stroke="#002644" stroke-width="0.4"/>
<path d="M128.832 29.6305V27.8659H127.714V25.9322H160.542V27.8659H159.56V29.6305H157.637V27.8659H130.411V29.6305H128.832Z" fill="#F3F7FC"/>
<path d="M128.832 27.8659V29.6305H130.411V27.8659M128.832 27.8659H127.714V25.9322H160.542V27.8659H159.56M128.832 27.8659H130.411M159.56 27.8659V29.6305H157.637V27.8659M159.56 27.8659H157.637M157.637 27.8659H130.411" stroke="#002644" stroke-width="0.6"/>
<path d="M2.42756 104.008H48.3509V102.551H50.6043V101.439L125.629 40.2892H20.4625L2.42756 104.008Z" fill="#5E7B91"/>
<path d="M236.156 104.008H284.064L264.045 40.2892H158.878L233.903 101.439V102.551H236.156V104.008Z" fill="#5E7B91"/>
<path d="M224.675 104.008H231.684V102.378L142.254 30.1794V35.2034L223.291 102.378V104.781H224.675V104.008Z" fill="#F3F7FC"/>
<path d="M52.8226 104.008H59.832V104.781H61.2157V102.378L142.254 35.2034V30.1794L52.8226 102.378V104.008Z" fill="#F3F7FC"/>
<path d="M125.629 40.2892L50.6043 101.439V102.551H48.3509V104.008H52.8226V102.378L142.254 30.1794L231.684 102.378V104.008H236.156V102.551H233.903V101.439L158.878 40.2892L143.058 27.6484L142.272 27.0204L141.484 27.6484L130.543 36.3713L125.629 40.2892Z" fill="#F3F7FC"/>
<path d="M9.28063 106.534L9.28064 155.931M125.629 40.2892H20.4625L2.42756 104.008H48.3509M125.629 40.2892L50.6043 101.439V102.551H48.3509V104.008M125.629 40.2892L130.543 36.3713M48.3509 104.008H52.8226M142.272 27.0204L158.878 40.2892M142.272 27.0204L143.058 27.6484L158.878 40.2892M142.272 27.0204L141.484 27.6484L130.543 36.3713M142.272 27.0204L130.543 36.3713M142.254 30.1794L52.8226 102.378V104.008M142.254 30.1794V35.2034M142.254 30.1794L231.684 102.378V104.008M142.254 35.2034L61.2157 102.378V104.781H59.832M142.254 35.2034L223.291 102.378V104.781H224.675M59.8066 104.781H59.832M277.226 106.534V212.841H228.704M158.878 40.2892H264.045L284.064 104.008H236.156M158.878 40.2892L233.903 101.439V102.551H236.156V104.008M236.156 104.008H231.684M224.7 104.781H224.675M130.543 36.4715V36.3713M9.28064 162.747L9.28063 212.841H56.7514M231.684 104.008H224.675V104.781M231.684 104.008H285.588V106.609H228.704M224.675 104.781V106.609H228.704M52.8226 104.008H59.832V104.781M52.8226 104.008H0.918823V106.609H56.7514M59.832 104.781V106.609H56.7514M228.704 106.609V212.841M228.704 212.841H56.7514M56.7514 106.609V212.841" stroke="#002644"/>
<path d="M2.42756 104.008H48.3509V102.551H50.6043V101.439L125.629 40.2892H20.4625L2.42756 104.008Z" fill="#5E7B91"/>
<path d="M236.156 104.008H284.064L264.045 40.2892H158.878L233.903 101.439V102.551H236.156V104.008Z" fill="#5E7B91"/>
<path d="M224.675 104.008H231.684V102.378L142.254 30.1794V35.2034L223.291 102.378V104.781H224.675V104.008Z" fill="#F3F7FC"/>
<path d="M52.8226 104.008H59.832V104.781H61.2157V102.378L142.254 35.2034V30.1794L52.8226 102.378V104.008Z" fill="#F3F7FC"/>
<path d="M125.629 40.2892L50.6043 101.439V102.551H48.3509V104.008H52.8226V102.378L142.254 30.1794L231.684 102.378V104.008H236.156V102.551H233.903V101.439L158.878 40.2892L143.058 27.6484L142.272 27.0204L141.484 27.6484L130.543 36.3713L125.629 40.2892Z" fill="#F3F7FC"/>
<path d="M9.28063 106.534L9.28064 155.931M125.629 40.2892H20.4625L2.42756 104.008H48.3509M125.629 40.2892L50.6043 101.439V102.551H48.3509V104.008M125.629 40.2892L130.543 36.3713M48.3509 104.008H52.8226M142.272 27.0204L158.878 40.2892M142.272 27.0204L143.058 27.6484L158.878 40.2892M142.272 27.0204L141.484 27.6484L130.543 36.3713M142.272 27.0204L130.543 36.3713M142.254 30.1794L52.8226 102.378V104.008M142.254 30.1794V35.2034M142.254 30.1794L231.684 102.378V104.008M142.254 35.2034L61.2157 102.378V104.781H59.832M142.254 35.2034L223.291 102.378V104.781H224.675M59.8066 104.781H59.832M277.226 106.534V212.841H228.704M158.878 40.2892H264.045L284.064 104.008H236.156M158.878 40.2892L233.903 101.439V102.551H236.156V104.008M236.156 104.008H231.684M224.7 104.781H224.675M130.543 36.4715V36.3713M9.28064 162.747L9.28063 212.841H56.7514M231.684 104.008H224.675V104.781M231.684 104.008H285.588V106.609H228.704M224.675 104.781V106.609H228.704M52.8226 104.008H59.832V104.781M52.8226 104.008H0.918823V106.609H56.7514M59.832 104.781V106.609H56.7514M228.704 106.609V212.841M228.704 212.841H56.7514M56.7514 106.609V212.841" stroke="#002644"/>
<path d="M129.185 25.916V12.1247L135.582 10.4215L142.685 11.9169V25.916" stroke="#002644" stroke-width="0.6"/>
<path d="M145.828 25.916V12.1247L152.225 10.4215L159.329 11.9169V25.916" stroke="#002644" stroke-width="0.6"/>
<path d="M128.096 18.7487L135.975 17.4945L143.774 18.7487V20.1864L135.975 19.0546L128.096 20.1864V18.7487Z" fill="#F3F7FC" stroke="#002644" stroke-width="0.6"/>
<path d="M144.74 18.7487L152.619 17.4945L160.417 18.7487V20.1864L152.619 19.0546L144.74 20.1864V18.7487Z" fill="#F3F7FC" stroke="#002644" stroke-width="0.6"/>
<path d="M128.096 16.0569L135.975 14.8027L143.774 16.0569V17.4945L135.975 16.3627L128.096 17.4945V16.0569Z" fill="#F3F7FC" stroke="#002644" stroke-width="0.6"/>
<path d="M144.74 16.0569L152.619 14.8027L160.417 16.0569V17.4945L152.619 16.3627L144.74 17.4945V16.0569Z" fill="#F3F7FC" stroke="#002644" stroke-width="0.6"/>
<rect x="133.568" y="2.02795" width="4.7337" height="7.71143" fill="#F3F7FC" stroke="#002644" stroke-width="0.6"/>
<rect x="150.212" y="2.02795" width="4.7337" height="7.71143" fill="#F3F7FC" stroke="#002644" stroke-width="0.6"/>
<path d="M127.13 10.4034L135.98 8.82803L144.74 10.4034V12.2093L135.98 10.7876L127.13 12.2093V10.4034Z" fill="#F3F7FC" stroke="#002644" stroke-width="0.6"/>
<path d="M143.774 10.4034L152.624 8.82803L161.384 10.4034V12.2093L152.624 10.7876L143.774 12.2093V10.4034Z" fill="#F3F7FC" stroke="#002644" stroke-width="0.6"/>
<path d="M135.935 0.399139C134.853 0.399139 133.975 1.00305 133.975 1.748H137.895C137.895 1.00305 137.017 0.399139 135.935 0.399139Z" fill="#F3F7FC" stroke="#002644" stroke-width="0.6"/>
<path d="M152.579 0.399139C151.496 0.399139 150.619 1.00305 150.619 1.748H154.538C154.538 1.00305 153.661 0.399139 152.579 0.399139Z" fill="#F3F7FC" stroke="#002644" stroke-width="0.6"/>
<circle cx="142.685" cy="69.0746" r="14.0407" fill="#F3F7FC" stroke="#002644" stroke-width="0.6"/>
<circle cx="142.685" cy="69.0746" r="11.8933" stroke="#002644" stroke-width="0.6"/>
<mask id="mask2_1_53107" style="mask-type:alpha" maskUnits="userSpaceOnUse" x="130" y="56" width="25" height="26">
<circle cx="142.685" cy="69.0746" r="11.8933" fill="#D9D9D9" stroke="#002644" stroke-width="0.6"/>
</mask>
<g mask="url(#mask2_1_53107)">
<path d="M135.804 61.1291H153.735V62.8708H137.277C136.463 62.8708 135.804 62.2112 135.804 61.3976V61.1291Z" fill="#002644"/>
<path d="M139.02 58.7628H153.735V60.4845H140.493C139.679 60.4845 139.02 59.825 139.02 59.0114V58.7628Z" fill="#002644"/>
<path d="M135.94 75.2595H153.735V77.1881H137.413C136.6 77.1881 135.94 76.5286 135.94 75.715V75.2595Z" fill="#002644"/>
<path d="M138.039 77.7597H153.735V79.5742H139.512C138.698 79.5742 138.039 78.9146 138.039 78.101V77.7597Z" fill="#002644"/>
<path d="M133.76 63.3614H157.065V65.257H135.233C134.42 65.257 133.76 64.5974 133.76 63.7839V63.3614Z" fill="#002644"/>
<path d="M133.76 72.9602H157.065V74.8019H135.233C134.42 74.8019 133.76 74.1424 133.76 73.3288V72.9602Z" fill="#002644"/>
<path d="M132.479 65.9062H157.065V67.6432H133.952C133.139 67.6432 132.479 66.9837 132.479 66.1701V65.9062Z" fill="#002644"/>
<path d="M132.343 70.5717H157.065V72.4157H133.816C133.002 72.4157 132.343 71.7561 132.343 70.9426V70.5717Z" fill="#002644"/>
<path d="M131.689 68.2947H157.065V70.0294H133.162C132.349 70.0294 131.689 69.3699 131.689 68.5563V68.2947Z" fill="#002644"/>
</g>
<rect x="25.9826" y="109.826" width="19.9033" height="27.4474" fill="#F3F7FC" stroke="#002644" stroke-width="0.6"/>
<rect x="27.7968" y="111.176" width="16.2749" height="25.6361" stroke="#002644" stroke-width="0.6"/>
<rect x="29.611" y="112.527" width="13.0467" height="19.5689" stroke="#002644" stroke-width="0.6"/>
<rect x="24.382" y="137.273" width="22.0128" height="1.90427" fill="#F3F7FC" stroke="#002644" stroke-width="0.6"/>
<path d="M36.7514 112.727H42.3691V127.388H37.785C37.2141 127.388 36.7514 126.925 36.7514 126.354V112.727Z" fill="#002644"/>
<path d="M30.527 112.727H36.3085V127.388H31.5605C30.9897 127.388 30.527 126.925 30.527 126.354V112.727Z" fill="#002644"/>
<path d="M36.7514 128.043H42.3691V130.795H37.785C37.2141 130.795 36.7514 130.332 36.7514 129.761V128.043Z" fill="#002644"/>
<path d="M30.527 128.043H36.3085V130.795H31.5605C30.9897 130.795 30.527 130.332 30.527 129.761V128.043Z" fill="#002644"/>
<rect x="17.2749" y="169.701" width="36.6524" height="42.8331" stroke="#002644" stroke-width="0.6"/>
<rect x="233.924" y="169.701" width="36.6524" height="42.8331" stroke="#002644" stroke-width="0.6"/>
<rect x="17.2749" y="169.701" width="36.6524" height="42.8331" fill="#F3F7FC" stroke="#002644" stroke-width="0.6"/>
<rect x="233.924" y="169.701" width="36.6524" height="42.8331" fill="#F3F7FC" stroke="#002644" stroke-width="0.4"/>
<rect x="17.2749" y="170.801" width="36.6524" height="41.7327" fill="#F3F7FC" stroke="#002644" stroke-width="0.6"/>
<rect x="233.924" y="170.632" width="36.6524" height="41.9023" fill="#F3F7FC" stroke="#002644" stroke-width="0.4"/>
<rect x="19.2986" y="170.801" width="33.0824" height="41.7327" fill="#F3F7FC" stroke="#002644" stroke-width="0.6"/>
<rect x="235.948" y="170.801" width="33.0824" height="41.7327" stroke="#002644" stroke-width="0.6"/>
<rect x="19.2986" y="194.849" width="7.36548" height="2.74646" fill="#F3F7FC" stroke="#002644" stroke-width="0.4"/>
<rect x="235.948" y="194.849" width="7.36548" height="2.74646" fill="#F3F7FC" stroke="#002644" stroke-width="0.4"/>
<rect x="20.3597" y="171.758" width="5.24316" height="22.1489" stroke="#002644" stroke-width="0.4"/>
<rect x="237.009" y="171.758" width="5.24316" height="22.1489" stroke="#002644" stroke-width="0.4"/>
<rect x="20.3597" y="198.537" width="5.24316" height="12.7664" stroke="#002644" stroke-width="0.4"/>
<rect x="237.009" y="198.537" width="5.24316" height="12.7664" stroke="#002644" stroke-width="0.4"/>
<rect x="46.8256" y="198.537" width="4.55664" height="12.7664" stroke="#002644" stroke-width="0.4"/>
<rect x="263.475" y="198.537" width="4.55664" height="12.7664" stroke="#002644" stroke-width="0.4"/>
<rect x="46.8256" y="171.758" width="4.55664" height="22.1485" stroke="#002644" stroke-width="0.4"/>
<rect x="263.475" y="171.758" width="4.55664" height="22.1485" stroke="#002644" stroke-width="0.4"/>
<rect x="45.8269" y="194.849" width="6.55408" height="2.74646" fill="#F3F7FC" stroke="#002644" stroke-width="0.4"/>
<rect x="262.476" y="194.849" width="6.55408" height="2.74646" fill="#F3F7FC" stroke="#002644" stroke-width="0.4"/>
<rect x="26.6641" y="171.758" width="19.1628" height="39.5454" fill="#F3F7FC" stroke="#002644" stroke-width="0.6"/>
<rect x="243.313" y="171.758" width="19.1628" height="39.5454" stroke="#002644" stroke-width="0.6"/>
<rect x="85.575" y="110.034" width="27.6019" height="27.4474" fill="#F3F7FC" stroke="#002644" stroke-width="0.6"/>
<rect x="172.754" y="110.034" width="27.6019" height="27.4474" fill="#F3F7FC" stroke="#002644" stroke-width="0.6"/>
<rect x="79.9269" y="170.801" width="40.5238" height="38.4599" fill="#F3F7FC" stroke="#002644" stroke-width="0.6"/>
<rect x="86.7646" y="111.11" width="24.5061" height="25.9105" stroke="#002644" stroke-width="0.6"/>
<rect x="173.944" y="111.11" width="24.5061" height="25.9105" stroke="#002644" stroke-width="0.6"/>
<path d="M99.4958 113.351H89.4541V132.304H99.4958M99.4958 113.351H108.166V132.304H99.4958M99.4958 113.351V132.304" stroke="#002644" stroke-width="0.6"/>
<path d="M186.675 113.351H176.633V132.304H186.675M186.675 113.351H195.345V132.304H186.675M186.675 113.351V132.304" stroke="#002644" stroke-width="0.6"/>
<rect x="82.5046" y="137.481" width="33.4681" height="1.66266" fill="#F3F7FC" stroke="#002644" stroke-width="0.6"/>
<rect x="169.684" y="137.481" width="33.4681" height="1.66266" fill="#F3F7FC" stroke="#002644" stroke-width="0.6"/>
<path d="M100.444 113.351H107.788V120.72H101.478C100.907 120.72 100.444 120.257 100.444 119.686V113.351Z" fill="#002644"/>
<path d="M108.612 172.633H118.318V180.231H109.646C109.075 180.231 108.612 179.769 108.612 179.198V172.633Z" fill="#002644"/>
<path d="M194.808 172.633H204.514V180.231H195.842C195.271 180.231 194.808 179.769 194.808 179.198V172.633Z" fill="#002644"/>
<path d="M82.6263 172.633H92.0841V180.231H83.6599C83.0891 180.231 82.6263 179.769 82.6263 179.198V172.633Z" fill="#002644"/>
<path d="M168.822 172.633H178.28V180.231H169.856C169.285 180.231 168.822 179.769 168.822 179.198V172.633Z" fill="#002644"/>
<path d="M94.4791 172.633H105.6V180.231H95.5126C94.9418 180.231 94.4791 179.769 94.4791 179.198V172.633Z" fill="#002644"/>
<path d="M180.675 172.633H191.796V180.231H181.709C181.138 180.231 180.675 179.769 180.675 179.198V172.633Z" fill="#002644"/>
<path d="M187.623 113.351H194.967V120.72H188.657C188.086 120.72 187.623 120.257 187.623 119.686V113.351Z" fill="#002644"/>
<path d="M90.9192 113.351H99.2387V120.72H91.9527C91.3819 120.72 90.9192 120.257 90.9192 119.686V113.351Z" fill="#002644"/>
<path d="M100.444 121.068H107.788V126.02H101.478C100.907 126.02 100.444 125.557 100.444 124.986V121.068Z" fill="#002644"/>
<path d="M178.098 113.351H186.418V120.72H179.132C178.561 120.72 178.098 120.257 178.098 119.686V113.351Z" fill="#002644"/>
<path d="M100.444 126.368H107.788V131.319H101.478C100.907 131.319 100.444 130.857 100.444 130.286V126.368Z" fill="#002644"/>
<path d="M108.612 180.59H118.318V185.696H109.646C109.075 185.696 108.612 185.233 108.612 184.662V180.59Z" fill="#002644"/>
<path d="M194.808 180.59H204.514V185.696H195.842C195.271 185.696 194.808 185.233 194.808 184.662V180.59Z" fill="#002644"/>
<path d="M82.6263 180.59H92.0841V185.696H83.6599C83.0891 185.696 82.6263 185.233 82.6263 184.662V180.59Z" fill="#002644"/>
<path d="M168.822 180.59H178.28V185.696H169.856C169.285 185.696 168.822 185.233 168.822 184.662V180.59Z" fill="#002644"/>
<path d="M94.4791 180.59H105.6V185.696H95.5126C94.9418 185.696 94.4791 185.233 94.4791 184.662V180.59Z" fill="#002644"/>
<path d="M180.675 180.59H191.796V185.696H181.709C181.138 185.696 180.675 185.233 180.675 184.662V180.59Z" fill="#002644"/>
<path d="M187.623 121.068H194.967V126.02H188.657C188.086 126.02 187.623 125.557 187.623 124.986V121.068Z" fill="#002644"/>
<path d="M108.612 186.055H118.318V191.16H109.646C109.075 191.16 108.612 190.698 108.612 190.127V186.055Z" fill="#002644"/>
<path d="M194.808 186.055H204.514V191.16H195.842C195.271 191.16 194.808 190.698 194.808 190.127V186.055Z" fill="#002644"/>
<path d="M82.6263 186.055H92.0841V191.16H83.6599C83.0891 191.16 82.6263 190.698 82.6263 190.127V186.055Z" fill="#002644"/>
<path d="M168.822 186.055H178.28V191.16H169.856C169.285 191.16 168.822 190.698 168.822 190.127V186.055Z" fill="#002644"/>
<path d="M94.4791 186.055H105.6V191.16H95.5126C94.9418 191.16 94.4791 190.698 94.4791 190.127V186.055Z" fill="#002644"/>
<path d="M180.675 186.055H191.796V191.16H181.709C181.138 191.16 180.675 190.698 180.675 190.127V186.055Z" fill="#002644"/>
<path d="M94.4791 199.607H105.6V202.88H95.5126C94.9418 202.88 94.4791 202.417 94.4791 201.846V199.607Z" fill="#002644"/>
<path d="M180.675 199.607H191.796V202.88H181.709C181.138 202.88 180.675 202.417 180.675 201.846V199.607Z" fill="#002644"/>
<path d="M108.612 199.607H118.318V202.88H109.646C109.075 202.88 108.612 202.417 108.612 201.846V199.607Z" fill="#002644"/>
<path d="M194.808 199.607H204.514V202.88H195.842C195.271 202.88 194.808 202.417 194.808 201.846V199.607Z" fill="#002644"/>
<path d="M82.907 199.607H92.0841V202.88H83.9405C83.3697 202.88 82.907 202.417 82.907 201.846V199.607Z" fill="#002644"/>
<path d="M47.2366 171.758H51.3823V188.888H48.2702C47.6994 188.888 47.2366 188.425 47.2366 187.854V171.758Z" fill="#002644"/>
<path d="M263.886 171.758H268.032V188.888H264.92C264.349 188.888 263.886 188.425 263.886 187.854V171.758Z" fill="#002644"/>
<path d="M20.989 171.758H25.6029V188.888H22.0226C21.4518 188.888 20.989 188.425 20.989 187.854V171.758Z" fill="#002644"/>
<path d="M237.638 171.758H242.252V188.888H238.672C238.101 188.888 237.638 188.425 237.638 187.854V171.758Z" fill="#002644"/>
<path d="M20.989 198.563H25.6029V208.64H22.0226C21.4518 208.64 20.989 208.178 20.989 207.607V198.563Z" fill="#002644"/>
<path d="M237.638 198.563H242.252V208.64H238.672C238.101 208.64 237.638 208.178 237.638 207.607V198.563Z" fill="#002644"/>
<path d="M47.2366 198.563H51.4395V208.64H48.2702C47.6994 208.64 47.2366 208.178 47.2366 207.607V198.563Z" fill="#002644"/>
<path d="M263.886 198.563H268.089V208.64H264.92C264.349 208.64 263.886 208.178 263.886 207.607V198.563Z" fill="#002644"/>
<path d="M169.103 199.607H178.28V202.88H170.137C169.566 202.88 169.103 202.417 169.103 201.846V199.607Z" fill="#002644"/>
<path d="M108.612 191.754H118.318V197.148H109.646C109.075 197.148 108.612 196.686 108.612 196.115V191.754Z" fill="#002644"/>
<path d="M194.808 191.754H204.514V197.148H195.842C195.271 197.148 194.808 196.686 194.808 196.115V191.754Z" fill="#002644"/>
<path d="M82.6263 191.754H92.0841V197.148H83.6599C83.0891 197.148 82.6263 196.686 82.6263 196.115V191.754Z" fill="#002644"/>
<path d="M168.822 191.754H178.28V197.148H169.856C169.285 197.148 168.822 196.686 168.822 196.115V191.754Z" fill="#002644"/>
<path d="M94.4791 191.754H105.6V197.148H95.5126C94.9418 197.148 94.4791 196.686 94.4791 196.115V191.754Z" fill="#002644"/>
<path d="M180.675 191.754H191.796V197.148H181.709C181.138 197.148 180.675 196.686 180.675 196.115V191.754Z" fill="#002644"/>
<path d="M94.4791 203.26H105.6V206.718H95.5126C94.9418 206.718 94.4791 206.255 94.4791 205.684V203.26Z" fill="#002644"/>
<path d="M180.675 203.26H191.796V206.718H181.709C181.138 206.718 180.675 206.255 180.675 205.684V203.26Z" fill="#002644"/>
<path d="M108.612 203.26H118.318V206.718H109.646C109.075 206.718 108.612 206.255 108.612 205.684V203.26Z" fill="#002644"/>
<path d="M82.907 203.26H92.0841V206.718H83.9405C83.3697 206.718 82.907 206.255 82.907 205.684V203.26Z" fill="#002644"/>
<path d="M194.808 203.26H204.514V206.718H195.842C195.271 206.718 194.808 206.255 194.808 205.684V203.26Z" fill="#002644"/>
<path d="M47.2366 191.568H51.3823V193.396H48.2702C47.6994 193.396 47.2366 192.934 47.2366 192.363V191.568Z" fill="#002644"/>
<path d="M263.886 191.568H268.032V193.396H264.92C264.349 193.396 263.886 192.934 263.886 192.363V191.568Z" fill="#002644"/>
<path d="M34.4139 178.053H38.5595V179.881H35.4474C34.8766 179.881 34.4139 179.418 34.4139 178.847V178.053Z" fill="#002644"/>
<path d="M246.009 204.72H261.482V209.758H247.043C246.472 209.758 246.009 209.295 246.009 208.724V204.72Z" fill="#002644"/>
<path d="M34.4139 180.209H38.5595V182.037H35.4474C34.8766 182.037 34.4139 181.574 34.4139 181.004V180.209Z" fill="#002644"/>
<path d="M20.989 191.568H25.6029V193.396H22.0226C21.4518 193.396 20.989 192.934 20.989 192.363V191.568Z" fill="#002644"/>
<path d="M237.638 191.568H242.252V193.396H238.672C238.101 193.396 237.638 192.934 237.638 192.363V191.568Z" fill="#002644"/>
<path d="M47.2366 189.412H51.3823V191.24H48.2702C47.6994 191.24 47.2366 190.777 47.2366 190.206V189.412Z" fill="#002644"/>
<path d="M263.886 189.412H268.032V191.24H264.92C264.349 191.24 263.886 190.777 263.886 190.206V189.412Z" fill="#002644"/>
<path d="M34.4139 175.896H38.5595V177.725H35.4474C34.8766 177.725 34.4139 177.262 34.4139 176.691V175.896Z" fill="#002644"/>
<path d="M246.009 172.624H261.482V203.26H247.043C246.472 203.26 246.009 202.797 246.009 202.226V172.624Z" fill="#002644"/>
<path d="M20.989 189.412H25.6029V191.24H22.0226C21.4518 191.24 20.989 190.777 20.989 190.206V189.412Z" fill="#002644"/>
<path d="M237.638 189.412H242.252V191.24H238.672C238.101 191.24 237.638 190.777 237.638 190.206V189.412Z" fill="#002644"/>
<path d="M20.989 209.261H25.6029V210.797H22.0226C21.4518 210.797 20.989 210.335 20.989 209.764V209.261Z" fill="#002644"/>
<path d="M237.638 209.261H242.252V210.797H238.672C238.101 210.797 237.638 210.335 237.638 209.764V209.261Z" fill="#002644"/>
<path d="M47.2366 209.261H51.4395V210.797H48.2702C47.6994 210.797 47.2366 210.335 47.2366 209.764V209.261Z" fill="#002644"/>
<path d="M263.886 209.261H268.089V210.797H264.92C264.349 210.797 263.886 210.335 263.886 209.764V209.261Z" fill="#002644"/>
<path d="M169.103 203.26H178.28V206.718H170.137C169.566 206.718 169.103 206.255 169.103 205.684V203.26Z" fill="#002644"/>
<path d="M187.623 126.368H194.967V131.319H188.657C188.086 131.319 187.623 130.857 187.623 130.286V126.368Z" fill="#002644"/>
<path d="M90.9192 121.068H99.2387V126.02H91.9527C91.3819 126.02 90.9192 125.557 90.9192 124.986V121.068Z" fill="#002644"/>
<path d="M178.098 121.068H186.418V126.02H179.132C178.561 126.02 178.098 125.557 178.098 124.986V121.068Z" fill="#002644"/>
<path d="M90.9192 126.368H99.2387V131.319H91.9527C91.3819 131.319 90.9192 130.857 90.9192 130.286V126.368Z" fill="#002644"/>
<path d="M178.098 126.368H186.418V131.319H179.132C178.561 131.319 178.098 130.857 178.098 130.286V126.368Z" fill="#002644"/>
<rect width="19.9033" height="27.4474" transform="matrix(-1 0 0 1 260.686 109.826)" fill="#F3F7FC" stroke="#002644" stroke-width="0.6"/>
<rect width="16.2749" height="25.6361" transform="matrix(-1 0 0 1 258.872 111.176)" stroke="#002644" stroke-width="0.6"/>
<rect width="13.0467" height="19.5689" transform="matrix(-1 0 0 1 257.057 112.527)" stroke="#002644" stroke-width="0.6"/>
<rect width="22.0128" height="1.90427" transform="matrix(-1 0 0 1 262.286 137.273)" fill="#F3F7FC" stroke="#002644" stroke-width="0.6"/>
<path d="M251.583 112.727H257.201V127.388H252.617C252.046 127.388 251.583 126.925 251.583 126.354V112.727Z" fill="#002644"/>
<path d="M245.359 112.727H251.14V127.388H246.392C245.822 127.388 245.359 126.925 245.359 126.354V112.727Z" fill="#002644"/>
<path d="M251.583 128.043H257.201V130.795H252.617C252.046 130.795 251.583 130.332 251.583 129.761V128.043Z" fill="#002644"/>
<path d="M245.359 128.043H251.14V130.795H246.392C245.822 130.795 245.359 130.332 245.359 129.761V128.043Z" fill="#002644"/>
<path d="M260.686 109.826H261.616L262.286 137.183H260.686V109.826Z" fill="#002644" fill-opacity="0.5"/>
<rect x="84.6702" y="104.421" width="1.33521" height="4.72549" fill="#F3F7FC" stroke="#002644" stroke-width="0.4"/>
<rect x="171.849" y="104.421" width="1.33521" height="4.72549" fill="#F3F7FC" stroke="#002644" stroke-width="0.4"/>
<rect x="86.6965" y="104.421" width="1.33521" height="4.72549" fill="#F3F7FC" stroke="#002644" stroke-width="0.4"/>
<rect x="173.876" y="104.421" width="1.33521" height="4.72549" fill="#F3F7FC" stroke="#002644" stroke-width="0.4"/>
<rect x="88.7227" y="104.421" width="1.33521" height="4.72549" fill="#F3F7FC" stroke="#002644" stroke-width="0.4"/>
<rect x="175.902" y="104.421" width="1.33521" height="4.72549" fill="#F3F7FC" stroke="#002644" stroke-width="0.4"/>
<rect x="90.7489" y="104.421" width="1.33521" height="4.72549" fill="#F3F7FC" stroke="#002644" stroke-width="0.4"/>
<rect x="177.928" y="104.421" width="1.33521" height="4.72549" fill="#F3F7FC" stroke="#002644" stroke-width="0.4"/>
<rect x="92.7751" y="104.421" width="1.33521" height="4.72549" fill="#F3F7FC" stroke="#002644" stroke-width="0.4"/>
<rect x="179.954" y="104.421" width="1.33521" height="4.72549" fill="#F3F7FC" stroke="#002644" stroke-width="0.4"/>
<rect x="94.8013" y="104.421" width="1.33521" height="4.72549" fill="#F3F7FC" stroke="#002644" stroke-width="0.4"/>
<rect x="181.98" y="104.421" width="1.33521" height="4.72549" fill="#F3F7FC" stroke="#002644" stroke-width="0.4"/>
<rect x="96.8275" y="104.421" width="1.33521" height="4.72549" fill="#F3F7FC" stroke="#002644" stroke-width="0.4"/>
<rect x="184.007" y="104.421" width="1.33521" height="4.72549" fill="#F3F7FC" stroke="#002644" stroke-width="0.4"/>
<rect x="98.8536" y="104.421" width="1.33521" height="4.72549" fill="#F3F7FC" stroke="#002644" stroke-width="0.4"/>
<rect x="186.033" y="104.421" width="1.33521" height="4.72549" fill="#F3F7FC" stroke="#002644" stroke-width="0.4"/>
<rect x="100.88" y="104.421" width="1.33521" height="4.72549" fill="#F3F7FC" stroke="#002644" stroke-width="0.4"/>
<rect x="188.059" y="104.421" width="1.33521" height="4.72549" fill="#F3F7FC" stroke="#002644" stroke-width="0.4"/>
<rect x="102.906" y="104.421" width="1.33521" height="4.72549" fill="#F3F7FC" stroke="#002644" stroke-width="0.4"/>
<rect x="190.085" y="104.421" width="1.33521" height="4.72549" fill="#F3F7FC" stroke="#002644" stroke-width="0.4"/>
<rect x="104.932" y="104.421" width="1.33521" height="4.72549" fill="#F3F7FC" stroke="#002644" stroke-width="0.4"/>
<rect x="192.111" y="104.421" width="1.33521" height="4.72549" fill="#F3F7FC" stroke="#002644" stroke-width="0.4"/>
<rect x="106.958" y="104.421" width="1.33521" height="4.72549" fill="#F3F7FC" stroke="#002644" stroke-width="0.4"/>
<rect x="194.137" y="104.421" width="1.33521" height="4.72549" fill="#F3F7FC" stroke="#002644" stroke-width="0.4"/>
<rect x="108.985" y="104.421" width="1.33521" height="4.72549" fill="#F3F7FC" stroke="#002644" stroke-width="0.4"/>
<rect x="196.164" y="104.421" width="1.33521" height="4.72549" fill="#F3F7FC" stroke="#002644" stroke-width="0.4"/>
<rect x="111.011" y="104.421" width="1.33521" height="4.72549" fill="#F3F7FC" stroke="#002644" stroke-width="0.4"/>
<rect x="198.19" y="104.421" width="1.33521" height="4.72549" fill="#F3F7FC" stroke="#002644" stroke-width="0.4"/>
<rect x="113.037" y="104.421" width="1.33521" height="4.72549" fill="#F3F7FC" stroke="#002644" stroke-width="0.4"/>
<rect x="164.046" y="165.368" width="1.42514" height="4.72549" fill="#F3F7FC" stroke="#002644" stroke-width="0.4"/>
<rect x="166.208" y="165.368" width="1.42514" height="4.72549" fill="#F3F7FC" stroke="#002644" stroke-width="0.4"/>
<rect x="168.371" y="165.368" width="1.42514" height="4.72549" fill="#F3F7FC" stroke="#002644" stroke-width="0.4"/>
<rect x="170.534" y="165.368" width="1.42514" height="4.72549" fill="#F3F7FC" stroke="#002644" stroke-width="0.4"/>
<rect x="172.696" y="165.368" width="1.42514" height="4.72549" fill="#F3F7FC" stroke="#002644" stroke-width="0.4"/>
<rect x="174.859" y="165.368" width="1.42514" height="4.72549" fill="#F3F7FC" stroke="#002644" stroke-width="0.4"/>
<rect x="177.022" y="165.368" width="1.42514" height="4.72549" fill="#F3F7FC" stroke="#002644" stroke-width="0.4"/>
<rect x="179.184" y="165.368" width="1.42514" height="4.72549" fill="#F3F7FC" stroke="#002644" stroke-width="0.4"/>
<rect x="181.347" y="165.368" width="1.42514" height="4.72549" fill="#F3F7FC" stroke="#002644" stroke-width="0.4"/>
<rect x="183.51" y="165.368" width="1.42514" height="4.72549" fill="#F3F7FC" stroke="#002644" stroke-width="0.4"/>
<rect x="185.672" y="165.368" width="1.42514" height="4.72549" fill="#F3F7FC" stroke="#002644" stroke-width="0.4"/>
<rect x="187.835" y="165.368" width="1.42514" height="4.72549" fill="#F3F7FC" stroke="#002644" stroke-width="0.4"/>
<rect x="189.998" y="165.368" width="1.42514" height="4.72549" fill="#F3F7FC" stroke="#002644" stroke-width="0.4"/>
<rect x="192.16" y="165.368" width="1.42514" height="4.72549" fill="#F3F7FC" stroke="#002644" stroke-width="0.4"/>
<rect x="194.323" y="165.368" width="1.42514" height="4.72549" fill="#F3F7FC" stroke="#002644" stroke-width="0.4"/>
<rect x="196.486" y="165.368" width="1.42514" height="4.72549" fill="#F3F7FC" stroke="#002644" stroke-width="0.4"/>
<rect x="198.648" y="165.368" width="1.42514" height="4.72549" fill="#F3F7FC" stroke="#002644" stroke-width="0.4"/>
<rect x="200.811" y="165.368" width="1.42514" height="4.72549" fill="#F3F7FC" stroke="#002644" stroke-width="0.4"/>
<rect x="202.974" y="165.368" width="1.42514" height="4.72549" fill="#F3F7FC" stroke="#002644" stroke-width="0.4"/>
<rect x="205.136" y="165.368" width="1.42514" height="4.72549" fill="#F3F7FC" stroke="#002644" stroke-width="0.4"/>
<rect x="207.299" y="165.368" width="1.42514" height="4.72549" fill="#F3F7FC" stroke="#002644" stroke-width="0.4"/>
<rect x="78.1049" y="165.368" width="1.42514" height="4.72549" fill="#F3F7FC" stroke="#002644" stroke-width="0.4"/>
<rect x="80.2677" y="165.368" width="1.42514" height="4.72549" fill="#F3F7FC" stroke="#002644" stroke-width="0.4"/>
<rect x="82.4304" y="165.368" width="1.42514" height="4.72549" fill="#F3F7FC" stroke="#002644" stroke-width="0.4"/>
<rect x="84.593" y="165.368" width="1.42514" height="4.72549" fill="#F3F7FC" stroke="#002644" stroke-width="0.4"/>
<rect x="86.7557" y="165.368" width="1.42514" height="4.72549" fill="#F3F7FC" stroke="#002644" stroke-width="0.4"/>
<rect x="88.9184" y="165.368" width="1.42514" height="4.72549" fill="#F3F7FC" stroke="#002644" stroke-width="0.4"/>
<rect x="91.0811" y="165.368" width="1.42514" height="4.72549" fill="#F3F7FC" stroke="#002644" stroke-width="0.4"/>
<rect x="93.2437" y="165.368" width="1.42514" height="4.72549" fill="#F3F7FC" stroke="#002644" stroke-width="0.4"/>
<rect x="95.4064" y="165.368" width="1.42514" height="4.72549" fill="#F3F7FC" stroke="#002644" stroke-width="0.4"/>
<rect x="97.569" y="165.368" width="1.42514" height="4.72549" fill="#F3F7FC" stroke="#002644" stroke-width="0.4"/>
<rect x="99.7317" y="165.368" width="1.42514" height="4.72549" fill="#F3F7FC" stroke="#002644" stroke-width="0.4"/>
<rect x="101.894" y="165.368" width="1.42514" height="4.72549" fill="#F3F7FC" stroke="#002644" stroke-width="0.4"/>
<rect x="104.057" y="165.368" width="1.42514" height="4.72549" fill="#F3F7FC" stroke="#002644" stroke-width="0.4"/>
<rect x="106.22" y="165.368" width="1.42514" height="4.72549" fill="#F3F7FC" stroke="#002644" stroke-width="0.4"/>
<rect x="108.382" y="165.368" width="1.42514" height="4.72549" fill="#F3F7FC" stroke="#002644" stroke-width="0.4"/>
<rect x="110.545" y="165.368" width="1.42514" height="4.72549" fill="#F3F7FC" stroke="#002644" stroke-width="0.4"/>
<rect x="112.708" y="165.368" width="1.42514" height="4.72549" fill="#F3F7FC" stroke="#002644" stroke-width="0.4"/>
<rect x="114.87" y="165.368" width="1.42514" height="4.72549" fill="#F3F7FC" stroke="#002644" stroke-width="0.4"/>
<rect x="117.033" y="165.368" width="1.42514" height="4.72549" fill="#F3F7FC" stroke="#002644" stroke-width="0.4"/>
<rect x="119.196" y="165.368" width="1.42514" height="4.72549" fill="#F3F7FC" stroke="#002644" stroke-width="0.4"/>
<rect x="121.358" y="165.368" width="1.42514" height="4.72549" fill="#F3F7FC" stroke="#002644" stroke-width="0.4"/>
<rect x="200.216" y="104.421" width="1.33521" height="4.72549" fill="#F3F7FC" stroke="#002644" stroke-width="0.4"/>
<rect x="11.11" y="144.166" width="45.4609" height="4.45819" fill="#F3F7FC" stroke="#002644" stroke-width="0.6"/>
<path d="M274.981 144.166H230.105V148.624H274.981V144.166Z" fill="#F3F7FC" stroke="#002644" stroke-width="0.6"/>
<path d="M58.3096 162.755H6.92273L8.66359 157.747L9.34766 155.779L10.2192 153.272L11.7726 148.804H55.9664L56.7169 153.272L57.4685 157.747L58.3096 162.755Z" fill="#5E7B91"/>
<path d="M10.2192 153.272L11.7726 148.804H55.9664L56.7169 153.272M10.2192 153.272L9.34766 155.779L8.66359 157.747M10.2192 153.272H56.7169M56.7169 153.272L57.4685 157.747M8.66359 157.747L6.92273 162.755H58.3096L57.4685 157.747M8.66359 157.747H57.4685" stroke="#002644" stroke-width="0.8"/>
<path d="M227.781 162.755H279.168L277.427 157.747L276.743 155.779L275.872 153.272L274.318 148.804H230.125L229.374 153.272L228.622 157.747L227.781 162.755Z" fill="#5E7B91"/>
<path d="M275.872 153.272L274.318 148.804H230.125L229.374 153.272M275.872 153.272L276.743 155.779L277.427 157.747M275.872 153.272H229.374M229.374 153.272L228.622 157.747M277.427 157.747L279.168 162.755H227.781L228.622 157.747M277.427 157.747H228.622" stroke="#002644" stroke-width="0.8"/>
<rect x="80.9349" y="171.758" width="38.8482" height="36.5465" stroke="#002644" stroke-width="0.4"/>
<path d="M107.456 207.357V199.581H118.318M93.5141 207.381H118.318V199.581M93.5141 207.381V199.581H105.759V207.357M93.5141 207.381H91.9768M91.9768 207.381H81.905V199.581M91.9768 207.381V199.581H81.905M81.905 199.581V198.022M118.318 199.581V198.022M107.456 172.633H118.318V198.022M107.456 172.633V198.022H118.318M107.456 172.633H105.759M105.759 172.633V198.022H93.5141V172.633M105.759 172.633H93.5141M93.5141 172.633H91.9768M91.9768 172.633H81.905V198.022M91.9768 172.633V198.022H81.905" stroke="#002644" stroke-width="0.4"/>
<path d="M193.652 207.357V199.581H204.514M179.71 207.381H204.514V199.581M179.71 207.381V199.581H191.955V207.357M179.71 207.381H178.173M178.173 207.381H168.101V199.581M178.173 207.381V199.581H168.101M168.101 199.581V198.022M204.514 199.581V198.022M193.652 172.633H204.514V198.022M193.652 172.633V198.022H204.514M193.652 172.633H191.955M191.955 172.633V198.022H179.71V172.633M191.955 172.633H179.71M179.71 172.633H178.173M178.173 172.633H168.101V198.022M178.173 172.633V198.022H168.101" stroke="#002644" stroke-width="0.4"/>
<rect x="76.975" y="209.261" width="44.5283" height="2.04221" fill="#F3F7FC" stroke="#002644" stroke-width="0.4"/>
<rect x="164.291" y="209.261" width="44.5283" height="2.04221" fill="#F3F7FC" stroke="#002644" stroke-width="0.4"/>
<rect x="31.9539" y="174.835" width="7.58319" height="9.06613" stroke="#002644" stroke-width="0.4"/>
<rect x="32.7131" y="175.743" width="6.06466" height="7.25064" stroke="#002644" stroke-width="0.6"/>
<rect x="244.223" y="172.624" width="17.2587" height="37.9628" stroke="#002644" stroke-width="0.4"/>
<path d="M213.954 135.856H215.32L215.93 212.534H213.243L213.954 135.856Z" fill="#5E7B91" stroke="#002644" stroke-width="0.6"/>
<path d="M209.23 131.319C209.23 132.013 209.428 132.669 209.78 133.253C210.571 133.61 212.948 134.454 214.798 134.345C216.648 134.235 218.765 133.434 219.759 133.125C220.065 132.574 220.235 131.963 220.235 131.319C220.235 130.388 219.879 129.524 219.27 128.811H210.195C209.586 129.524 209.23 130.388 209.23 131.319Z" fill="#F3F7FC" stroke="#002644" stroke-width="0.6"/>
<path d="M222.496 128.801H206.425C206.425 127.291 207.572 125.942 209.37 125.054H219.551C221.349 125.942 222.496 127.291 222.496 128.801Z" fill="#5E7B91" stroke="#002644" stroke-width="0.6"/>
<path d="M217.149 124.953H212.024C212.024 124.096 212.39 123.331 212.963 122.827C212.963 122.827 213.936 122.463 214.577 122.463C215.218 122.463 216.21 122.827 216.21 122.827C216.783 123.331 217.149 124.096 217.149 124.953Z" fill="#5E7B91" stroke="#002644" stroke-width="0.6"/>
<path d="M207.221 132.304C207.221 132.304 211.685 134.206 214.733 134.206C217.78 134.206 222.244 132.304 222.244 132.304V135.856H207.221V132.304Z" fill="#5E7B91" stroke="#002644" stroke-width="0.6"/>
<mask id="mask3_1_53107" style="mask-type:alpha" maskUnits="userSpaceOnUse" x="228" y="149" width="51" height="14">
<path d="M228.227 162.251H278.661L276.952 157.542L276.281 155.692L275.426 153.335L273.901 149.134H230.527L229.79 153.335L229.053 157.542L228.227 162.251Z" fill="#5E7B91"/>
</mask>
<g mask="url(#mask3_1_53107)">
<path d="M217.49 168.314L245.822 139.982" stroke="#F5F5F5" stroke-width="0.6"/>
<path d="M225.396 168.314L253.728 139.982" stroke="#F5F5F5" stroke-width="0.6"/>
<path d="M233.302 169.701L261.634 141.369" stroke="#F5F5F5" stroke-width="0.6"/>
<path d="M241.208 171.088L269.54 142.755" stroke="#F5F5F5" stroke-width="0.6"/>
<path d="M249.114 172.474L277.446 144.142" stroke="#F5F5F5" stroke-width="0.6"/>
<path d="M257.02 173.861L285.352 145.528" stroke="#F5F5F5" stroke-width="0.6"/>
<path d="M264.926 175.247L293.258 146.915" stroke="#F5F5F5" stroke-width="0.6"/>
<path d="M272.832 176.634L301.164 148.302" stroke="#F5F5F5" stroke-width="0.6"/>
</g>
<path d="M275.872 153.272L274.318 148.804H230.125L229.374 153.272M275.872 153.272L276.743 155.779L277.427 157.747M275.872 153.272H229.374M229.374 153.272L228.622 157.747M277.427 157.747L279.168 162.755H227.781L228.622 157.747M277.427 157.747H228.622" stroke="#002644" stroke-width="0.8"/>
<path d="M58.4066 162.755H7.01971L8.76058 157.747L9.44464 155.779L10.3162 153.272L11.8696 148.804H56.0634L56.8139 153.272L57.5655 157.747L58.4066 162.755Z" fill="#5E7B91"/>
<path d="M10.3162 153.272L11.8696 148.804H56.0634L56.8139 153.272M10.3162 153.272L9.44464 155.779L8.76058 157.747M10.3162 153.272H56.8139M56.8139 153.272L57.5655 157.747M8.76058 157.747L7.01971 162.755H58.4066L57.5655 157.747M8.76058 157.747H57.5655" stroke="#002644" stroke-width="0.8"/>
<mask id="mask4_1_53107" style="mask-type:alpha" maskUnits="userSpaceOnUse" x="7" y="149" width="51" height="14">
<path d="M57.9609 162.251H7.52716L9.23573 157.542L9.90711 155.692L10.7625 153.335L12.2871 149.134H55.6611L56.3977 153.335L57.1354 157.542L57.9609 162.251Z" fill="#5E7B91"/>
</mask>
<g mask="url(#mask4_1_53107)">
<path d="M68.6981 168.314L40.3658 139.982" stroke="#F5F5F5" stroke-width="0.6"/>
<path d="M60.7922 168.314L32.4598 139.982" stroke="#F5F5F5" stroke-width="0.6"/>
<path d="M52.8862 169.701L24.5539 141.369" stroke="#F5F5F5" stroke-width="0.6"/>
<path d="M44.9803 171.088L16.6479 142.755" stroke="#F5F5F5" stroke-width="0.6"/>
<path d="M37.0743 172.474L8.742 144.142" stroke="#F5F5F5" stroke-width="0.6"/>
<path d="M29.1684 173.861L0.83606 145.528" stroke="#F5F5F5" stroke-width="0.6"/>
<path d="M21.2625 175.247L-7.06989 146.915" stroke="#F5F5F5" stroke-width="0.6"/>
<path d="M13.3565 176.634L-14.9758 148.302" stroke="#F5F5F5" stroke-width="0.6"/>
</g>
<path d="M10.3162 153.272L11.8696 148.804H56.0634L56.8139 153.272M10.3162 153.272L9.44464 155.779L8.76058 157.747M10.3162 153.272H56.8139M56.8139 153.272L57.5655 157.747M8.76058 157.747L7.01971 162.755H58.4066L57.5655 157.747M8.76058 157.747H57.5655" stroke="#002644" stroke-width="0.8"/>
<mask id="mask5_1_53107" style="mask-type:alpha" maskUnits="userSpaceOnUse" x="0" y="39" width="284" height="65">
<path d="M1.53857 103.35H47.4619V101.893H49.7153V100.781L124.74 39.6311H19.5735L1.53857 103.35Z" fill="#5E7B91"/>
<path d="M235.267 103.35H283.175L263.156 39.6311H157.989L233.014 100.781V101.893H235.267V103.35Z" fill="#5E7B91"/>
<path d="M1.53857 103.35H47.4619V101.893H49.7153V100.781L124.74 39.6311H19.5735L1.53857 103.35Z" stroke="#002644"/>
<path d="M235.267 103.35H283.175L263.156 39.6311H157.989L233.014 100.781V101.893H235.267V103.35Z" stroke="#002644"/>
</mask>
<g mask="url(#mask5_1_53107)">
<path d="M13.9464 29.1816L98.0788 113.314" stroke="#F5F5F5" stroke-width="0.6"/>
<path d="M-9.0744 29.1816L75.058 113.314" stroke="#F5F5F5" stroke-width="0.6"/>
<path d="M-32.0952 29.1816L52.0373 113.314" stroke="#F5F5F5" stroke-width="0.6"/>
<path d="M-55.1159 29.1816L29.0165 113.314" stroke="#F5F5F5" stroke-width="0.6"/>
<path d="M36.9669 29.1816L121.099 113.314" stroke="#F5F5F5" stroke-width="0.6"/>
<path d="M59.9875 29.1816L144.12 113.314" stroke="#F5F5F5" stroke-width="0.6"/>
<path d="M83.0081 29.1816L167.141 113.314" stroke="#F5F5F5" stroke-width="0.6"/>
<path d="M106.029 29.1816L190.161 113.314" stroke="#F5F5F5" stroke-width="0.6"/>
<path d="M129.049 29.1816L213.182 113.314" stroke="#F5F5F5" stroke-width="0.6"/>
<path d="M152.07 29.1816L236.202 113.314" stroke="#F5F5F5" stroke-width="0.6"/>
<path d="M175.09 29.1816L259.223 113.314" stroke="#F5F5F5" stroke-width="0.6"/>
<path d="M198.111 29.1816L282.243 113.314" stroke="#F5F5F5" stroke-width="0.6"/>
<path d="M221.131 29.1816L305.264 113.314" stroke="#F5F5F5" stroke-width="0.6"/>
<path d="M244.152 29.1816L328.284 113.314" stroke="#F5F5F5" stroke-width="0.6"/>
<path d="M25.6188 29.1816L109.751 113.314" stroke="#F5F5F5" stroke-width="0.6"/>
<path d="M2.59802 29.1816L86.7305 113.314" stroke="#F5F5F5" stroke-width="0.6"/>
<path d="M-20.4227 29.1816L63.7097 113.314" stroke="#F5F5F5" stroke-width="0.6"/>
<path d="M-43.4435 29.1816L40.689 113.314" stroke="#F5F5F5" stroke-width="0.6"/>
<path d="M48.6393 29.1816L132.772 113.314" stroke="#F5F5F5" stroke-width="0.6"/>
<path d="M71.6599 29.1816L155.792 113.314" stroke="#F5F5F5" stroke-width="0.6"/>
<path d="M94.6805 29.1816L178.813 113.314" stroke="#F5F5F5" stroke-width="0.6"/>
<path d="M117.701 29.1816L201.833 113.314" stroke="#F5F5F5" stroke-width="0.6"/>
<path d="M140.722 29.1816L224.854 113.314" stroke="#F5F5F5" stroke-width="0.6"/>
<path d="M163.742 29.1816L247.875 113.314" stroke="#F5F5F5" stroke-width="0.6"/>
<path d="M186.763 29.1816L270.895 113.314" stroke="#F5F5F5" stroke-width="0.6"/>
<path d="M209.783 29.1816L293.916 113.314" stroke="#F5F5F5" stroke-width="0.6"/>
<path d="M232.804 29.1816L316.936 113.314" stroke="#F5F5F5" stroke-width="0.6"/>
<path d="M255.824 29.1816L339.957 113.314" stroke="#F5F5F5" stroke-width="0.6"/>
</g>
</svg>
