<svg width="24" height="24" viewBox="0 0 24 24" fill="none" xmlns="http://www.w3.org/2000/svg">
<path d="M22.3969 12.3761C22.8755 12.8547 22.8755 13.6306 22.3969 14.1092L12.8651 23.6411C12.3865 24.1196 11.6106 24.1196 11.132 23.6411C10.6534 23.1625 10.6534 22.3866 11.132 21.908L20.6639 12.3761C21.1424 11.8976 21.9184 11.8976 22.3969 12.3761Z" fill="#FA983A"/>
<path d="M1.602 12.3761C1.12342 12.8547 1.12342 13.6306 1.602 14.1092L11.1339 23.6411C11.6124 24.1196 12.3884 24.1196 12.8669 23.6411C13.3455 23.1625 13.3455 22.3866 12.8669 21.908L3.33506 12.3761C2.85649 11.8976 2.08057 11.8976 1.602 12.3761Z" fill="#FA983A"/>
<path d="M13.2249 22.0583C13.2249 22.7351 12.6763 23.2838 11.9995 23.2838C11.3227 23.2838 10.774 22.7351 10.774 22.0583L10.774 1.22546C10.774 0.548658 11.3227 0 11.9995 0C12.6763 0 13.2249 0.548659 13.2249 1.22546L13.2249 22.0583Z" fill="#FA983A"/>
</svg>
