<svg width="36" height="36" viewBox="0 0 36 36" fill="none" xmlns="http://www.w3.org/2000/svg">
<g clip-path="url(#clip0_205_12)">
<path d="M29.061 11.0605C28.2855 11.0605 27.5405 11.1897 26.8455 11.4244C28.2118 13.2601 29.0213 15.5357 29.0213 17.9994C29.0213 20.4632 28.2118 22.7388 26.8455 24.5745C27.5417 24.8092 28.2866 24.9384 29.061 24.9384C32.8933 24.9384 36 21.8318 36 17.9994C36 14.1671 32.8933 11.0605 29.061 11.0605Z" fill="#3C77BC"/>
<path d="M17.9994 24.9384C21.8317 24.9384 24.9384 21.8317 24.9384 17.9994C24.9384 14.1671 21.8317 11.0605 17.9994 11.0605C14.1671 11.0605 11.0604 14.1671 11.0604 17.9994C11.0604 21.8317 14.1671 24.9384 17.9994 24.9384Z" fill="#3C77BC"/>
<path d="M17.9994 29.0202C15.5345 29.0202 13.2601 28.2106 11.4244 26.8444C11.1897 27.5406 11.0604 28.2855 11.0604 29.0599C11.0604 32.8922 14.1671 35.9989 17.9994 35.9989C21.8318 35.9989 24.9384 32.8922 24.9384 29.0599C24.9384 28.2843 24.8092 27.5394 24.5745 26.8444C22.7399 28.2118 20.4644 29.0202 17.9994 29.0202Z" fill="#3C77BC"/>
<path d="M6.97868 17.9994C6.97868 15.5345 7.78823 13.2601 9.15449 11.4244C8.45832 11.1897 7.7134 11.0605 6.939 11.0605C3.10668 11.0605 0 14.1671 0 17.9994C0 21.8318 3.10668 24.9384 6.939 24.9384C7.71453 24.9384 8.45945 24.8092 9.15449 24.5745C7.78823 22.74 6.97868 20.4644 6.97868 17.9994Z" fill="#3C77BC"/>
<path d="M17.9994 6.97868C20.4644 6.97868 22.7388 7.78823 24.5745 9.15449C24.8092 8.45832 24.9384 7.7134 24.9384 6.939C24.9384 3.10668 21.8318 0 17.9994 0C14.1671 0 11.0604 3.10668 11.0604 6.939C11.0604 7.71453 11.1897 8.45945 11.4244 9.15449C13.2601 7.78823 15.5356 6.97868 17.9994 6.97868Z" fill="#3C77BC"/>
</g>
<defs>
<clipPath id="clip0_205_12">
<rect width="36" height="36" fill="white"/>
</clipPath>
</defs>
</svg>
