<svg width="82" height="80" viewBox="0 0 82 80" fill="none" xmlns="http://www.w3.org/2000/svg">
<path d="M37.5123 0.862664C26.6545 7.13487 16.1044 13.9136 5.89222 21.1702C2.5863 23.5189 0.558337 27.278 0.448962 31.3314C0.351101 34.9704 0.301758 38.6209 0.301758 42.2829C0.301758 50.324 0.538601 58.31 1.00488 66.2335C1.38482 72.6974 6.50817 77.8791 12.9687 78.3191C21.1307 78.8758 29.361 79.1858 37.6496 79.2475C38.4317 79.2533 39.0682 78.6192 39.0682 77.8372V62.2615C39.0682 61.5765 38.5756 60.9852 37.8996 60.8742C33.2138 60.1044 28.9975 57.9383 25.6957 54.815C24.4243 53.5798 23.2647 52.1859 22.2549 50.6406C18.3651 44.6941 17.5279 37.6933 19.3659 31.6044C19.9144 29.7862 21.699 28.6192 23.5838 28.8454C29.8988 29.6011 35.9777 33.1735 39.8675 39.1201C41.4366 41.5181 42.5073 44.088 43.1077 46.7007C43.9802 45.4918 45.0205 44.3668 46.2277 43.3627C50.546 39.7706 55.9975 38.5395 60.9194 39.5452C62.1274 39.7919 63.0049 40.852 63.0271 42.0839C63.1101 46.6324 61.3108 51.2738 57.7623 54.7763C54.4539 57.9202 50.222 60.102 45.5164 60.875C44.8404 60.986 44.3478 61.5773 44.3478 62.2623V77.8207C44.3478 78.6052 44.9884 79.2401 45.773 79.2303C53.3988 79.1365 60.9745 78.8306 68.4934 78.3182C74.9531 77.8775 80.0764 72.6965 80.4572 66.2327C80.9235 58.3084 81.1603 50.3232 81.1603 42.2821C81.1603 38.6201 81.1101 34.9696 81.0131 31.3306C80.9045 27.2763 78.8758 23.5181 75.5698 21.1694C65.3577 13.9137 54.8075 7.13405 43.949 0.861843C42.9539 0.287007 41.8429 0 40.731 0C39.6192 0 38.5082 0.287007 37.5131 0.861843" fill="#003960"/>
</svg>
