<svg width="120" height="121" viewBox="0 0 120 121" fill="none" xmlns="http://www.w3.org/2000/svg">
<rect y="0.5" width="120" height="120" rx="20" fill="url(#paint0_linear_1058_316)"/>
<g filter="url(#filter0_i_1058_316)">
<path d="M49.6898 67.6588C46.2391 75.2176 39.7432 79.9523 31.2129 79.9523C20.3926 79.9523 11.6211 71.25 11.6211 60.5152C11.6211 49.7804 20.3926 41.0781 31.2129 41.0781C39.7432 41.0781 45.6928 45.8128 49.6898 53.3717C53.6869 60.9305 66.4478 59.3108 69.8986 53.3717C73.3493 47.4326 79.8451 41.0781 88.3755 41.0781C99.1958 41.0781 107.967 49.7804 107.967 60.5152C107.967 71.25 99.1958 79.9523 88.3755 79.9523C79.8451 79.9523 73.3493 74.1378 69.8986 67.6588C66.4478 61.1797 53.1406 60.0999 49.6898 67.6588Z" fill="url(#paint1_linear_1058_316)"/>
</g>
<path d="M49.3259 67.4927C45.9329 74.9251 39.5698 79.5523 31.2129 79.5523C20.6105 79.5523 12.0211 71.0261 12.0211 60.5152C12.0211 50.0043 20.6105 41.4781 31.2129 41.4781C39.5559 41.4781 45.388 46.0922 49.3362 53.5587C51.4329 57.5237 55.8057 59.0399 60.0187 58.8329C64.2201 58.6265 68.4272 56.7002 70.2444 53.5726C73.6641 47.6869 80.0532 41.4781 88.3755 41.4781C98.9778 41.4781 107.567 50.0043 107.567 60.5152C107.567 71.0261 98.9778 79.5523 88.3755 79.5523C80.0429 79.5523 73.66 73.8703 70.2516 67.4707C68.4342 64.0585 64.0781 62.1324 59.8071 61.9948C55.5298 61.857 51.1443 63.5096 49.3259 67.4927Z" stroke="white" stroke-width="0.8"/>
<g opacity="0.5" filter="url(#filter1_d_1058_316)">
<path d="M72.4859 50.3893C72.4859 50.3893 82.3451 36.2089 97.8763 43.8386C107.874 50.8877 110.784 62.4627 104.9 70.5108C97.4735 83.2054 84.3135 79.1861 84.3135 79.1861C84.3135 79.1861 91.2281 80.0177 96.1875 77.625C102.004 74.8188 107.791 66.4491 103.007 64.5683C87.2068 58.3561 94.5164 45.9478 90.875 44.4375C83.2939 41.2932 72.4859 50.3893 72.4859 50.3893Z" fill="#F6F9FF"/>
</g>
<g filter="url(#filter2_d_1058_316)">
<path d="M97.0706 47.5434C99.6788 48.0125 102.637 51.6987 102.816 55.1641C102.881 56.422 102.869 58.4745 101.625 58.6756C99.564 59.0089 98.3612 56.3252 97.3989 54.0871C96.3881 51.7365 93.0185 46.8146 97.0706 47.5434Z" fill="#F6F9FF"/>
</g>
<g filter="url(#filter3_d_1058_316)">
<path d="M102.126 73.4381C102.126 73.4381 94.9687 84.7554 79.4376 77.1256C76.6258 75.3265 71.4376 70.4376 69.0636 65.7182C67.9711 63.5464 63.942 61.9033 60.6886 61.9072C54.9152 61.7525 50.0948 64.8136 48.8136 68.9073C46.495 71.6345 45.7824 72.5619 45.7824 72.5619C45.7824 72.5619 47.684 65.8874 51.0937 62.9062C58.6415 56.3071 70.1876 63.8126 75.876 68.6873C78.4627 70.9041 83.0957 69.3471 86.501 69.2498C89.6227 69.1606 93.5311 74.1673 96.1886 75.0001C100.07 76.2166 102.126 73.4381 102.126 73.4381Z" fill="#648AC7"/>
</g>
<g opacity="0.8" filter="url(#filter4_d_1058_316)">
<path d="M12.2031 63.0469C12.2031 63.0469 12.9699 77.4706 28.5 79.3763C42.75 81.1249 48.8125 68.3745 48.8125 68.3745C48.8125 68.3745 44.5073 73.3282 41.4375 72.25C38.2515 71.131 40.4015 66.8406 38.3125 64.1875C32.5718 56.8966 19.6432 68.0727 14.5623 64.9375C13.5575 64.3175 12.2031 63.0469 12.2031 63.0469Z" fill="#436EB4"/>
</g>
<g filter="url(#filter5_i_1058_316)">
<path d="M49.3259 67.4927C45.9329 74.9251 39.5698 79.5523 31.2129 79.5523C20.6105 79.5523 12.0211 71.0261 12.0211 60.5152C12.0211 50.0043 20.6105 41.4781 31.2129 41.4781C39.5559 41.4781 45.388 46.0922 49.3362 53.5587C51.4329 57.5237 55.8057 59.0399 60.0187 58.8329C64.2201 58.6265 68.4272 56.7002 70.2444 53.5726C73.6641 47.6869 80.0532 41.4781 88.3755 41.4781C98.9778 41.4781 107.567 50.0043 107.567 60.5152C107.567 71.0261 98.9778 79.5523 88.3755 79.5523C80.0429 79.5523 73.66 73.8703 70.2516 67.4707C68.4342 64.0585 64.0781 62.1324 59.8071 61.9948C55.5298 61.857 51.1443 63.5096 49.3259 67.4927Z" stroke="white" stroke-width="0.8"/>
</g>
<g opacity="0.5" filter="url(#filter6_d_1058_316)">
<path d="M42.4367 44.9383C47.2099 48.3429 48.4375 54.5625 53.125 57.2188C57.6309 59.2241 63.5028 59.0701 68.1879 56.0628C70.6548 52.6799 72.6192 50.2021 73.7997 48.7569C74.3475 47.8523 75.0318 47.2814 75.0318 47.2814C75.0318 47.2814 74.5927 47.7861 73.7997 48.7569C73.6244 49.0464 73.4632 49.3699 73.3427 49.7199C72.7281 51.5062 72.6695 53.3974 71.4378 55.3761C67.4602 61.7659 63.4688 60.1875 53.625 57.9688C49.9032 56.6805 45.5719 48.651 38.687 47C33.7012 45.8044 30.9136 48.4041 25.875 48.6882C22.0733 48.9026 16.1248 48.6882 16.1248 48.6882C16.1248 48.6882 21.6562 41.8125 30.1881 41.2497C34.6871 40.8007 39.3712 42.7516 42.4367 44.9383Z" fill="#F6F9FF"/>
</g>
<g opacity="0.8" filter="url(#filter7_d_1058_316)">
<path d="M35.312 76.0629C32.9098 77.1819 26.6875 77.5619 21.9879 73.2627C18.7846 70.3324 20.1191 68.1604 21.3122 68.5638C25.375 69.9375 26.8615 67.9139 28.9374 69.1889C31.1177 70.528 39.0441 74.3244 35.312 76.0629Z" fill="#37518B"/>
</g>
<defs>
<filter id="filter0_i_1058_316" x="11.6211" y="41.0781" width="96.3457" height="42.875" filterUnits="userSpaceOnUse" color-interpolation-filters="sRGB">
<feFlood flood-opacity="0" result="BackgroundImageFix"/>
<feBlend mode="normal" in="SourceGraphic" in2="BackgroundImageFix" result="shape"/>
<feColorMatrix in="SourceAlpha" type="matrix" values="0 0 0 0 0 0 0 0 0 0 0 0 0 0 0 0 0 0 127 0" result="hardAlpha"/>
<feOffset dy="4"/>
<feGaussianBlur stdDeviation="2"/>
<feComposite in2="hardAlpha" operator="arithmetic" k2="-1" k3="1"/>
<feColorMatrix type="matrix" values="0 0 0 0 0 0 0 0 0 0 0 0 0 0 0 0 0 0 0.55 0"/>
<feBlend mode="overlay" in2="shape" result="effect1_innerShadow_1058_316"/>
</filter>
<filter id="filter1_d_1058_316" x="68.4863" y="41.584" width="43.4336" height="46.207" filterUnits="userSpaceOnUse" color-interpolation-filters="sRGB">
<feFlood flood-opacity="0" result="BackgroundImageFix"/>
<feColorMatrix in="SourceAlpha" type="matrix" values="0 0 0 0 0 0 0 0 0 0 0 0 0 0 0 0 0 0 127 0" result="hardAlpha"/>
<feOffset dy="4"/>
<feGaussianBlur stdDeviation="2"/>
<feComposite in2="hardAlpha" operator="out"/>
<feColorMatrix type="matrix" values="0 0 0 0 0.0509804 0 0 0 0 0.105882 0 0 0 0 0.172549 0 0 0 0.5 0"/>
<feBlend mode="normal" in2="BackgroundImageFix" result="effect1_dropShadow_1058_316"/>
<feBlend mode="normal" in="SourceGraphic" in2="effect1_dropShadow_1058_316" result="shape"/>
</filter>
<filter id="filter2_d_1058_316" x="91.123" y="47.4707" width="15.7148" height="19.2324" filterUnits="userSpaceOnUse" color-interpolation-filters="sRGB">
<feFlood flood-opacity="0" result="BackgroundImageFix"/>
<feColorMatrix in="SourceAlpha" type="matrix" values="0 0 0 0 0 0 0 0 0 0 0 0 0 0 0 0 0 0 127 0" result="hardAlpha"/>
<feOffset dy="4"/>
<feGaussianBlur stdDeviation="2"/>
<feComposite in2="hardAlpha" operator="out"/>
<feColorMatrix type="matrix" values="0 0 0 0 0.0509804 0 0 0 0 0.105882 0 0 0 0 0.172549 0 0 0 0.1 0"/>
<feBlend mode="normal" in2="BackgroundImageFix" result="effect1_dropShadow_1058_316"/>
<feBlend mode="normal" in="SourceGraphic" in2="effect1_dropShadow_1058_316" result="shape"/>
</filter>
<filter id="filter3_d_1058_316" x="41.7832" y="58.3125" width="64.3418" height="27.4551" filterUnits="userSpaceOnUse" color-interpolation-filters="sRGB">
<feFlood flood-opacity="0" result="BackgroundImageFix"/>
<feColorMatrix in="SourceAlpha" type="matrix" values="0 0 0 0 0 0 0 0 0 0 0 0 0 0 0 0 0 0 127 0" result="hardAlpha"/>
<feOffset dy="2"/>
<feGaussianBlur stdDeviation="2"/>
<feComposite in2="hardAlpha" operator="out"/>
<feColorMatrix type="matrix" values="0 0 0 0 0.0509804 0 0 0 0 0.105882 0 0 0 0 0.172549 0 0 0 0.4 0"/>
<feBlend mode="normal" in2="BackgroundImageFix" result="effect1_dropShadow_1058_316"/>
<feBlend mode="normal" in="SourceGraphic" in2="effect1_dropShadow_1058_316" result="shape"/>
</filter>
<filter id="filter4_d_1058_316" x="8.20312" y="59.668" width="44.6094" height="25.873" filterUnits="userSpaceOnUse" color-interpolation-filters="sRGB">
<feFlood flood-opacity="0" result="BackgroundImageFix"/>
<feColorMatrix in="SourceAlpha" type="matrix" values="0 0 0 0 0 0 0 0 0 0 0 0 0 0 0 0 0 0 127 0" result="hardAlpha"/>
<feOffset dy="2"/>
<feGaussianBlur stdDeviation="2"/>
<feComposite in2="hardAlpha" operator="out"/>
<feColorMatrix type="matrix" values="0 0 0 0 0.0509804 0 0 0 0 0.105882 0 0 0 0 0.172549 0 0 0 0.3 0"/>
<feBlend mode="normal" in2="BackgroundImageFix" result="effect1_dropShadow_1058_316"/>
<feBlend mode="normal" in="SourceGraphic" in2="effect1_dropShadow_1058_316" result="shape"/>
</filter>
<filter id="filter5_i_1058_316" x="11.6211" y="41.0781" width="96.3457" height="42.875" filterUnits="userSpaceOnUse" color-interpolation-filters="sRGB">
<feFlood flood-opacity="0" result="BackgroundImageFix"/>
<feBlend mode="normal" in="SourceGraphic" in2="BackgroundImageFix" result="shape"/>
<feColorMatrix in="SourceAlpha" type="matrix" values="0 0 0 0 0 0 0 0 0 0 0 0 0 0 0 0 0 0 127 0" result="hardAlpha"/>
<feOffset dy="4"/>
<feGaussianBlur stdDeviation="2"/>
<feComposite in2="hardAlpha" operator="arithmetic" k2="-1" k3="1"/>
<feColorMatrix type="matrix" values="0 0 0 0 0 0 0 0 0 0 0 0 0 0 0 0 0 0 0.55 0"/>
<feBlend mode="overlay" in2="shape" result="effect1_innerShadow_1058_316"/>
</filter>
<filter id="filter6_d_1058_316" x="12.125" y="41.1855" width="66.9062" height="26.7266" filterUnits="userSpaceOnUse" color-interpolation-filters="sRGB">
<feFlood flood-opacity="0" result="BackgroundImageFix"/>
<feColorMatrix in="SourceAlpha" type="matrix" values="0 0 0 0 0 0 0 0 0 0 0 0 0 0 0 0 0 0 127 0" result="hardAlpha"/>
<feOffset dy="4"/>
<feGaussianBlur stdDeviation="2"/>
<feComposite in2="hardAlpha" operator="out"/>
<feColorMatrix type="matrix" values="0 0 0 0 0.0509804 0 0 0 0 0.105882 0 0 0 0 0.172549 0 0 0 0.5 0"/>
<feBlend mode="normal" in2="BackgroundImageFix" result="effect1_dropShadow_1058_316"/>
<feBlend mode="normal" in="SourceGraphic" in2="effect1_dropShadow_1058_316" result="shape"/>
</filter>
<filter id="filter7_d_1058_316" x="15.9922" y="66.5156" width="24.3047" height="16.2871" filterUnits="userSpaceOnUse" color-interpolation-filters="sRGB">
<feFlood flood-opacity="0" result="BackgroundImageFix"/>
<feColorMatrix in="SourceAlpha" type="matrix" values="0 0 0 0 0 0 0 0 0 0 0 0 0 0 0 0 0 0 127 0" result="hardAlpha"/>
<feOffset dy="2"/>
<feGaussianBlur stdDeviation="2"/>
<feComposite in2="hardAlpha" operator="out"/>
<feColorMatrix type="matrix" values="0 0 0 0 0.0509804 0 0 0 0 0.105882 0 0 0 0 0.172549 0 0 0 0.33 0"/>
<feBlend mode="normal" in2="BackgroundImageFix" result="effect1_dropShadow_1058_316"/>
<feBlend mode="normal" in="SourceGraphic" in2="effect1_dropShadow_1058_316" result="shape"/>
</filter>
<linearGradient id="paint0_linear_1058_316" x1="28.25" y1="27.75" x2="123.5" y2="125" gradientUnits="userSpaceOnUse">
<stop stop-color="#0D1B2C"/>
<stop offset="1" stop-color="#133661"/>
</linearGradient>
<linearGradient id="paint1_linear_1058_316" x1="59.7942" y1="41.0781" x2="59.7942" y2="79.9523" gradientUnits="userSpaceOnUse">
<stop stop-color="#91AFEF"/>
<stop offset="1" stop-color="#CDDDFF"/>
</linearGradient>
</defs>
</svg>
