<svg width="24" height="24" viewBox="0 0 24 24" fill="none" xmlns="http://www.w3.org/2000/svg">
<path d="M0 4.96C0 4.42981 0.424151 4 0.947368 4H23.0526C23.5758 4 24 4.42981 24 4.96C24 5.49019 23.5758 5.92 23.0526 5.92H0.947369C0.424152 5.92 0 5.49019 0 4.96Z" fill="#0A3D62"/>
<path d="M0 12C0 11.4698 0.424151 11.04 0.947368 11.04H23.0526C23.5758 11.04 24 11.4698 24 12C24 12.5302 23.5758 12.96 23.0526 12.96H0.947369C0.424152 12.96 0 12.5302 0 12Z" fill="#0A3D62"/>
<path d="M0 19.04C0 18.5098 0.424151 18.08 0.947368 18.08H23.0526C23.5758 18.08 24 18.5098 24 19.04C24 19.5702 23.5758 20 23.0526 20H0.947369C0.424152 20 0 19.5702 0 19.04Z" fill="#0A3D62"/>
</svg>
