<svg width="120" height="36" viewBox="0 0 120 36" fill="none" xmlns="http://www.w3.org/2000/svg">
<path d="M66.0057 7.25C65.1263 7.25 64.4131 7.96323 64.4131 8.84262V25.7642C64.4131 26.6436 65.1263 27.3569 66.0057 27.3569C66.8851 27.3569 67.5983 26.6436 67.5983 25.7642V8.84262C67.5983 7.96323 66.8851 7.25 66.0057 7.25Z" fill="#003960"/>
<path d="M54.457 12.2637C52.3644 12.2637 50.5648 13.06 49.2685 14.3563V14.0334C49.2685 13.2512 48.6352 12.6179 47.853 12.6179C47.0708 12.6179 46.4375 13.2512 46.4375 14.0334V30.2324C46.4375 31.1196 47.157 31.8391 48.0442 31.8391C48.9315 31.8391 49.651 31.1196 49.651 30.2324V25.9436C50.8893 27.0346 52.5399 27.7118 54.457 27.7118C58.8195 27.7118 61.8558 24.2914 61.8558 19.9885C61.8558 15.6856 58.7897 12.2652 54.457 12.2652V12.2637ZM54.015 24.9106C51.4803 24.9106 49.4158 23.2004 49.4158 19.9869C49.4158 16.7735 51.5085 15.0633 54.015 15.0633C56.8444 15.0633 58.6439 17.2735 58.6439 19.9869C58.6439 22.7004 56.846 24.9106 54.015 24.9106Z" fill="#003960"/>
<path d="M94.5472 12.2637C92.395 12.2637 90.7741 13.1775 89.7411 14.5335V14.0319C89.7411 13.2497 89.1078 12.6164 88.3256 12.6164C87.5434 12.6164 86.9102 13.2497 86.9102 14.0319V25.7351C86.9102 26.6302 87.6359 27.356 88.531 27.356C89.4261 27.356 90.1518 26.6302 90.1518 25.7351V18.7486C90.1518 16.5086 91.6849 15.0335 93.8371 15.0335C95.9893 15.0335 97.4048 16.507 97.4048 18.7486V25.7351C97.4048 26.6302 98.1306 27.356 99.0257 27.356C99.9207 27.356 100.647 26.6302 100.647 25.7351V18.4837C100.647 14.8282 98.2591 12.2637 94.5441 12.2637H94.5472Z" fill="#003960"/>
<path d="M115.198 24.9334L110.699 19.2197L115.14 14.5406C115.662 13.9763 115.627 13.0938 115.063 12.5718C114.499 12.0498 113.616 12.0843 113.094 12.6486L106.689 19.5427V8.85673C106.689 7.9695 105.97 7.25 105.082 7.25C104.195 7.25 103.476 7.9695 103.476 8.85673V25.7486C103.476 26.6358 104.195 27.3553 105.082 27.3553C105.97 27.3553 106.689 26.6358 106.689 25.7486V22.6981L108.34 20.9581L112.81 26.7675C113.317 27.4274 114.262 27.5512 114.92 27.0433C115.58 26.537 115.704 25.5918 115.196 24.9334H115.198Z" fill="#003960"/>
<path d="M82.2766 12.6152C81.3893 12.6152 80.6698 13.3347 80.6698 14.222V21.2242C80.6698 23.4642 79.2841 24.9392 77.1319 24.9392C75.0972 24.9392 73.7711 23.494 73.7711 21.3715V14.222C73.7711 13.3347 73.0516 12.6152 72.1643 12.6152C71.2771 12.6152 70.5576 13.3347 70.5576 14.222V21.4891C70.5576 25.2324 72.945 27.7091 76.4829 27.7091C78.5458 27.7091 80.0789 26.8548 81.0523 25.5866V25.9409C81.0523 26.7231 81.6856 27.3564 82.4678 27.3564C83.25 27.3564 83.8833 26.7231 83.8833 25.9409V14.222C83.8833 13.3347 83.1638 12.6152 82.2766 12.6152Z" fill="#003960"/>
<path d="M36.309 14.0945C36.2604 12.2715 35.3481 10.5801 33.8605 9.5236C29.266 6.25998 24.5195 3.20954 19.635 0.387966C18.74 -0.129322 17.6348 -0.129322 16.7398 0.387966C11.8553 3.20954 7.10881 6.25998 2.51434 9.5236C1.02675 10.5801 0.114437 12.2715 0.0658436 14.0945C0.0219525 15.7311 0 17.3738 0 19.0213C0 22.6392 0.106596 26.232 0.316646 29.7966C0.487508 32.7044 2.79179 35.0353 5.69801 35.2328C9.36919 35.4837 13.0717 35.6232 16.8009 35.6498C17.152 35.6529 17.4389 35.3677 17.4389 35.015V28.008C17.4389 27.6992 17.2179 27.4343 16.9138 27.3842C14.8054 27.0377 12.9087 26.0627 11.4227 24.6582C10.8505 24.1033 10.3285 23.4747 9.87394 22.7803C8.12457 20.1045 7.7468 16.9553 8.57446 14.2168C8.82213 13.3986 9.62315 12.8734 10.4728 12.9753C13.3131 13.3155 16.0485 14.9222 17.7979 17.598C18.5033 18.6765 18.9861 19.8333 19.2557 21.009C19.6476 20.465 20.1163 19.9587 20.6586 19.5073C22.6008 17.8911 25.054 17.3378 27.2674 17.7892C27.8113 17.9005 28.2048 18.3771 28.2157 18.932C28.2534 20.9776 27.4429 23.0656 25.8472 24.6425C24.358 26.0565 22.455 27.0377 20.3389 27.3857C20.0347 27.4359 19.8137 27.7024 19.8137 28.0096V35.0087C19.8137 35.3614 20.1021 35.6467 20.4548 35.6435C23.8862 35.6012 27.294 35.4633 30.6768 35.2328C33.583 35.0353 35.8873 32.7044 36.0582 29.7966C36.2682 26.232 36.3748 22.6392 36.3748 19.0213C36.3748 17.3738 36.3529 15.7311 36.309 14.0945Z" fill="url(#paint0_linear_554_17519)"/>
<path d="M118.893 26.0443C119.065 25.9644 119.18 25.8029 119.18 25.5505C119.18 25.201 118.951 25.0176 118.64 25.0176H118.046C117.982 25.0176 117.929 25.0709 117.929 25.1351V26.6321C117.929 26.7105 117.991 26.7732 118.07 26.7732C118.148 26.7732 118.211 26.7105 118.211 26.6321V26.0898H118.607L118.924 26.698C118.959 26.7654 119.042 26.792 119.111 26.756C119.178 26.7215 119.205 26.6384 119.169 26.5694L118.894 26.0428L118.893 26.0443ZM118.565 25.8546H118.209V25.2527H118.565C118.742 25.2527 118.893 25.3327 118.893 25.5505C118.893 25.7684 118.744 25.8546 118.565 25.8546Z" fill="#003960"/>
<path d="M118.509 24.457C117.649 24.457 117.006 25.0888 117.006 25.9086C117.006 26.7284 117.649 27.3538 118.509 27.3538C119.37 27.3538 120.001 26.7221 120.001 25.9086C120.001 25.095 119.352 24.457 118.509 24.457ZM118.503 27.1704C117.763 27.1704 117.213 26.6312 117.213 25.9086C117.213 25.1859 117.763 24.6404 118.503 24.6404C119.243 24.6404 119.793 25.1859 119.793 25.9086C119.793 26.6312 119.243 27.1704 118.503 27.1704Z" fill="#003960"/>
<defs>
<linearGradient id="paint0_linear_554_17519" x1="15.4309" y1="-4.71125" x2="21.7105" y2="53.2721" gradientUnits="userSpaceOnUse">
<stop offset="0.22" stop-color="#43E7B0"/>
<stop offset="0.94" stop-color="#4386F5"/>
</linearGradient>
</defs>
</svg>
