<svg width="1078" height="192" viewBox="0 0 1078 192" fill="none" xmlns="http://www.w3.org/2000/svg">
<g filter="url(#filter0_ddd_313_5767)">
<rect x="8" y="7" width="1061.04" height="176" rx="24" fill="#F3F7FC"/>
<path d="M105 101.4C88.2105 101.4 74.6 87.7895 74.6 71C74.6 54.2105 88.2105 40.6 105 40.6C121.789 40.6 135.4 54.2105 135.4 71C135.4 87.7895 121.789 101.4 105 101.4Z" stroke="#002644" stroke-width="3.2"/>
<circle cx="105.5" cy="71" r="13.3333" transform="rotate(90 105.5 71)" fill="#002644"/>
<path d="M64.992 159L59.552 159L57.6 154.392L47.648 154.392L45.664 159L40.256 159L50.528 135.064L54.688 135.064L64.992 159ZM49.408 150.36L55.872 150.36L52.64 142.712L49.408 150.36ZM84.193 139.416L76.193 139.416L76.193 159L71.265 159L71.265 139.416L63.233 139.416L63.233 135.064L84.193 135.064L84.193 139.416ZM100.454 134.712C107.59 134.712 112.87 139.512 112.87 147.032C112.87 154.552 107.589 159.352 100.453 159.352C93.2535 159.352 88.0055 154.552 88.0055 147.032C88.0055 139.512 93.2535 134.712 100.454 134.712ZM100.454 139.096C96.0695 139.096 93.0295 142.072 93.0295 147.032C93.0295 151.96 96.0695 154.968 100.453 154.968C104.773 154.968 107.814 151.96 107.814 147.032C107.814 142.072 104.774 139.096 100.454 139.096ZM145.174 159L140.278 159L140.278 146.072L133.686 158.744L130.421 158.744L123.797 146.072L123.797 159L118.837 159L118.838 135.064L123.222 135.064L132.054 151.512L140.822 135.064L145.174 135.064L145.174 159ZM160.09 134.712C165.274 134.712 168.826 137.464 168.954 142.072L163.898 142.328C163.866 140.312 162.458 139 160.186 139C157.914 139 156.634 140.184 156.634 141.88C156.634 143.704 158.01 144.216 161.306 144.984C166.202 146.232 169.434 147.768 169.434 152.024C169.434 157.112 165.434 159.352 160.634 159.352C155.098 159.352 151.098 156.632 151.034 151.672L156.058 151.416C156.154 153.592 158.042 155.064 160.634 155.064C162.842 155.064 164.41 154.264 164.41 152.312C164.41 150.488 162.682 149.816 159.482 149.016C155.162 147.928 151.578 146.68 151.578 142.04C151.578 138.104 154.362 134.712 160.09 134.712Z" fill="#002644"/>
<path d="M219.141 83.6869C219.662 83.1662 220.507 83.1662 221.027 83.6869L231.369 94.0239C231.38 94.0346 231.392 94.0455 231.403 94.0567C231.664 94.3172 231.794 94.6586 231.794 95C231.794 95.3415 231.664 95.6829 231.403 95.9434C231.392 95.9546 231.38 95.9655 231.369 95.9761L221.027 106.313C220.507 106.834 219.662 106.834 219.141 106.313C218.62 105.792 218.62 104.948 219.141 104.428L227.239 96.3333H207.002C206.265 96.3333 205.668 95.7363 205.668 95C205.668 94.2636 206.265 93.6666 207.002 93.6666H227.239L219.141 85.5725C218.62 85.0518 218.62 84.2076 219.141 83.6869Z" fill="#406A88"/>
<ellipse cx="357.053" cy="89.4615" rx="7.17949" ry="7.17949" fill="#002644"/>
<circle cx="357.053" cy="89.4616" r="19.9385" stroke="#002644" stroke-width="3.2"/>
<ellipse cx="378.591" cy="52.5384" rx="7.17949" ry="7.17949" fill="#002644"/>
<circle cx="378.591" cy="52.5385" r="19.9385" stroke="#002644" stroke-width="3.2"/>
<ellipse cx="400.129" cy="89.4615" rx="7.17949" ry="7.17949" fill="#002644"/>
<circle cx="400.13" cy="89.4616" r="19.9385" stroke="#002644" stroke-width="3.2"/>
<path d="M295.75 159L290.854 159L290.854 146.072L284.262 158.744L280.998 158.744L274.374 146.072L274.374 159L269.414 159L269.414 135.064L273.798 135.064L282.63 151.512L291.398 135.064L295.75 135.064L295.75 159ZM314.186 134.712C321.322 134.712 326.602 139.512 326.602 147.032C326.602 154.552 321.322 159.352 314.186 159.352C306.986 159.352 301.738 154.552 301.738 147.032C301.738 139.512 306.986 134.712 314.186 134.712ZM314.186 139.096C309.802 139.096 306.762 142.072 306.762 147.032C306.762 151.96 309.802 154.968 314.186 154.968C318.506 154.968 321.546 151.96 321.546 147.032C321.546 142.072 318.506 139.096 314.186 139.096ZM337.53 154.616L347.962 154.616L347.962 159L332.57 159L332.57 135.064L337.53 135.064L337.53 154.616ZM368.837 139.416L358.437 139.416L358.437 144.6L367.461 144.6L367.461 148.856L358.437 148.856L358.437 154.616L368.869 154.616L368.869 159L353.477 159L353.477 135.064L368.837 135.064L368.837 139.416ZM386.055 134.712C391.847 134.712 396.551 138.168 397.415 143.832L392.263 144.28C391.591 140.888 389.191 139.096 385.895 139.096C381.703 139.096 378.919 142.168 378.919 147.032C378.919 152.216 381.991 154.968 385.927 154.968C389.191 154.968 391.623 153.208 392.263 149.88L397.447 150.328C396.519 155.928 391.879 159.352 386.087 159.352C379.079 159.352 373.895 154.744 373.895 147.032C373.895 139.288 379.047 134.712 386.055 134.712ZM423.388 135.064L423.388 149.272C423.388 155.672 419.484 159.352 413.212 159.352C406.876 159.352 403.004 155.672 403.004 149.272L403.004 135.064L407.932 135.064L407.932 149.208C407.932 152.952 409.756 154.968 413.212 154.968C416.604 154.968 418.46 152.952 418.46 149.208L418.46 135.064L423.388 135.064ZM434.999 154.616L445.431 154.616L445.431 159L430.039 159L430.039 135.064L434.999 135.064L434.999 154.616ZM466.305 139.416L455.905 139.416L455.905 144.6L464.929 144.6L464.929 148.856L455.905 148.856L455.905 154.616L466.337 154.616L466.337 159L450.945 159L450.945 135.064L466.305 135.064L466.305 139.416ZM480.291 134.712C485.475 134.712 489.027 137.464 489.155 142.072L484.099 142.328C484.067 140.312 482.659 139 480.387 139C478.115 139 476.835 140.184 476.835 141.88C476.835 143.704 478.211 144.216 481.507 144.984C486.403 146.232 489.635 147.768 489.635 152.024C489.635 157.112 485.635 159.352 480.835 159.352C475.299 159.352 471.299 156.632 471.235 151.672L476.259 151.416C476.355 153.592 478.243 155.064 480.835 155.064C483.043 155.064 484.611 154.264 484.611 152.312C484.611 150.488 482.883 149.816 479.683 149.016C475.363 147.928 471.779 146.68 471.779 142.04C471.779 138.104 474.563 134.712 480.291 134.712Z" fill="#002644"/>
<path d="M539.155 83.6869C539.676 83.1662 540.521 83.1662 541.042 83.6869L551.383 94.0239C551.395 94.0346 551.406 94.0455 551.417 94.0567C551.678 94.3172 551.808 94.6586 551.808 95C551.808 95.3415 551.678 95.6829 551.417 95.9434C551.406 95.9546 551.395 95.9655 551.383 95.9761L541.042 106.313C540.521 106.834 539.676 106.834 539.155 106.313C538.634 105.792 538.634 104.948 539.155 104.428L547.253 96.3333H527.016C526.279 96.3333 525.682 95.7363 525.682 95C525.682 94.2636 526.279 93.6666 527.016 93.6666H547.253L539.155 85.5725C538.634 85.0518 538.634 84.2076 539.155 83.6869Z" fill="#406A88"/>
<circle cx="665.529" cy="50.9999" r="6.66667" fill="#002644"/>
<circle cx="665.528" cy="51" r="18.6667" stroke="#002644" stroke-width="2.66667"/>
<circle cx="665.529" cy="91" r="6.66667" fill="#002644"/>
<circle cx="665.528" cy="90.9999" r="18.6667" stroke="#002644" stroke-width="2.66667"/>
<circle cx="705.529" cy="50.9996" r="6.66667" fill="#002644"/>
<circle cx="705.529" cy="50.9999" r="18.6667" stroke="#002644" stroke-width="2.66667"/>
<circle cx="705.529" cy="91" r="6.66667" fill="#002644"/>
<circle cx="705.529" cy="90.9999" r="18.6667" stroke="#002644" stroke-width="2.66667"/>
<circle cx="745.528" cy="50.9996" r="6.66667" fill="#002644"/>
<circle cx="745.528" cy="50.9999" r="18.6667" stroke="#002644" stroke-width="2.66667"/>
<circle cx="745.528" cy="91" r="6.66667" fill="#002644"/>
<circle cx="745.528" cy="90.9999" r="18.6667" stroke="#002644" stroke-width="2.66667"/>
<path d="M601.044 134.712C608.18 134.712 613.46 139.512 613.46 147.032C613.46 154.552 608.18 159.352 601.044 159.352C593.844 159.352 588.596 154.552 588.596 147.032C588.596 139.512 593.844 134.712 601.044 134.712ZM601.044 139.096C596.66 139.096 593.62 142.072 593.62 147.032C593.62 151.96 596.66 154.968 601.044 154.968C605.364 154.968 608.404 151.96 608.404 147.032C608.404 142.072 605.364 139.096 601.044 139.096ZM633.06 159L628.388 150.392L624.388 150.392L624.388 159L619.428 159L619.428 135.064L629.668 135.064C634.212 135.064 637.38 137.816 637.38 142.744C637.38 146.072 635.908 148.44 633.54 149.592L638.628 159L633.06 159ZM624.356 146.008L629.06 146.008C630.98 146.008 632.356 144.856 632.356 142.744C632.356 140.568 630.98 139.416 629.06 139.416L624.356 139.416L624.356 146.008ZM666.773 145.944L666.773 147.544C666.773 154.616 662.389 159.352 655.381 159.352C648.405 159.352 643.221 154.744 643.221 147.032C643.221 139.288 648.373 134.712 655.349 134.712C660.885 134.712 665.269 137.688 666.549 142.936L661.429 143.8C660.757 140.888 658.581 139.096 655.317 139.096C651.029 139.096 648.245 141.72 648.245 147.032C648.245 152.344 651.061 154.968 655.317 154.968C658.261 154.968 660.629 153.592 661.365 150.296L655.349 150.296L655.349 145.944L666.773 145.944ZM694.02 159L688.58 159L686.628 154.392L676.676 154.392L674.692 159L669.284 159L679.556 135.064L683.716 135.064L694.02 159ZM678.436 150.36L684.9 150.36L681.668 142.712L678.436 150.36ZM718.326 159L714.134 159L703.638 144.184L703.638 159L698.678 159L698.678 135.064L702.87 135.064L713.398 149.912L713.398 135.064L718.326 135.064L718.326 159ZM730.076 159L725.116 159L725.116 135.064L730.076 135.064L730.076 159ZM744.962 134.712C750.146 134.712 753.698 137.464 753.826 142.072L748.77 142.328C748.738 140.312 747.33 139 745.058 139C742.786 139 741.506 140.184 741.506 141.88C741.506 143.704 742.882 144.216 746.178 144.984C751.074 146.232 754.306 147.768 754.306 152.024C754.306 157.112 750.306 159.352 745.506 159.352C739.97 159.352 735.97 156.632 735.906 151.672L740.93 151.416C741.026 153.592 742.914 155.064 745.506 155.064C747.714 155.064 749.282 154.264 749.282 152.312C749.282 150.488 747.554 149.816 744.354 149.016C740.034 147.928 736.45 146.68 736.45 142.04C736.45 138.104 739.234 134.712 744.962 134.712ZM765.045 159L760.085 159L760.085 135.064L765.045 135.064L765.045 159ZM798.171 159L793.275 159L793.275 146.072L786.683 158.744L783.419 158.744L776.795 146.072L776.795 159L771.835 159L771.835 135.064L776.219 135.064L785.051 151.512L793.819 135.064L798.171 135.064L798.171 159ZM813.087 134.712C818.271 134.712 821.823 137.464 821.951 142.072L816.895 142.328C816.863 140.312 815.455 139 813.183 139C810.911 139 809.631 140.184 809.631 141.88C809.631 143.704 811.007 144.216 814.303 144.984C819.199 146.232 822.431 147.768 822.431 152.024C822.431 157.112 818.431 159.352 813.631 159.352C808.095 159.352 804.095 156.632 804.031 151.672L809.055 151.416C809.151 153.592 811.039 155.064 813.631 155.064C815.839 155.064 817.407 154.264 817.407 152.312C817.407 150.488 815.679 149.816 812.479 149.016C808.159 147.928 804.575 146.68 804.575 142.04C804.575 138.104 807.359 134.712 813.087 134.712Z" fill="#002644"/>
<path d="M872.169 83.6869C872.69 83.1662 873.535 83.1662 874.056 83.6869L884.397 94.0239C884.409 94.0346 884.42 94.0455 884.431 94.0567C884.692 94.3172 884.822 94.6586 884.822 95C884.822 95.3415 884.692 95.6829 884.431 95.9434C884.42 95.9546 884.409 95.9655 884.397 95.9761L874.056 106.313C873.535 106.834 872.69 106.834 872.169 106.313C871.648 105.792 871.648 104.948 872.169 104.428L880.267 96.3333H860.03C859.293 96.3333 858.696 95.7363 858.696 95C858.696 94.2636 859.293 93.6666 860.03 93.6666H880.267L872.169 85.5725C871.648 85.0518 871.648 84.2076 872.169 83.6869Z" fill="#406A88"/>
<path d="M987.586 46.6522V48.0435H988.977H1008.46V109.609H948.629V32.3913H987.586V46.6522ZM990.368 45.2609V33.7826L1005.67 45.2609H990.368Z" fill="#AAD0FF" stroke="white" stroke-width="2.78261"/>
<path d="M922.442 135.064L932.81 135.064C937.354 135.064 940.522 137.848 940.522 142.776C940.522 147.704 937.354 150.488 932.81 150.488L927.402 150.488L927.402 159L922.442 159L922.442 135.064ZM927.37 139.416L927.37 146.104L932.17 146.104C934.09 146.104 935.498 144.952 935.498 142.776C935.498 140.6 934.09 139.416 932.17 139.416L927.37 139.416ZM965.003 159L959.563 159L957.611 154.392L947.659 154.392L945.675 159L940.267 159L950.539 135.064L954.699 135.064L965.003 159ZM949.419 150.36L955.883 150.36L952.651 142.712L949.419 150.36ZM990.943 145.944L990.943 147.544C990.943 154.616 986.559 159.352 979.551 159.352C972.575 159.352 967.391 154.744 967.391 147.032C967.391 139.288 972.543 134.712 979.519 134.712C985.055 134.712 989.439 137.688 990.719 142.936L985.599 143.8C984.927 140.888 982.751 139.096 979.487 139.096C975.199 139.096 972.415 141.72 972.415 147.032C972.415 152.344 975.231 154.968 979.487 154.968C982.431 154.968 984.799 153.592 985.535 150.296L979.519 150.296L979.519 145.944L990.943 145.944ZM1012.27 139.416L1001.87 139.416L1001.87 144.6L1010.89 144.6L1010.89 148.856L1001.87 148.856L1001.87 154.616L1012.3 154.616L1012.3 159L996.911 159L996.911 135.064L1012.27 135.064L1012.27 139.416ZM1026.26 134.712C1031.44 134.712 1034.99 137.464 1035.12 142.072L1030.06 142.328C1030.03 140.312 1028.62 139 1026.35 139C1024.08 139 1022.8 140.184 1022.8 141.88C1022.8 143.704 1024.18 144.216 1027.47 144.984C1032.37 146.232 1035.6 147.768 1035.6 152.024C1035.6 157.112 1031.6 159.352 1026.8 159.352C1021.26 159.352 1017.26 156.632 1017.2 151.672L1022.22 151.416C1022.32 153.592 1024.21 155.064 1026.8 155.064C1029.01 155.064 1030.58 154.264 1030.58 152.312C1030.58 150.488 1028.85 149.816 1025.65 149.016C1021.33 147.928 1017.74 146.68 1017.74 142.04C1017.74 138.104 1020.53 134.712 1026.26 134.712Z" fill="#002644"/>
</g>
<defs>
<filter id="filter0_ddd_313_5767" x="0" y="0" width="1077.04" height="192" filterUnits="userSpaceOnUse" color-interpolation-filters="sRGB">
<feFlood flood-opacity="0" result="BackgroundImageFix"/>
<feColorMatrix in="SourceAlpha" type="matrix" values="0 0 0 0 0 0 0 0 0 0 0 0 0 0 0 0 0 0 127 0" result="hardAlpha"/>
<feOffset dy="1"/>
<feGaussianBlur stdDeviation="4"/>
<feColorMatrix type="matrix" values="0 0 0 0 0.505882 0 0 0 0 0.505882 0 0 0 0 0.505882 0 0 0 0.2 0"/>
<feBlend mode="normal" in2="BackgroundImageFix" result="effect1_dropShadow_313_5767"/>
<feColorMatrix in="SourceAlpha" type="matrix" values="0 0 0 0 0 0 0 0 0 0 0 0 0 0 0 0 0 0 127 0" result="hardAlpha"/>
<feOffset dy="3"/>
<feGaussianBlur stdDeviation="1.5"/>
<feColorMatrix type="matrix" values="0 0 0 0 0.505882 0 0 0 0 0.505882 0 0 0 0 0.505882 0 0 0 0.12 0"/>
<feBlend mode="normal" in2="effect1_dropShadow_313_5767" result="effect2_dropShadow_313_5767"/>
<feColorMatrix in="SourceAlpha" type="matrix" values="0 0 0 0 0 0 0 0 0 0 0 0 0 0 0 0 0 0 127 0" result="hardAlpha"/>
<feOffset dy="3"/>
<feGaussianBlur stdDeviation="2"/>
<feColorMatrix type="matrix" values="0 0 0 0 0.505882 0 0 0 0 0.505882 0 0 0 0 0.505882 0 0 0 0.14 0"/>
<feBlend mode="normal" in2="effect2_dropShadow_313_5767" result="effect3_dropShadow_313_5767"/>
<feBlend mode="normal" in="SourceGraphic" in2="effect3_dropShadow_313_5767" result="shape"/>
</filter>
</defs>
</svg>
